<mxfile host="Electron" modified="2024-02-23T09:23:52.017Z" agent="Mozilla/5.0 (Macintosh; Intel Mac OS X 10_15_7) AppleWebKit/537.36 (KHTML, like Gecko) draw.io/23.1.5 Chrome/120.0.6099.109 Electron/28.1.0 Safari/537.36" etag="xfSFvzai-CG7mbuFxL7H" version="23.1.5" type="device">
  <diagram name="페이지-1" id="9WY8UJ0iFqaMdSaPif2A">
    <mxGraphModel dx="2049" dy="1220" grid="1" gridSize="10" guides="1" tooltips="1" connect="1" arrows="1" fold="1" page="1" pageScale="1" pageWidth="1600" pageHeight="900" math="0" shadow="0">
      <root>
        <mxCell id="0" />
        <mxCell id="1" parent="0" />
        <mxCell id="QN9bb88zZrYBiZYA_DO9-2" value="" style="shape=image;verticalLabelPosition=bottom;labelBackgroundColor=default;verticalAlign=top;aspect=fixed;imageAspect=0;image=data:image/png,iVBORw0KGgoAAAANSUhEUgAABkAAAADVCAIAAACAFas6AAABXmlDQ1BJQ0MgUHJvZmlsZQAAKJF1kDFLw1AUhU9qpSgFO0hRcAgoLlapaQfXNhYVOpRqRd2StKZCmj6SFHFz0L2gi5vUxV+gi4i/wAqCg4i4CO5iRTTE+1q1reJ7XM7H4d7L4QK+oMKY4QdQMh0rO5cUV1bXxMATfAijDyFMKJrNEplMmlrwrd2vcQOB6/Uk3zU8+nhulGKuKC9f1l/Db3/7u15/vmBrpB9UcY1ZDiBEiTObDuO8TTxoUSjifc56i485qy0+a/YsZWXiK+KQVlTyxA/EEbXD1zu4ZFS0rww8fbBg5hZJh6hGMIsU0vRF5CAhTjWNeaT+mYk3Z2SUwbAFCxvQUYRD0wlyGAwUiBdgQsMUIsQSonwvv/XvG7a9cg2YeQF6qm1PPQBOdynmbdsbOwQGdoCTOlMs5eeyQsNvr8ekFgeTQO+95z2PA4E9wK163nvN89wj2n8HXJifMtJk/NOZ84kAAAA4ZVhJZk1NACoAAAAIAAGHaQAEAAAAAQAAABoAAAAAAAKgAgAEAAAAAQAABkCgAwAEAAAAAQAAANUAAAAAcgN0bwAAQABJREFUeAHsnQd4VEXbhgkECL2DggUVQRR7xV4Re++9fNj97L2gYhd7771hQcWu2Dv2CioWRECldwjkv+Hlf51vzu4mJJtkd3n24uKanZ0zZ+Y+U9555p2TorKysjr6iIAIiIAIiIAIiIAIiIAIiIAIiIAIiIAIiECuEqibqwVTuURABERABERABERABERABERABERABERABERgHgEJWGoHIiACIiACIiACIiACIiACIiACIiACIiACOU1AAlZOPx4VTgREQAREQAREQAREQAREQAREQAREQAREoDhHEEyYMGH8+PF6IVeOPI4MxSgqKmrVqlXLli09jZ6do1Cg4AlE7T9fGn9U7IJ/TKqgCIiACIiACIiACIiACIhA4RHIFQEL9apDhw7FxblSnsJ70tmqUWlp6ZgxY0IBi2e35JJL6tlli7DyyWUCtP8RI0Z4+8+XgSvZbXMZssomAiIgAiIgAiIgAiIgAiIgAkkCuXKEEN8rKSDJx5ODMTymyFFOzy4HH5OKVE0EovafL40/KnY1wVG2IiACIiACIiACIiACIiACIlB9BHJFwKq+GipnERABERABERABERABERABERABERABERCBvCYgASuvH58KLwIiIAIiIAIiIAIiIAIiIAIiIAIiIAKFT0ACVuE/Y9VQBERABERABERABERABERABERABERABPKagASsvH58KrwIiIAIiIAIiIAIiIAIiIAIiIAIiIAIFD4BCViF/4xVQxEQAREQAREQAREQAREQAREQAREQARHIawLFeV16FV4EREAEcpbA3Llz/xoz5ufhwydMmFBSUtKZz9JL1yvWqJuzT0wFEwEREAEREAEREAEREAERyF0C9fr27ZsLpRs/fnzz5s0rUZJbbrmlUaNG7du3t2t/+OGHSZMmtWrViq+DBg1q06bNY489xjKyY8eOUeZEfvXVV4sttpjFl5WVHXfccRtvvHGDBg3mzP+QgA/xI0aM+OCDD5Zffvljjz12iy224A/SR1ktal+dsFWcZ2fA03EoLS0FY926deFKeObMmX/88QeXQJXnQjwXEj9x4kSAw9/yIc3YsWMz52wpf/vtN65t2bIlX6dNm/bLL79wYfShJVji5P9Tp0599913l1lmmeRPlIecqSACxOzZsymblTaZsiox3KWoqMhz+Prrr7kRrdpjCBi6evXqhZEpw5MnT/7++++9YXua6dOn03TDG/lP6QILCxaS48aNGzVq1OjRo2kkZItqk/KOFIbElMd4QuD999/v1KkTX2fNmjVjxgxo28fKnKwUvZKG1KRJE+4CHNrSEksskfJeY8aMIU+eI6Vq3bp1WNn5HX1ORaiGV4UNPsPARaW++/bbBx966MEHH3zqqafee++9X3/9tX79+qhYKVsRhaSZQYYPZSYlzYDGfOutt2600UZegC+++ILhjpp++umn9BEo3X333T179vQE6QJRt02XTPEiIAIiIAIiIAIiIAIiIAIikJsE8kaL+eeff/bdd18gTpkyhf+bNm262267HXHEESzwVlllFYfLMrhZs2bLLrssMc8//3yXLl1Y4y233HKewAMoHUcdddQ777zjy9fPPvuM1SAJHn300fvuu498CG+66abrrrsuy+NtttmGBKx4PQcFKkgAHQRuXbt25SGiO/A4kBIQjNCYELbIhOX6559/3q5dO9bYYF999dV5KMgTCBnJW5Dbzz//zNqeDE24JKXlQ2L0jkgJRRpjzU/iKKvXXnvNYuwu/hUZpXv37vyEwkJzIjdENPQCSkshV1ttNcoZZYXkRBm4NSIaSpm1HNJYPNc2bNiQ+MUXXzy6EFWFNMgWCDErrrhihw4dSEALt3YYJv7www/RSrbffvsw8vfff0eE5b4WufLKK1N4UJMyTGbh119/fbPNNjPFJ/krMVUEi271zTffoPMaLlQYvi49/xPeDlnnyy+/NN2H9mBl5vER443hzz//tEv+/vvvTTbZhBqhi/EhkssRegiQBs72rGktfrlf+NFHHxku8MKfNHR5+5X/GRaGDRtGgHhoL7nkkowVhD1B1QP4Xj319NOvvvrqppttusbqa1DCe+65h6aOaLtyMGT5jX766Se0Kvs6ZMiQffbZB0mdxvntt996GlAcffTRb7zxBjX68ccfadsQGDp0qCdQQAREQAREQAREQAREQAREQAQKlUDeCFht27Z95ZVXeAzrr7/+SSedtPvuu0ePBH8rhKfhw4cT/8wzz/Tp0ydKEH211SzLbBaBCCIsjMMEB8z/WMzHH3/MMhKFIkyg8EIRYPVu7jx2FetwPp4DIs4666yDdwxPAa2QBTlSzl9//eVKkKdE8kB3WG+99XgcLPLxmGvcuLH/SgB1Az+XMMa1rTCS8JZbbkkbIEMEI67C4wlVFMclVzGQh/iKwuIXmuqRFLBQJRBq0IYQuVBtKB7NlauIx90GVQsHIlQb7kIyz80qu+qqq3IXRBY8dPDvixyvPLGpNv7VAlRtqaWWCgXcKIF/RYwjzP/pBKyqgwUjZKigu0HRs9ArwypTBm4EDWQpOKNXvv3225Guh5bEx0pOp+YZoVVB0mK4xAQdWhTyFv8Tv8Yaa9iv/j+39nAywHNkoOAxWeMhMS3wu+++C5918qqFjRn+yy880169tj7o4IM6deo4c8askkYl/a/qP/iNN1IKWCiY119/PXehYeyyyy5bbbUVoJA4w/syXvGV54iARQA4KUXe8BKFRUAEREAEREAEREAEREAERKAwCOSNgGW4TXUyBw1kLDQR/D522mknft16663xlurVqxfrYRwZWOA9/vjjGR4Sx6z4FQcWnFZYZ0YpOZk4cOBAIvfcc098hThiZv5fUbJ8/4qXyv33348/lFcEMeXAAw/E6cxjshJA1ODjJ6fQa9566y3LmeU6i3ATVkhAAHEBTQExCEUpujuPG18qhC0+PDgkjEgf4UIayQYbbBBdmPyKgoZ6grMe+XBcC4UIlxbyX2uttSxxixYtOJGK4IKTCwVDNUD4sIOKydxIjDsYzjUkxlsKfz0TwviKmMWHy/EhCktLDPmYfIPXEuoPakVKAQshwxLzpHhA4d1R2VzCoKGi/ZnDUZiGMFXDUQvtj5L4UwjTVB0sJHFRxM+LR8Ozxq2JG/Xo0SO8C2GURx6rwbGHzoMIi4SaTAMgB7vQACJUoTERA38eLg8LmKTBr416JeUqGpVdTiCUSi0SjLgBuvRJDjQqnDGzK2BR5pEjR668co8l5h+NbNy4Ue+te/e7qF8ksFqRwv8ZuHjKtL1+/fqBIhRMkUFJiScgWieBe+d/wmsVFgEREAEREAEREAEREAEREIFCJZBPAhb+JnfddRdCFYtkFrGXX345q9NTTz3Vng0aBB/CLI9Z1XMijOV0useGIoDIxTut+vfvf9tttx1//PFkjgOXp+d0IT5Y9hUPLLx1LrzwQpy/PEFhBNZcc01gclDORBDeWEQMn6zXDt0BXyH8aHDJIXN0B97ag38NYcQLfuKUH/oLXjyIC+aIhLrh0oyXBwccf50ZQgnP0X+yAPoIAlZSkVx77bVJHyZGQ0F1QjNC66TlcC/uHnoDcSOkDeQGuwvtCokqVKDC3DzMm5iQWsiKzIlEPaFIFNsUIk9GAAEF5YXMKRhp0DtWWmmlMIGFEfI++eQTji4CBMHRztx5Mkj6VTw+HNlQdkyctTTcAt8iCgBV5A+ywueLlJ6DBaoIlvpyI84PUl9I8kxdiUNQC1U/FDRcqDguBx8EaJQa4IcaE2HaQ7du3axgVIenSZ48C4tBy6PFciEpyYqhwOQwnhSITOAzSQt9kxdFEY50NG7NTzxrF874WpG3rUXQMn8FMm3mz1F/0iAJkJi2TS2sYaS8FoyMQm+++eaNN94ItJ133plHefHFF1tiUFxxxRUnn3wyQx+qK5EcJ0Rvveaaa1LmpkgREAEREAEREAEREAEREAERKCQCeSNgsYy/+eabcTC54447cCc55ZRTeEfMIYccEi7F7c1B/MphtA033DAUpMJnxnr+kksuQZPCqQrx4rDDDjv//PN575KnwTEHDYLVPuIC79hCzPKfCizAcprasa4ePHgwVeNEHl9dKchWZdEXeCioFSgOpi9EOaMvIGzhWIfqwfuqXfuIkvGV5+XvhyLAm7DCNEgbCJHuQhX9RFMxidPjkXuQV6g+T5kwH/MJIgFZWf68GsnTEzAxK1Rkwl8JU1mUKRewaEXEoE9xd7SbMDHxnH3DEw0RCh0NDyaTOTwNwgeXkxXqlXHj1BsxqD/IWDRyZB36BR9qjVMS58uID3sE3kyQ51rkQurO7fiKtosMF3kbVREsAlB02M1rgUgU4uLh0szwZcM7Cd8iPy3o6XkcqGnUiNbCI6A10lV5TLgdWRo7lmgvNYMG6U3NQc7mKktjTpqEe/fuzaDhmVuAc51IYC+88AIPl+KZxx+nGqNkVfwKZLTgRx5+pOPiHXEO/fGnH88+62xkMh5iypwfeughXr236667cpAwJGaJaXh77733QQcdxLv/OGB79tlnb7vttjy1lFkpUgREQAREQAREQAREQAREQAQKj0DeCFisZlnhn3baaazZeOnPgAEDfI3qT+XZZ5/l6BYLeF5yjLyFp4n/FAZYCh555JEoXESyGkQdiJwvcHNgNY6+wGKbE0x4dtiJJHtxT5hVAYSp+5lnnonSQV3OOOOMCEVWKohewMezQhuyt5X7n41DREDEATJOWJ4MRxWXkzySx8G7sVBkkCrw54rUJQQdlA5PHAXI0AUs1BMeqyUwTQplx9OjZiKLWLxHeoCTa0l9wX+lFghPrsGhGeG3hRCDRoZoghbjh+O4BCcvUHAjaupl86xoyZx0gwxN0SK5LwIfvlrmTca1/ETm5Eni5LNDIYKVY4Qznk0IK5TQ72KBKoLlwfFcKFiULbfmKUeRCHwUmJI4JQpG7zYydFtaCDF8UK8sDWF3oIOws6L61je5BTkYKBoGWh46Ju8jQyyL7s5XLsdZDCEbnjQkMIb5J9NXLmaZzp133GEHCnPRRRedddZZ1AW9lVsTA38/wOiZo58yfNFO7GPxIOXV+4SpPu+AN6mOsQtFEs9QRkXik68A8zwVEAEREAEREAEREAEREAEREIGCIZA3AhYqwH777YcyxZoNFQAxgk/4GDh3w2FAXBhYKKJP+aI9TGNhe8ETbg78kTIWvWgExLvvBmFyxmUGWSe8Fn+N8GshhTlLddbZZ1Oj8ABddiuIoMBhrjBP9MdQykF7QlEKnyln7pAVzPPIL0QowWWJ84Y8INQKWoX/RACth+eOQ00YaWHekB1Gkq095TCSMEUiB1QGWgXaAafPwjcQRYlTfjURx9UWS0OGuBrxCio4RMoFagWabEpFjOpHFSQ3IqmmZctVCE+cMuPPJhKfLA+/JiORuvhE8VUHC7fwgZI/R954iEkBi5/wooKJd1J6H0/NnKp4LmhSpqiGhXS1CxGHN/2Thg/5c4QwTIY/Gr5aqFf4u6FCcmQyqetZeuKtddH2cHMLM8lKuF5x8RZbbolG+frgwda227ZtM2jQ8w888AD88Z+KGgmaGvIrf3kQNysvALIgHmR4iRJDxXm9GjKW/0qAJmrcwkiFRUAEREAEREAEREAEREAERKDwCOSNgGXoUT1QLsLHcMEFF6BYEcMamBfHmATDMUNcqOyvFoaJwzBvz9l88809hrX33Xff7UtKNIKrr77afyWAcIbgxf9hZMGEN6jm13uxYuctVCEuSHJuMdQNebI4RnkanmBSekD1wA8OHxYeOtJSUrXBHYlM8KrzfFjho50h8YTyCuIXXjC8K82TESAlCgKHziwS/QVpo4ICFmIK5Ue9QlzDt4hyes7UEZciBBqEKldh/FeuimqBJ47FUE0K4CmjgL2Ni8yRwFZYYQX/lTZsEi05o+B4fBRA/ArlwqqDpbTINOYDZffiWXDOMbqvfwU1cp59DZsBMVTB34FlCWgMuMjZ274oNn5VHFrkgeKLBFIenGfLVw7u2WlNc+YKGxXJ7LGioJGDeXES5tCiyYLoTZx15TmGTcgzX9gArZQ/OOh/c5ByLrPMsujs/JlUKpjuFkcccYTfiFozxPlXqhY+a+LxMkMR8wQKiIAIiIAIiIAIiIAIiIAIiEChEsgzAYulJst1js+Ez4OlOLqVHbSxeJbNfDKLTfaWq3C9zbWIGua0Qny4vOcnVuPhTRVeKAJoDdH7elB8ohxwTTJvOItHXUr5BJFaUjr1hLm5aw+R6R4czk2RfxNPn9efeT585U8Q2qEtj6QiUcOwn4YMGUIAtQulzKQli+ecFwHqjhhHuw1FNEvA+UHcf2iu9tX+56wZNJB1kpTCZB5GlAklM+LNxyrD5ZFmxCVVBIsaRfUr7g1En3W9mMKEfnPoPv6T1TFqCcAJITsHAvzEx2KgHb1WjHgeK3oigwYfOyXKEUI+FrYLk3Asvor/Uy+8R2kMo0aPilwLw5xxK/OveGB5mADPiGKHMSmd7MIECouACIiACIiACIiACIiACIhAYRDIMwGLg064JAwcODCkj5+FOV6FkYRxZEB9YL0Xre0tGb4bvAQn8sHhDcrpFoQshlmfJwWI6Kb6WnECrOSdJ2t7HhPv5A4vT/lYwwQWDlVIwmgWUT5+5i55bRQTqmxchdjhr8qylBQyKWChSkT52Nd08WFiGhWn3qK7oGfxl/gyaBxhDoR5J7qTtJ84Mkld6C9RyoX6ulBgeYL0puRZPBzKwnysAFQwVKyIxGcqqkJU1OSxR0/AheGD83gL0IrwaEOfsnGgXPUTaSydOhblXImv1IIXus+aPatJ4ybJy2HInzrlT6OGP6V7l5+lQeuM1M/wWoVFQAREQAREQAREQAREQAREoGAIFFWTr8HCAmI1W+7CcmHzVPpqIoBcwrvDPHOeXfjV4xUQgYIkEDb4PBq4om5bkI9GlRIBERABERABERABERABEShgAnULuG6qmgiIgAiIgAiIgAiIgAiIgAiIgAiIgAiIQAEQkIBVAA9RVRABERABERABERABERABERABERABERCBQiYgAauQn67qJgIiIAIiIAIiIAIiIAIiIAIiIAIiIAIFQEACVgE8RFVBBERABERABERABERABERABERABERABAqZgASsQn66qpsIiIAIiIAIiIAIiIAIiIAIiIAIiIAIFAABCVgF8BBruQpFRUWlpaW1XAjdXgRqhABNnQZfI7fSTURABERABERABERABERABERABP4lUPxvsFZDJoIUF+dKeWoVRk7fPLmAb9Wq1YgRI8rKynK63CqcCGSDACMVDd5zypeBK9ltvQoKiIAIiIAIiIAIiIAIiIAIiEBeECjKEd1hwoQJ48ePz5HC5MWTq61C2gK+ZcuWtVUA3VcEcodAvgxc6ra502ZUEhEQAREQAREQAREQAREQgcoRyBUBq3Kl11UiIAIiIAIiIAIiIAIiIAIiIAIiIAIiIAIFT0DvwCr4R6wKioAIiIAIiIAIiIAIiIAIiIAIiIAIiEB+E5CAld/PT6UXAREQAREQAREQAREQAREQAREQAREQgYInIAGr4B+xKigCIiACIiACIiACIiACIiACIiACIiAC+U1AAlZ+Pz+VXgREQAREQAREQAREQAREQAREQAREQAQKnoAErIJ/xKqgCIiACIiACIiACIiACIiACIiACIiACOQ3AQlY+f38VHoREAEREAEREAEREAEREAEREAEREAERKHgCxTlSw7tfmdp3wOSps8pypDw1WYwmDYr67tHs0F5N7KYTJkwYP358WdkigaKoqKhVq1YtW7Z04ItU9b3WCmSRQNSoar1FReXJYk2VlQiIgAiIgAiIgAiIwCJCoNZt2lrkHJnTeYciKj8k86sKyfLXYmPIFQFrkVWvePbIdlTfBSzUqw4dOhQX58qjqdbWWVpaOmbMmFDAWqSqX61sF9nMo0ZV6y0qKs8i+1xUcREQAREQAREQAREQgUoTqHWbttIlr/qFkTmddyii8gMkv6qQLH/Vn2mlc8iVI4SLpu+VP7aw+vheLSLqFdWnppGv2SJVfW8ACmSRQNSoar1FReXJYk2VlQiIgAiIgAiIgAiIwCJCoNZt2lrkHJnTeYciKj8k86sKyfLXYmPIFQGrFhHo1iIgAiIgAiIgAiIgAiIgAiIgAiIgAiIgArlMQAJWLj8dlU0EREAEREAEREAEREAEREAEREAEREAERKCOBCw1AhEQAREQAREQAREQAREQAREQAREQAREQgZwmIAErpx+PCicCIiACIiACIiACIiACIiACIiACIiACIiABS21ABERABERABERABERABERABERABERABEQgpwkU53TpVDgREAEREAEREAEREAEREAEREAEREIH0BObMmTNq1KjRo0ePGTOGVG3atOnSpUvbtm3TX6FfRCAvCRSyB1arRkWrdJqn0BXXrbP+cvX5//2L2zVtWPR+v7ZHbNbIHhdpDtm40QEbNCLeYvZZr+Sba9qnfJj81KnlPGJb92jw2AmtCIy4bbHFmy24kK8k2HmNhn7t7X1aPHHSvGTV/fn777/nzp0b3WX8+PEMZB752GOPjRs37o033nj++ec9srS09O233/avgwcPfuKJJ/yrB7777rsPP/zQvxIYPnw4WXkMd//pp59IQzx/E5T4YcOGXX311Z6g+gLTpk2bPXt2lD9lmDFjRhRJsiQlS/Ppp59+9tlnVD+EE11e7tfp06dPmjSp3GQVSfDyyy8/88wzGVLC9ocffrAEVIrnGH3CR+/5jB071sK0DdIPGjTojz/+CJsEWRHD46YulhKSRx111JQpUzyTZIDEDzzwAPF33333F198YQngH9GGPzdNXk7MBx98wE2ZdC+44IKUCSzy+uuv//bbbzMkqPpPkJ86darl8+uvv1500UXp8oQePO+55x4aT7o0ihcBERABERABERABEShIAiNHjvzPf/5TiaphpWMzc+GNN974ySefVCKH5CWzZs368IMPbrrxxn79Ljr99NNPPfXUCy+88NZbb2V1xk/J9OliEL9sDXLGGWewcrRk0SrDvtqKL10+GeKxnDHpPcFLL72EUe1fqylAmVMujipyuz///JP1ZoaUrH8rnXmGbFP+xEPx52IJWHOxsvtr/mfChAkLVZKFahspy1MrkfnngXXDwS0gddy9E8vltd+GjU7fvfmSR4xerl29585r2/HQ0d2WKG5UXKdD63qLtarH5Tuu1vDO41tPnjG3XlGdqw5rsddlY98cNrtV07ptW6TW9W48qtWgj6YfdPOErh2L1+8+T6hqXFJU0gABa55kw4cEc8vqDDx4lH1dvFW9ti3m3ahaPwwfO+2005NPPrn44ouHN9puu+0GDhzYvv0CMe6FF15Yb731WHKHIgvNneHp/ffftwvpD6bZh/kQRpxC5wp1InSKf/75Z7PNNrOUZELnWXvttR999NEOHTqceeaZ9PMff/wxyieLXxmGHnnkESrYoEED7tWyZcs+ffpssMEGdgt6L9X3elnk2Wefvdtuu6277ro///yzizJNmzbdZ599yKRu3br169d3OIykd9xxR1TgNdZY4/zzz48i/etJJ5305ZdfRjflVy5BoPFkFjjssMP22msvwg899FCoIVKLNddcE7bw5FcqctVVVxFAXKOo66yzTosWLZiTGCh9JB0wYMDDDz9s2dr/KEpdu3ZlUgwjkZN22GEH5KqGDRuecsop0HjzzTeXXHJJbxJcRVH52qlTJ2a7K664YrXVViMHKhU+emJoJ++88w6tzvKfOXMmAtYBBxzARL788stb5OGHH37OOeessMIK9pX/n3rqqYkTJ1JBwlSZWy+zzDL2K7fga6NGjbzN3HnnnZTEfmUe5XG0bt0aRcnVJfsp6/+joPHcV1ppJXLmEQwdOtRugXnx1Vdfgb24uHippZbaZJNN0DrZ10LvW2655bJeDGUoAiIgAiIgAiIgAiKQgwQQXHALoGBmwB9yyCFWSKzozp07T548+YYbbnjrrbeaNGnCumO//fbjV/ZozRXA9IX999//4osv5sLff/+9e/fuWakjO/E33Xzzb7/9tt322+2/3/4NGjZEJ2L1xw7xMUcfvV7PnvXqZVqTrr/++v379+/ZsydGPhXEyCdDs/+xh23NEpYT54mbb77ZVgph/HnnnRdpIlAisnfv3iQjZ8QgjHzCrGv4f++998bgZykRZpL1MEVikdKsWdO2bdtlzpxlNS5sLJB5fIstthiLJtJDwHblWSdi+RNjX1k8smhiacairNJyXobysDSjMJ6gpKSExT514b4eCT2eBd52FJUy2CVLL700qypPky5AViNGjGjVqhWLrHRpcjM+/wSsnXqWgLIiAhbJGtYvevS/LZs2+vcxd2pVr/7/99+++7YY8tPMbS+Zpy6/e1Hbe09sfdOgKVutXlJcF00q9adh/dTxHmuXPnx8y45tilfuXH/YyNQuJ56+6gFr2bS/SMCKcmbE/P7777/++mvatP+EVkuYXte4cWOLRE9BL0AQiTxOGY4ZZP1CFBYPk8m77777+uuv01V22WWXXr16HX/88f5rNQWYG6jRvffe26xZM27xyy+/nHXWWfTbDTfc0O9IAg8ToJfa4ILi8MorrzCGsjVhHjf40UT1RSjZYostjj766DCHoqK0DYNkIAoTe5ih5Nxzz91oo408JgxAbNttt7UY/H0igYbB/eCDD+ZXBCxqSjg5/TCpRPMKehBbLuFdPIwShFpnj4/Bl0dP8exXm1mRbxgWP/74Y+p+yy23+IVhgGH9/vvvdwEr/CkM0zBscrLI8HG89tpr4HUBK7zKwmijNpkBhAaJbJRMk/UYv6PnzCYGH4DQPLp163bXXXfxE9Je8+bNPY0CIiACIiACIiACIiACiwgBTPrVV1+dyt5333233XYbW7bsaPLVlhL9+vXjOAviFLY0wg2RW2+9NcakWfhEsgZBwMouKwx7TGvUq2OPOWarrXu1bNGS9QJ79t3Yz77ppucGDVq6c+clllgi800x71MmQDcxn6zwV9Z6JuKEkYSTLmksDxGtLBl7wMg9rA4422HKXQ1Y+MhwrBNZBrZrV456RSFZvJCS/Xg23Vlcs2YMV3/Y/yuuuCJPkzU1m/TVXXgIcy9fuYclcewIjigAULUYXDpY7VL4ighYNBI++AdwCRKY55n7gZpYFtYuhZmz69Svt8BDipK81q+dqxAtmhYN/nKBwPTDyNndl6q/76ZNlmhXzxOEJV976XmsVliygUXie/XPvf/j8dSt/QJhrOey9b/8ZfZfE+Yu37Ha8dLgEHEYCFhaM5jiQxSWOQyjzjLOMrQxznq8eQYhjmy//fYWyUbBMccc4wk8QDfAR8a/0ltcw2JoxjWJ8XrVVVdlXEZCQrT2lNURoD/jdoTTmalX3AIp5MADD8S9KBSwcKAN7454h8zvMebgg/yH+xiOP8cdd5z/ZAG8ydCkw0gcc6hpGONhRkbcc/gKUrYvPJ4AwhYlwfspjERyWnbZZYlBOnT1MDnWMDLapEhKbu3hMCs2WIYMGRLG+DwRRloY9cpH22+++cZEK2sSAGHjyER99hNIzxSbzKHiMYihIUDa3qabblrBy92tiZOSNO+aEYw++ugjivfss8/i6WblpMzbbLMNHoUIaia3MaXh6GdKaAXromQiIAIiIAIiIAIiIAKFQQC7nU3Z5557joMgp512Ggcj2ETfeOON0QKoIOcP2ANGdMCG3HzzzTmZgYCFeGSiFa4umOJZ58BZGW605ZZbbr7FFm3bLHjpFWdiem299a+///bxRx+x3ilXwEopSFFUNBTzmQqLTe3Crx4OV4sWCQo3m1F/iMSohh4bwzXg+IN6xSqPLWoM+IqsT3myFJgFNctbVrtciH7ntbMADlkEUCTJkGM90a/Z/YpolWF1z70QnvDvo5y0KzhTNqqQwUUgLB4tllbBVaZhmQIbJsjZcLUrLNmqOScHzfeqccN57lS/39aB/5/5YEZmV6yZs8s48detQ733V13Q+LofM/rDKxecqnt5yIwDt2iCXFW/XtFO6zW+9fkpZz8++egtG5+3b+xe0a5J0SOntv7mt9ndl6jP268+Gjpr2owyDieOvW+BhsWbsJ47t83QP0rHTZ4z4Mw2fW4Yf/lzU5dbvLhajxDiPoOjDWMWh7PwCuFQGFpMOBawLcARQnwm8fCk3+JwxEkoPyVH+PHHH8f5CO0GgcBchBAdEJ5RNFwbgjPn0VBh0KGRwJDMUbi4C3KVPVwkj2uvvRY1BI2M43h0e1LaT9X0P3fk7oxH7nRG30MLN0nIb0r1PUyAOca/MiRRF9xlH3zwQU6ho1X5Tx5AN6Eu/pVAKMeE8Xg82VHzjh07nnDCCTwFhmaXyZGlOF6Hw1F4CV6p9pWDkOyZWJgqMMmFycKwu0qFkYSReNgucDcu+9VFsSgx/nG4mNqbzlZZZRUKBkZrEmzUcLCRvREmPI4EsnfELgpgn3766SiT5FdaBd7UL774YihRnXjiieERQhKETlhRJtdddx3CkImA4U+IaLvuumsYU01hMCLCIgTjd3bTTTeBghvRomgh4R2pAsrp7bffnvm9YOElCouACIiACIiACIiACBQGAd5DwjoCi5o11KuvvorNjInL0RCcANhNZwFlayiWRdQXozqsNSc/3FTmCB4mZQbLP7wwc5hNaDSII4880l8dY+nxx+naZfmHH3o45StiPE+TrvwoCesa3CPc0OVXFk1XXnllKOWstdZavtns+XiAa9lNZ/1IDJJKuA/NiUJeygFD1q0cPalW0cTUKxZQCGdJLwEvrQeoKZfYsUEiqW9SwCINME02ggDra1JyTtMzqYEA6z7epWPHBlmSs2JFTWP9zgKZBSCOZu6sUG5hSMlql0UriiT/54sfVt4IWOU+gGQC1KtGDYv+nu8nxaupkp+j7574z6Q5267dqHRunauenITklExjMZ9e3X7GrLLdLx+7QbcGvOiqScn/HCXjVfGvX9xu/OQ5u132z/gZdQac1OqeE1p1PXpMutyyEo8LEqe9EEoQj2i4OKlyqgtHqj322APhgFswLiAMI8fyvh6EFZw/zbnG7o5uwrDLYIT+zQB66aWXWltnxU76cHMAVQWfUpNy0SNw9nFZF/8dfFW4ow15jFaUhDSo71tttVVWqpkuE0Q3/GJ4FRflp8fySibkPDtt55fgDuZhAuZyRQBvKWQm1Bmca9gn4YXo8AlTEmbAomorr7xyGB8CtHg2NC677DIy5N1J5njFBHbJJZcw0KOX2auUoMRQ4rOCXcjQg7sTYRzZ2J/ZcccdLT7l8IrGxK9Ux8R+S+n/g53nFYl3/Ir25CKaJebp4AjGLRjKo59IwFND8sOLjSdOQ2Ibx29RkUA4OVl6DpaG+xJ4wCW3ZTxnRkxyoIQeQ4Dni7ZIUw8jqyOMmEt/oTHgz4zOCwdkTZ5LeC+byDFH0Ap33313pt7wV4VFQAREQAREQAREQAQKmwCvQEKoMiv6vffeu+aaa/ASwP2KD4a3LYUgQNj+wBGrKgeCWcurPPwPFrGE8Z8qHUBK4225+IJxR3bQWXTwolv3ZsDFhpdhmT6V4RZY/vzKhrq/kyRcVpAzvxITCljEhKvFKHPUEJZX9uYNlCyz/8mHrWK0HhZKrCXJbd999w3f5h5lUvNf7bHicWaLYg94SVhs4u5EyXGhoPos0PBgSq6APH01BVjgc1MeLk4q9nT8RsiFtuRkubewalSUleeZg4G8EbDwtDJnK/O9WuqI8uWhO96czj+Hzl8hHD66dHppne9/nz18zByLv+b5qVuu3mibi/6ZOGOBxDV0ZOmQYfEfazjk2vFv/jBrDi9o/2zmc31Gb9Wj4e4bzMth9pyyWXPqfDWy9Jz7Jtz2xoJ79X96crdOxU1Lit79bma75vO8Savjw6u+cSCyo17kT0879NBDd955Z/qV3Y63mCMZIFWYFwySCvEILub3yOIcLcP0AvoenjjoL+wD8H90So4xyN5Xx+UoMnxcZuamvBgefYEOz4fyIDcgzTB62qvHrSTV8T9SOs5iuH3x6nQ2AfCX6dGjh/nucju0c/ZAePtgeGveMW/bIPyP3gdAfmV4xaeGfLgW0d31I6rDyUrbPPFM2CXgnYv+lQDKFIMvU5cP4sxGaB/8sTxcmSwlDmtI9RxPM18ecyFGKDEBizSMg7ZXE+bsYUqFdxLyCmIQpSUQ6Wj4T6FO4rvE4+YqF92Q0rxUxHNVdCQQjydmOCYV9+1iOvn888/ZC/J2BQfaRjRjedkIcC0CIg0JNTA8yXjQQQcxgKID0hLYneCFWbSr5F4Nc6q9FAAsPNPwL/oxm/I6TDZnvDDhfbMb5vgtzdgOkLNbxZFPJi06i58l5HZAphbsbOC3GEml2S2MchMBERABERABERABEchBAixz2PW0gmHlsqkZ7pez5rK1FY4CaFWcZmDdZIkx4/EwYIsUO9PWYhzO4C3vVawjue29117YzIgp2Nv77LUXMZ4npcW0ZsWRQcvA4uXvPvXt25dlIK/RYCHDMRf0uGhTGXWM5QBrDdY+do6E3XcWm36vdAEWkvbaXNYUbADzOhQ7E4cDBGsH7GrWC9UknXAjmECGYxYE0H0oQ7pyEs+vpEGFhCEuTqxQ3BvLroIVJI0wARJHi7IMmWfxJ+5rTyfd2SDu5YvizPelmizzcfLAD6taveEyF2Nhf80bAWthK+bpf765Q0n9fxvr0BvneXI+/8kCsamkfh3+NOHxvZtMnblAwFpr+fprdY0PJ7/+/TxJ67hejU/cpVmz+a+EJ8fNVy3p++DEkRPm8hPqVaeWdV88r237FnWnTJ+LVH3hAS2mzCjb+/KxXpLsBkJp3HNGj+DjX1Ga+IR9jz88R3/jtGDo0cqGAIe3+XsZSAyMxX65BfizEbzXKXm2ixzMSYeui68pXdrSM64hB9Afkn96L8q5il/pushnjH2Ibn6e0fJkNMSNNl3+/Ip6xbaAn93zlH5aDdWGj8enCzA6hBqHJSOS03l+CRs1FsaRjWN6kWcTTwTNkQkGJYhX7iGaMNX5NIO4Zi67PAWQ4jiGYxeyjmdOgNOLfAjwp0YQziwcJgjDiGh4q3kMb7InHL6fC9mOWSTcFGIHiXeHubRHeoY5yoxERfEoNq5wnqEH3AWPIvGAolpDng9jJbMary2LGjOaHeXEwZDJMjp66flnN4AUC14OwEbZ+hlSSsu5Qja4eLj8IUV/V2KUXl9FQAREQAREQAREQAQKlQBrJT6cvWCbfNiwYWzEcpaChQ92rytH/KFq/nwTCwR22Y0D1j577WzKRvZw1SmxCltxpZWOOOKIBx588ID99+++0komqWDWTpg4YfDrr2PBslZK+RZd7k4ypCuEHgqGxEM+6EpRqdgO5wVbFsnBSV5f469wiVKm/Iox75v67N9z1IPNeFaLnhh3Ad5dk1xPeYKqBEzDQj3kkbFPH6lyyZxZ3nIYk9UNMhbnMc0Vy5OZwwGLNRYCrIwybPD7JVUJ4CJASXgzD0szFtp8xfEq1OBY0vIremgYyR0jQSBdGcgT9QonvvxSr6hO/glYvPcq3WNIGb/bJWP9zw5agqfPQWb6H8eo3TZsXIp71fxPi8b/ql1hhqhg5+3b4rXPpx99+8Tx08talBT1P7h5vwNbPvbBDL6S8uqDWzRvVNT92DH2lfRDrmh3xSEtN+v77x/sCzOsShgpBLfVdDkg//s4RSe0P/JqiXlhlosjFoNixd8cJIxfiUstUc700mioGjp0KPsPPgqjxyM6UCTrP9yCoYrxPconW1+pkUv1vHcJ3ce0fPJn8qATZtDOkGZMLsFFC+epsEi4j5nXJWez/bxhmMDCHNv0SHZd0J78axTgIB6OV15U5jOK6kMnVBnHL7/8csZB5gaGSH5C/Cbe38nFmAJMTquhm/DBzxYvKnR3vxFbCuRpX/mJ8rBnYl95FsnJAIUuelsWnkdRFXCkwiXVb5EMME+zS0N5GDcpMzJWlAaNzGvNAwKm+4LxgFD32JWi4SGtMhBT8ehvJpKerSReKJDhyGF0x6p/ZRMD17kwH+wS1EOLwWcYxdPeLEBpmdX4s5thYoVFQAREQAREQAREQAQKngBrflZAqFG4IKFoIGDxMmLem8GBCeqOw77pVrwByt7Gy0tLsH7ZBPVDEtlFhCHNYRQkIVZALrgMfPrpYT/9+Pyg54mktOmca0jPIUf2kpG90HfYP+bUSHiEBYuXrWgvMF9Z7rl9znIvXCFiupv9z1kcLHlfzuDowHEK/4PsCGoIfJ4nV9lpDI/JboBFIks/ljYzZkz3VVi6W7C0YRFNNU2iSpkMUSnKh6W3k095SeUiWSWxgLLFNQ+IW/Bh2RjmxgIchziK7ZEIguiS/jVDAAGLDy0kEgcyXJIjP+WfgJX5re1JrF/8ET/CuYkXYl3y+KTxU+Y5UvHpvUbJfpv/2wgskv9nl5bNmVu2VNvijbo1eG/YrCVb12vbtO7cuXU4k2ifn/4s3Xy1kj5bNh748Yw5c8p6rVbStnndL4fHpxE9wyoGUGHT5UBb9J84luVeRUS60EMY3QHfK8ZWjv7x3p+TTz6ZsQbdHVXF5QbLh0z4eJ4EGK/RsDwG9RelDH8ojyGAMs2+hO0DhPFVD//+++/eM3GHIUNkdcuW8ZFR1TWd5L2cGyhCGqSk1uaAhoDipyaTOYQxoPYMw3gPo4X5yXPGa6R6BnH7lUEf1IySfDx9FGDA9d0bfqLAkbMuWwrQsKuYQriFzzqQTwpYDHDhGMeFDMFWa781Tk/u8EykTz+egGKE05XHe4DG4A/I/p4u5bRfeUAIWKGfoF/lAQZi/iiBf62ZALhCLzNuGrou+kvKiMdE4BP2spopoe4iAiIgAiIgAiIgAiJQuwQQEVAWeH8u9qptxBLgBIOtetxstjeHUFSOdPCykWotM/pUJFH1veCCLl2WQzPaYfvtM7sU+JkJSshObbSFzw6uryxIwC4+77TyV6ywrglXBJj3Zh5zcIRs2er2Woe77/YmKf+JVRtI/Wt1BFjisTyM3JTS3YjEmdcpyG0sGZIr3KzXAoAht3QFpuGFqxL3IUiX3uMNC/97TL4Eqre55CaFqTPKps9e4G9VOqfO5GlzrzikRVjU0eMWiFlhJB5au/Qb2//QFjcf0wqXLt4QP2rc3D43jpvx/1nxFwxJv88mTThmSLYj/p7z6FvTTn5gUphJtsJ4i4SyVLpscYPEA6h///5hAh+ncCFBaMCNk7dHkYA/rMbgy7CLj2sGScWyoq2jTHu2CP+o0ewteIwFEF9CFSD6tdJf7TVSGS7nyFuGX9P9xBhhg1HoY5UuscVzOC5zApNvMqdJ/hopKckE7OSY+hbpWcmU5cZ4rS0lHmocReTjF6JLRkqf/2QBcmAbijBNwh53RU5fhpnQJpHVGHwzTxg0+5ocZJmHImsgLDNe1ohx/iDCnxQWAREQAREQAREQAREoSALIVSya8LTi1bTs17LHj/HMAsoWEbz9qtxaY1fzF7TQUzAjq2OhRAE44cEykKIiMIVCUrllw7i1xQuKDxdiCVf8zxb5GjPDXVgssHHuRxwsJScTM1ySlZ+qoi7BIZSr2Ptn2etb9VY8ljBVuUXF60hhQiWONSPndaLLaVdRTLqvNbmwSleGSsQXVVylq0TuFb+kzUELXj1e8UsKLOXY+xa3GvG2Kd6qXmC1y1AdfJ3sTN+iWf0MZPRTpQmEjSoXOlRYnkpXSheKgAiIgAiIgAiIgAgssgRywaatRfihOZ2PKMLygzHvqhCVvxZbQt1avLduLQIiIAIiIAIiIAIiIAIiIAIiIAIiIAIiIALlEpCAVS4iJRABERABERABERABERABERABERABERABEahNAhKwapO+7i0CIiACIiACIiACIiACIiACIiACIiACIlAuAQlY5SJSAhEQAREQAREQAREQAREQAREQAREQAREQgdokIAGrNunr3iIgAiIgAiIgAiIgAiIgAiIgAiIgAiIgAuUSkIBVLiIlEAEREAEREAEREAEREAEREAEREAEREAERqE0CuSJgNWlQVJsYavveYfWLiopKS0tru0Q1dH9qSn3Dmy1S1Q8rrnC2CESNqtZbVFSebFVT+YiACIiACIiACIiACCw6BGrdpq1F1JE5nXcoovJDMr+qkCx/LTaG4lq8d3jrvns06ztg8tRZZWHkIhJGvaL6XtlWrVqNGTOmrGyRQEHXpb5edwKLVPXDiiucLQJRo6r1FhWVJ1vVVD4iIAIiIAIiIAIiIAKLDoFat2lrEXVkTucdiqj8kMyvKiTLX5uNYRERSmoRsW4tAiIgAiIgAiIgAiIgAiIgAiIgAiIgAiJQFQK5coSwKnXQtSIgAiIgAiIgAiIgAiIgAiIgAiIgAiIgAgVMQAJWAT9cVU0EREAEREAEREAEREAEREAEREAEREAECoFArrwDa+rUqTWDs0mTJjV2r5qpke6SLQJqG9kiqXzynYD6Qr4/QZU/iwTUHaoOUwyrzrByOYh85biFV4lhSKNy4UJlqHpVrj0sClcVcNvIhccnD6xceAoqgwiIgAiIgAiIgAiIgAiIgAiIgAiIgAiIQFoCErDSotEPIiACIiACIiACIiACIiACIiACIiACIiACuUBAAlYuPAWVQQREQAREQAREQAREQAREQAREQAREQAREIC0BCVhp0egHERABERABERABERABERABERABERABERCBXCAgASsXnoLKIAIiIAIiIAIiIAIiIAIiIAIiIAIiIAIikJaABKy0aPSDCIiACIiACIiACIiACIiACIiACIiACIhALhCQgJULT0FlEAEREAEREAEREAEREAEREAEREAEREAERSEtAAlZaNPpBBERABERABERABERABERABERABERABEQgFwhIwMqFp6AyiIAIiIAIiIAIiIAIiIAIiIAIiIAIiIAIpCUgASstGv0gAiIgAiIgAiIgAiIgAiIgAiIgAiIgAiKQCwSKc6EQFSnDmDFjioqKMqcsKyvr0KFD5jT6VQREQAREQAREQAREQAREQAREQAREQAREIL8I5I2AVa9evaWXXjoz3N9++y1zAv0qAiIgAiIgAiIgAiIgAiIgAiIgAiIgAiKQdwTq9e3bNxcKPXv27MzFmDZtWsuWLTOnmThxYuPGjTOnadCgQbn3ypxD7v86Y8aMP/74w3A9//zzTZs2/fTTT3/44YcuXbpY4efOnfv+++8vtdRS9hXPteOPP37jjTcGDjFTpkz55ptvfv/9dy4sKSkh5scff7znnnvWX399S1+o/y8KbaO6nx19EK2ZD61ozpw533777YgRI0pLS++999711lvP7j527Njhw4fXr1+/UaNGFnPrrbfS0tq3b19u8a699trWrVu3adOGlF999dVrr7329f9+/v7772WXXbbcfJQgMwH1hcx8KvgrLb9u3X/P6b/yyiuMw127dg0vp5uMGzeu3JmLSxioTzjhhI022sgGas9k0qRJhIuLF2I7ikmQrLbYYgu7ioJ9+OGH/9uTvqbkFemSXowCDuRdd3jppZcYUR977LFmzZrZaJl8Oj/99BPDcs+ePZM/VUdMjTHEXLnvvvsy1CtlN6TK9FZMo+iD43+5vv/l4vr+++8ff/zxddZZx1LS+4YOHcpQQO9r3rw5kdYfN9tsM6bFcnNb2ATZJZ8LeMH166+/Ykhgo9oIdtNNN9HU27Vr53CefPJJ2IZ4fbjzNBUPZJdhxe8bpaSJfvbZZ4zV7777LsYV5tbiiy+OuUUyZoe//vpr6v9/Zs2ahX3Fpv7NN9/MlBHlUytfF5bhqFGjfv75ZwxIpkgetM+k48ePZ+yisvahxq1atVqoRcp///vfDTfcsGHDhik50LTuuOOODTbYIOWvycgK1otGS1G5KSMMTZfx+c4771x11VXvuusuH6VJ88svv0yYMIEYqy+Fuf3229MVJh0iK+Sbb7756quvrrnmmvaVrLC0qXiyCiljKliv5LU0USrIs/vggw9WWmmlZAJibMTzLsmERQMOp6q33noLwyY6UzVz/odr/UMheVgMm56Sxe+ff/75T/BhPUsCGwpSFsYjr7rqKvJhiWExGbqbX5I5UGmGGbLlodPa6fiWJqp+eCFLJLoPI+QVV1zB5BL+VMUw9apiDlm5fCFM3qzcT5nUAIFPPvnknHPOof9zr7fffnvJJZdkgWSLHLv79OnTzzrrLBb/bi3R0BkR+JUJ76STTkKrYpy98MILafcMQKRnVK2BkusW+U7gsssu23vvvZmVWTsxE6A7Mwe0aNGCAdeqxpLpueeeY05FVCXlHnvsQTytjkuiutMgGZpRYFdfffUjjzxyiSWWIAHtkDwtJdNMpFWxThg8eDCTYpSVvopA5Qi88MILDKeMk7S0FVdccZVVVrF8LJ4whiYbA717945m9MmTJ2MMYUG2bduWRr7XXnuxDMaqwwCLSvLll1+eeOKJNlz7T+wfHHDAAVjtFrPNNtsce+yxhL/44gsbqD0lgR122GGnnXZi3A4jwzC23A033DBkyBC6xjHHHGM2NGM+JqMlo3NRkfAS+h3JevToEUYqXK0EaDNXX301t2Bko7Ex7pkl7fFmprPVtPzyy4cl4Tky3g4YMIDGdtRRR6222mrvvPMO4iPjKhsJpHzkkUcefPBBC1ujuuiii7BrWWOE+eRjmGbMCpBXTOy22242mzBBuLly+umns3oJKw6olN2QjrnvvvtGBOg4119/vc1NdD1WWWEC1s/MYlHPZaZ7+umnuSMdijx5NGussQZToaOmeGeeeSaCNUMK+zEHHnggnZdsqQgr2zD/XAjnGl6YjBw58uSTT15uueUQbhBxsFEJszhHHQiJMfYSb2YDYKkIpghjWpgm78K0Z7rt1ltv3blzZxoSQ/p11113//33N2nShNox41gTovnxlX5BC3zvvfdY8bJ6J02+1BdhjtUH/RTNl0EPu46He/bZZ9umOw/9mmuu8QX5YostRldKuUhhbmXcu/LKK6k47QFcp5xyCmH6MnwIYGEOHDgwHB/QvvEA4BZZZ4Xoxu0Y4akLg9Ubb7xB2Q466CAfpb1hIz6OHj2alAiyFOa7775LFiYzohtvvJEKMhBxofWLI444gqwQzZNZVTGGNvbUU09ZJjROBmH6GjY/QxzDssWXa4F89NFHaG20ai/Mxx9/zALBLS6Lv+WWW3h2Nrwvs8wyRIIUgKFMhnMGo4HnQwBjZs8998TyCSMt/NBDD6EP+hhOzuEwkqG7JbOqsRimMJ6slzmsPg+CXmMlWXfddYcNG8YogdTFfkmNFa8mbyQBqyZp19C9kiuc6MZ4qRBjrxVj1PBlDJGDBg1iAGLgILzCCivQVZhIosv1VQQyEMBgYg8ECwCrnWTMB4yhlh6Ln1XWo48+inHPNtrOO++M8cFUx5Sz4447Rnmy6GIjBdc/FmPnn3/+bbfdxuwYpmGyobmGMUyTZBjGKCwCVSGA0ckyafPNN8cUYNm533772SqXeAxrGi1NlK1+FslsCYQ3YmmK3cAmATsHp512GrsI6TZRzeBApAglJNYhiBHkHOaZMmwrFu9iyTQM76gVa6+99nHHHYetxq5v0pLDWGSREF5LBdFBwhiFq5sACwz090svvZQ2g3mK6wQb5raGIZ7VKQWgpR1++OGsskJbH48MBklMeVojNjdjbFTUfeZ/MOtZL7F/YHv7LDOiZHn3lZ05euW5556LTkGAHhf5F1x++eVUqn///s8++yzLmAwVRNpIdjdEYbeOeIXFrrvuGubAghMBK4whzASE4cQdmbBYbjF6IETyXDwZ7gmI3ZdccgmK9nbbbceT4X//NacCOYgXPsUdIcoAAEAASURBVDRgJHuGYsI8U2zUcOxFKGS85SeMARxtGEUZeJMjXk5xrmBhcMxBgmHt6h4iVI2+z9C91lprMR8xdFhzZfS24YKcUWdQcGhmTAEVvFGtJ8NHEp0daZLuY4XBGmTQo6fbVx6ub3mGI2FUcmjgvWWRBGyuDNP8Z/4HbQsL08cHMg/TZDHMOMBdQokE3Y2P3YJxe5dddmGvi6+Ij1SfTSwGfFuvRcXIjIidKlQwrA7mlG7duuHthbBOO0mZVZTzwn7lRsxT2Bhc6F5yYSYVsUBIT/tE6/cLUz4F3MZJwG7cE088wV64JSZ/RByaQceOHYlBq7J4/5+21KlTJ/8aBkLHjjCecObuFiWuya+RsUf1sR5pVCjUr7/+Oo+e5055sBywWmuyYDV/r/9ZENb87XXH6iBg3i7sumDPMfyxbuEuhxxyiN+L5Qph2joLMNwH6AD+U+gtT3z41dMoIAIZCGBzoDRhTlkadpn4WJgpgVHVFup2xJWfunfvnjI3nFzw58KPgGUDu2SIYpGlggJLCz/44IPDyyORK/xJYRGoBAFMH06/8sEv9bDDDmM5ai2WtoeDEh92Glk5RDmzrkAtohfgFY9/FqfzUgpYGK/sn2NgoepiS4eZYMDhSGsxbCqQm20ah2kIswPB//jqow6nPPFHPqxn2M6lY/bp0wcJ4+ijj44yYYNuq622YhUUxmP1hl8VrhkC7DnTHnr16sXox1PzpkWrIx4rHzGLjfRwMGRlsu2227Ks5cN6FX89isomf1RgMwyQsSLH1ShZHn21bkXfpMx0H/zNIwHL6mIWPwutyE0yrCnr27vvvjuMIcy6yGM4psTHvxJgwcATCWMIM7sxJuAqgozFHjgrOpZVoYAV2lSYWMkcogxr8WsO4oUGJ+PY/TLrFIsiGqbwujIhcpNNNmH8ZFjjEpxEahFjtm6NybT//vujcbDBTKNi7kAhxYA3LxUaMGtXGp6JPv6GEBxVGEayVYaayYdew/Pl47ejdi5mWSQ+ShbApPRkyQCeSkx/xLs3UDKNdU8mSvZEkZ5ZOiXTZCsGAzUchdgPY8Q2NZYCMGLYjXh8GAbYHuxMmINYVIDMiBjh8TWjazC8IPhSKQwM9olTZhXlXLmv+AWnu7AiFgjXPvDAA9j5nglPwc9ceyQBWgX+6QR4aqZYmYLGU3Z9M0xPGNku3Sojg7dH5u4W3aLGvlJgc+ZlHjcbAI2S7RC2G3HGpBjMPtFLKmqsbDV/IwlYNc+8eu/ItiqbjZwj6Nev33nnnUdrZnCkb7vSjFHCVgb78GeccQbbUyyuQtWcrS1EbgYIBlmWRr6NU72FVu4FRIDlBJtj6E1WJ1yXWRjb2Mq0iiGCpwBHCHmJA40TV2cM+qRtgcXJBGbbJiTASmO7O1yzkTkv0mI7K9oDx8rxnZkCgqqq1D4BGiEtmU0tM4awGzAHaecvvvhiUpziCBi+7jRgVCd8LjbddNNkBWjhWB4oYuwu8BZCxmHWJ+EhF4Zxu4qVM3IGG8ihoyJdiTNN+OkwnnMvcmAXNDpcxuV0HNbSZv0z4FNmln/RcRJMWz6+5rGb0kltwzNZcsVUNwEaA88azxH3GkCF4cP0zezMAw0LgNcPx0xw5GEblhULbkccsQkTEGYhxz45h48YihHFKvLOtSiHHPzKCz5cjMMJK/IitAITiZqMsIU+hYAbWjthjeDMbgq9LOyAdAHPP0xsYUaA0GsymSCMYZ6iAGSIlwEKC15CSC2YWKjJrGkzrKPCTGo4nJt46RcYt7gUsT1AM85wRKAwdKvwoaPS0kpponxsuwITPRRE8Puzrs3swDjPtYgyjAynnnpqyjkozDx3wsj3dFumRfoLvYP9FYY+lydMv6Ca1JE+iLMqox+zc8ryo3PZATcaM4sj5uIoGfMj/ZFjvPip0ZaYTNkeqKaFD4ILIzD+Mj4+40/nDXjLLbdkcGYg4sNYTXlQcFigMShFZeZrZkRUAWJ4KpES+ZIBkP0MZo2kRp/MuXIxdk6TAkMba4RhzdohuZVrgbCzMt9FeJ/krbnWVgH2E+oVvldUjfETv0vGAYZ9+gIzmr2jmZqGuqddxZYP5JklkzKWKXoMv7bjzgTK8gRzDjcuZopyu1uywNUagzHJyh0gTGQco6ZhYO8h6Hv1UbUos/nOm/WIKx8ma7VqstVa5cyZS8DKzCfPfmWAxpGeZQwtmBULa5uoAozUDGG8uZ92zxiKME+/tU0qS4nzIcI/ghdd+tBDD7X33vE/WkOUlb6KQJIAkxbzCjs/GBbm+hemwRbhZausujlaxcYg/izhdnSY0qYT9hgtgPwa7VRj3/Bq0pRvJ2UOsz35MEOFRaDqBGi0rAcsH7Y0acbsLvI1ae8iPWBh0NTZ/WNDLFo8YHkz9iK/YufhXYWphOXKh/1Y7A9sVroP2XIOF5MFo4pMWLaFlhyGOG/nQYdikOdwE9ouR3HRmxj52XoNXUXoOPgpWJltnRypV/SXlCYyl2AHR1qJ5aP/a4CAnYamgdkgiT1Kq8DgxrUEITIsADHPPPMM4y3thIUKk7Vd62loLUz3rGOZ09kzYFOBBa3/mr8B9CMcD638rGoiXwzWgZwxZ0nP+SCYUGWsI3plyvrasoeu5H9axJLZBJTyEp5F+NbhlGnCSM7y4CJH/iiMDCOcHbZD9KThETOXRT4m4bW1Es5BvLbUxIKFHk+cpwNJG4RDRHZ2hoXr9ttvH8bnb5iujSuNld/e0GR+QyxoaYSs3tFD+ZUOjvWFRMJYwdBNT2dbAlEmnW6bm0BoeHjP8ViRn/CvwQefAc2rgEpiExn2JHVn7mNmpMopHZDpdHaklBMnDJts21Nl1B+rOIcHUXl4xSpvCUAF4HQ2/yOIVEdPNCXOHGOjAdwKg5HAZM10zN1xPvAzkimfUWZE4GIRh182c/3nn3+OPUwboDukzCorkQxl5MPj4HVUqG/hsFmuBcLkxVidshjYTm72MESzuLBtPwQpGgbNm3qFF6J1JgUszCoaDwpmJGDRZnjhCQ6MaKCoh5YPj4ZRmrbn7ydJ2d1q3i6iXkxetCK6BgYexh6SLqjD6iPncSTFykYL4QAW3Z9a48cXJiuYsASsgnmU8yrCtj/92QZH1kWMlYzaDOvubYuRhFxlshSvKGLT3hyweZMoo7axQDVIrsfS7W8UFD5VpsoEfJfMcuKVDcxMTGDuDEzbQwXgE76RgWbJgazw5sw3bL6xa82rOnkTB/n4cSpLhucLn/ASD3OtBCynoUAWCTCQrrzyypYhhgJbxFhRvCkWzejhhx92S4sEWNX83TGOINH4k4Y1Fio7sdjNNhSTHpvpggsuIL2Z6RigaFsIT6TEEGFdbUduvS7kz9uOsM4tPfH0FJYx7GFEKbFpsGXN356tUboeQ33om4BKlbT57EbsZ9S8oeZ1XMQD5kCBqWr6IzM7bQnDGuGSo0OhAsUqhRh2X2lOKZdGqDwoqjYq8tcAWCnRSBhX850wjZkNeXoi6yVeAxwdnUAVAhdbJnQWago37Hh03gy1Zv7CIsLuB6OJgKh+HM9MeYn7CKf8NYpkOnM/TUqLrObSm6dMt4rzBDUcyEG8OIoi2TAq2kYCoyhLWfM4cDioG6zreOc3r8diC4H9AP8pfwPonraLbK4uVhEP06ppVLjz0OZZ4hJm54NLmLAwvXyOyIvqs8VOB2R04hHTaygzdiD9kUmQ2rHxw2KE6TJ5LjKcf1PWFCC+zLEEDK0oVjZuYGEi9LMsMq+clDlUJRKnAX/NFvnQ2c3NB6HKp2zC6E02oNm9GP8ZgqL7louIWtAFcPA0lQfDgA9v10q3UxXlX4mv1M6vwuTgSYVfM1sgmE/sBfo2m18IjTBb8kSf5SnTwXEoRnPkxCVNnWT2vl0u5A0J7Habvun5EGBUj/btsHnYMmRs5+AtwhB2DsUmDUd0kbRoA5m7W5h5zYSpPpM+w511Z/o14x7GIa3XNyxN0vWvFIz1PtO9a981U9Qau4sErBpDXRM3ovky0NN7WU3xRy5sH4Ymjn+svX/UllL8XS2MAPqqGcd4aTIuuMMnc0Mk6+Ltwru0a6ICukf+E+ANa9GuCHWy7UGrHJskmP4YE15XDmHRFG2Z4ZF4HLDJQGK2pNhpCQdl0jAuszHCOURPbwGW3OnWG1FKfRWBhSKAgYVxaTuNfiHHN5BikV+RgSIDmtNevJSHTQJPHAawusKvFsZGtwAWLeYmr4Tg0CJ2lUWGMhOjNJ8oB6zzUBe2XzHdsM9QuzhFxelyDi1GV2EuY+lyIDeKR+9IWcgomb5WEwEGUmxoDPQwf+Z3O2kSRhLGqOXhYtCTgK9M7hgDnoY1PBY55q+teM00LwABCzWZ1SxeFQz79hp7rzIBW/CwGGa9h4WD6hE5QoaJ6cj+d51YMeKnFu2phIktDOrkm1/IBOWaU07o0ebyQC9mNzG6nMMvoVxFGF+hsINH6Wvlaw7ixdmQDzTQArAN/E+v8tfEDBGyL39AA2uWboIzCGdtEHHsxdi1wjBbN7VdQIQAJDnGajYksPOpIC+869mzp92FGcGsL9bwEEC9ZVmOS2+2ylAz+aAg0AHZFrr44ouZtrgpHouc5DVXZSsDgl00sdIY8IlOlpB43oZOPA44jBJRAmZzlD48NHHtYfYMXyIepczWV3TVUKnh7wyQs++KMQ5wRBTZzo+FsqdFU48GkIogMm+jl19+GVmT5Rttg2Efx65sVcTzMbWIW+D0R5OrhAVCVoyl4YqAGN6ByxQWClhE8hVbhQ4enuymO2B6+RIDwvhmhhsVMNx99905pRiWGUMIhZSNH+7LWRCWGIQ9QUW6myeusQCmIP74bH7gOMa6Hkd+asrg5js3THbUi16PwMeMb0NljRWv5m/0r4lT8/fWHauJAG6x6NkcGTBblhkdC4/mbt7UDJEI3vzqgzXdGw8stgdNosautfPSYfF8dAgjFRaBJAG2BaJZhzcUoKiGKbHDaKUeY87w/tUCZILMyp4Y/lmR668lYJHAx1yyLQYRgfWDBKyIpL5WhYAd4uPFmbwcgbYdaTpYbDgFIMgmPZVwZY2cLLCirCTkRltNVyo2S02uZRMCVdcFLBbkrNPMaQvNN1wAh1kx7Pu7YC2eNxtSPN40genjuYWXsKXBcj2smq0Pw5gwvcLVR4D1AFtKLER5bT9OQ+GN+AmbG7+SlB6m2Kzst1t61mMEWLT43j7XkmeYG6tf9+AI4/MoTI+gpvgVsiZk7z3a5LCKsI0XibN0w6jvYOuHf6uer5y+8Z5CAKOIPpKSDN2K471+lpCpCs9K9ESWoKyLsLvosLiQsOQIL0dY4avvGhKmh4aaY5i4tsI5iLdcFMhVuM6hV/IIWNaylwZ5wuVemPsJmInQO/iwt4cai9zJJEJjY1KwtopfLbIpco8p1CRAv6CP44SY+7XzElovxtMEbdo8a2wSdC8bUtLf0XTCcyEs5nEY9EwsQAI8tjzS/Z09hgCUsEU5ZujOWVie6NdhmiyGuVE0+CAqIUOEt6A8LmBxdDT8ycIVQcS6j7bB7fDzYhQiH/oCXrqodckMqxJD5ogmdDGGL8J0OvsrCmGe5Vog/FFFpMbwEjpyUguzBPhehSfBkzU68cQTrQtYele3PX+2hfBgYiFsqhnuHYzbPuBbsnK7m+dWkwFAMRmhclrJmfQR8ZHz7C/wsGKiLTE4MLNwoJ7uX5Nlq/l7ScCqeebVfkfaLo2Y/s+IzDhof6bd5W0GGkwlrDEGGqxbzDs8XFjz+Ihpw6v9VdSwrMwQdIwwRmERSBKgIXlbsl+TdgMLY3MJtATRAsPzZFGddJ/2XwkguWLoeAxqgocVEIGsEMBW4INXOfui/Pkn94jhbwXwYaeOc3xYyQyn0e2wIPEKiYQqLmczAKPZ9i2jS+wrv1qAlTkb0XbK21OyumZ3kcsjO9gTMFB72AIsRNmj4xPFh1+xicOuhCUa/qpwjRHAKYBGxX4Sm0yhgGgjIa+0QL1CrEmWh9OjNIxwmUcaFhXkRsBaRdQaiac1epNO5pn7MRQ+3TrHCp+hG3rtsJdwrvSvbFyzp+JLRzogUmCG7hP2UJzczc/dc0sZYOuF4zy5vy+Ya3hTwgwjWYjy8RgsW84fhCem/ae8C2C609JYvuJgxfjMBglhauHmFp2dBOyOsBTHNGJxy+a06zJ5V98MBbbRLPmqE+bEUKxk6EtuLEXZ2jTKKRMbJ/3XahoYQ88gu5c/Pr81m7L+1GznzH9a2AD9d545Pv9D2N6tubCZZE5Ptn44Ol3Kci0Q3NVxFQznO7JKt97EBGJ56/dKVoqhO0xARzDJzy8hYH+r12PCQcMiy+1ufm1NBlhMUTten4LBSdOlgyPm+gorch2oyYLVyr0kYNUK9uq9KR7F6NMDBgyw2YtlCR6nofM8lhPSLBs19ATMMoZ43gTMMBQWK7k3i5YfvSQ1TK+wCKQjwGQczh/Y9yzLw50xJqoKLpiZ/n2bmjxZnIT5UADUhHTFULwILCwBzinwSV6VLj5MySqCbTEOdoWRmBpYxuwM8wnjU4ZRzVAlor/RyWYmvQCnj5SXVDASg5KlHf9bevau8VPgE14evVkm/Enh6iDA9Oqn2ML808WHaQiziqCpRO2Nh2jvcmIJw35A9CtXcXQiuaaKcs6vr0wQYY2oPhZOVHHrhl4vpiQ4+NeUgWh/PmWadJHAD4tkyXCHjAwqfCUyi3Hp8q/J+BzBi9OBL9uoPngjCzZkwlqU4S6UNsJf8yVM+THU8b3FZ4dVK+fNsd7xC3bBFDuKY1BY/pyiQuRiTU7LD09O5UtNKSddBtXYCsyD9g14i7FHmdxl56yJ08hQ2XDus6xwbHHD0i6ssYER502/NTMynkGR/xdmQMq6ZEaEeYw/DueX8djFM5dlII0BMTdlVtmNZLFJjZDeIk0wvEtkgfATLTkaD/G8S1pf1AsBKzL73dGYfGj2HD/kE96ugusC8vFhpNzuFuZfY2FedQrbBx54AF9s+gUyFn5k6TZX2OvCj4xhIQJbY6Wt7hsV+WZvdd8pc/4c7MycAMvMre10KalLtP2YTMm+RLn3Sl6lmEWBgNrGovCUVceKEFBfqAglpVlECKg7VP1Bi2HVGVYuB5GvHLfwKjEMaVQuXKgMVa/KtYdF4aoCbhu58PjyxgOrXGUqF2iqDCIgAiIgAiIgAiIgAiIgAiIgAiIgAiIgAlknUAivNsw6FGUoAiIgAiIgAiIgAiIgAiIgAiIgAiIgAiKQOwQkYOXOs1BJREAEREAEREAEREAEREAEREAEREAEREAEUhCQgJUCiqJEQAREQAREQAREQAREQAREQAREQAREQARyh4AErNx5FiqJCIiACIiACIiACIiACIiACIiACIiACIhACgISsFJAUZQIiIAIiIAIiIAIiIAIiIAIiIAIiIAIiEDuEJCAlTvPQiURAREQAREQAREQAREQAREQAREQAREQARFIQUACVgooihIBERABERABERABERABERABERABERABEcgdAhKwcudZqCQiIAIiIAIiIAIiIAIiIAIiIAIiIAIiIAIpCEjASgFFUSIgAiIgAiIgAiIgAiIgAiIgAiIgAiIgArlDQAJW7jwLlUQEREAEREAEREAEREAEREAEREAEREAERCAFgaKysrIU0YoSAREQAREQAREQAREQAREQAREQAREQAREQgdwgIA+s3HgOKoUIiIAIiIAIiIAIiIAIiIAIiIAIiIAIiEAaAhKw0oBRtAiIgAiIgAiIgAiIgAiIgAiIgAiIgAiIQG4QkICVG89BpRABERABERABERABERABERABERABERABEUhDQAJWGjCKFgEREAEREAEREAEREAEREAEREAEREAERyA0CErBy4zmoFCIgAiIgAiIgAiIgAiIgAiIgAiIgAiIgAmkISMBKA0bRIiACIiACIiACIiACIiACIiACIiACIiACuUFAAlZuPAeVQgREQAREQAREQAREQAREQAREQAREQAREIA0BCVhpwChaBERABERABERABERABERABERABERABEQgNwhIwMqN56BSiIAIiIAIiIAIiIAIiIAIiIAIiIAIiIAIpCFQnCZe0SIgAiIgAiIgAiIgAiIgAiIgAiIgAtVO4Ok/pr301/QPJ8z+dUZpaVmm2xUX1elcUrxey/q92zfaZYnGmZLqNxEoOAJFZWUZ+0fBVVgVEgEREAEREAEREAEREAEREAEREIFcIIB01XfYpJ+ml1aiMF0aFfft2lwyViXQ6ZI8JSABK08fnIotAiIgAiIgAiIgAiIgAiIgAiKQxwT6fjfhyl+mVLECpy7TtO+KLauYiS4XgbwgkDdHCNc88a9fx83JzLRz63qfXtM+cxr9KgIiIAIiIAIiIAIiIAIiIAIiIAK1SyAr6hVVMAlMGlbtPk3dvWYI5M1L3MtVr+BVkTQ1g1V3EQEREIFFjcCHH344fPjwytX6p59++uijjyp3rV31wgsvjBs3roI5UE5KW8HESiYCIpCnBFIOSilHm7lz5/7zzz95Wk0VWwREIE8JcHKw6r5XXneyIkP/WmCBadOmHXHEEXPm/OvOMmXKlNdff/3BBx+88cYb+f/TTz/Vm5EK7KGnq07eeGClrUDdOu2a1Z0+q2zC9Gp5mRc9YdCgQa+99hoF2HHHHbfYYgsryUsvvfTcc88tu+yy++2332KLLZYuGYlnzZp15ZVXrrvuultuuWVUi9GjRz/00EMspXbYYYfevXvz659//knM999/37179//85z8tW/6PL2jKu3AJnfbbb79dZpllDj/88CWWWOLxxx//4osvwnv16NFj3333HTt27AcffIA9d/bZZzdq1IgE55xzDkabp6QMlPOaa67ZZ599ll56aYsfMWLELbfccthhhy233HLEDBw48MUXX2zXrh3FszT33XcfP2244YYYhXfffbfn1q9fv7p16952222//fabRfbq1WvTTTf1BGEgiWLmzJl33XXXkCFDVl55Ze7VtGlTYrxsUAXU+++/v/766/MIGjRoQG5ff/31I488QoDyc1WYf9XD3JEntcIKK1Qwq4VNX8FslUwEcpbAk08+SX9kVKxECT/77DNGLcafSlxrl5x33nmMhK1bt65IDl999dV777233nrrVSSx0ohAJQg8++yz33333emnn15UVMTlTN+XXXbZiiuuuNNOO6XMbeLEiUygzGIdO3bEJLC+gKWOsUFbnTp16gYbbLD99ts3bjzvZb0ke+edd44++uiUWU2fPv2ee+758ssvmbCYu5s3bx4mS862/ivLA+ZQjARsj913393KgP0zePBgS7P88ssfcsghnj73AykHpZSjzccff3zssce++eabGBvl1iuyAEmfkmrlkqW09MotkhIYgaShmzRNMR3Z8AiJmb0axtRwOGnJhwX4/PPPacmkWX311enRDAIpu6pfYsbwSSed1LZtW4scMGAApvgpp5zCVwzpv//+G/ucX9dYY42NN97YL8zZAGsBqlBaWsrYmFxHJDuaVySJDuO8b9++ngBBxNc7HlmTAd57lfJ29YrqTNp2ia6vjRo581+95pm12mzYtmR28PbqT8fN3O6TsWEOZFhIL8Naa621dttttzPPPJM6smJFomJarFevHl+ZNHfeeWfW5vSLbt26jR8/ngUp7YSpNgSicEESyBsPrJT069Wts+Yy9c/bq9mePRs3L5lnI2b9g7KLXoOAsscee2CJohNxCwbE6667jkhkoIsuuogelTKZFeaBBx54+umnkYGisnEV15aUlPTp04fcWLzRJ0888cQuXbrQURGVL7zwwuiSlHe5//77O3fufNZZZzVs2NDM2VVXXZX+zBD/yiuv8D/hNddck6zeffddzFAGelevmQn4lc9GG21E4g4dOmD4vvzyy5hidmsKeemll/LThAkTiMGQZYnIpMicd/DBBzODEokp8MMPPxBgch05cqRlyP9mtb/66qtoSRZJ1Sxb/oeh5Uk4iYJIplgyRGtDt+J/YsKyPfzww+QALriZaEVuxx9//ObzPwQ8cy7Mygcm3K7iWS1s+ornrJQiIAIiIAI5TmDYsGFPPPEE/1s5CbAE9a/JwrO2ZNZgEmc36Oqrr540ad6qhh0gpChWmFjwaCvnnnuuTd9//fUXK7pkJhZz6623/vHHH2YVXHLJJWGylLOtJ3jrrbdwY6QkSFfHHHPMmDFj+Ombb75B07FJfJ111vHEBRbAqsG8qYh6lbQAU1KtdLKUll6B0a6+6iQN3aRpyp6rW6pIwzw+1JzqK1JFck5a8n4VNvAdd9zBBvDJJ59Mo7r55pv5KWVX9UsYH7DbGTEsBsnm8ssvf/vtt+3rG2+8wa42Q8qSSy55/vnnsxnvF+ZmgIHoyCOPRKpAvKMi0Sia7Ghei5ToWF4Bx5c/rVq18vQ1H8BbKt1b2y/oMm/j4ZJuLcJStahf94k/pi728p/+L1KvSEyGBeaElc65HqG2TZs2LM1Y6q699tr0EWY9Fqo84hCawgVJIL89sLp3LD5372YrLVX/l7+mzq0WB6w6uFzRMYqL54HaZptt2NJcaaWV0HcZRldbbTV2U7feeutffvklZTIu+fnnnzGJGCiTrYer2J7FTkV4wnMKS5cMUbvMmQh5CMkMU9VkZrs85V3OOOMM+3XPPffEPkblQYcmxjo80rW7JLDxi2Xscxhp3N/hqquuYhfCLmRuswz5H++z2bNnU2WLYco88MADScaHMCm32247LGz7dfLkyUhUkVMDu2HsGy+11FKepwXAggJoLmZJFKussgo6GtvRuJX997//RV9j74hNEisb+5M4i+KBRTEwsnEuO+igg/gJ29rc3Bi/mLmZ7aKbVvoruj4oZsyYgXcbpg+CIKsLYhglqS+lJWcsBsRBYhhG4RClr/StdaEI5CABOgK2AoI4vZ6BsX379l5Ieh/jHsMm3ZNIBhy6A2NdGEk8iwpWGjY+WA/yHNhVY3j5/fffGRIZsogfNWoURuq2225rF+I/ZS6r2OX0dMxZUjZr1sxz8IDdnS07ujBjF0MN6VmrsJHraYjBDKIKDOaR06unUUAEKkEAXyrECOsIdBa2msiENdUzzzxDr7EWy/YPJ9eYU2jhLGIxKkhjzfvHH39kEsTeYB4kkka+1157MdMlvbn5NfzQ3ZgTmTF32WUX5sfwp+RsS7aegFLx4WvXrl3ZxKaTsq1Ff2RSi2Z2vyQrgaFDh9KX+XCOGAKbbLIJ/mVEUlPqzjYVk68VAK3hqaeewhZq0qTJ888/z9YgReVr/fr1udxGA/bwCLMn78ZPspAMAuy9wRyfMgYr7C7mbriZk3WG8Y2skhYgkUlzrtLJUlp6ySooJiWBpKGbNE0Xn//hclo4swmWc8qsajIyacnbOQnKwBrBRCvCrCbYFSaQsquGBWbwQZnCj5JIZkAGHzqFJ8COpYPwYZ7l15SLFE9c6wEKSYF79uxJSRgcsCXo9V6qZEcjsf2aEh3tgbHXcvNMaivw0l/Tk7detqRe/5Vabta+5IQvxl+2csvBTdod/9X4b6bOM1p6tGiwVuuGq7Zo0L15/e8nzSbm20mzD/t6fJQJ2RaSE1bYdMOassLFv5j/8Vpg74F1IgtDLL2K7EOE+eR1ePbop2eNvH3OtG/qNe7RoFOf+ovtktfVqXjha3nPoeIFtZTLtK23VucGJfXnOVst3qLuDUe2WLVz/ec+nvHQW9OmzaoWBQs3IlOvuCNjKMYcATqJjY8YPQyjbA6kTIb8dPHFF+OvxIE7K3/4P3utXMvwSiSHbjArCZh6RYBfmX5C9YrIlHchnhsxDSN+Ye35nEd8BT+U/9FHH+XYXZSeeNygcAfzxR7KkflVkZJdC4CElzArEMMljCD4J/MTtiaRGOvXX3899miYOAynRMGFtidGjZhsqKBfgj1N2BYD5vpLDAn8fB8LhjC9X1jpAITNpQsUVIotu/33359FNaMkfnmY15Bh55zVOA0DYwhTOExf6fvqQhHITQJXXHEFsjv9Du8MAl5IRjy6A0t0DvYi6RKPDY3cH0VigJKA4QLZiIGL/uU5IA3TlTjExE/chZ1nfmLI9ePJDJX4pBBJT8S7hIPGDJVox4wYnokHuDuWDQY6GjrrYXYFSIbfKwK6pUFfYBeBRSwdloNafqECIlB1AuhQLK5o3nw4UYh/MHky6dNckVosfxozAhbTHBoWO0l0KL8vAhYrTFOviMRSRzVGKPEE6QIoMpykoANyVo71Xpgs5WwbJmAuY/cLBYdp19Q0uiQvH2BmZypPt5AIc6hEmK1B+imO1Uz6+H9xlA91my5Jh2W2ZRftggsugCE5w+Smm24CBUYFWh4lZKxgfAhHA3a/mJdt/ElXGB4Bh8gYZG6//XZTBzBa3Fst3fhmuSUtwJRUK50snaWXri6Kz0yAMT8yTT09/vssdzMInZ6yBgK08AyWPLMqWzVsdbt+neyqYSHZFqLv/Prrr0TSI/wqS8NWN/3rk08+wRfJjmiE1+ZamHeq0J3psBz7wPPUTX0rZ7KjReWP0IGFBLwaBesCqyBKXMNfP5wwT4QKP4s1qPvhJh2a1S9a960xd4yc2uON0ZNnz31jo/Y9msx3pHjvr6M+G3vT8MnFdYv4n3+PjJxXneiTzDZKkC9fGdgpqq2nvMwYjWyU8hVbDo88AhiBzKGmWzGVeMqCD6BeTf/xeNQrasr/hIkp+FpbBef1h3z5LN687mm7NOu1ZoNzH5z89nezBp3fevFm9QZ9Nv28RyZNmFYt6lVIhpmD84O2V8mQ5y+VwH3RxBpLHCZjpsEExEcJf3779bHHHuN9WIRZ8vHmLBe2yC0aRrEUcQcgZXgJPrTJuxBDYgwv7uVrPEtWwf+Z29iliRRrpkaM6UMPPTR8ow1boFh7vGYLawAPI3aDw1ugKGFtY1CyL8r6kOozuLADjJyEgc4bahhWMKyxTbmK+mKJUmaqSfUjFFixvOwDs5JVLoY+9odNOXY7dCICpv3Z/8QgJyHDWwLcKFghWzgr//OmAPa70OBsNxvjngkVd24yR2TEAqDWGAqnnnoqTm324ML0WSmDMhGBnCKAtI3hy1qXRTXGJUtBinfUUUchVxFADGLAtEiGlyiS8YEObj2IgwxhvfC9Ys+A49X0LI45sLrAtzRM4GGcLxiFGG3YV9h1111ZkfITN8X3hADmu42HrP85JcGakNdeINObccO4YXIVMj3HKDbbbDMbSTxzBUSg6gSY5TlBj3rLjEZjZp1sExlTJ/MjXg9sdSChnnbaadwLQxxTAedrmi6tFGMDrdbVKysMbRXVptyCbbXVVnfeead5LPIGgzA95ko024a/EuaFQbabhQeWdQocmpjKmazvvfdePKRc5YkurOJXplSsI0Ch0FFNJlMyxG2NrxzuIwxGBhyELYwKBge6P2xxVrKVOYvY5GjgRUIacH9zW/lwKpPXHpGAfURGJzNLPD2BlOObJUhagNhLSaqVTubFCO1Jj1RgYQkkTVPc98jEXiOVOwfoMlvyzGI0XWxsercRSHbVkAy7rZxCYHjZe++9mVURoMPXfqEI06kZDVj5k2d4YQ6GWZ4wZrKIoGzM9dGomOxoURUidCwQYMjJEoYUlhhYI5EiFl1erV9/nfGvM7jdqEfT4ot/mHd+vHe7kt7zowb/PZN/nRvVO2P55r06lHh5+q+y4PDjZ+Nn9f74f/4ARTJbvyq/AjjJsoRkycmheNaeVnhmUpoEj4/5iKUfkbbiYyOEsJ0KYvMjR4TpagWO71WUPzGLiBNWPglYY6eVvfv9zA16NLhgv2az5tRp27juS19OP+WemlCvcF/nYC1WJnIVbYXp0PUUDNAWLRYcUQ6TsZGCNcYlbF2yB8tUgcMqQzAfa23oMvaSC76SG3laPP/z1i36IW9YJxxeYgnCu1gMAzo2HBMVehPuPwvbaVnI0dUtK/+f4mEoo77xK9MDmeNzzVcMNd7jjp8Rk6JbbHYV8hYfwhzlwzrkZATmpr2+ikhmU6ZPTE/2PfhK7Vhn4viA0xk7qEkUoEMnAh0nEJlp/FWUXGvqIRmy0OV/i+HRoHMR5sNDsSdlX7P+P3YDL3yFNjmjzTGqUgvMepzAMamJDw9lZP3uylAEcoGAnbaz0QZXLNOqfPBhQOPUnpUzGUmX95EhqgsKFEtNFqjE29krDJcojX2lGzIQmVesJ2CsiN4NxHvlzW8UbxR7ha0nJsAin/R4yuBTybrd3pAdJlBYBKpCAKGWIz9MVcye+OlYVhyKp/3TsGnDTHA2W9GhmEGYPnBhZosL3xD0Lybf8O5MN4g7YUwyzJx43HHH4QuJNHPttdeyeMPRwDoUiblLcrYNM2FSZqsGRzCmYBKzLYSIbAmwASgYc3d1dBPuhXrFjaigjxisVBlGKDzdE4UaiwLryF7AzNsD7HUnGBL035SjgdeLHKJhAZPMfjXTK+muRXlIEI1vfknSAkxSTWkoVjAZN0paenZ3/b+wBFKapmRC58KIpVUvbIbVlD6zJY+FyfzFFjKnOswxOdlVo4Lh8sm2N8cUeOGXH++wNMjTzLOYyiwZeJsH+0DW+6IccuQr6xGEDF4IQC+m+qwv7N0CVryUHS0seYQOzY6hgwTkQxtgjVOLAlZYTgv3bN1wi3YLRqe1Wzf8ZNxMi/9kXL39vxhHeJ/FGpGgW7PiqaVlz4yafsuIFB5YyWzzMYb2idLKE2ejEfmSV8dYLZhMac+sstns4WNOA/xE+IADDrA0i8iWpPlehQ83GRP+WkjheeZCvnxmlZY9+dGMawdOnjK9rEVJEb5XJ9w5afzUave9wmcegwlDyj0FmA/MEkXNwY0IKxOGUTIcdJH2eak5SgfCChsdGFghaq7iWnIgEuPJtxQYpnFfZ3aJXKLs2uguniGaDtoQNllFzhf4VQQwdjlf425W5I/Ji2HNko/yUxjKTzKsRgpJJJvGDChYtIz7nTp14ieOH7IcDfPEumWGgEAYiVVqphtF5cMbK9gEI0CZU6IgE/aiccRgomJNi5HhZTOb0ixOc38jhjtC2+5IwMoWFiCLYdbMKIYcYeDDqQdc1cgcPxSMAFw5MPHZDc7i7ZSVCBQYAbqzL+SiqrGicHdxG0NY3rP+9BWjp2cASZeJpwkDnHq2vzsRRrJM5QghqwIGuv79+4c/KSwCVSfA/IWPMztAtrtjGTK7MYfiXsTCzF535TdCCOaVtPhEsL3My+N4OxtGvP3KYQpaablrLXyB6Rfotuz6oF7xih87RmSZpJxt/e4W4CwGL71iVcD2W/gTkyxfOY8TRmY9bHJzlC2UcCXDvGEcsIONyHP4p59wwgk33HAD2tbCjgaev70tdKF2vJIWYEqqlU5G2dJZel5sBSpBIDJN+XvfSKKVyKf6LsEkTmfJIzDRo7GKMct9cyhdV7US0mHZXmVewzpNWWZWGZwVwIp2bT1lslqP5JQD6h6PD8kJFc+8rb1UyY7mP1kgJTr7ibVP0iqILq/Wr51LYj+Si36avOkHf9s/1ocePnXovHen3Nqj5fWrtfpjeumdv059d+zMc7u36Nslxds/k9lWay2qI3PaJL6xzJsc3MGLnzGWP4DLwOj3onnjF8IBc5wtkHT5u2d8CDOHEm9elp64UAO89yqqWjImSlAwX/NJwAL6jNllD78744bnptz7+rST764J9QpbDU9yzEH2S+k57IlRDF4qgWrDT2xUIsSgPSWT4RqAGWof9lTZLWQnNmw3tu+HZy/XIoIwLvMrJ9LZDMHoxDhj8WYvffCrkndh5EXiQYcmDR5PzEPJ16X75WhVdHW+EvCcba3oG57YyvjT4pzPkPH/xT8RPwg0GryKGFBsQxizGz2ObWRyQ9tiQqUkuCibLYiTP0XCyuQnUiLS8Su+VOHLODCv3XMtJQoMd3LDZOccEMcE0Iy8bKxmEeA5gkEt+J8w8xMGN2G8SSkkAb56xbMSYDQEr60lMHrw5aaOTP/A5EM8u0MYExSGoxaYF2H6rBRAmYhAwRBg6KBfWwc3+ZtVq73sgM7FS5oR9+ndDIwMpBguWJn0PrzEcfUi0jiwvCeSnsgIgyd5uXDIGadOFsAMR3Z+kEtYolMMtrJZrpsvern5KIEIVJwAiy52O9jYcJcfu9amMAwAPLCIYb7j76gwq9LskWmYUrErcCfEpRdXbqZpGq29LYusLAdSYiTYx2Z2i2eVS7+wt2pak0a6xTzg1XLMUylnW05R4aTA5WzJIJzRE5nCcHag91EkTg5ie3A7nDUwBmrlj3YhMLEIx62M5T3TPV2eNS0zL8sbxD7qm240ILENLAbH/2eTiTpi1PGyMB5BRbbr2Va042ZJCzAl1UonS1p6XmwFyiVAqwgN3ZSmqWWCWweTS7kZ1kACCpm05Jmq6LP0XPogKi2dl2bPXx7AwsR4TnbVlOVky5lFCudzk7/SL+gF9G42jXKEQ7KQFoMMx3BEgSEwfPhwc7vO0B8zo+MUCAYGOdtbCGpXxFyvZf10tU4ZP3tunYmzyl77Z8aTY6a/+veMCbPmbtR2gbtWmH5hsw2vzZEwm4u8s8X+uAGLPk58szSOHAnpGvhn4VyCPcl6k1PkNHV8CFKO+TlSr+wWg7e2RxkmY6IEBfM1ln5zv2KmYdWrW2fqzGr3vYIGsgsmJgF7zwIBhlFMT7yWMHoY9+lUmD6IPslkmWFizmIy4siK7UWGnGRh0uUNMlzl51xQzTDXPJ9kYVi24dmEezBTGn5epE8nYJmpZ1lRF0752YtLWRAS6d5eKFnkyWDhNw0DDPccKyCGwvMiVbP5sKqxEcmfTDAxKQkJcPUkK5ad1BGPLcrGT3bmzjJ0dzbLLUJBJBY8cjsBZpdLL72UQFg2XhHCsIULNCa++U1wL8pm76ji9Rnu0caFWfmQIYYyuh5CJB55vL6H9QYc0DTxmGP659wHwyv3omFQKgJh+qyUQZmIQO4QCB0lLMw4wMdLmCES9xOW1rYtjJaN4zf9l3cAsXhGKD/33HP79OnDoEE/uu6668iQ5asdpmZ4YVjApYVIFuqMG6xpMXHodGzH/V979wFvR1H+f9yQAAkgIP0PKKCIiiAiFuyKDezYC/beK/YSe8GuKPaGvWAXFbEgiiIqiqCIgkpRmgGEBAjk947jf1h395zc3Nzc7L35nldeJ3NmZ6d8dsrzPPPM3maVSjWaVSLWmFpplTLxTcaVhjRsEi7zJ1escle+Q2BKCJQOaSuo5la7KNuQDmybh8+FqwxD1gvbV7q9n84AWvgkJmBYX4r4YaTQY+vGD8fksockvcXIvaUUcj/VzmprI5qfsk1pS6fhRsCg/nUFD3cxTpWdbaPPjh2ZRKRNb+UaJpQE40uMSrKmlVKm9ltL69TRCteCyEIEpLLIMtsRVIxcMhiA/LCas0HZDiw3clgjP3AzYUmsWSmiaEdaavIpPtT1aglIU2NKGEByjsiuBCiyK8NMOtkk5Mla1bU80BV0GXq6ommh5N2ptoqHQIws3ZXkWax0OWPT0ubsMOHTOmX8WhMNlu5QbTWkDCgvezJ46+CqaeypCxs+ph3vDOomqCmHECDYm8cMKMY4oMrb68aMR5d8RqGzX0WDILqbbM205tU12MZ9t1pw6Fn/c1qlWZnzLr2i+VP4GScu+vDcOR/ZcwuvdD9ryZVHn3vps09a1Erjp2y7kTMrRlf3F0VrnXVRy6VBUWME9Aff9iDFcyCgzwoTF5uzdzP97AuX112tnX+FcA6BZkY80c0ftfw9bSv8nPfx6TvNbsAQiVZx3mcntvdS7UcrbGBvAtO0cUuuHWV46r1rcpEqbDfYHmzvBEF64K1GNGxiEeMNIE3xsbfoLgorEDhVXu/eJeci/ddLti6FJ7KbWm9ZqYDJ0cMqmwAFRbOxZH1Ymi1tpl+pgpI4BGY9AaPVGK+zn4nF2CmDy5xmNLVGd++U25tyDDqTBu/I5lTZHchjbs+lEJgSAnqdt3UwPDWtLaO6IsMu86ttoeY5xPHVGJVVucvVUYJHubEucyU9Zc/HYje+0NV6lWc3+x3n9yp7MLppRbNWdTbw6q7ybmYirlWYxNKUSSoEGuwYAWN8c7rTUS/VSScbX3qurhSBXtF0pXKYhsTjJXkDkN226f/YO1SnoZ5rqgiDXdFNAbtZk+5Aq1dHoWMQLBaQmnKNBPY48h+nLF5uGZ+qz84L5h2/zyBcC6eqRTUffYD3gz/pWx+cF0Z7yySPB2PcdoVdFkZbltl6SwKzlcCMMWDt9ZyzTzu/bYpuPZUdN5t73Nu3akXmZwiEQAiEQAiEQAgMhIBjQc47ODzrPGzTljqmeo6o8ySiiVG6iO9jUs6+S8xM/K240vBlqycoxzezGrDGJ8vVEAiBEFizBA47/ZIDjl/+dvap+hy6x2b7b3+Vw+lUZZt8QmBQBGaMAWtQ1FKZEAiBEAiBEAiBEJgEAef3eVs4FVv+dufEc+BMxEWxOi1O/MYZnfLkk092Qt95yfomhxU2x1FHf4XG2asVpkyCEAiBEFizBBaeuOigU//ncNyk63PgThst3HVNuspOuua5MQRWikAMWCuFK4lDIARCIARCIARCIARCIARCIARCYAoITIkNK9arKXgSyWKGEIgBa4Y8qFQzBEIgBEIgBEIgBEIgBEIgBEJgdhFwlnDhyRdO7n1Y3nu1cJeNc3JwdvWItGYcgRiwxtHJtRAIgRAIgRAIgRAIgRAIgRAIgRBYrQSYsQ4/e/Exiy4/bcnSpWP/ytq8OVfbcf68vTdd198cjOlqtT6UZD5AAjFgDfChpEohEAIhEAIhEAIhEAIhEAIhEAIhEAIhEAJXEVjnqmBCIRACIRACIRACIRACIRACIRACIRACIRACITA8AjFgDe+ZpEYhEAIhEAIhEAIhEAIhEAIhEAIhEAIhEAINAjFgNWAkGAIhEAIhEAIhEAIhEAIhEAIhEAIhEAIhMDwCMWAN75mkRiEQAiEQAiEQAiEQAiEQAiEQAiEQAiEQAg0CMWA1YCQYAiEQAiEQAiEQAiEQAiEQAiEQAiEQAiEwPAIxYA3vmaRGIRACIRACIRACIRACIRACIRACIRACIRACDQIxYDVgJBgCIRACIRACIRACIRACIRACIRACIRACITA8AvMGUqWLL754IDVJNUIgBEIgBEIgBEIgBEIgBEIgBEIgBEIgBAqBDTfccAgo5ixbtmwI9UgdQiAEQiAEQiAEQiAEQiAEQiAEQiAEQiAEQqCXQI4Q9mJJZAiEQAiEQAiEQAiEQAiEQAiEQAiEQAiEwFAIxIA1lCeReoRACIRACIRACIRACIRACIRACIRACIRACPQSiAGrF0siQyAEQiAEQiAEQiAEQiAEQiAEQiAEQiAEhkIgBqyhPInUIwRCIARCIARCIARCIARCIARCIARCIARCoJdADFi9WBIZAiEQAiEQAiEQAiEQAiEQAiEQAiEQAiEwFAIxYA3lSaQeIRACIRACIRACIRACIRACIRACIRACIRACvQRiwOrFksgQCIEQCIEQCIEQCIEQCIEQCIEQCIEQCIGhEIgBayhPIvUIgRAIgRAIgRAIgRAIgRAIgRAIgRAIgRDoJTCvNzaRIRACIRACIRACIRACIRACIRACIRAC00DgsNMvOfzsxccsuvy0JUuXLhtX4Lw5V9tx/ry9N113360W7L/9BuOS5loIzDoCc5YtGzs+Zl2D06AQCIEQCIEQCIEQCIEQCIEQCIEQGAIBpquFJ194yuKlk6jMzgvmLdxl45ixJoEut8xQAjFgzdAHl2qHQAiEQAiEQAiEQAiEQAiEQAjMYAILT1x00Kn/XsUGHLjTRgt33XQVM8ntITAjCMyYI4R/+ctf5s6dO57pFVdcce1rX3t8mlwNgRAIgRAIgRAIgRAIgRAIgRAIgTVLYEqsV5pQTGCxYa3Zp5nSp4fAjDFgsV7tsMMO46H89a9/HZ8gV0MgBEIgBEIgBEIgBEIgBEIgBEJgzRJwcnDVfa9qE2S1x8br5SxhBZLAbCUwYwxYs/UBpF0zhcApp5xy3nnn3eIWt5hEhY855pitt956p512msS9uSUE1mYCExx3l/7ns/HGG6/NrNL2EAiBFgGL71ZbbdXyze+dVa688srzzz9/iy22aOWQnyEQAiGw+gh471Vv5nPnXO3Cu2+/yxFnnXHpFTXBV2+6+W22mH954+3Vx51/6T2OPa8mEJDhbDVgXXLJJc95znPe+9731iNZ//73v3/+85+fddZZixYt2nTTTW9wgxvc5CY3mTNnThNIwrOSQAxYK3isXnL/jW9844gjjpDu3ve+953udKdyw+GHH/71r3+dVPTwhz98m2226U125plnHnroob///e9ZLh7/+Mdvv/32rcIYRH72s58RsF760pcuWLCgN+fmLRMs5fOf//xvfvOb5o277bbbwx72sIkURw18+9vf/tCHPpS/m1YfeeSRJZ/rXve6j3nMY4R/+ctffuELX1i6dOm97nWvO9zhDmI+/vGPX+c617nNbW6jvZ/61KdOOukkM8gTnvAEUwmJ8Jvf/KZ8Lr/88n322ed+97vfOuusUzJsff/jH/9wr4Oist13331dVZMPf/jDitt9993lttFGGzXrdtlll0n/05/+9Fa3upVHsN5667nld7/73Wc+8xkB9XdXq4hV/PmrX/0K1ckZsL70pS/d9ra3XR0GrK997Wvz58+/613vqnV///vf3//+9z/1qU/ddtttV9hYEvxHPvKRZrK99977z3/+s7WhROreS5Ys0cN//etf670lUgIlStPtinqylEovKT2gV7/61eWn5/i3v/1NB3jwgx88qgM0a5Lw8Al4oKxFxni3qh69gXz961+/e2mFMY6Bf+5zn/vBD34gZ1PWnnvuOcFxV+YKXfrCCy984xvfWAsyb7zkJS+pPwXIOuaNVj9/4AMf2EyTcAisOgFT5YknnvjCF76wCNPmTD1z1113vc997tOb+QUXXKADW8VM4NbBstYYEYSNo48++uKLL771rW99z3vec4MNlv+1KcmOOuqoOt+2Mly8ePFHP/rR448/3jB83OMe1zLsdlfbejv1wBpKJjEAH/CAB5Q6mNi//OUvu8sqf8ABB1TNod415IDFl5DQMmD1ziq/+MUvnv70p//whz80aaywRS0JUPpeqpNLNnHBaYX1XAsTdAXdlrTz2te+1hLwrW99qwlH5BoXTk499VQLGUHauHvkIx9ZlQL1NAb1ZJesiUZ0mQQuuuiiD33oQ6YCErhImkhtURGGn/vc51aDLLndIZXnP//50hDyzznnHO11lbZ/u9vdrt442EBX9WhWtTvQ6tUuOtMj9YEkYF/5EY94xPWud72aePoD3K9GvbX9VTsv35B7/fU2edRvz68V22Tddb54+sVPOmFRjekGZCjbWWPDuulNb3r/+9//xS9+sZaaG4877jjLYlmGLJr3ve996ebGhef4r3/9i0KqqzeFwC6fxMwOAv3WhNnRtilpxfe///1vf/vbDCg0HJIoa5RsTYjvfOc7RVpgXvOa1xhRvck+8YlP7LjjjtSn9ddfv1fQ/MlPfsJCZOY1Gkttuzk3WzHBUvbYYw/jmXXpu9/9rm/hvfbaSz4TKc7M/p3vfIcoJv0JJ5xAknO7z81vfnMx//znP5/85CebLyyWb3rTm04++WSRRIE//OEPmkAn3Hnnnc0yLOKMFy5ZL7/3ve899rGPtRgffPDB9FKR5aOl7OUlDCCMDDFPfOITgS3WN0us1Zppj93Kt5TNun3605+WgxIlLkYruT3zmc9kJfERqJn/t7xZ+p9HcNppp2kcUQYNM/hErFfSb7755uXJ+mb+A9MjtqiXHk6Nedvb3kbXOvvss8n6FR6qVCk/u13RLncxH5TE5CfOzDBVAAAgbklEQVQpt9xySx2G8vC85z1PV//sZz9bs0pgRhMgJRAoe5tg9qjmod4EYyJZYM0/ZksKPFP4mJStSw95yENe9apXiTRLmPfucpe7lO5dbLvNxMzr3X7eTJBwCEwJAZPzF7/4xbJKylCAClp/dougWxo7Oj87kemXKVYaI4IpioZJgmdbefnLX16kBTPzqAHorkMOOeT0008vssfrX//6Zlm9q21N8KMf/YgXkppQoZ/2tKdZ8a3Cr3zlK+0qGdR0fvblmniWBWjydhwnYr3qymm9VCedbIzgNMuYr47mdAVdffiMM86oAg+DMotP/ck07PGtcevVueeeS8sgdFE0bALRzCscMvAHP/hBaxk5SqfifuKSOrO3ErZf8IIXaE7rDSrmB+ugGaNkIkMS+49//OPykyhuV9uUcs1rXtPotltZ4gf73at61Np2B1q91IvuPe95D4H5wAMPJAwQUMkMNf30Bw4/u6f0a8+fe9hemz9956s/+zf/uue2C4685Za7bfhfd5PdNlnv4TtsdMytt7pgv+18+/fh3a/RrXZvtt1kMyXGqtRbVYoGXcbaRNW92c1uZoxY9fhMGBe96Wdl5OX/OOzi4/a78Khr+haelW3sbVQ8sHqxXBXJ5crAmDdvOaj99tvPluYNb3hD9l0WnBvf+MYWm7vd7W62TXqTvehFLyoZPehBDyK5miWbOyou2YklqtZFRUw3ZytTycT3BEsp+wllwDNdb7bZZiWHCRZXzUxWUDMCx5xaAW4X6nPLW95SzO1vf3v+OLvssgsJuyT45Cc/WTyhHv3oR1uJydl8jt71rneVq+7iIlSzIikWLy0xANqpJrKz9HH2IfTf6EY3oscyiMjhWc96FvclyzOnsFI3W9lWIFqolhKyeWo86lGPcokJ5s53vrMMzV9Wboa2WtyUBIg4rHUWS/5oeoXGaiMzjTnUFrep035OKYgZyCa2bkORblqUiEpc0tzL35UXWzEsssFpkQ2EP/7xj5yepGkW0aq5dimOtUjHq/4vqvGyl72MRGJ7nO2Jz6Byr3GNa5Db7DJ57mp+7LHH2mHmBqgXkdFdLU/WlgWbIyXH9t1TnvIUVIUZVT0CXd0Tb1Wg/Ox2RV5vWsrapXXSKJezACWKoOABERmf/exnk7eEezNM5AwiwNuOdVsHNsl4ymQFHca36YIJW/fTjfmBmiv0cAGjUiRrfmunl+3VUDXq73jHO+qZNHZD/rDDDiNVN2m0xp3B8tWvfvXud797UTVZz22520m2pVxvVJOqiJo6dMsyCow19ez2c8W5ZIDY2TbPE4n81IoyRqgKPFD0eaOmWbGEQ2A8AVMiW39ZkVnwDQHp6VQ6sG529atf3U8dmO5qpJj2bXoRKkQWN+Q//elPRgSpoHjvEjk4sVrpyjIn2aiP9dSaaMXcf//9W1Nud7WVbc1HrXz8tLLbxLaCWJisyGVllxULVyvDeu+qBKx9dGwfCwcCpAv+ZSK1VNt7B+OGG25oMSVUqKqxue6667rd+shEaA9PWM2r8NOtW2tW0UAzA27FddSsZUH3yKxfgFhwmzl05TRXWzIMqpNOZuYcJTg1q5FwL4GuoOshWpiaouz/+8/H7Xr4b3/7W/J5b1bTGWnhU/MyuMqMUUu3RBajlRhbO3aFBfihEN5Yr1zt9Xc2+bBM8aMsiU0+BkXNUx8zQHzIeLKSbb00wECv6lHr2R1oWleu9qIji5ouJDB1cGHjME7WrblNc+CYRZe3StxmvXWOuf3Wv73gslv86J9/vGTpN85dcsjum/7gtlvd8aizT7h46X5Hn339jZYrpIfcZPOD/3KRwFmNA4Y1q2629dJMDDS7brP+NFzKl29eC0Q+wh4VhsNEFf+aiWdlmMVq8Z+eWZp2xSUnlPC62+w/KxvbatQ6rd/52SJA8S7WK/Hm0GKhMEjK/EjoMQPaHOhN5haWBQskyw45rGW9ahVUfnZzbiabqlJqnuOLo0/SVHlCkbbL9GG/wsaObVhWEtu/rVWzyLgyt41s7awHDciF8vEplq9aeg1ID6OVRgxvHRK2AJmDiCmAG0Efxpq+7E0VZYCMLl6MBLU+lv9m+nrjKgZo6dpOlv3ABz5Q5AkC9Fe+8hW6Nx91EyhFVxE2vigPug0Nn95eC3WVY5qU/JKYt6rhkgnMRzLmUYbRWgSftXpvCdCFmPmYz6onVIl/97vfTQhjh9JDaOBcV973vve59Na3vrVgJBvxcVNPT8EGRalnuZfLG22hPBo7ciqvV9ju4zdXEvR+d7uiGLYMWkdJjxVrRbMgEqPKFLeC3jwTOVMI0MA9Rw9XD2dO4jPChGRKpAYY7MX50aXy9N/85jc/4xnPMGOwCjUbSDt1KpkWavCyZbOF0UUNDfOGzlM8AUv61rgzUZiRjKBy1WCk/+v/zbGmPoR7HxMXyywfFh1bHezUmUy6/dxAdonQY5In8cvQqWcuXSZwpbAjGIytc1jNtiQcAr0E2KEoV3qRjxOFvIMl04F16eocoXPqb5Y5Nqy3vOUtTMM1Kx2PhlmsVyLLNglDSU0wKmAXgY+kxZrp1vTeTNa72jYTGNEGIwuOkVKsaXVlt6pa2ZuJpyps7bOAcqy26PP/stXBj8ZMYifMjk7vYGTiYctTQ1OBNctsY+vFCSw1tPvFjUXzx1SvNatIyQJevdXMWvbSTE0eRz1BX3PrCk69VCedrBS0QsGp1ieB8QQIHiZ2oizl1lNuJua/T90dY+hsJl6tYT2NDyAJzcxQ1tBWcZZdxlnW5GK/NjkwydlFtrQ194brXfYgjZ3ioW9EtKzeNtSVYl/T7WUntd44wMB41aM70FpNaKEr1itpiDH6Rj1l2bpren6etmRpq6DdNpr3uj9c+PWzluy75fxn7bDRg7ZZcOQ5l772pAt3XDD30Btv9s1bbfnWG13DP3eVwKdvtsXhN9+ilUk321aCmfKziJGtEUGntvepCQ7ucC0UMO1bQ4vdylIyU1q36vW87IwPtDLpxrQSzJqf8cCa6KO0ctCpyl4l1asqM7Sy5orYTCZrihaRiCBoH9VP7vcHHXSQAJGI52q37G7OvbeML6Wb7aiYbnHNlLYxzQ4q/7GPfcy+qIaYHewAv+IVr5DMC62qYN28S1ir+QfVyOKS401VNsGolGRTlxRtAZa5lGBSXEt6YZdIsawhjETuspxbY6zENUPaqXAxeJVvMXyamOFLGq5J1vWafqoCLDJelCA35jaWJg1RSY7oYhy4ENYTmLfe8IY3eMqcSlrl0igoBgxJbD2tS/Vnqwiav+OT7FYSsFIxlfIxkXNpdbmrnKCEiN2q9E/Tt6fD2GpdVxmmhNe97nVEN3Y9fitsVST78roE0pIddd4lJSvcmBIU6sl6+rVWYwLNrsidkEMcAxnHK6qOHLRUF9L5SUj0NPkwItSxMybbXBoyASNar6MYk4lZiIjIvPENgTLqOSywYzbdNIwR8wYdvo5QwoedT5YvCqqWslnTtNl8jSC+hN71Y+y7xfB3tTUojDs71XahlU6sYQh2rqpIMxUaJ9ASZvBlAnBKglZsgPBMLB272c9p7AwHxoh35bjLZMLo4DizMNcPXZcuzZOlWuRLzvkOgRUSMM16G6NeZEXjIUtPLguZvk0R5fXASGF650YhK4K4o3+6Ls3THG4yNy5ai6z5n9VmheXq58aX2V5KuxfN9IZYa7VtXhW2xcKdVoAHVnOhUXM2OMOzlX6qftJRrZtAsdBppilFznyg/KTYC7cGI6UdW75XRTO32DFhs0Rb+Cx/7FPNipl8TFAlpswV3VmlmV7YhpCxb8nmimXFbDphdQUnc0iX6qSTlZo0BadW3fJzpQjY7LQKsHXqHnz/DT0bJ3IgjVjIBnKAziFH65Qlz5xgKiCwtcxqruq6GmJ0qzxpkOTGxmqKIHQZ70X8q2QIfk4hmF6cryfmsd/ZHK1Xbc+QzcwGNH951vhhBsarHt2B1mpFC129iiepuJ6cqPFrNnDLzda/05bzSx1uttn6x55/aQkfe/7cA35zvvBDt1kgwfWuPu/ipcu+etbi9/39KuVozdZ8dZTOMdkzYoCmVtiDL0UYGrqEFYFmSvUTWTQ+GyHC5VQQ2bI1glZH9dZ4nryuWnXoxrQSzJqfMWBN6FE6S2KFIGUWJwLLYbWnWGw22WSTkksrmUiCFOnKEsKfhXsCsdVnTJHdnKlqrVtWWMrEB223uGbdbEyVn3xnWNxIro7YmE1ojNyvvB6SCMhm0bxF2CvDTCJNMdcGKVmT4YYhjN2nOAdJwE2JM5HdXQmqYw6waiUftG0C0yRps/x7m5skxQJieS5eThKL8WgYcYR9PJSWu0eJX8Vv633JodSQUKsUNSQclHgVsF3guysQkKfRY9+pu9m9lekWUbYXSmIiPvJ29R0VpGPUF3k6eMIJnPQvQM120Il+TnV/xzveoTjzvtvZH6sGbruYZgU1jzAGsubBKJM+96vy0jF32arS32pVWSuaKk2rKxYPOGYCh2L029JSudGg2DTlzNFs4p2zFprAkAl4yrqW49KUSbNcS4YuNS92K92v+dYeG87kTtOFNBR1SrvZQJivk500t8izGLC6g4Jqx0XCQGOBZUdrduBSIp2k7MWVnxRR+VMJ7DaXmGY/JwDJin2hXHISmVSktkaZYetelVy4cGG5mu8QWCkCNjYYWy1V97jHPUy85V6H4s2xZmbWIgtcWa3sH+jzBpGOasGlWpuljZFmcXy16jnZZnwzbGW0CcEga6PFEkB5MwnXyV8p3dW2ebthyABteFqCJa5GZ766BlEx8jbTT1VYWaxXctPAukxQzm169Q7GsllCBSVIWBOR5AQ6ShdtTT5K6c4qrYaoj5hSE2aCpgGrV3DqUl2VZIpuCU6t6uXnxAnwVPKR3txOaiWfmNX9NLiYHcm3E89q9aUkWRG5i/OIb2sly2mzOOusbRgex2RvI1p6HZ6V2TYhUdAi1V18uXzaKXdMwR5SS/J0I5MuUZliQlxk2iujr1nicMK2sceoHr0DrVn5FrpyycabeAbNZsrpD+84f17rJe6vOeUi/0pN/n2P7e/ws//xGTxkt03vv/0GB59y0VHnXXrNBXNffoNNtl5/nYX/P32tv2xreOYG9E+WVh2euZbnhFfHlLZYTPVn2+SWJJ/qMCHsrfwlTVNVmbkEUvMxBJaLC/mMJ0Bpp70QpBw8KSmtB0USte3Gjag4s3STlcRsK3bvSUsT8fzvzblZvSkppWbYLU7+RN5i8qjJyqkBXrjUPyY5iyUhwFJaNjm9mZukVRJbYyiWlsam9kh2R88uUNEeAfFhGbEJJoAMgDCCKRNWIYkFlGIvmtmLjYzvGyGj1q3IlFJKZgfJtxiVtIUl7COw3XbblfDq+LYrK1tahzN6hCHEyBOlIC0SqLJsLZ31ikWJcm4nQSRZoWkYqslqoBZRYwSI1DIhwchN0eUSocfWovesuYUUIhIoBiNGtLJXX3Dpw85c+BAFyp9olA+LmB3sZhElcd1MZjd0OKs48Upml7vugXS7okaxW1H+mTjL7rFbpKdNUaJYJTyjlhTVLDrhGUqAnK3jcQykdeshE2yFjkFuLn2SvYlBlorIJbP0ED3Q0OY30cytDgopKdJ6GvW1vLKnmawbNqHpxsR9t5SrzX5eNNU6ZgXKlE4rZns1bzP1lrNU3ZwTEwLjCVi/nN+xiVVU6JLY6mbe5l5kNtbNmjno206zmr1tL/NZ9sZDQnxJYB4289eT8s27mmGKmT5sgJi9Tbx6fjlGVNL0rrbN24XN1d4iRytgIC6X2NSs8vUvKrbST+3PXg/l7mBknuOf7nU2fJOJIsSJOoRXqj51Vpn4XV3BqZfqpJOVmrQEp4lXLylHETDuCCH1pd0224ola1T66YzXW3xKiSpZumWzAuQrI5pUTMxm1SUSGwJlsOh+TNvNxDUf6yxZsWULqykJ6hZQS221rddLgwr0qh61hrh1NbJ6VaCFTgyDCBXGS/FXOJ0281kd4b03XXelsr38yqtdcNmyI85d8qV/Lv7eOUsWXXblbbf47856M5+VzbZ570DCnimPB+smbcKLHXRyL52gd9TqGSYOlDhgTtOhgtmP9xG2hoovXpY18WwNzN3gvzuvtYHdmHpplgViwFrBA2W14UlOMLJfauQUo4M9f1Ybl2xUMsQwuHSTcU5mfGEhVgAbhxXiWte6VqswO6XGnkiBoqp1c27eMrlSag4TKY6sbEeCw5T9TA5TSlQxWzR8OLk5WAvtCxGjGZu8+LDsdtr5saAqxXF6GimJ2bJKRHAjj2Ve/bgpGqvq4yAx8bp6rhWHJn5MivMWDNYxCQjulnBlOYDGyKKsWje7qQzw/MAV4VvY+kTgFuZMYdYT8LM2fKoClHNyg+Y4DGjbnIEfJQKQiVLbSynCYryJQ1v0AUpIibebrV02jXlUaRSefKb4fXB8bb67RxFa3SyiWXnqhKt2yKkWxW/W1bKTrDK0C17i+qrOCSmphYJEYye02WrjKUYtUT0npACk1dBJmJZ0aQ+rPK9mWSWsLDYFKXVUpjcNLzvw3a5Y0uvA4HvVfZULeV1pDhMAe1n16esWlJiZRcBsULRio5K9UtcyDHUVA0QfM92JH98iTii6iiFMhtYnaWvef0fyKAc6TBc6rY4qk+64E8mxxQEKk0bpkK2yaq/WsU1WrOqGnjlcQFmtxGWAmPd0cjO2KajYGlioyf08WexAmGFad+VnCEyEgN7FC5t5t7r8lLvKEqYDW0rEWO+e9KQnWVCMCDZTSyq5guuxzQautY7KWk3K27Lq4XQp/zNzL/8qgkTJmZZrAPJq9LMsE0YrIcSJXaOyd7U16DgjSM+gbM2yQhnI1no2X5GmfaODB5ZhrixXS0HT+d0ajAY1nZZcYagy9mkvY59vFm2Xqp1aDY3c3gr3zirjW2RnrsxOXTmtl+qkk40RnMbXMFcRaAm6Bg65qNiDHAY3w9fdCFYMWvFAoDHRkhuNUCKcacHmIqnJmDVyTQustC7p24Qr6yzh2QJK9vYOB92bfXzUOx+cU6akyK3bTDcaBeR820XD4dCtp5he1WPMeByPjo5AVeGe5oilCY2A2lvo9ETuu9WCMQWd13lB+zNOXPSjc5Z8ZM8t/rjPNgfvsdnR515672N7bJfjsx1T4nAu2Vn0Joryx9CIgt7fQrtsbYEbGvyzOJfQEw0HypSubie1d84fTtOmsCbrbbf8ZRfNTzemeXU2hWeDk+FqfR71gFh5z4KySHVET9YHcqd536BiOyDeWXJcrcmIUDzhOe5abNgp6E4tA1aRvUrl3cW32Wtfujk3W9etzApLqbdPsDhtkafJgvxqaiiyNWsLGVpWZhMWbpW0ImpdeSEUqZqMSID2t72ksa1RCtVka6o05fQNi0ZJX65WdzY/SfakZ4c0CaAyL2/uIMEzt7vqRi9yEuA0UeomzMXatEXFJeIXXyTaLyNRefOO12cUNy4pp+pjp6vMpyrJT9VLc+TMrUy1Cf2MU3YDym6Y2rIlFXSawK8bH6K/9KrHp8OJEmI3kxxVBFvWqLrnrKs4NtUsoll/RkPFlR7FFat5SZi4bO7mZEux92p5vmAeAfjsj5RwYbjcS9xXeUYutzhIVTNxtLNr9WOMoPPz3aW9SMnPywMS6HZF40I8GyXbgf5MbfOTZEDi93ckhZ2E5Z8lkM8sIMB+xPeBZZOZ3jfBQqP0+fLXfPQxm2bSlLFfu3ez4aWfs02bRXUzzolGhHmA+4nORl/l2Ch977gTz25lLCii9LRmzsJNr5aykaDvmbXsNpsuiq7evMXUZICUP2WguxYbugRMV6a10rpm+oRDYCIESs/XpWviOhbYhlia6NLFaddCYNRQqywBEttasPBJrGeagYtcoc/TY+vGD8dkSmzJmfHLvSVsnaLaOYrIHMxP2ZJt6WTJskZTgHtXW7awosVZrezYWYBkZdNbuSxrCvWzLhbWDtaiUtZUfWtptRG3wrWI5mCkdhIGzABmDwDNRWAa11Y6Ck8dv+7lYWFFNvCbE4Uiuqt5LagEpKkxJQwgOUqkRbAlAYrsyjCTTqbOowSnWqUEegl0BV3imT0SWxGEH7cQkIr7rbDNDLutvflMfyRXTWPNuqmeFkfCM4uVLmdski05WJVLxq/10WDR4Q1zIqX0XhJHNmvVuQwoL8yyLtfBVdPY0RE2fEw73hnUTVBTDiHQq3qMGY8u+YxCZ0Jgx2Ty8NE6faMrEkxbq/fffoOdT76wdYqwlr7DEctf8NT6PO53/2rFtH7uvGCebFuRM+6nrt5UGXRRy6VB0WwIoc5P5mnxlCxnvYVJj83Zu5l+9oXLHxz04navvuJ7xXq1lvwJQo9yDoFmRjxRqnvZjR9TW7MVK8aYBFN7yYAhEo2f91XJiCJxrrDyzbpNJOdm+smVUnMYUxxjhA9RryYWsKPluykONq92wyRys0nzUGE3jRgmczk3k1mBxFR5vXuXraoi/ddLPIOEmeFqzNQGVFJzmlUiSRtEXRqomlvH16RVf+/84hjlyLciWsxrK1TAbryr4zteTd8MrOyDq/eWQlkZxjenpm8FJl1uK5/8HBQBPd9wKx3Vhqcx3hwFxAhjubVd1q0/tVn3aPZ2o8mc2YxxV3fctbJymMir91ZRDDVmyUDNudqOPe2dxr72yEMtsPm5mgjo0t7WwfDUtLaMmt55RdlVpnsX38CJVGlUVuVeV4275mpb8yw3TmTw1lumJ9AdjN3ZgyxkLiIVeHWXbUWWIPOJuYgPWnfF1NLWar5SDekKTr1UJ51sgoLTStV5rU3MsEXcmpzgNJ3QrKrWGqp7t1CiuKt6cvNS7fDNyNkaHi9Jdgda5dCLrl5d44HDTr/kgOOXv5Zkqj6H7rHZLDBg9dLQB3g/+HMixXQlDcGPTwCPB2PchG8riNGWZbb39kTOJgIzxoA1m6CnLSHQS4ABi6Kyikp4b86JDIFZTMD2Bt2eV4gDF1PVTNojFw+799xn6qGtqco8+azlBBwLct7BW6WcV20aTMdgcVCX4wBNjMMF8X1Mytl3aRKDsRqwZh+NtCgEQmCWEVh44qKDTv0f36JJN/DAnTZauOv/+BxMOqvcGAJDJpAjhEN+Oqnb2kXAqyi7u8RrF4K0NgRWkoAtaKcCnado/bXWlcymndyRK+/hclQ51qs2mvxeZQLeTuilb5z7Jmi9UiBHLR/ORCv0alzl2g0ug0kMRrNByzt7cK1KhUIgBELgPwSKyWnVbVixXqVDrT0E4oG19jzrtDQEQiAEQiAEQiAEQiAEQiAEQmBABJwlXDj6fVjjK+q9Vwt32Xi2nhwc3/ZcXTsJxIC1dj73tDoEQiAEQiAEQiAEQiAEQiAEQmAQBJixDj978TGLLj9tydKlY19SPW/O1XacP2/vTdf1NwdjuhrEw0slppFADFjTCDtFhUAIhEAIhEAIhEAIhEAIhEAIhEAIhEAIrDyBdVb+ltwRAiEQAiEQAiEQAiEQAiEQAiEQAiEQAiEQAtNHIAas6WOdkkIgBEIgBEIgBEIgBEIgBEIgBEIgBEIgBCZBIAasSUDLLSEQAiEQAiEQAiEQAiEQAiEQAiEQAiEQAtNHIAas6WOdkkIgBEIgBEIgBEIgBEIgBEIgBEIgBEIgBCZBIAasSUDLLSEQAiEQAiEQAiEQAiEQAiEQAiEQAiEQAtNHIAas6WOdkkIgBEIgBEIgBEIgBEIgBEIgBEIgBEIgBCZBIAasSUDLLSEQAiEQAiEQAiEQAiEQAiEQAiEQAiEQAtNHYN70FTW2pDPPPHPs9VwMgRAIgRAIgRAIgRAIgRAIgRAIgRAIgRCYbgLbbrvtdBfZV96cZcuW9cUnLgRCIARCIARCIARCIARCIARCIARCIARCIAQGQSBHCAfxGFKJEAiBEAiBEAiBEAiBEAiBEAiBEAiBEAiBUQRiwBpFJvEhEAIhEAIhEAIhEAIhEAIhEAIhEAIhEAKDIBAD1iAeQyoRAiEQAiEQAiEQAiEQAiEQAiEQAiEQAiEwikAMWKPIJD4EQiAEQiAEQiAEQiAEQiAEQiAEQiAEQmAQBGLAGsRjSCVCIARCIARCIARCIARCIARCIARCIARCIARGEYgBaxSZxIdACIRACIRACIRACIRACIRACIRACIRACAyCQAxYg3gMqUQIhEAIhEAIhEAIhEAIhEAIhEAIhEAIhMAoAjFgjSKT+BAIgRAIgRAIgRAIgRAIgRAIgRAIgRAIgUEQiAFrEI8hlQiBEAiBEAiBEAiBEAiBEAiBEAiBEAiBEBhFIAasUWQSHwIhEAIhEAIhEAIhEAIhEAIhEAIhEAIhMAgCMWAN4jGkEiEQAiEQAiEQAiEQAiEQAiEQAiEQAiEQAqMIxIA1ikziQyAEQiAEQiAEQiAEQiAEQiAEQiAEQiAEBkEgBqxBPIZUIgRCIARCIARCIARCIARCIARCIARCIARCYBSBGLBGkUl8CIRACIRACIRACIRACIRACIRACIRACITAIAjEgDWIx5BKhEAIhEAIhEAIhEAIhEAIhEAIhEAIhEAIjCIQA9YoMokPgRAIgRAIgRAIgRAIgRAIgRAIgRAIgRAYBIEYsAbxGFKJEAiBEAiBEAiBEAiBEAiBEAiBEAiBEAiBUQRiwBpFJvEhEAIhEAIhEAIhEAIhEAIhEAIhEAIhEAKDIBAD1iAeQyoRAiEQAiEQAiEQAiEQAiEQAiEQAiEQAiEwikAMWKPIJD4EQiAEQiAEQiAEQiAEQiAEQiAEQiAEQmAQBGLAGsRjSCVCIARCIARCIARCIARCIARCIARCIARCIARGEYgBaxSZxIdACIRACIRACIRACIRACIRACIRACIRACAyCQAxYg3gMqUQIhEAIhEAIhEAIhEAIhEAIhEAIhEAIhMAoAjFgjSKT+BAIgRAIgRAIgRAIgRAIgRAIgRAIgRAIgUEQiAFrEI8hlQiBEAiBEAiBEAiBEAiBEAiBEAiBEAiBEBhFIAasUWQSHwIhEAIhEAIhEAIhEAIhEAIhEAIhEAIhMAgCMWAN4jGkEiEQAiEQAiEQAiEQAiEQAiEQAiEQAiEQAqMI/B+PLbIKPys55AAAAABJRU5ErkJggg==;imageBorder=default;" vertex="1" parent="1">
          <mxGeometry width="1600" height="213" as="geometry" />
        </mxCell>
        <mxCell id="QN9bb88zZrYBiZYA_DO9-3" value="" style="shape=image;verticalLabelPosition=bottom;labelBackgroundColor=default;verticalAlign=top;aspect=fixed;imageAspect=0;image=data:image/png,iVBORw0KGgoAAAANSUhEUgAABkAAAADgCAIAAADUoj0kAAABXmlDQ1BJQ0MgUHJvZmlsZQAAKJF1kDFLw1AUhU9qpSgFO0hRcAgoLlapaQfXNhYVOpRqRd2StKZCmj6SFHFz0L2gi5vUxV+gi4i/wAqCg4i4CO5iRTTE+1q1reJ7XM7H4d7L4QK+oMKY4QdQMh0rO5cUV1bXxMATfAijDyFMKJrNEplMmlrwrd2vcQOB6/Uk3zU8+nhulGKuKC9f1l/Db3/7u15/vmBrpB9UcY1ZDiBEiTObDuO8TTxoUSjifc56i485qy0+a/YsZWXiK+KQVlTyxA/EEbXD1zu4ZFS0rww8fbBg5hZJh6hGMIsU0vRF5CAhTjWNeaT+mYk3Z2SUwbAFCxvQUYRD0wlyGAwUiBdgQsMUIsQSonwvv/XvG7a9cg2YeQF6qm1PPQBOdynmbdsbOwQGdoCTOlMs5eeyQsNvr8ekFgeTQO+95z2PA4E9wK163nvN89wj2n8HXJifMtJk/NOZ84kAAAA4ZVhJZk1NACoAAAAIAAGHaQAEAAAAAQAAABoAAAAAAAKgAgAEAAAAAQAABkCgAwAEAAAAAQAAAOAAAAAAG8JDmQAAQABJREFUeAHsnQd8VMXahw0ECJ1QBCwIih2xYAFsqKhYUOy9iwXUa69Xxd7bVVFExY7XhhU79t4VxYIFERWkSodAvgfe+w3jnLMnm2Sz2U3+K784O2fOlGfmzJn5zzuzBaWlpcvpIwIiIAIiIAIiIAIiIAIiIAIiIAIiIAIiIAK5SqBOrmZM+RIBERABERABERABERABERABERABERABERCBJQQkYKkdiIAIiIAIiIAIiIAIiIAIiIAIiIAIiIAI5DQBCVg5XT3KnAiIgAiIgAiIgAiIgAiIgAiIgAiIgAiIQGGOIJg+ffq0adN0IFeOVEdCNgoKCoqLi1u0aOHCqO4cCjlqPIGg/dfUxh8Us8ZXqwooAiIgAiIgAiIgAiIgAiKQ+wRyRcBCvWrbtm1hYa7kJ/drrrpyWFJSMnHiRF/Aou5WXnll1V111YjSzSYB2v/48eNd+6+pHVf0Mc8mZKUlAiIgAiIgAiIgAiIgAiIgAlECubKFENsrKSDR6slBH6opMJRT3eVgNSlLVUQgaP81tfEHxawimIpWBERABERABERABERABERABNInkCsCVvo5VkgREAEREAEREAEREAEREAEREAEREAEREIFaRUACVq2qbhVWBERABERABERABERABERABERABERABPKPgASs/Ksz5VgEREAEREAEREAEREAEREAEREAEREAEahUBCVi1qrpVWBEQAREQAREQAREQAREQAREQAREQARHIPwISsPKvzpRjERABERABERABERABERABERABERABEahVBAprVWlVWBEQARHIGoHFixdPmjjxx59+mj59elFRUUc+q6xSt1C9btZqQAmJgAiIgAiIgAiIgAiIgAjUHAI1cCr14YcftmnTplOnThmvpWnTpn3wwQd9+vQh5ueee26LLbZo3rx5xlNRhBknMG7cuPbt29evX7+8Mc+YMWPBggU0p/LeWIPDL1r6qQDMGswktmioV998/fUTI0a88847EyZMaNq06UYbbbRb377b9e5dmF0Ny++4YrMqTxEQAREQAREQAREQAREQARHIfQL5JGChJtx3332jR49u167drrvuuskmm8TyHTFiRI8ePdIXsMaPH8/cskWLFtHY3n333RdeeOHss89u1KgRVydNmnTxxRebgHXZZZc98MADErCi0KI+U6dO/emnn5x/y5YtV111VffVd6CNzJw5M7Yu/GDldX/11VfFxcUV0FymTJmC7UyNFLBcpTRp0gTglLFu3bqAdf6ILDT7Dh06YDrkA//+++/Bgnrreya4Z82aVa9evQYNGiSEqZGXsL1CvXr55Zd7bdNrow03QkUaNmzYxIkTV1hhhfW6do0t8ptvvvn888/T5DbeeOP99tuPqokNVl5Pv+Mq770KLwIiIAIiIAIiIAIiIAIiIAI5QiCfzsBCSPrzzz+POeaYzTff/Kabbvr7778zAhEd6tNPP42N6uGHH37//fcx6Yq9Ks80CcybN485+cr//2nVqlWqG+fOnfvRRx+luir/DBKgUniCVlllFdSl77777uOPP0Y9JH7zR2Fs27YtYuLrr7+OJZGfLpc22GAD3yfZPXbs2MmTJyeHqZFXf/r5Z2yvdthhx/79j9lt99323/+A4wcc//PPP4967bXY8n7yySd0cVtvvXX//v2REZ966qnYYPIUAREQAREQAREQAREQAREQgdpJIG8ssJA2vvjii7vuumvttdemqnbYYQerMCbh2Cxg5bHZZpt16dIlqMXYq9988w2aFAYm22233a+//vr111+XlJQwY9xll10aNmzoYsDMhFn9eeed98orr/Tq1cv51yQHOyIxakMWdIXCuu3QQw8FpvPJiAMrHgQRP6o//vgD+zXMUlBJSBQjoPnz51MdyCiYazVr1qx169Zs38M+buHChcsvvzx2W9zOXVxCEOHS6quv7iKcM2fO77//TgwEY7eg83cOdBnsUNBiuIrBHf6xt+AJDeIht5aii4G8kTRmXKSOXRL+s2fPptmgyxE5rQV7Ge4lAEkEVkvRwnI7mcEeBwJISCuuuKJZ+VF2LHTYcQYHYi4tLf3tt99olniahRR34UODhxgJFRQUuBziAAtpkTEyD1V8LG/kHJJEaGW3W8gqhld8KM5bb731yy+/rLbaalzC38qO2RqNn9j8u3gSiZPCWsxkg9xiYLXSSitZDhEr4VCnTh2yB08KSJ5BiliGg2oi89xu4VNFQsGBA17KTrZ5Wmkn3Eu0oGjcuLEVwf5mDa+faJluCg6Z9dbrstKKK5LtRo0a9tmxz6WXXArn2HvpiLBrMwNPNhu6MIR/7bXXqBR6IdoJ/vRgPLm0EKR86w+RIOnEgInR6NFHH82lt99+m7bEVRQxi4rMjBo1iprddttt/Y7OJSSHCIiACIiACIiACIiACIiACOQygbyxwGLGxaTuxhtvZJrngDK1PuKII5i+Mh9GaULhcpdwxF5lQs4ED8mA+d7IkSOZVzMxZl7NV+bM/u1MBZG02I3IrI8pt3+pxri7devGlJiJLlNiPjj4imfGC4gIBWr7GGf0FOxTUChsso0sQi2gv5A0DsJQI+yoQgGhsjBOQSHiEncxdecuatxlkvA2n0fXoA3QHtwl58DIDq2HDLzxxhvEGXsLcicp0myQn7AbIoy7/celHxKlJXDJ/Gk55kY4+Oyzz9ioiI6D7II8SqHcvTiihTVPRDHyTDzk37BQCzQ8bkduw/oPCZWQP/zwg0uUgqBEcJfvaWkB+b333vvrr7/IPzttETXwJ29kjLvAmOroJS4hEiG4WDykDnxyhbkQJTJlzS7xF/goaBYzpaZqAGtNCE/YIp1wF3GivMCQqPDHQQHJFRuBwcipZGPGjEkVCf7kGRQ89YRHMUQUo7WQf8oIH+qRMO6THbwuuTQd1AIl/f2P32Fit6DrUYRU+47R30H34IMP+r0NlYjNKVVA4xwwYADwqZTLL78cSZGojjrqKGvtgL300kvvvPNOhFeq71//+hcdHXWKuO/M3y644AJ0tOHDhw8ZMiTNIiiYCIiACIiACIiACIiACIiACOQOgbyxwAIZM7ShQ4eyv2a99dYbOHBg165dmZ6ttdZaJ598MleZmzFnW3/99R3c6FVuufrqq6+44gpnlUDgRx55ZMstt8Qqwd1ojhdffHHffffFYAHhDH0Bc60gQA34yhz4+OOPZ16NSEdxttpqK77imfGioQphRWLR9v7/Q6wx/FlzzTXxRKxBPcGyBqsc9JfOnTvjiSbCVJ+6trtQbWzvIaLAhhtuaJ72l6rHOAUZBZUE2YUYsP3xA+DGpgx7IhyoAxjykET0FkQq9DtL0T9DjQhRi4CTTKZnz57khCJwbhqyixkxuWwEhUWawQejJAJgAwV/JDyTimilWJ/xQamhWeJJYBQfWKHjoEdsv/322DoBh+2Wvhka5QICzZVskDpqiJUCCYnnAlMpl5mow0Ql84chlWUi0RprrEGc0fDOB4UXrYrbUZZBx11QwviLPFsY6hFVxUyH2HtosWFPRHhnMhlEQh0h7VnZLRI0QYpvxSF7QLAIXTaygNellaaDykULHv7Q8BXar0Bj+2HsD+edex6NsHv37rExUHH0TjfccMOtt96KMnXggQfC8J577jn22GP32msvbqENfP7552DBapIqRpqkmr799ltr7chkdI9UBP0etUAvR7307duXG02aZNs1VwHFMoD1mbHZkKcIiIAIiIAIiIAIiIAIiIAI5CaBzEsVVVdOZuBnnHHG4YcfztFUxx13HLM4FAfm8EzwSDQ6p41eRalhbuyLXKlyi6SC0QoTb7Ne4eDqGilgUXxm1Oeccw6scHMEj6k8qbBU2J+6ix77jZ2ORci82myv/PgxOcHqChUGT+bqbtcY2wn9YOZmio7kgX0KGlasUmO72wiM7mMWLtFbaEJOL3NJIJdgZMRdgSGSC+AcaAq4kW+wjkFNCASsaGHJKtY0WGxZDNgWmQNxB4dtQrS7SBp5C08ygxqFmRVuDG3QKfjrioa8hexl2WDPIGHQDU0wimVCAPchfkfYKguDKW4nLWQUbHlcyMCBSoIPYagjHIBCInn11VcR8hC/AmikghSIIMhdFt5iCyKhIGTGvxdBkPaAiEl4qi/aSrOA17Ka/t9OHTvym4PU7yWXXHLuuefSMKhZSooPzcMvnYuTZwQtD7n8uuuuoz1fdNFFmKHR+bz00kuEobUg+VEv4OWDHRzdFFjsdro1niPcWGOxtdCQuphx2FW0xVgTRT+k3CIgAiIgAiIgAiIgAiIgAiKQgwTyScAyfJirnHjiiczr2CyGloE9wgknnGCX3EzevkavIhlwCRWgzPk8xi+ENEMttvDccccdbqJokdekv1hwnHveeZQoarhUjcVEE2Gyve6661oeTJeJzQ+KBvWFYQsGPkzybbNhbEg80U2YycfeQopRHY3WgkkUO/jQCxBl0IPQjFJFbv7INESVHIaraKNEhWkY0sazzz4bhI+1e0LVQqnxTyjz2zxXTeciKsskgaMlChLiK88FqkqguJEBQFEF8EwQsILYqKZ11lkHUymEKjb9+bIvqVBNHTt2RCXkaTJpMrjdvpJts/9yV5F7gI+NnvkkNAZ3S8bxupjTdNTllL3evcnzq6NGsZsSaa9161bPPvvc/fffT03tvPPO/sliLk4qFFM+CNDLXXjhhdzOL646i1EkMH7WEO3+mmuu4Wll37S70TkwVHSqqPOUQwREQAREQAREQAREQAREQATynUDenIHFhiOEKgyFmJlzeg7qFTNhduiw9wq7KmbaWKbwoT6Y3NrsPXoVsw726bArh+kxU307Mwsxi705QUWyf5AjY9g1xgebL355jQOJTFOws4oIb3JYcGOeft28Z0/+VV3mYUWluE+qhDAboWrMFgljImoWWxU8uZ1PqrsIgwaE/sKNWPfEBrNdVJj2sM+OmGNvQfFEqELhooqxbbF48MSkCA0LwxbyhujAX/QXhCHEMj8trIS4EakCT9QK/1KsGxENrYGcp8pz9C7aKgzBAhPauTPaspCUC5WNbMCKJyUwYorGRjBiIzxFIzMU0w9jMHk0En410g9vbmIDMvodG+gABRC0GCLnKmnBFp64Hd5oDPhAj2cZvNxOTaEhchc54au1kHQErEzhpZeI9g+x2Y56Urnrde3Kfj127WFOdfzxA5ClgMMvDJrNo38LhpBPPPEE2eZDt4ZFFcXEJgtP0NHF0YaJkCrmrH3UK+zR2D/ox2BuurhnnnnGzgrkL7FFw8hHBERABERABERABERABERABPKOQN5YYHHWDzM6Tmiy+RhnYDFPQ1FicsjZxswJEaQ49gXRirNyME/gx7wQHaJXL774YswWttlmG6qKn9sjzp122omdiZxtfNttt9mvsGG/wKz1sssuc9XJjx4ypWQfED6E5HgaUh88ePD111/vwsiRQADFh6N5LAD7v9jiRN3xCW5BHuIq6iEnHHHQFbY8bGHDJoUJPDWL8V3sXUhXWOhwJD9aCWFMxwxixowIkxw8MekiPGGit3AwFnIJJ6kRDNWGYCSHZMBXtCH2k6KcYuSF0MNZ7/jTWpDDXELEj3ZDHjbddFO7y12KzTYKLEcaoUGgzmCSE6XhbncO5BsMzdjcavIEGfDPwCLPGDdBjNKxhdA31HIx+A6rFDgADasfZzVGKcwijEioguC0qdiyuGgRrb788kuUJhz8BB51h+UUR9GjRrE5zqFLNunCzoj8uGLyrFFSxC920oGXOInK5ZakY7OUKbyUhY8rYGUctAoOgKMIf/z5B6ZtQVR0R+hc1157Lf6go6fCsf/++6Nv0kdRR9QU51jRd7Fpmh4JMzewuGbjHDTRM88885RTTqGrROciQncpSFFfRUAEREAEREAEREAEREAERCCPCBRkam5WyTJz0jMT3TIjwWaE2TV2KL4JRuBJiTBVcGGCq5YEUzu0AGaS9hXxi/k2t5SZAUKaNQQaAfN/NI4yb6l5AbABwSTNlYu68786/wo7kCqoHXQKYqA2qRpqqsxJOMEQPhKCYVJEnH7Lib2F+qXNkIGE/BMVYoRLizbJhji2ellWE24MLpEWBQzUriBM7FcS4i5DFAQg8zROUAT+2fxK9gDoUFNMPpYlLNfIubuUnKuEeJJvtKskmnG8xOw3+DQ7Lj+3NJ4FCxc0btTY93Ruehhq0J1HZv7cwnlkroOifvmabOVHJFjDIQe7mMvrCB7z8t6u8CIgAiIgAiIgAiIgAiIgAiKQWQJ5Y4FlxWbeG9WMAk9kBT9McNXiYT+OzxFrDt+gw78UuF0wJuF+KkEwfa0MAcyR3O3Upv/V+UcdTo6MXjKfqCYVewuqUKww5Ecbjcquxkbo3xi4y0woCO++JiREg69e9YpMBtlbSnSJHMmnXHlLiMdiS/5bFXiTU0znKo0nVfvhdtfD+FER3qlX+NP5JKtXhKEZVEa98lOXWwREQAREQAREQAREQAREQARygUDenIGVC7CUBxGIJYAoExwgFRtMniIgAiIgAiIgAiIgAiIgAiIgAiIgAhUjIAGrYtx0lwgsI8DhRBy4tuy7XCIgAiIgAiIgAiIgAiIgAiIgAiIgAhklIAErozgVmQiIgAiIgAiIgAiIgAiIgAiIgAiIgAiIQKYJSMDKNFHFJwIiIAIiIAIiIAIiIAIiIAIiIAIiIAIikFECErAyilORiYAIiIAIiIAIiIAIiIAIiIAIiIAIiIAIZJqABKxME6198fFDgSUlJbWv3CpxbSRAU6fB18aSq8wiIAIiIAIiIAIiIAIiIAIiUK0ECqs19WWJmwjCz8Mv85IrJwlEJ/DFxcXjx48vLS3NyfwqUyKQSQL0VDR4F2NN7biij7krshwiIAIiIAIiIAIiIAIiIAIiUC0ECnJEd5g+ffq0adNyJDPVUhP5kqhN4Fu0aJEvGVY+RaDqCNTUjkuPedW1GcUsAiIgAiIgAiIgAiIgAiJQMQK5ImBVLPe6SwREQAREQAREQAREQAREQAREQAREQAREoMYT0BlYNb6KVUAREAEREAEREAEREAEREAEREAEREAERyG8CErDyu/6UexEQAREQAREQAREQAREQAREQAREQARGo8QQkYNX4KlYBRUAEREAEREAEREAEREAEREAEREAERCC/CUjAyu/6U+5FQAREQAREQAREQAREQAREQAREQAREoMYTkIBV46tYBRQBERABERABERABERABERABERABERCB/CYgASu/60+5FwEREAEREAEREAEREAEREAEREAEREIEaT6AwR0p490uzBz06c/aC0hzJTw3LRuP6BYP2aXrkDo2tXNOnT582bVppqWjnbj0XFBQUFxe3aNFCVZa7lVRbc5a/jTPIeW2tQJVbBERABERABEQgewRq1cwrGGvVqrJHm1RAgwB5CiRakGhhs+aTKwKW1KsqrXKUQQg7AQv1qm3btoWFuVL7VVr2PI28pKRk4sSJTsBSleVpPdbIbOdv4wxyXiNrR4USAREQAREQARHIKQK1ahgfjLVqVdmjrS6gQYA8BRItSLSwWfPJlS2Esr2q6ir3CWN7JfWqqoFXMn4qyDeRU5VVkqduzyCB/G2cQc4zyERRiYAIiIAIiIAIiEAsgVo1jA/GWrWq7NHaD2gQIE+BRAsSLWzWfHJFwMpagZWQCIiACIiACIiACIiACIiACIiACIiACIhAfhGQgJVf9aXcioAIiIAIiIAIiIAIiIAIiIAIiIAIiECtIyABq9ZVuQosAiIgAiIgAiIgAiIgAiIgAiIgAiIgAvlFQAJWftWXcisCIiACIiACIiACIiACIiACIiACIiACtY6ABKxaV+UqsAiIgAiIgAiIgAiIgAiIgAiIgAiIgAjkF4HC/MqucisCIiACIiACIiACIiACIiACIiACNYPAokWL/vjjjz///HPixImUqFWrVp07d27dunXNKJ1KIQKZJSABK7M8KxXbpfs2HT1u4cMfzKtULHl1848//jh16tRNNtkkr3Idk9kZM2Y0bNiwfv36MddqtNe0adM++OCDPn36VKCU1P706dO7detWgXszcsuHH37Ypk2bTp06VTK22HjmL/00a9askpHXwttrTLdQC+tORRYBERABERCBnCXw9ttvt2vXDm2ozBzOnTv3qaeemjJlysEHH9y8efMyw1cmwIIFCz768MNnn312zLdjxo79cfHixR07duzZs2fv3r032mijjEwukMZeffXVevXq7bvvvuXN6nPPPbfFFltUNQSXq5KSkoKCgrp16zqfKnVAm09hYS2VRGh7GWlgVVpH0cjzr7ZuPnxJJ3LiPTOihYn61C1YbsixzXt1aVDUoM4PE0oOu2nqr9MWR4OV6bPJKoXti+s+/fn8MkN+fFWbZo0KSkuXmz679O2v55/2wN9l3uICHNCr0ftj5ueOgMVqwH//+9/333+flr3VVlvtsssuGe9NPv/88y+++CIdAYsH7KefflprrbUcLnPQqyKg4G7cuPGqq6666667IiQFYWK/jh8/vmnTpi1atIi9mo6nH8Opp566+eabH3nkkencWHVh/vOf/0yePNnFf9JJJ2Vw9Qapkdf5iiuu6OLHMWnSpIsvvrhiAha1/80331RewIrNmJ9J3z1mzBgGLrzC8RwxYkSPHj0qL2DFxnPPPfd8+umnQ4YM8VNPcPvNKSGYn/+EYDl4yRpno0aN1llnna5duzI4S5XJ5G4hTVCpIpe/CIiACIiACIhAzhJg9nHuueci3+y+++5BJlkZHDt27Lrrrhv4u69lBhg+fPjWW2+djoB12223oXbtscceDRo0sPjJ2AMPPMC846+//tp+++0Z+RcVFbmkK+NguHjr4MHjxo3bZdddDj7o4PoNGnzyyScjR45kkDxwwIDuPXqkmn+5YT+jfQZX2267bZ068acDnXXWWcySunfvXoF8XnbZZRQ8OwIW070JEyY0bdqkdes2yVnFYG3hwoWEYUjPHLDCC8ZMZGbPnr3aaqslJ5fNq3PmzEE5XWGFFazemXyx3t++ffs088BTwI3pSHLQZlBdXFzcsmXLNCPPkWDxrTxHMhebjd17FPEv9lLU853L2+zevdGH3y+47blZ7YrrXHJABa0hBu7c+KKD0lLfO7Qp/H5CybBXZo//q+Sw3o0fPLHi+ki0OFn2ue++++g999tvv7322uull14aPXp0ljPgJ4dJLZ2v72Pu77//Hp2+X79+66233htvvMHrJBom1oe+mBdG7KU0Pf0YBg0atOeee6Z5Y9UFgwBvZVQ8+9ChZzAt7IwefvjhDEaYqajKlbF//etfvBUylXRCPPvss8/555+fECC45Den4JL/NWv59xPNiJvGueaaazJ4+uWXXw488MAKP31pgspInhWJCIiACIiACIhANgmwiMWkY/DgwaWYA/zzgxlR//79/+n3j29lBvhH6MQvrK8feuihhxxyiFOpnn76aZZsWX5DKrrrrruuvfbaxAjSvcjC8yuvvIJ6dcLAgcccc0y/Pfbo27fvgAED+Mp46Zlnn0WpSRWXjaxQ+hA7br755nvvvTc2JIrGDz/8wCr7jjvuGBsgRzwRpH7++edZs2YVFZVti/D3339TNYgvKDW//fabv35fruKg/a200krluqWqA6MrsbPHlQiTNCS29BNFYIVhOuHRufjQzLIzM0onS2mGyT8LrDQLRrBDNm+4+gqFZ9w9/e435vL1sif/V5fXHdzs1S/nH7R1w1ZN6/a5fMq+mxYdv3OTeQsWD35u9jNfLLGxOnGHRnv2bFS3znLD35h926tzD92i4ebrNGhUVOfJ04vvfW3uiE/mXbhnkx27NRw3aeGg4TO/m7QoyNKnYxdc+TTtbPZHV7XZYLX/7SkL4rRbTti+0R49Gy5atNx1T858cfQCF0/n1nWuObz5DU/N2mT1+kX1CyznZ+zSGGtKYt6sU73Dt2304Q8LDtuu8ZQZi656YuaHv5S4ezPoQP6nD8WwiDgxVLGYH3/88e222+7111/nWdphhx3YgYU/zwl9KA9Ahw4dWJSgQ8Eohq5/5ZVXfvPNN7Fy6tWrl4m733777TvvvINJF8aoZvnCk/Pll19iRYVRxsYbb8xXIkQPfuutt+bNm7fllluuvvrq7FNDSkOBfuyxx1hAwJ7WMmN/SdR8sM/C0BeVmhTJzGuvvUZCJG1GQ37SyO1ff/01PQL5xLIMoy1y+/HHH+PAmMiySgYQg5hmEyEq3nvvvcctGG1RwOWXX54M+zGQHNI46UYzj4/RWGONNcgSXS0rJGmaifnFTNO99tprO4s2JHyIUV8kyvsPoYcKhT/EkCPp7gHuDKAC5iT33XffgYhaePfdd4mElSj6RCLcbLPNqFk/PyyI0QBIxVU0q0YgYrWK9kOWLDB5IHVosLDWpUsXFwNjlBdeeIExAQCpCLPnIvBXX31FG0vVlux2tpsFGYsWxCWEeTZtlbbEm95SIWkqhUhYkaOlWUha/kcffcT7jOI0adLE3Y4DIBSB0kGAvNHA7CovGxblfKS8DGhm9lLkLfv888+TNOhcwYmEGuG9C9tff/3Vb06ueRAtNxItedtmm21efPFFP/+xmeEJJSR3Ucsbbrhh8GCSW16KxIMijBU94i+tZZVVVkkosl/8Srp5BEgOqjzFJ5xwAt0IAGkkL7/8MkMWRoQ878HiYYAueO4AlZ2cV7Lgul0EREAEREAERCAdAqhXrEZjAMUSNete7hZGg4xwmAvcf//9+G+66aaMz9kWx/iB0SxDi2gAhpQM5tkgxriIdW4XVeAI4uEqu08YWyKHYdfDoN3CoxMxjMH+iwiZxTCY/Pe//x1EVYGvDKEZZrNbcNvttmvd6n+HXrVt23aHHXf85ddxH37wAdlIUFjIEiN5PgyoHnnkkSOOOII8BEMjpDc8n3zySQauONzY/uijj+auYAwWjDxty8LMmTPZbcC0wk39KlDS5FtQr1DZ0NoY8aa5AM8gkHkZH2JmcIsURQ5xU0FkGIY4mEIyzqQe2QHA1BUfC8/4nwaDWRnlBYjZ2eFg2EkenEkXVxl428QQNzEw2bHkSAs4zFzSsXVKLnv0KrllHkFabqJhYcg2JSKHBCDzFI2vlgeyR6kJzzNCMMrC7TatjsZvPlylaRGYaSx/M7hrJ1WKmfLPGwssdg7+OqQt/xo1qMM/c9t2wlQs+m5aNG9BqalXfph+PRsOO7kYaem7CQv792o4eEDxrLmLWzSue/cpLdkquP9mReft32zGrEULF5VeemiL7dep36SooKj+kllVYWFBYZ3l/nty8cBdm/4yceHGneu/eFFrfIJP88Z1Nlip8II9mnRsW/j5j0tkqWiceN5xTPOLDm5eUrIcis25+y4zDWtQt+CFQa1XW6HeO2MX7t69Yb8e/xOh9+jZaPfNGnFj11UK992q0aWHNP9r+qKNVq//1PmtWzUqCPKQka+8G1hhYALMM+AivO66644//nieEBSQ4447zvxvuOEGxA4ECDrHoUOH4onScd55511zzTU88/TLZ5xxBh0TkgTyP48TosAzzzxj9zKXxqQCzQtzFd4WeNKVH3XUUfQX9AuHHXYYUgLdDW8XLpETHjC7MfqX5Qs8iZzMsIjBs003xCIGPVSQNE8+RSBai5DZPjnkRrSP/fff33Ro3ky8QRGwkCrIJBnmIWcbI57cGMRAYPQIUo9mHk+jccEFF6AXYL2c/rayaBnL9KEHpy/jQ8cKAVDccccd3HXTTTeBlHZMVg844AAMdCnviSeeyKudq7HZpoovvfTSO++8k3cAYYAJLj4UP8gGFc15k66iGUxcfvnlvCHo06lK4BMedNQmhBE9H3zwQfpcFwmiGD7IKFx1y0d0ptgAEia2Lbl76a/9jMUWxAUGDm6SdqlfddVVrPVRm+SNhLjKa57MU9cMX6gyv7C4KSm5AogNsFw8119/fYAUWZZ2RYS87RhPAAHgPBQMp/BktY1xAy0cntRI0JwIYJ9bb72VBxAFEOEGkcvPf6rM8ISecsop1D41En0wuWvgwIGs6qy//vo8qtQUTSKhyP+fkQz/34ZQlIh4L7roImDylN199908HX5KUXQBqOzn3M+e3CIgAiIgAiIgAhkkwLAKFYbVLLZWIKz4MTNeYnCLDw6CMSLCQopBLEMyBhK33HJLEIC1yXPOOYdJPmNRYmOQ5sfm3NF4uMTY0v76g0DGS7Z7kZVdVgEZtbpIKuNg0sGIFwWK1XE/HlSJNTqvPnbsj3asu38p1s0A2FaXo0MjMswtTMSYQ/ljeyZf0TFYMPK0tBgPM4nwp36xeaiwp6lXKC/YIjBaZrpUrqioelNqGP2y6Mv6MQNsCksbIGYuMeBkSEmz+f333y1m0gIsl7jFzTGpCJt+Mmg37Aw7nSUUGM1NeFRF6JEuc5ByZTXNwGSMYTypBOGZKNFikduYs1BMgpErC0bRKCAtlr/clTBf9uPk6aAlkxaTaJv/+ldz1l2TLbBWblM4dWY407aamDWvtOspkxaVLvfj4LZvfjVvz+uWdIi4j9q+8XF3znjsoz9LFi/XvlnBZze03aN7wwF3z9iz5xJzrV2vnNq8qOD2E4rPGjb9ztfnFjcsGHt7u63XrP/qmGXGU8Rz0DaND9ymcZ0C5snL/fetJcZfHGsVxDlqzAKMvB56bU70MK+R57XkxK4eZ00kewmfLidNnDa3tGPLOp/c0PbgLRve9OISyTmzn4MOOogHg53PKNzHHnvsTjvtZB0KWg8WT6hC7FPj+UGPYFq+ROFbbjk0C4QSZBHLCa8TehAmqyws2F4/eiWO0/IlXpZNrrzySm6nC/jss88whGESy6ZFFCgi4RG9/fbb0dGwekUfQV2KlhELGjoUjlrkEu8qHkWOHyLDRIIPDyQKBcYmQdL2gmRdhSeceT49uFmZ8XZkhcdSR5JjdYVS0x1gqEVs5JatgiRHKVwMfpaimXf2UJAhD9jF3HjjjSeffLJ/VwbdvGNIhQhRZKhB9DvMx3i7wwHLZ0uIbWh4mhtuDBRSZZtuHZnDIqQg9JWxVeBXNOsnmNKg8lCn9KrUDrZvmKeRxM4772wF50wBV2SWiUgC3Qq5zXlGHX4StCV3AoJZnLmMXXLJJUHjcfyJc++99+bFjBka7cGSoKIPP/xw3FjYIUFiL0ZrpP2wokWTozUSswvMawMdEzMuZFkMuBgPYbWHURW3R5Fa/PxFxuJ9bAWHCdIVxoZXX331FVdcQfwuWGxzYryFxRYrh7YAiKzm8k+FpsoMDyYbGImZdEkRh3swiRAlEdo82hzkycNC1dAYUhXZZS+zDhaITK/k3Y9QSEF40jF4ZJswjdalFUV32mmnOVDcm1BZLhI5REAEREAEREAE8oIAy8boOAy/e/XqxZCAQawNY8g8/rvtthsmV2ZkhEEQYxgW7RjPbLDBBgzJ2IThB+AWBmzcjlSBmT9G/cEprgZk1KhR0XgY5KMoMURk/hLlZjMOpkXRS+XyYSbFPkTW/pmJnH322QyHTj/9dDP2IR7KxWFYvoIWGzmnFTNtYb8LY3WmM7FDIwbGWLSh9zH/wt7fje0Zn0fHYMHI0xK98MILg6lfbGay7InYhD5lChTTK0sdYowwocdkDY2JLRf4M5VDdWLEi7hDeGYcyEBYVPhKmUlRiIB4EoDRMrJObIlIlHEs2qhrnLHBKuNJKagsrBDQ3Vw85Jwi29ieoqHK8VAwSWFahNyG6goEsoQOxbAfAdTdmKYjTc0rzdiqNFjeCFgIPab1YHsFkQ7HTiyTy7RZi9oX14sN9vH3C0weataozhbrFk0YumQ226BewartCjn3/fb+zbdZv6hxEfZWBa2bL5n+uc9Way7ZMXTJIc3dkVjdOtcLBKzBz8684LFZay5f9z/9W9x1csuVjkIOKw3i3Hbt+ojLd72yrFFaElt1KWpUVIDd1l+zE+Wr5ZZDveKWX6YuXlhS2mWV+GK6bFfMwcPPZBK9BvsjLHF45pn5E5U9EtbD8vwjYPHYYEVFJ0jviWjtkkO9wk0vgDko/szDiY23C1a4dKP0IxabPf98tWNxEAXoxy0SpvrIPaYlu2gDB+85dCVeJ5h3WQ5RIniYMesgJDYmSAAoBdGkLR50a7oDJ4jwxsLmyy4haVnXRlfF68GMlbiE9VawTmLh+ZuQeZOB6Gh8RO7GTDmQyXzJht4ZLJzyiOmQM0N1O9TYyYUckJBt7HQs28nZ8yuaFQBEJUYYfGwZxF4JbJeLnmLGehGaI32xE4lSJeQnAUBXX0H4WP605CCY++oGCrzt0C5tvQWzLEYzFgYflze0OVqy3UKr5l3OWo0JWFGkLgnWf2hRKKr48DZl/GRNDrYuTCoHRo5YJjK6YlhmVksuZEJmaMMWLPpgmnbM04FahI0YD2NykV1ymXXwRCPA8RDx9uXp49cGiB+5E0Hclj0tuSg6PxvVknM/A3KLgAiIgAiIgAhkkABjfkaGLPKhOjFC4IdrUo33WJxmH58N8Fg3JQ+E93PCbBwLd453YLzBuNGsbPwA5o6NJ2HyjwDE2jZ7GNnNEI2tXD6ksv9++1FGG9EdsN9+frosoLLEyxwnlYxiaVF2plEIWIzzYWWGZsE4Njjg3I3tY8dgwcjT5mjRqV+5SlpmYAb5DLDhgKaGgx18vrSU6nZGjCY2MbhF0LFgjM+tVTCqRP1hJIk/uh6TIMrCtIhJHIN2JrBO87IbaXIuXRvV+yNSPw9EQsxklaoh6YRZhn9Xed1Ey9SYpuumIZiDIWwxsSUqmjeF4isTFpuJm3pV3lSIhMkamhfzIJsjlDeGagmfNwJWBeh8OnbhZms26LJC3dG/L9usFMQzf2Hpa5/Pu/TRmeY/dfZifrVw100bHnnjtJFfzh97yz+MOQkz+reF/D116PRPf1ri4DM+xc8acjbWZY/8PeLfrbdZp/7emxcFcf48acmmvI7L1/38t2W78/BBvbr3ldmc/t5vowZPfjp/celyDQqTrCiR25DcODZ+SVaq5sMzzLIGc3v0KZOHgnSYi3KcDRYf7K2jmzB7Fj8MzxiPH08XjyLdIlYwmOfgeOKJJ/xgzo1YTudiX3HYje5q1MFZWpwihAUHFkZETidLDBihOPMW+qyEpFHQiZOErH/Hgb1SkAovVGRv1kno2ji/Kbjqfy1v5v17q8KN9MYCFO8q3m12nJmfCos/dFj4ZCTbrqKx+qaKeZXS82KdZynS/0btbHlXIdAQGLWLZS6qCc5+DgO3SyLwd18rWRDeSUTF0IRWZ3E6ZYqvXPUHQDwULpjLgEPqfJBpsJ/iGTEfysj7BjctzR+puPC+A5kJaRj9C3Mt/JGA3dUyMxP7YFIcnmIEYl54AGeF017PqYrsksusAyt0IqTtMbyAISuoLn4ns+ITReeC4UiuLD+k3CIgAiIgAiIgAjlOgCErcw0OWLCTbW1wmErAYoTgNljZ0JHpt8k3VkxGv5gdcWoHNjVua0iUQGw80WDmw/ofC4rMFzhj3hZWU4VMxx89ZZ1112WB8/4HHjjk4IPXXnddU4vQFKbPmD7q1Vex2cfOi6FgQmyc7cW6NXoKu1VYw44dGiF8xMaA/hIdgwUjTzsxNvb2zHqahsVEEoGGmV06y+esKGNqlCobREhNmbWEC8Okj+0U3GXKl/PHwcCYFmg+NlDHB4e5g5AIiwheTG+5he0R/tUMupkmIC2htVmclIgskbRLggZD9pibINsxyQqUShcslYOZAuqVzVzySL2iOP8wL0pVvJzyf+q9efxLJ0uXPD5rQUnp0+e33rlrA06JGnpM81GD/nc2nrt99M8Le29UhO0VetM6K9fDrKlz+3ozZi1GvdptgwbNGv3PcGP6rMWYYnE61c9TFs+et/jMvZpNmLF47F+LunSoN2dhjKkUB2PttXHRTccUo0C98vX8aJxjJy+eM7/0isOat29a0KG4Dge0W5be+mreqff//dmPC/5zbAsi4Tz4tsV11mxbd8mB9Cv+Q23kaHkCDD95yXx7xAdzXYky5eBp4fQirGaY3/KG4HSqVB2oPcAcmEXSnNTjZ4BuiOeKzdh4cjtf6fp5QrDAwtTCdRP+LbhZUeFEJJ5DYuakRjPfpSPjFow1gsDuK+qM7VyzGFDHeCy5C5WBpz2aNJ0CazIE5pkn8w899BD5oSfih/asLC5mHNiRYtWCesViiPN3MTgfHLGZ9wNUtRtFAG72gQAGVsgErGWxlc9ZlrHaQ2EhgzhiGyfTyTYwealE+3FKBB+/oukN+T1a3hmMJFigsCKTBDvX6CUJSbsyT0RG3s1YZpFD+l/eWNQysdH8MIr2WQVtyb/kZyy5IDba8Mc3fjy4rTHQeFjJobrJLXqTC8OCG2DZ10YR2HKIObo7kT2K1N1Fy8GEioeIfDIo4UPMDM7YtceQggjtVKxoc0KtY+xCeIy8kCB5h/n5T8iMJU3MtOfgwcST/Xo8X1gUcpgdj0ZykV0pMuKgLCClM2EbMkdxAcRKwbn4MEGDRtSzhCCMI4oOTwcqmznPSPEViQiIgAiIgAiIQCoCGNGzhMyYkJE/H45wZUzOUNaFR3fA+NqGCgxfGbqzx4oADKgYTrCE6QdgkI+BP+oVdka2bEY8TPj9CPGJjcel6DsY0HLkAtMTdiyygdGOGfUDVMDNMIxNJKeecgp/cVsMT44YQdlvufVWBvBwSEdZ4NcSyR47Rco1NIqOwaIjzwoUqsK3MMplawiDQ6YyFY7E3Ug8VBbTWEbylIsPl1jHxUErMqXPBcZBeGYijJMJwGSEQSlLqkwHGLviyV/G4RaeFshXokIOSzWZ9WOusBuVjVbNfM1iIEWGxxSKEnHJWjJ7O8gn5lf426PB1VSSZZATYuBDM0unjQX3Vu/X/BOw3F7CMsHNX1S628WTFy8qvf+0lt/f1q5v94b3j1qyZa90Mf/9T3Xqd83U3ycveu3yNn/d0/72gS226Fxv6AuzWzWrO/me9rcNLJ6FCdTSgENemN2wfsGEu9pxgvtul0xp1axg3B3tJg5rf81RzaOHuA/s25RLHJXVuGi5/v+ZynFasXHufcWUpo3qjL6l3Wc3tuWAdsvY7PlL0jvkhqlF9eqw6/CeUXOwEXv36uWvObL5T3+U/C/TS0uO+EUqbHW84pG/kcOW+mXyD88kpx1xABY2Gmy+48Fwhx/xzLiUcPPAs7maFQmUCB4edwkHqgSCAmczY2HBBJUnn/1iqFf0s5wZZNaefmy28kBCTNeR/LGrYnHA9l7xdOHJLioOOfKTcG7iYYGFVx0iCzGwIkF+SOvMM8/k2Y4mzVWOXiJClBG2dqPHI6ZQEI6O4kwooiUzlh/c2Jdx2g6BsUZGl7E8+zG4wLGZ98voMlxFDl78cLMPuglHJnGCAG90jG7YB0oXTLrIiBzpxYcdmhyEhE9stvH3c969e3dupF5MkbT8EwAgGFv5FY2hEPoOuLCJQ8mySLC15pWPZRwhqSZbLuNFSzz4w5xVMtZSsKGjLQGcBSVfPArakqVuf/2MpSqIhaSaqF/aCRVNl+1qza5aPgcNGkRj4PgDzsDi4C1TUiwATZ3VLU61pwi0B9ws3HGJeHhnBEjtFv4CmQOwqAVaI7RhiCdk2GsJKGoKVvj4zcnuRYtEcyQMJpCIevD0889rLDYz3GsFiX0wuYsNnkRFZvjwNPGSSyiy5SRTfznBigbAoih7Bu2sKzLJ/laGntAGIC2WtNAxcaDrxaLzQWUt55kioHhEQAREQAREQARiCWC/z4CHoY5dZXSH0GA/kWQ+DClZlmPQyFiXhUA2yjHq49BS1mgZmxHGD8B4FX9+jpmDpVBqLFrsuTA59439Y+MhKn8IaqmzV8CmOexpYHzIh/Vau1SZv2gHLNf5CsKgiy7ixwcZGA8cMMCM0cqMH9MbLP2ZbSUM6mxwSFTOER2DRUeelrS7xb+9zFxVIABaDJpjcXHLCtwb5I2JJ5s/mBUi7TH2pmgWgLkGBmu2/8a/hfCoRYRnlygGE0w8uYqqSHgzgyCAcSAqIkQ8pX3aRICQVfRhouSySpvE/ApxjYeCQiG3Ic/ZWb3kk8yzQs/sBm3OwtikLyFjRjt5j2rC7dV4qcD0yGrMgSXd6rBlBydlPDNYObVoXGfMn8sk/CAJ7LNWbrlsN1+TBgWrtq775T/35TWqV7D+yoUf/bIQQYpPp1ZLulcMsoKoUn2NjZPAHJX199zFf8z0takwjmAXJL+ceOURLSC2UYfCL8aXJJ/17sc15d4lZ07xYTKcvrkjtjBMemnidm+qv/TpBDMLEcLwVHPIIseuIxtjMeF3fDxvdAEuZKoI6YLRDojTD4D5BlpMmffaLYji9FCk7mIIkubBJhUXgN4KTc0tgLi7zEFgHhYTXNylIAbnH5t5dzVNB+9FFiIscLmqLDl+NER2QSJh0McFxSkz29xCe4CYG164tGBLD+sqmqUJ//XggpEE9cIr0/lEHVQEGXNJJLQld2+QseSCIDbxDgjK7qIyh6+vBZf4GhTWApCoj/TRRx/FRAuhyq7SmLkrQEdJacws8liY2OYUbcZB/mMzYxHyN3gweefdfPPNqIG2hoO8279//22X/kR0cpFdhObIeOOkFH63wFcqyLqdKLoAVIVzHhRKX0VABERABERABHKcAMvS6DU2QmDcxaDIjeQt5y5A9Cojea4yY3eDTLslGjKzEMo1jOfcLizREF9YIY7qaGlmrFxDo2AMFh15ppmoC5bxUaKLuQIOpiRgdDOU5BhoITSGYDKIDw3GjyE2WKqYfRqEKVdjiI2TEpEfPrFX8WTkzCcoRarA6fsHBUn/xoyH/MeutIzHniMRIg/9MTOlekUmp8wpnTJn2TFSs+aXBuoVYdgq+N7/n3vF1/SlK4MQGyeX2LpoARL+pjrD69Nfl+U54fZKXnK6b3I8qbbdRk00g9dMqmjdrN4PgAruf012Iw0EaQVfUcd8gSxZVfFDunSXRvAPic0uxWbe3VXtDrrd2BzGevq55QWQqgoCtnSasS2HJMpMJVVFRNuSy1uQseQk0EDdjakcyfJWUFiLxE+UBRyMp1gJdPHzmomiC0oa25yizTjIf2xmXLrBg4kpIms1CGcsGbFQw1e3lz65yC7CKnIEpfC/RtEFoKo351UERNGKgAiIgAiIgAhECfjGSgz//AGDBXYBolfRIKKnl3JXNGQ03az5YJBe+bTKNTQKGEZHnpXPTzXGUC4dhxYSDU/zCPIfGywIU3VfozkM0loibqWWt4LA+fi1VghY+VgxCXn+dfKiX9OQvRJiyMIlps3s0spCQkqivASwRo79IeHyxpO18HnXllioYXMf63tshMwapTQTwiCfHcFmP4/VPSc4OCu/NGNQMBEQAREQAREQAREQAREQARGoFgISsKoFe6USfXH0ghfPmFSpKKr+ZqxeOe+m6tNRCuUmkIOqSnIZ8q4tsVDDz1YmF6q6rrKqxuFTdv5UdeVB6YqACIiACIiACIiACIiACIhABQik3DxZgbh0iwiIgAiIgAiIgAiIgAiIgAiIgAiIgAiIgAhknIAErIwjVYQiIAIiIAIiIAIiIAIiIAIiIAIiIAIiIAKZJCABK5M0FZcIiIAIiIAIiIAIiIAIiIAIiIAIiIAIiEDGCUjAyjhSRSgCIiACIiACIiACIiACIiACIiACIiACIpBJArkiYDWuX5DJYimuCAGfML/9WVJSEgkijxwiQAVRTS5DqjKHQo5qJ5C/jTPIebWTVAZEQAREQAREQARqPIFaNYwPxlq1quzRlhzQIECeAokWJFrYrPnkyq8QDtqn6aBHZ85eUJq1kteqhFCvIOyKXFxcPHHixNJS0XZIcs5B70Y1uWypyhwKOaqdQP42ziDn1U5SGRABERABERABEajxBGrVMD4Ya9WqskdbckCDAHkKJFqQaGGz5lMgFSNrrJWQCIiACIiACIiACIiACIiACIiACIiACIhABQjkyhbCCmRdt4iACIiACIiACIiACIiACIiACIiACIiACNQGAhKwakMtq4wiIAIiIAIiIAIiIAIiIAIiIAIiIAIikMcEcuUMrNmzZ2eHYuPGjbOWVnZKpFQyRUBtI1MkFU++E9CzkO81qPxnkIAeh8rDFMPKM6xYDCJfMW7+XWLo06iYu6YyVLkq1h5qw101uG3kQvXJAisXakF5EAEREAEREAEREAEREAEREAEREAEREAERSElAAlZKNLogAiIgAiIgAiIgAiIgAiIgAiIgAiIgAiKQCwQkYOVCLSgPIiACIiACIiACIiACIiACIiACIiACIiACKQlIwEqJRhdEQAREQAREQAREQAREQAREQAREQAREQARygYAErFyoBeVBBERABERABERABERABERABERABERABEQgJQEJWCnR6IIIiIAIiIAIiIAIiIAIiIAIiIAIiIAIiEAuEJCAlQu1oDyIgAiIgAiIgAiIgAiIgAiIgAiIgAiIgAikJCABKyUaXRABERABERABERABERABERABERABERABEcgFAhKwcqEWlAcREAEREAEREAEREAEREAEREAEREAEREIGUBCRgpUSjCyIgAiIgAiIgAiIgAiIgAiIgAiIgAiIgArlAQAJWLtSC8iACIiACIiACIiACIiAC1U9g8eLFkydPrv58KAciECHw999/L1iwAO+PPvrol19+wVFTm+u0adNeeumlCIBa5OGq2C/zjz/++PHHH/s+se4K0HvhhRdmzpzpxzZ//vzAx78qdzUSkIBVjfCVtAiIgAiIgAiIgAiIgAhUD4GRI0detPRz/fXXP/300yYNfPLJJ3vttdesWbOqKE+33HLLDz/8UMnIyfmrr75ayUh0e+4QePLJJ998802Xn9dffx1Bwb5+++23CxcuNPcZZ5zx0EMP4X7qqadGjx6Nw2+uv/322/Tp0y1kqr9//PEHTX7evHkuwD333PPhhx+6rxl0fP311/Z8XX311WR76tSp6UeOiHzTTTelHz425KRJkywD/t+JEyfGBk7f87rrrjP10G4B4JgxY9K/3YX0a9Z5OoerYueD44svvnjuued8n1g39C677LLYS6k8r7jiiilTpvhX77///rPPPtv3kTtHCEjAypGKUDZEQAREQAREQAREQAREIHsExo4dW69ePeSqLl26MC289tprSXv99dcfOnRokyZNqigfb7/99owZMyoZOTn/9ddfKxmJbs8dAmiayE8uP1TuTz/9ZF9PO+00J/2cf/75/fr1c8Fw+M0Vkeizzz7zr0bdbdq0Qa766quv7NLs2bOHDRu2/PLLR0NW3gcZhYa699579+zZE9OhQw45ZNGiRZWPNv0YmjVrtvPSDwogH3NX/tEeNWoUpnAuG2iIroKcZzoOv2bTCZ/lMHSM55xzTpYTVXLpEChMJ5DCiIAIiIAIiIAIiIAIiIAI1DAC7du3R73i06hRI2wQKB22V9hTrLHGGrifeOKJbbfd9o033pgzZ87222/funVrC/DWW29hgtGhQ4fevXs3aNCA6euXX37ZqVMnNj316tULdYDATZs2JfD333+PXUOPHj1wJ3y4nWkweSDCVq1aEZKpPjZW6BooDoWFhR07dtxoo40SYuBSNBI8sbh57733yGH37t0pJqULMp8cp65WLwF0Vars+eefX2GFFXbYYYdx48a1bdu2RYsWLleuuSJLffPNNyUlJWwfW3nllQmwySab8Jc9hlgXbr311sXFxXylLdE4P/jgA7tKW6UZ07q49Omnn9IISYjAlVd5iJAPEtK6666LY5111nnllVcmTJhAcrRJGiHPxXrrrbfFFlssDbjkuXv33XeR7dZaa62tttrKPO0vGUNoowE/88wzO+20U8OGDTGWfPbZZ3fZZReePh7SzTffnIcUiftcikQAAEAASURBVAqHlcVuLCoqsmKy7a60tNTcfsyZdZMr7OYoY+fOnekHEMftKf7555/XXnttSlqnzjLTmaBm6XOoQcIj9kHAMkaEVD3KZrdu3aKPf0LkfrloEoAl/pVWWomqr1+/PldpFe+//z4mcnQvtCt6HncL4ikyKGIf+iMf7rL+bfXVVwcyrYiiUQUuvBzZJ7CsGWU/baUoAiIgAiIgAiIgAiIgAiJQXQTYS8XMmb08TBSZ/ZIN5tXsKLT8sInpxBNPJAAzvRNOOME8//Of/3z33XfMk9EF7rzzTrvlmmuuufjiixGtmOAhPL3zzjsW+IEHHijTOuPFF1/E0gHJYPz48YceeiiTRu694447iIdZK1N9jLbq1q1rEab6GxsJcsDRRx/NBJhp6sMPP8yMN5r5VBHKPxcI2CFEVBwf8kMrpa36GXPN1U4sQphAsOBz5ZVX2i2YPmFRaHKq3YiS8tprrxGSr6gY2223HQ70IDb6oV4ho7Dhzq76CVXMzfOF9oTuhsyE/ov6hsxEa587d+6KK66IZEzbJmYeMcyRaPBIb7RkewQsRZQX7M7wp4A8j0jJ+HM7bv7ixjFgwICCggJQHHbYYahjdmP2/95+++08rchPHF9lBpKXXnrpyy+/jAZ07733PvLII36W/JpFDb/qqquoI+TFY4899s8//7SQFA05DP9TTjnFdSkukoTIXRjqkd7swQcfhDx42YJKq0DLox+47bbb6BaQyNmW6MJjHHrmmWeiZ6G+IW7aMWSAvfDCC+nfEOD++9//WqfnbpEj+wRkgZV95kpRBERABERABERABERABKqfALIOhiE2YbYthEGemFdvsMEGiFB77LEHwZiEcy6MWVIgOd16660DBw7kFmbgTA7NdIKQnF/Tp08fPLFZ+Ne//hXE6X+1ySRTdAxM8Md8huOQUJ0QFMgPhhvMae+77z52ivl3Be5UkTBnJhtocITffffd+Rub+SA2fc0dArQlhIZdd90VASI5V1tuueVjjz2GCLvNNtuYdIUAQdPF+obbaUXuduyeaMmYBWEziLxyww03ICqhwCJMYGWDPQ5mgH/99VeZKboIExxsIXSaLNIMOiw5ufvuu3mCUNlQebCNQlBDnUGfQpFBN8Guightmy35/PfSD3oxT1OqhLiRJ4WrSMBISPvuu2+qkFXqj9iEuRkGSlQBCWF9iRqIcoeZGGCR7fbff3+XgaBmjQkQ6DHQKNu1a0dIRPN99tnHbkEuN4XdviZH7lJBvMbUiy4FYR3zK8iYkd2IESMeffTRYOsoNQJJBE1Cuhicg5O/6PFQEm+++WbrUtwlObJMYNnDnOWEy5scB84hLSffxdsrI31Nciq6KgIiIAIiIAIiIAIiIAI1gMDhhx9+xBFHsFUHM4TTTz/dTsj2y8UeKL62bNmSv0yqEbA4GZpgTE0bN27sm3u4jT/MMy+55BJmsxhAIUvZlkA/Tt+NtQUzc9tmhT8mV/YrY8TGKd1My/nr74ry73XuVJFgCUKhXDAcqTLvh5E7+wRQdmiELl2EDKQc97W8DmLbb7/9EKcQsNBnkU78GNBTdtxxR4QMzHPYZMd+N2vGCKZO52LimZFJJbtWEXlJiMfh5JNPxuQHcQSjKlQV9DWEMxOesHBkm21QZJ4LbMHQsNzT4ZfCd1Mi+8rOXzQs/1JVuIHmVxZGYaZo9+/fnwxzAP+BBx6ICIjdGUU49dRTyQOWaBSEu2wHX5ArpvCcq4VZHJSQDt0BW26nHj0AepN/V5qRY2BF/druUfor2oPdiHYZqFdEPnjwYFrFQQcd5Cfk3LarlLv8Ts9dlSObBPJGwKInWmWVVZLR0CKTA+iqCIiACIiACIiACIiACIiAT4BZJefjcB4Wtg+c0eNfCtzYtjAP33PPPbGrsg16QQC+Mu3E1AJLEAIwj40G8H1MIGPKapu82FhkwgESAxuIMBBj9s4GIv+WqDtVJNhx2E4luyWdzEcjl08WCLB3D1nHJcSeskoe2IQdDa20b9++yCtOWnXxc8oVTQtdifaJ+GKHaqFz2SlvBHPSibulMg6SwHIH0ySOaUOxYscfW9jYqoYdED7EjECMtBpNYrXVVkNqYQskhpBmyeErR9HwqD+Ej/pn1gc5CaVp4403JlqeKazMjBtSEb9IiADNZkwu4cmHvYEu9Vj1iquIjOzyu/zyy2kGF1xwgQvvHFiABjoAsng6kSNd+T9MiZu7mjdvDigXuXOw2RMzUiyt7rrrrlRZdYHlqEYCOgOrGuFnL2nWMbDlZvux/xavouTR13kfVFHkija/CLDyyRAkv/Ks3IqACIhAzSPAMCALA4Bq4ZaPow6GSWTbcHHmsTM3qBaAlij5YYcOlgXRqX6QK47dIZjNXTHCCq66r8hPbNthY5RtDHT+5qBBYpFhH46bITZOlsEa5ffff8fOwpQLTFQGDRr0+OOPc/SMGVAEkbDf5//jmIdJSGwkHAh9//33M/uFOWOSNDMfJJRTX3OkwWScCVtEsdzhtHIEEU5Y52Sorl27kooZJSGXBCkiCREy8ESHsqOX8Efg4PcH2BjI/kGzD/IDY4mDckQTpYXgj20O7YevNCTc7GPFcsIPX0k3hkgUjR2OFAprQWx5ONMdT+x9LOYNN9yQBo8dFl/5yyXzZ3/uUUcdhXUSBpJkDHGZeNCwgvOk0J0xYuIv52cZt0pmOPl2Hurhw4fTD/DM4kASImNkgEOmeCo33XRT8sC5UZiD8YTyEwrkHBsxVyiL3K9Z6hepDvUKB3sDXeqUiCSoDlKxngQVz6aZyZFbDGTJgoGFu8gJ5pwI4uxnJDNUN56Y2jkLGFRCzm7HSi6w9nL5kSNHCOSNBVaO8MpgNhhK2hmZiO70YvRcZp4dmwQ7eOns/B/diA2WypOzA5DDGUwEcjLyMyMGVjxYc6N/pzdPFUOyP/0L/Q49EYXiN0eRrm1kk3yXruYFgVtuuYWXEO9+hgIML/z952XmH9mUkUGZlv9lxjNy5Eje90ceeaSFxMaY9xmHFJR5owKIQJoEGC8ysiQwa6SsjrKHxQzynT+LsZxCylkqQUdNAM7XwGw+zYQYh7EazNGtaYavQDCyxKOHiYT9qg7n17KN4rjjjqtAVLol4wRSvfqdP29SzE/4CSpG2H7qLoB5Mh8INkb5gaNu5vD8rBI7WaKX8sWHFwECBLnFTod1fh5GhjRVPergDcjYKaiL8hJzObcbMQlh4k31MV9laMcpzsOGDTMDovLGnJHwWEzwISdrrrkm4zd6Jzbd+DEHk39CcngNuw5xMHT0Q/ruVVddlWEDcZpdlX8J97nnnut84MMhP2w5NFut448/3kYazIGhRCpoCgwk6NPon91dODgeno/5kPPYSNhHxjSbDBOMeTWKWDqZ91PJghsxAlZ2lDjJYbaGD+Y5AXnLSbU3mCoCwpuXA4+cqR3FpwmRFhAOPvhg/JmqYKTDVzNEQphgGhUMBekWOOMMetg3MTHhWePGYP+g5Z8uFCMs9COmYOaD4Q9SKbVAk6PtXXbZZbH8y1t8FBMS4i6kYYwW0dTQdBhO0NrRfRgkm6zDAJutdpSar5SUE+i5hZzwRsBciBOX2N7IKVGgoGjYN/GYEMCdrkNnYoZORJJqv6ELXN4iRMPvtttuDC3sQCtKwbZBhkyow/CEIT489Uhv5J/zxXi0b7zxRiI55JBD/DOw/JqF9kknncThXzzpWJAZef7Sw/fr1w8mXGKCSSRcJTbER+ooIXI7QouWQA9A58CDj3kXGcNtOwd5G3LcFTEQJzk08y5KQaLkhLPwqTWIWU6iBKrUhxcEI1JkXGqfk9343UnkVDfXjk06C2PL2HSry7MAbbK60vbTxWbP/xp1szQUmA5GwyCg0jSj/r4PHVaZafnhq86NeLT33nvzHmLljfkPUw5+uwHRNzZFuirWo+xIvNgAyZ50Z/TpQS+PyH3MMcfYSXusTbHGRZ9oc7bk2KJX6VboVc3kO/kBi96bOz650zZyhwk54WWDDTZjUGyp+Ekghhf0pGnmkNEk72ZWM9IMnyoYLZP2yVYC01gZaiNgpS8ZpIpW/qkI1MJngUNDOb2VkS4zB37kiKEPwx2GDubPgJjBAcopP1eEkYK/MEsARkjp6wL8og2/881MLBX8yvuTJQbirNlycCyxsXrBCbjYw1c+5toZQ2Yfh1SvfvO3I7SZ8NDLYTTtq/8WgHG2bWyhEUZ/UzyhgmjADH6YNSWEqbpLGWHIi4BpDBMnjHR4IzAmNBGkSkcdvAHRUCq5JkfO4e9eheSc9UheqczAYc40CQHL5uoZr4KMkI/NFRNLdCU6ydireGLawGualaf0172oX+K0Q4iYDDNXR0CkCEz46Z9R5NPpOf1IXN4w+GLYwHTafMrMvLsRR9UxdKmgPvBmGTJkiPmgymFG5Gt8LiSOKm0wfkIZdKfPkGpiWsQD4r9nyQlVhpRAPC5XTGCZvGCaF0gMtBaqG9GHkFjcQJXnK33txiaJfkIuxagj/XIF95J59rKRySDzPDUcMxdrb+hioHS4/fmaNQmmkMmPpIuhTEea5QI1zymV5eOlBlmlM/4uIQpLnLHdhatZTLe4MSrlU14EHVuQswhBxHvQ2WSkipy8caN76rmLyP2sEhs9M55BY3PZrowjTYaxSfD2Z8DJkf/kFtMzhnOodf5cO3pXFsaWlijliqaefR9ZYGWf+T9SpEXyaCEtobWzkoCexWVMorDK5qlj8o9gj5sJDw82jxnaAQ8t5qOI3Fha0me5J9PiJRhyGDEwTuWYQB5vC8zYl5BE6JJHcsIak5GZPcwmb/EyQNVG3uZJ4HYWuzAH5Xc6WBjhNzLoZxkZcKgBAy+MRVk9oAPlvYsnUz7yQyRkFSXLOl+iIp90OoRkcYmkMSZnlMavLzNLRFSu5KqmK4scVUqAKmNpiA+WgKzhm4AVtFLLAJ6skDP6RGxlBcnligEB5rvYFGBIRRM1HYrmwSucaK3V0WKxGOdFSLDAyIV4mD+w5MIQ1p2v6VL0HxY8aWM0YBRhFG2iYqrA1nqaKI3TmiVPVtCqXT7lqM0EGMSgCPDB4ILzKbAtt9++wd/WM1mnpS0h/ac6IIaf2mFxFf2IQRj9py2osPrCXQzRunXrxpCO9okPIbEFQCZjhY0+k7VKbrRVwdhIqJfg4SJCNpLQsFnb4IzYoOJ4s2BdSx78x5AwWCLQgWNTyW8w0aXjg6kFmxEYcfLk0s8z1eQNgidrG0494VFiZwe9PZ12ldqOBaWowV9jX/2UlyrgTU2dsmEEXcZVgUNB+/Rf+tZ58ial1dG/UWsmb1Fl+FCz1pfSpGl1fOhmrcaZJtFz0gxoljZ2T25RLgPV66A909r5MK6w8RL5caOO2AFGdNDCLTxlsGKcwzMIQ54UsxJi6wpPB0cpJxczOrax1wpsmUPykqLiqCk/EjoN2xZnniTKE20Clh8sYXTnB8sFd6xdlcsYJMELltj9gy5Y4PDbNpNPWiynAtH90qPSd6W5eOZH4uKn++LjviZn3gXLmoO2wUI15bW3BnNXDEBIHSmHcRFnctNjRJslwXj2TZVmVMN8gf65zCEQ0eZyM0PjsPlCAD9aZUxeYkMi4vChQ2MCgmUAb/NAswhiDr5mZ35OlmJVKuZZsf5+Jv2W7PtHEflXq8JtqIOYqcFAvSIAY/sgmPvqsk3PyXDL+TtHtLxB/Kkit7ehiye4y/zLpO1uz6aDJxS5yh5560KDuXYwlsMazh9bQpKXlM3rWe9hQsQ7jvzTmbA8xkuKWXksjWyWsZJp6QysSgLMzO10WCwqMm1gTIk2hBUozzPtD/GVCT/aMx0xl5j5M+Hnd4V5z6EWMfrEaBN/lwncqGBY2CIh8TLjIDpGD3baH/MT3H5I5lSMBoJunaEb28Wx/yQDDAKwrmTvCW9HxGCsDLidhUTkJwZnLBahJuBD3vhL5BY/ZjIIbfggWGC1SyS8et0vyKJzYcLDc0Wh+I1k3taE1CfHCTCOZH2D/pQ5FXtdyW20leJJk2ObEq8uGipTa1comiVNGsmSoQaNlk7WLjF1x54FN63uwgsvxI6XFwnLZTQbmqu73Rxor7RJP1r8Y7NBG8PWmokEA1+Wf5FoaWYYobhTIaOtOkhLX2s5AVoaQwde88aBNUYUWBQBJr3MLszUNBYRvR9tjwkzwwU6OsLQY2PVRQtEVGVbH5foMHlA+PBcMMGjP6cz5+lg44B15tFIiCd4uMgPbZu3Ax0szw49apAfhib8VjQmk74/jxUPF48zkxwm/wxluMqvIJE0xz3wGjrvvPN4XngGed6ZPtlCNI8SEwD0AlYvsau37t2PVu4KE/Bf/RYJE3U6Lqob+4vYo4ioGqqAj3WS1nnyyiYqJEt7KdMwqDLaKuoVzYkxAC96Kpr2Rio46Az5CTnmHgwhrEMus0VVuIyZvZGHkYcIaY9+3tn1uFFH7AAjOmghS9zCAIlS22DJvZWwfEFaSs5z7NiGZ41aQ7RCIObJKnM9n4qzQyT8tBJGd36wvHCjnzKIxaKwTBSpikPrxd6QwSd2WPxoPYNkZ8KW6pb89Wf1AlmWURZFoAfgSGzaEi8LXh8sLTDhpMVilRkUkDPIGQWZJ0+0nf1U5hCoJjWzAIj/lYONmFWx0YSFTN+/RrrZKRmr29bIwtaGQqFo87y/+eabjBWtvP5cOzqWw8cfWzLv5tAAu5GxK7IAbvpkDFrZV8tYziZfeU1SFli5Un22WZd5DtoQtlEMRpF4aG0M1FgnZCssYzWsWmijCEwMUll1QVtFQ8W0yk2oMJBBo8VwACEAtZUJDOsPaLe8FzGDZ/HclZbmiztYnLerjA4Z2DF0ZgENuYE5G+I3yTHzIRK20pA3QtJXsmuGHc6cJsD+FM5BcNngKtM2Ro3nn3++KceMtskVihWXdt99d9vYYqYHteHVYmDz9y/mgUx1aJw0GJYBKUi0lVL7DMcZbkYrlHEVDYDthIFaGgDBwArxi3aLrsqc2Z1KYMGQR5EGGMz58UezYc8RbZIhL9M2ZhrsmecJwmqG3/SlbbMWEW3VQU70VQSQeOiyjANzCSfBs6iQPB/jBFAMDJkD0wh5ZFhOZFLBsReYENJdEyEGL3TadM64WRuwKRlX8SG8GWEFkaD8Bg8X3TK2GzwRREKHjLJsD6ZlmL+8KdiiTpwc++o8eb7s5cKQiFyh6poRFhuEeXKJh9cNBbdNOszDWatgEsUEkq6b4hAPd33++ecV3szuciKHI+Be/dY9cqyJaTSYV5sthgtpDlqgOTjOA/NVc3OoB29kLKaZ59MqEDRpD9a06AN5m6M/+vFgl2rHu2DfQQuhUyVYcovyb69GNzN21t54UsiDbbcMMhMdYEQHLXYLfOxEFdo24jLHLPCCYNDF0xrE6X9NNbZBFCA/GNCh2nDqqKsady+zESDzFS3b2Y65qziSR3d+yLxwZ2SPPy2TT16Ut/KZZKCCkMrAHhmLnpknmhU7mhNjJ146jIh49jnPIdZEJUg9YQjEeD5hEhHEk9dfOSYv1R7MvC5XbOZZeYr1l2eeEjjggAN49ln7Z/JFX4oNNQ+1P9cOxnIM2/yxJepttOB4MsCjR41atEUD576PBKxcqSNm+GQF4YnhEbMRDIOZcjPPYXzpZ5GVGb4yTqJlmz8t0ilHTPvpss0eEiNY5lEor2xU8WMwt0n1JEprjl61hV/uZTzH+VkEYEjNkBFFgIkZegQSAPFjwRi913xYAeZed44gsyAmS3bJ7Q7Dot5KnSoS+ecIAVbpmWBToc888wwmGBhrMNcKWintkADBLJr8M9lARaX/dZvVUxWK2TWXmGjRhmlagYDFc8H8ipkzK+RYlzDWJ3Cqh8XMiUkRxc1GeyxgEp4FithWXWbeUuVZ/jWVAH2vOy2YBQDEesyj6JMZJdCWzBg7tuzW3qyXY50ADQJrF4ykaM8cXxo8IDRjZDKzhCI22qcJWEEk6E3Bw4XFFo8V6wfchSkHNlxBZsgtXTS5ZSHBglkAdi2xyIENDkkz2TZPHihbluB1YK8P/NE4rH/mFiQ8HmQ8We13vbrdq7+VJOBe/ZhWERVyIW9n3rZUHKNVFpOC+DGzste3728+NB57KdPvsf7E4IFXNstaboTgbnE1Tkh2heNfZoty91av4/DDD+fscMqF7sacjdFIMIaJDjAYNcUOWsyamOKwOoiAy9MNBJbcYjcluVKnGtswasJmk2eKv6ysuPDOgVjGWcJ8TaWAJ4/uXDxy1FQCtD3sI1i6xm4I/ZpisjeWoZc1GFaR8aGVpiNgJQyBbPU61SSiprJVuUQgvwjw1GMywnoMdtMseLCEbyugrhSxYzl3NdaBCsbrHhGcNxELnMGyVuwtuewpAStXagdJiGkSc3i27GHsx+IqcxK36cnl0l5LGEO5tVl/iy9zDxsEW3jcLpiLwRwkxHiLISCJBpfcV4Zx3G6/amGePFHMiGj9LFEy1DOLKhfed9grlgE0m3HwZ2IWHUP74eXOfQLMkZi3c6AAWhVj9KCVWkUzzbYm6orDNJvGzDoYq4vYmzBPRgx1V6MONClmCKY3Ra8ye2EagLE0EzCuMqkOshG9xWbmzvgr2qqlXkWh1XIfxgpsowuUGhoSkhbNGPOWBAErio6fNGIDLB07pjHuB7MsGPYybOjDwhGxyWYs0dvxiT5cPCDkxH6EiACppsQkjfUux1dZtGgZ7CxDGWHP4IgRI6IbDymje1LsFv7yJmJDpdlq8VXPiyOTEYd79fux8eZltMqmId8zfTcvd17xCD20HF7WqFRl3ptmiyoznuwEoBGyw4Jymc1gQqI8y2UOWhhEMVXA5JBRTTBJiMacamzD3ID6wkCMfgNL4eiN1EXyKCh5dBeNME99EGjQH61Py9MiVFG2eb+wrMuQCTNAGi2pMFxhKcWS402Bw+mz5slKNjzNnepvMASqwc2MGQfmKnpDpWoJ8s87Aryb0LCYy7NjyX83lTmWY0zIcQRBeZk3oYVxWhaDQOZZjAODAPn1VWdgVXN9sQzOigpzCQ5QYKs2ueErO1SZM+BgEdXyxyvHNrczz2FBhkV7umncLN76UxdMVFAHMFNn+Z0JGCpDMAfzS8volkTZYcv7D0mCFUj++gEsNuIhIQwO0SZ4g7LASwYIxrDbApvhDLn177V8slZMAdm0hc2Of3ypH1LuvCBAi2JPNdNvZlaMwqOtlBrH4o+tEzQn2ombGzN9Yn2bts0RV0TCKiJbkBA0mSoEB1rRqxIAIy+A8AjEYiF1zEksDAGi2Yi9y/eMtmr/qty1mQCGTsyssDZCV6J9Bj8PTwfIzg70oMCKKpkYd7ErhO6aDUpIwPTY/OVnMWjq3IgDMxCeHTv6JFVU0YcLm1ZkKYYgxEa2+cTey9QFk0m2R9lVC48tGLlimhR7S9ST55c3FBkmLQZSzvg3GlI+6ROIvvrdvVzi1c/b0zbgO39z8Ip3n+CS+4rhBoIUx1aybc2OcXWXUjnSbFGpbs+yPxZqnMLJaMSsxRNSjx20RMMjPzGs4lGNZc5LzTFn1ZohUHRsg2Ejv1vKbyNyHpkzY4wmlMqH58tGTalGd6luzAt/pltubZWTWdjUmRfZzn4meU0wt2QrkAlVPJWMdhgaocMyimbzqdNA7Q3CCJ8TsugxkF95c6WT4RrczLBXxdYyHQgKIwK5TAAplv3CPNqMSJmYY5LJnMifa8eO5fyxJRb0vCUZxxIVo1YrLNN2NlERFT8ZRAy5TCCdvMkCKx1KVRimX79+tDlmCEzv7dAE1tWZorPijRU6rytbPOGtxiuf8SjvNsyyGCGxtM6NTKXsJAvLIj6chcEoCpsXpvq4bUOKRRIUg4EaG1swsGIywyXODGK1h7bughEbuULY4nAiPNn/wiolu3BRvrjkZndEzr0sObIcagfFWXLs2+de04yxFKCMRMIlf4Xfd7t05cg1ApzIQ5ZoUbQ3FpmpxNhWSnPiY/MlmgSBCWkWglirMg5j1yEbWmmTNB72CdKGralYeTnlB8mVVGiTjLECCK6psBzBAUB2NTYbQRsL4olt1UEYfa2dBLDmwLSKNXBaKT0tTdE40CzNPIrZMoIs7/4EPn6TJhjTNvptOmTcdLnsMKL9s3KAFSG9ItasdObsFKN7pP90jTyIhHuDh4s9udhzkRmkMabW9LRMdfxcuRiY4TA5ZwrEVVLHCpI+maJhFGY9P4m6wIHbIuSnGLECIMPcxeyd5zSVgaSfAbmTCURf/RaeVz8OGiGtxX6GLIjHjm0yTztTKQhgt7OEQEO1KuNUQU4AdJXrHHaj1T4/R5jcoqKpVIsPkhwfunEObmOE4/YPWin4S+lcxnATMjpo8Qtubn5pl/EPccZaBvkn6YwcOTJ2bMP7ji2NJMcjyeANCxq3B9nlJ5WDtZ8hQ4ZwMlHC6C7VvXnhj6zAEqadnUcDZkCbF9nOfiZ59fB24PgbS5qnEisJFiHoq3n7uP0QrsHwjDMFoEvnzeW01+ApiJaipjYzTt3lAYyWVz4ikF8EsPNl3IVtPiIUOefp5jxTnms31x46dGh0LLfZZpu5sSWTLPfiY/LODgDi4QgIDoThHYcNgQ1K8wtLkNsCNuwEXtXy1X7tKCFpahFBMSEAlzjdxk05UoVkYlxmWqnuzZo/y+nY/gUb3ZmlsAxoO6fIiZUiOs+3TLLLndv9kVxC5jEKILBvyRUEZg5GQqb+commzxDNfbXAePJ0RfPDe5fAebFonxdtI6iaavwa20rJDzVO20g+I5DW4s8TOLuN7aiYzdMUMTZMs91a2VNlo0wyQasuM3ytCqBnIbPVHXTXLKfT/DDToM+kY2ctPc3DCIKHixuJh0eGeNLMMG98bnFHIKV5F8FY5Oet5F5A6d9YA0Lm3eOAsQa1zDSYlsa4CGUKFdXZbiTUSAVaVEJs/qXqZRg7aPGzR8ERhY888khbafMvpXL7YxvsvJhacIARxeSJ5md2eKJtF1iq231/Hi5ic3ZbQXfhh6yAu3rJk2GW/QcPHoztMxIMWirWWIzn7efhWTHlBECMu5H/zAcDAbRXLLUZDwCENSr/lIwKFD8jt1QvQ55i+l5/yOQ3GJouVysg3GS2mZXJOSMMsZFkXZ/DT5jjsKBO42F5iQUVJDzeTVyll2NxlMzQzPjKg8kTbceHMc7EngVcNEiUQczcEmY9ZRbHBchIuVxsHItB/u0QPZ4FDOtYsqUgqOHY1fKkkG23WEXfjiE2g21+octJ+S6qSjoyW65KZia4nYLTP1CbZqjIEh25DcLkwtfKM6SHZAbt74p1c+3YsZw/toQArxXeRP74MCOv+Byhne6ot9qbArXCbovkD2GqPZ8ZyQByT6BeES2N2J880IAS2hAh01cBGCUk9+NMkHy5iveo/9WKjGdsfnit5oV6lZGKq1WRxLZSCFDjyeoVYfyhmA+Npph+u7UbU2XDjzbWHbTq2DDyFIGMEFjaWy8bYNHfYu5howo69jTVK3ISPFzEwADOH52UmVueL56yct1icdLn+y+gMhNSgGokgEDAvgNGRDQt22tgA/0ys1SBFlVmnLkQIHbQ4jLGhk0UFnA5GxZ3KcHhj22YJ8OcU9gBzgyBvY3oNQn3Bpd4uHgqnWfQXTj/PHWw8sqkCyysNjHp4hckOJaYsuCJ5T7bZBAgsOzGsA5PfpICa1PsUmmK7NNECszTUmcw27wvgiGT32AARVOsQHL52Myef/75s846i4Oo0WuQMJCM2Q+FmPX+++9DgKuYUeNgNyU7sGhggGJx1H5CioaH6RnGgLxzsUNBFaoAtKq+Bd3N7YKkgHYWB+XCiIZLNAMeGcs5ehwnWtLhUHxs9Fj9req85Uj8vNEoONYqvNToN5CxyjtryJGCpJMNpABfveIW2oDNtWPHcv7YksD0DPQPfkJ8Le+g0b89p9x5s4UwncXDnCKrzIiACKRJgE4WY9c0AyuYCIiACIhAAgFsE4YNG8YOU4az2BogDTCRSwhfyy8xUWQhhN9lA1fFUDAlYBsvvyDJiZ/MqHfbbbdy/c5DxRLNl7swD+EQFgxhbAuhyzbzcLCzHxPsHMyH4sCWarvK5lBGBVidcBwh9oPuFjlEgL04/IwVs3esSpGxttpqq+iKKZfYo20/M8VV9lvZ0b3ca4euYNiCGRf35hpP+g22eyNI0f45c4Oe3HJ4wgknsKfM3Bz/x9NEb0MBbeTMEcmcLRs8X7lWtEzlB1EPg82dd96ZCNlEj10nKl6mIlc8eUQgbwSsPGKqrIqACJSLAKf/pL/bolwxK7AIiIAI1DYCmPOceuqpta3UFS4vmwcrfK+7kclwDs6HXfZy0MGWKGQFEw1tkxe/yoKkRVaZvfOX4wKxZcvBnCtL1UgAM0mzuGHjGKZYiJ777bcfp6z6KgY/UcKB7pZJxA5kUNuggxGxGaQw5uTeaixFqqSR5Cggv53Fr7ug1KCqW0i3kZbdhewQx3PMmDEYmrHlEDdnGyX8YFeqtPLUn7rDZhYJEtsrrNJk3ZKn9Vj5bEvAqjxDxSACIiACIiACIiACIiACIpAWAbZR8+sQFpQ9mDgwZGNemtbNClTrCaBGXXHFFfw+Cb+4wrYyTrt3SPgZd/YP2ldaFNvNKmxc6eLMmgP7TX6nCMWNc7ijxmUcjGXnQVNGfvFjiy22sIwFG82yltvsJ4TJFQbF/JgYm+mwMkbPyn4elGIuEPjH3shcyJDyIAIiIAIiIAIiIAIiIAIiUAMIcOIku5yCgnAWNb9NjADBXB2jEg7nljFFgEhfEwhwFjtqDjt2+SlGBCw/JDvsHn74YTQshFGOlOIHr/2rOe7mlyg5yYsnwt8SiA8n93PQ1fDhw+2oPso4YsQIjpbDXJGf7DDTxRwvWkayh+Ump+axS5St8faj5xmJVpHkHQFZYOVdlSnDIiACIiACIiACIiACIpAHBPr06XP22Wcz58RYhv1fto2L09mwmuG4H34qC6uKq666Kg9KoixWKwFaju0fJBfsm+MsdsxwEKouv/xyfNxVjotC0sKCCU9OlbLDsFzDsxJYIzR3Tv3FvIj8I2Ctv/76LmMc2c6pXjwpWF3ttdde+BMGA8a+fftiX8b2yeuvvx5Zx4WvwY4OHTqwuRLV0grOD5tyalgNLq+KlopAAb8JkupaNv3t91yzkCKn92ctrSwUR0lkkIDaRgZhKqq8JqBnIa+rT5nPLAE9DpXnKYaVZ1ixGHKE/Lx58/g5wugvmWJ+NWfOHGSIipUuO3flCMPsFLaKUqkKhtgfYXyEfV+sGkV7I4A7PSqPyjVkyBCeC35rz/LMDx306NGjd+/e/I4nGP2CYJbF4xN9rPwwFXNXRX1VLCfBXUh7VPoBBxwAonHjxvEjDyjjuWm8mbMMA6Tl/Ro0wvLenqnwssDKFEnFIwIiIAIiIAIiIAIiIAIi8A8CRUs///Ba+oXDiXJcvYrmWT45QgDdinPTUmUmeoBUqpC548/PmH700Udse2SroJ8rbE0oTrREmGtVhXrlJ51r7smTJ0+ZMgX1Crsz7OzYQZnQBnIt88pPBglIwMogTEUlAiIgAiIgAiIgAiIgAiIgAiIgAuUgwG8Lslvw9ttv54x2dxu/SOh/df6107H//vsPGzaM49vRvtmGzElYqHi1E0UtL7W2ENbyBqDiLyNQU609l5VQLhFIj4CehfQ4KVStIKDHofLVLIaVZ1ixGES+Ytz8u8TQp1Exd01lqHJVrD3UhrtqcNvIherTrxDmQi0oDyIgAiIgAiIgAiIgAiIgAiIgAiIgAiIgAikJSMBKiUYXREAEREAEREAEREAEREAEREAEREAEREAEcoGABKxcqAXlQQREQAREQAREQAREQAREQAREQAREQAREICUBCVgp0eiCCIiACIiACIiACIiACIiACIiACIiACIhALhCQgJULtaA8iIAIiIAIiIAIiIAIiIAIiIAIiIAIiIAIpCQgASslGl0QAREQAREQAREQAREQAREQAREQAREQARHIBQISsHKhFpQHERABERABERABERABERABERABERABERCBlAQKSktLU17UBREQAREQAREQAREQAREQAREQAREQAREQARGobgKywKruGlD6IiACIiACIiACIiACIiACIiACIiACIiACiQQkYCXi0UUREAEREAEREAEREAEREAEREAEREAEREIHqJiABq7prQOmLgAiIgAiIgAiIgAiIgAiIgAiIgAiIgAgkEpCAlYhHF0VABERABERABERABERABERABERABERABKqbgASs6q4BpS8CIiACIiACIiACIiACIiACIiACIiACIpBIQAJWIh5dFAEREAEREAEREAEREAEREAEREAEREAERqG4CErCquwaUvgiIgAiIgAiIgAiIgAiIgAiIgAiIgAiIQCIBCViJeHRRBERABERABERABERABERABERABERABESguglIwKruGlD6IiACIiACIiACIiACIiACIiACIiACIiACiQQKE6/qogiIgAiIgAiIgAiIgAiIgAiIgAiIQGUJjPhtzguT5r4/feEv80pKSisbW/T+woLlOhYVdm9Rr8/yDfdYqVE0gHxEIN8JFJSWVsGjk+9UlH8REAEREAEREAEREAEREAEREAERyAQBpKtB3/89dm5JJiJLK47ODQsHrdFMMlZasBQofwhIwMqfulJORUAEREAEREAEREAEREAEREAE8orAoG+mX/PzrGrJ8hmdmgxap0W1JK1ERaAqCOTNFsJup0z6ZeqiZAQdW9b95Iblk8PoqgiIgAiIgAiIgAiIgAiIgAiIgAhkgUA1qleUzoQzaVhZqGglkR0CeXOIe5nqFbzSCZMdrEpFBERABERABERABERABERABESgNhNg52B12V457GSAbLivcohAXhPIGwErFeXCOsu1b16nRcOCVAHkLwIiIAIikAUC77///k8//VSxhMaOHfvBBx9U7F67a+TIkVOnTk0zBvJJbtMMrGAiIAJ5SiC2U4rtbRYvXjx58uQ8LaayLQIikMsEOPcqy9kb2qX4063aBolmPxtBBvRVBDJFIG+2EMYWuG6d5bp1qnf4do0+G1vy8Ltz/p6X+QPpOeT+2WeffeWVV8jAbrvttt1221lOXnjhhWeeeWbVVVc96KCD2rVrlyoYgRcsWHDNNddsttlmvXv3Dkrx559/Pvjgg0yl+vbt26dPH67+/vvv+IwZM2bttdfu379/ixb/2LEcmwq3PPDAA19//XWnTp2OPvrolVZa6ZFHHvn888/9tLp06XLggQdOmTLlvffeYzx33nnnNWzYkAD//ve/GbS5kOSBfN5www0HHHDAKqusYv7jx4+/7bbbjjrqqNVWWw2fJ5988vnnn2/Tpg3ZszD33nsvl7bYYgsGhXfffbeL7dJLL61Tp86QIUPGjRtnnjvssEOvXr1cAN8RRTF//vy77rrr448/Xm+99UirSZMm+Li8QRVQ7777bs+ePamC+vXrE9tXX301fPhwHOSfu/z4K+8mRWpqrbXWSjOq8oZPM1oFE4GcJfD444/zPNIrViCHn376Kb0W/U8F7rVbLrjgAnrCli1bphPDl19++c4773Tv3j2dwAojAhUg8PTTT3/zzTdnnXVWQcGSBTZe31deeeU666yz++67x8Y2Y8YMXqC8xVZYYQWGBPYsLFq0iMEGbXX27Nmbb775rrvu2qjRkp+UIthbb701YMCA2Kjmzp07bNiwL774ghcW7+5mzZr5waJvW3d1zpw5vEMZJDD22HvvvS0PjH9GjRplYVZfffUjjjjChc99R2ynFNvbfPjhhyeccMLrr7/OYKPMcgUjQMLHUq1YsNiRXplZUgAjEB3oRoemDB1Z8PCJ2XjV98myOzqS9zPw2Wef0ZIJs+GGG/JE0wnEPqruFhsMn3rqqa1btzbPRx99lKH46aefzlcG0n/99Rfjc65utNFGW221lbsxZx3MBShCSUkJfWN0HhF90FxBougYnA8aNMgFOPbYY918x3lm1oHdUzZPbbfM89opXPrq8ctCNshMvhzozrN83XXXXXzxxYWFS8QKKg43r9SmTZv6hZK7dhLIbwustVcoPH//pn26FbVoVrA48+LVkibx6quvotcgoOyzzz48NuhEeNIh3nTTTXgiA11yySVoQLHBrEndf//9I0aMQAayr+4vd3FvUVHRMcccQ2xM3hiqnnLKKZ07dz7nnHNmzZrFg+oCmyM2lfvuu69jx47nnntugwYNbDi7/vrro7XRxb/00kv8xd2tWzdiePvttxmG0tGTkEXIm4CrfLbccksCt23bloHviy++yFDMApDJK664gkvTp0/Hh4EsU0ReirzzDj/8cN6geDIU+Pbbb3Hwcp0wYYJFyF8btb/88stoSeZJ0Sxa/sLQ4sQdRYEnr1giRGtDt+IvPn7eHnroIWIAF9xMtCK2k046adulHxwucm7MyAcmJJd+VOUNn37MCikCIiACIpDjBL7//vvHHnuMv5ZPHExB3ddo5plb8tbgJc5q0PXXX//330tW7FkBQopihrnXXnuhrZx//vn2+p40aRIzumgk5nP77bf/9ttvNiq4/PLL/WCxb1sX4I033sCMkZwgXQ0cOHDixIlcGj16NJqOvcQ33XRTF7iGORjVMLxJR72KjgBjqVY4WOxIr4bRrrriRAe60aEpa65upIo0TPWh5lRdltKJOTqSd3cxBh46dCgLwKeddhqNavDgwVyKfVTdLfQPjNvpMcyHmf9VV1315ptv2tfXXnuNVW26lJVXXvnCCy9kMd7dmJsOOqLjjjuuX79+iHcUJOhFow+aK0UsOqZXwHHTn+LiYhe+ihwvTJobjfmS1Zse2K7hS5u1fnrjVsvXr3Nv15YjN2ndtckSpaZb08KnurV6f/PlT+/0PzH9oQ1a7t6m6PUeba5fq3mDOktWRJ7auFWjpY7zOzc9uP0Si4T92jYc1aMNYXZp1SCanPOJzYy7mlMOJn3UFI+n5Yp3HxPYhQsX5lQmlZnqIrDkUcmjT6fWdVs1qTt6wsJ5C0vZOXjzcc07ty0c8f68B9+YM2dBlShYmFyhAZn6u9NOO7Gkue6667IOQDe6wQYbsJq64447/vzzz7HBAPvjjz8yJKKjjELmLpZnGaciPGE5xUiXCFG7zJgIeQjJjMe1bt267t7YVM4++2wLsO+++zI+5oFfc8018bHdNBtvvLEzSWDhl5Gxe4cRxtk7XHvttaxC2I2821yKWJ/RWVBk8+GVeeihhxKMD25C7rLLLoyw7erMmTORqAKjBhR01o07dOjg4jQHWFAAzcQsiqJr167/196dB+pVlHccJyQBEsKeIBCpoIiWuhZRcC0o1uLWaFutgopWWq1rXdu6INZatXWnC1qXFre2ioCKWBCwaqGILYgg0gqKIYBAIpKFLKSfMDIezzn3zc3NXd57+b1/3Mw7Z84s33eW53nmmQk7mu1obmUvf/nL2dfsHdkkKXWzP/nBD36QB5ZqELI5lz33uc/1iGxd3NwY2qzcVrtWoWP+unz5cijWrFnDu43owyBIuxBjIdRetZUzicHcKuaQQw7BoZV+zEXnxRAYQgIGAnmaQdyoNzHuueeetZJGn3nPtGl4ijThGA7mumakeEoFTaPMD2UE1Ry4ophefvSjH5kSTVnily1bRkg96qijyov8p4rLKrncSCfOStm7KVdKv+iiiwxhc5epRnq6io3cWpwY+9WaYDJvOb3WNAmEwBgI8KVijCgDwWCx1SQTOtWpp55q1JQea/vHyTVrih5OiSVUSFO695VXXmkRJG9YB0Xq5M94xjOsdF1vbk+bH8PNmmjFXLJkifWx+ai72sq2JlArH18PPPBA/mIGqW0t49Gi1lrZ6yvjErjiiiuMZR/niBF4zGMew79MpJZqu20qi2+pAGXmc5/7HFloxx13/OIXv2hrUFV9nTt3rtfLbGAPT5ivShV+upU0Cdh7w5xPmcmK3GXtxq04WQ+Y32TVlQBFdsW5MSfrlfS6TUhML4GuoNsVTfe+4+N1PdxqQnLuzWoyI7uSfDknoQ50hGK0EqZN2BUW6B2qzQqbfFim+FGKtAKafAyKmoAca4D4WGc97VVSauIpD6ikCh922GFqYnIgSxj1tVbdgSZxedqLTn8w95bcaiYTGjh/RY/N5emLd9xn3uzP/njVUxfP//5j9z7nhjX3WjD35IMXPuC86958n13W3L7xGzfd5s7185ff9vUV6560z7xHLdr+jGVrXrD/gmtWb3jPD2993N3m7TxnFs13yT7zL1mx9uRlq99w313Ou3HNvvNmf+KhC3c9Y+lILeqtzEiJhza+qXBZntSzq5QNbeXHt2Lrrjtl7dKTNqy6dPb8+223+Li5ey0Z3/yHNrcp3nPYIi5777zta5fs9JnX7/q0h+1w991nn3HCHgftM/crF69506duWbr89gnywOJGVKxXqmoOJcwJMKaU+ZHQYxq1OdCbjPnpbW97G38lB+66LbXX6l3Tq0cO3RArBYr1SsBTy0/TeiWytxTxCrIMM36R9uqaJ36UH/X/9Kc/7dhdK714blDcwaqyx3JU/KqktGsBSPMVq4IYrzAt8U/2iKwpkrD+/ve/nzzaTNwM96LwYtkT0yKLjQbWV8jTwkUZKK6/YiSo5/soDM309cUxBxAuLl1QaJQtu6OPPppSbbeWXx7xGhk757RxHYMwRBRuph9zuXkxBIaTwDvf+U5md+OOd4ZAraQZz3CgojvYS8IQT4Zm7m9FEkAlMF0wG5m4jK+aAynEUHKIySOl2Hn2yJRbjyebKvmkiDQSeZc4aGyqZDs2Y9RMakDp/DEJ6Gzo9GG7ApLxe2VAL2nYF+wiUGINWAe16osJhMDWE2CHolzp3j5OFPIPlqdFX3dlain568wMWJY5Niw7SQZULZcBi4ZZrFcinQRkNWYoqQlGCrDIONpvADorR99rJutdbZsJrGV2v1hwLLvFmmZIunzAym4pb+rAzbe2Mmxr0DjlWG3R5//lKB/rtiFpwFpt7aK95S1vwVApmJx44olQECrY8tTQXGF+aM4Gdr+sy2X+GalifgKHyEwyJ510UrEOEFqqt9pI81vJrSsB9lIdc7KRJL2R2pL4wQTM+S3RtKbnv29jY4Chs6achIAePkCSt6raqrHVXe3X3aHarKRtIWPn6quvFmlE1LdKGlvdxteFF17Iw6Uc0Wi+O2xhd6oYzgasYx88T6uoX+rZHWit+rfQwSKBq1FIF6SCVuKJ+Hr1ml9smDXz/9Q1K1/wneVfvWH1Nas2LLnopuMvX7Hv/E0uC0/51k1v/t4t82bPWn/7xsct3KG88qwLbzru0uXfvWXdEYs2qY3dz/3Pu+70Zat/tn7j3G1n7bv9L1wfWilHqkwr2TB/bSlceoXftKWUDXP9x7FurFerr3wZ65U8/RUWM475D3NW08kD66ZVG79++W2PuN92b3n2Tms3bLNw/rZfvnj1qz96y4pVGycBsZXD+cGyV2nKq5dK7LHHHsVYU+rQTGalIQLyUeLPX55+5jOfcR+WMJXPzVnVsCW31jRKUuQOIGXzFT603VLESEzwUlbV8UqyUf61ttmlaXnOmyAI089//vObN9rYAiXtuWaLNMDDyG5wswgWJdI2gdK+KP1Q8ymKdoCZkwjobqghoRKsyabe0l6SqDprpua3UJBiXfZBrKTlEvTJH2XJKcWxEwkU21/5K4Y5ibtZScCNgoZcwuPy100B9rvY4MpuNuHegsqdW+aMjCQArSYovOY1r+HUVn64ZvpxqUMyCYGhIsC0TfCl61KqCZdUQdV70YtexFwlwBhkwiyRppdWpPnBAC8jyEGGZrv4XtkzcLzayHLMgXbBt7SZoIY5X5iFzDb2FZ72tKfRSD1SKN8TAeJ7mQ/p/05J0Alde8FMbxby1LxRzFXM9I5RHH744WUmqZknEAJbT8Aq7wQ9660VTWemJ5eFzNJpfeT1YKuDCfW1r32tshyNISpwvtZ19VLCBltttV6VyuirrDabrdiRRx754Q9/uHgsusGgmZ640lptm0+FXRhUdrN4YJVBwaHJUm6x/tjHPsZDqlp5Wi9u5VdLKukIKBY6zbSYypDbmq8O9wnDaMJh2CJUmBwMf2w5KxXNnBLbnQ1qlZgGqr85F1HxTmW69kjAPqLZqYglNb1A7/xWEnQlQPJSl+qYk9VqNOXJGpnAlhLoiqbc92RC72XAGp4DdIMleauYrkvGNroLge5QbZKx2+oUgunlmc98plWVAbp57ReLsEFtNrD9I8/mi0MYpp6YMykR6matb82K3YHWakILHQUBQydLTClUDNJIyyLWen3ivm68Q3n96dry7zbLbttQnEqcK7z/Ltuddu2q1Rs2MmOVCmzcZlPqletv3+HOmOpPIH7H2bMuO3yvles3nr5sk0q84M40E1f5KczZlkZL4eoqZU3P4ims6kQXzfeqVYSYu4gT1nQyYK1dv/GzF6zZfu42L33ygkU7b/uFb2+yXi1feccE0PoBx/sr93XXSZAymavkbTms9hQC6C677FIKbCazkUIa84qtS3uwlgoOq6Zgn5KYXcbGZgnLTZ4l7K9bt2xIumFduPlKSdAspcSY0MlwFir2Ju4/W7qbRJGzz1myqn9Vj6DM+uap5UHmfK59Jai5x52fkUWxSmzlLeYtH2FH+UiHTkYQN8v1VSKtppZPoqd9D1+1jp7J8YHTmR3ULgroTEnQOYFopalXUXq3WA9lSNH1t8T4adi5hH38KOWXKl/H/S+5wYWvaMuZbY5FTyuI9ZzAidTi7yJT57iDTYbTiEA5bVdmG65YxVZVJx8TmlN7pTndSEO+zgytJrNAUTUpqOLL2Su3+bTSlK+GoYmoeMXWBOaK1t1A7pUvch5vlHKFbU0sQMmXnqeM7Tt6e7khu5kg4RDYGgIMtY78WKqsnvx0SlYOxev/OrY+bIErq5UBZQWxfHBhtsVFtWb/svg2S7fcMO40Y7pha+JLX/pSvpBMM+9973spbxwNyoCSWCnd1baZiUXZVg1HMEuwxLaFGJFLAjKAilm7J2KYKIv1SkEaWGcMmqppROUNTxZqEgXpqFzA7PYAUhmVniBh/PbOBrVdcmhNC0Sy8rSIXl13LfWRoDW/1Ve6EmCXaq+gOMpkCupKeqX0/N1SAr2iqUwMLkKsXr2lGU5Q+sGSPAnT+mUL2amO4pjcHaqtinH5tO3tmIILv+rxjpKGedo6S1SmMrjNwz5QGX2tHIbkK33EaV8XAhjFmk+/KHcLlOr1DrRmzVvo2OxMHRLIRx+g40y0AWu/HeZs0SXuD1+4w5O+ecO3blm3ZPH8ZkOa4XW3b3z8Htuf6czg/NmXrNjmqIXb77bdtvc4a6n7s15ywC/9rx3Nt4RVphUztF/LssVcVXqvgKrqqF2Fq6uUDW2jxrdixfeqmWc3pvl0JoWLtXfatMjVV5/8+poPnH7rx85e9aqPTJL1is88gYkgVT0FrAdFEmXN4UZEykSwlYyDLtO+S81ZOhhWbHQYYE3Q3vKuHEQSnuqWgmma+7rVpeUSVd5tlVIzZNNhGyKTjeZ8QX1LgLDrfE11s5I/kZdgTeVTf5VRf8lIjSop0qaxrRsSrXl/8eLFHjl+SB1t5km6tUIg0IwklRbRTVV93FhhE0xAnXtRyMReNEcMCxWdlpBR61ZkyiJxFvc3MUpEu5QoUOrWrMA4hunMLIaOMPg49cBVTeb8UAgBXDmI+HaDx7G4ZBUCM4yA4VwVuVbTaBTl+K34ModQ78kxVWOs6U0gI2VS0zQDTj3bcm/GCFNTHSGkFZjo/H83raf5GgJbScD6xcfZDlDZ3Sm5Wd2sodyLKGbluqtaCkOw/y2ETwTvAJfHuZ2NklmeOiWnl25W17KZ6hfdAAAz5klEQVQ1bVyw29r1Yb1yxU85RlQy6V1ta+kl4DyjW0W4Ett+az6yyPrqPE4zctzDTbeCmjlKXMmIN+aBcrCReY5/+ite8YoPfOADbFtbOhvUnMttoVu049WVAHupjjmZuo0k6dVqJzAGAi3R1P/3zSQ6hnwm7hUi8UiSPL3diCYVE8vr5tBIQ7XU0IC1vWpdI5321pmW4awAKbra1nuTTXmkUw6se34+JidWvOJtXWvVHWj1UQn0oiuP6D5dqaD1+tZ/PXTXuVuUyZU/W/f5QxdddeTes37uffWLt6vLxtk3rD7xwbtfdsTevK48Pvvmtetv3+bGJyw+7bA9N9yhVzpseM8Fc9izfvHyHaEtrUzr9cn8WqblqtmVvUxjRB1aClevUjaZVZ2qstx71Sq6G9NKMGO+TjMDFu7FhvX2z906OScHyWo8yYmD9kuJFPbE1MGlEqw2HtmoZIhhe+om4xpADC0fe6p2C+3ENvtN2ffj2etdRhDzsqdOpNsMIXQSzihv5dKH+la3FDMvE0+574nHk3Woe116fZ2tqhiwBWrORVesG55kZf60nPOd9buz+q/kB8FGw6vIIlc2hInd7HG2kWXOtmVBVRMuykUW5OSvSqRMj6RkpPOUL1XzMg7idfVc60VBcJcbkd05IMcETE+1brRZu9mOYGiFv8LWJwK3sIOEKilQbvWrbd/6APkY3qJLEHps/Gqj5R9MH/F2hwgTKuOoBfGimX7rS08OITCTCJg6jOsywIv5m9ZqsGujweWSZsZ9o9vEaCKlHJIyjT7ngrl6iSwoqPcijUQzjJNNm+UjZ06dFGDTUTk/6BUqumrYyqaumz02m0kShMAWEaB02e2wsVFdfsrrZQkjAPDAEmO98/+oWFV1e2YaSyq5gjshl16u3JZpnbbcliWrkoOUhITyKSt7iaflGhflVs3SpZluiQeulrNO9a62TlFxUvC6LRmGMyPREsbZwehTJScHyR6K46xBGJiE/7SrNKT5lyZDY+FWRr233BvydForL7MgY5/2jjQbSFwmlmZuwjaZtJFQ57IwP8FoThDbVizHzboSYC/VMSfrSnqtyufrAAJ6RVPQ7RVNy+vOj1tcBmQ1aY9UsivJW6qMWSPXGGSlNXh1e//zAAmT8Nwdqr21teVMSXE+t/vUuDAKjG6bRkPCoVvJEsMMZzpSYQR+8IMfFLfrAeNxMDqnQAgYci63EEyCEfMJe276XwJbn4POve7F393037u/8NLlLm4XOHf52l3uuHz9wV+7/tDzrt/7zGsXffna112x6aTOzl9a6ip3gcdfcOORF9wo8PSLbr7PWcv2PHPpfmcte94ly29ed/uiM5c+8mvXL/7KtRJfvmq9i94POee6S1duujqw+emtTDPB8IR5WlGN3XPqB9X/nYu3k2FK7ypcXaVseFoxoTVxa3sr/25MK8GM+do2zU6LhrFhTVo9mV2ImIor9ywImEaJnryWCD3mfdcoEH0YfbrJBleSOEtk5MhK9pKhkywWXTfIeKuec2E1I67VfLqVobbxbOIebEnj5yX9SAasIuqVrLTFKb9ycSmFUGT19mLJkmfx26zl1oDp3rECX1XeRapF5iNVm1DkLxMipppI4H8JlBW1Uxt5bKmbR+XMXcmturOV3FooRJLgjz32WAET09vf/naBZt1cEcKRmAs0Eb/4TShL3codVa7PqB5tXhyXjwwJyux6DJE88lzfQ9/AgU2Tx5zl37kPlkdl6RhqJdBMPy51SCYhMDwEmo4SJWwe8Kk1HBDJ/YRqbU6QmC3bpT/GrzuAKM8M5W984xuPO+44k4Zx9L73vU8a6ms5TG16MS1waRFJUTdv0GkdvDLo7DY3q1Sq0awS10hTK61SJv4SiaQhDZuEy/zJFau8lb8hMC4ESoe0FVRzq12UbUgHts1T9pMZhqwXtq90e4mdAbTwSUzAsL4U8cNIocfWjR+OyWUPSXqLkXdLKZwKqXZWW85c/JRPOOEES6fhRsCg/nUFD28xTjHlCBh9duzIJMKurlOuYUJ/Nr7EqCRrmsC4f7S0Th2tcC2LLERAKosssx1BxcglgwHID6s5G5TtwPIihzXyAzcTlsSalSJQIi1oqcmn+FDXpyUgTY0pYQDJOSK7EqDIrgwz5mRjkCdrVe/iga6gy9DTFU0LJXen2ioeBmJk6a4kT0vX5YxNS5uzw4RP65Txa000WLpDtdWQMqBc9mTw1sFV09hTFzZ8TDv+J/FugppyGAKGqnnMgGKMA6rcXjdgPHrkMxI6+1U0CKK7ydZMa16d6DYuufv8A75/yxadIvzeqk1TzeDP0tt+yTi1YeM2rbeYsVo5HDBvjsq0Iof5K5nNoXUCm0rSWy1PAvYeWgqXjtFSysbdiWE4KZXrru6a/wvhLALNcP4qrVod/Mobrr75l8ZqK4Gv++0++6L37NmNn6AYqwuRaCvnfVsK9l6q/WhsVTVNs0ORa0cyPI0t2963VNhusD3YpnhXU5IeeKsRDZtYxLgBpCk+1vTNQBeFFQicKq83E5ewnIv0Xx/ZuhQezW5qfWWLApw1/FjlPHZB0WwsWR+WZkub6beooCQOgRlPwGg1xuvsZ2IxdsrgMqcZTa3R3Tvl9qYcgM6kwTuyOVV2B/KA1/MoBMaFgF53zDHHMDw1rS0jdUWGXeZX20LNc4iDqzFSVuUtT0cSPMqLdZkr6Sl7Pha7wYVO6FOe3ex3nN+r7MHophXNWtXZwNVd5W5mIq5VmMTSlEkqBBrsAAFjcHO601Ev1TEnG1x6nm4RgV7RdItymITEgyV5A5Ddtun/2DtUJ6GeU1WEwa7opoDdrEl3oNWnI6FjEGT4qMkmNHDKj1cdffHNE1rEaDI/+YG7Ty8DVmkUsc207/dqtrGrcJUR0VTKmukTnmEEpo0Ba4ZxT3NCIARCIARCIATuggQcC3K+3uFZ52GbttQBKBxR50lEEyPEn3baaQNSzrxHzEz8rbjS8GWrJygHN7MasAYny9MQCIEQmBwCx1+24l1X/fxCw8kpsVXKa/ZfcPxBU7kJ0apPvobA1hCYlkcIt6bBeTcEQiAEQiAEQiAEpoqA69t5JfMnGqX1Sj05avlwJiouilNV8ykp1/lH94069TNK65VKOnHc8t+ckpqn0BAIgRAoBIrxaKpsWLFepR/OMALxwJphP2iaEwIhEAIhEAIhEAIhEAIhEAIhMEQEnCU8fgvvw9rK2rv36vgDd56OJwe3suF5fWYTiAFrZv++aV0IhEAIhEAIhEAIhEAIhEAIhMDUE2DG+vINq89fse7qNevXT8BN1HNmbbPfDnMO3XWu/3Mwpqup/71TgwkgEAPWBEBNliEQAiEQAiEQAiEQAiEQAiEQAiEQAiEQAuNH4Bf/5fn45ZmcQiAEQiAEQiAEQiAEQiAEQiAEQiAEQiAEQmDcCMSANW4ok1EIhEAIhEAIhEAIhEAIhEAIhEAIhEAIhMBEEIgBayKoJs8QCIEQCIEQCIEQCIEQCIEQCIEQCIEQCIFxIxAD1rihTEYhEAIhEAIhEAIhEAIhEAIhEAIhEAIhEAITQSAGrImgmjxDIARCIARCIARCIARCIARCIARCIARCIATGjUAMWOOGMhmFQAiEQAiEQAiEQAiEQAiEQAiEQAiEQAhMBIEYsCaCavIMgRAIgRAIgRAIgRAIgRAIgRAIgRAIgRAYNwJzxi2nrcto5cqVW5dB3g6BEAiBEAiBEAiBEAiBEAiBEAiBEAiBEBhnAjvuuOM45zim7GZt3LhxTC/mpRAIgRAIgRAIgRAIgRAIgRAIgRAIgRAIgRCYDAI5QjgZlFNGCIRACIRACIRACIRACIRACIRACIRACITAmAnEgDVmdHkxBEIgBEIgBEIgBEIgBEIgBEIgBEIgBEJgMgjEgDUZlFNGCIRACIRACIRACIRACIRACIRACIRACITAmAnEgDVmdHkxBEIgBEIgBEIgBEIgBEIgBEIgBEIgBEJgMgjEgDUZlFNGCIRACIRACIRACIRACIRACIRACIRACITAmAnEgDVmdHkxBEIgBEIgBEIgBEIgBEIgBEIgBEIgBEJgMgjEgDUZlFNGCIRACIRACIRACIRACIRACIRACIRACITAmAnEgDVmdHkxBEIgBEIgBEIgBEIgBEIgBEIgBEIgBEJgMgjEgDUZlFNGCIRACIRACIRACIRACIRACIRACIRACITAmAnMGfObeTEEQiAEQiAEQiAEQiAEQiAEQiAEQmCzBK5euf6UpavOvnHNxbeuv3nd7ZtNP7YEu8/d9oEL5jx24Q5LFs/fb8co+2OjmLeGl8CsjRs3Dm/tUrMQCIEQCIEQCIEQCIEQCIEQCIEQmM4ETrhsxTuuunWSW/C6/Re86aBdJ7nQFBcCE0pg2hiwfvCDH8yaNWswC8a4e97znoPT5GkIhEAIhEAIhEAIhEAIhEAIhEAITAKBn9y24diLbjpn+dpJKKtbxOG7bffRg/dYtP3s7qPEhMB0JDBtvApnz559j3vcYzDiH/7wh4MT5GkIhEAIhEAIhEAIhEAIhEAIhEAITA6BKbReaSDDmQp84eF7Tk5jU0oITDSBXOI+0YST/wwh8L//+78XXHDB2Bpz/vnnX3XVVWN7N2+FwF2ZwCjH3W233XbLLbfclUGl7SEQAl0CFl/++6343lnl9ttvv/HGG1sp8zUEQiAEtp6Ak4OT7Hv1ofvt9u1H361ZcxVQjWZMwiEwfQlMGw+sqULsWOIXvvCFs846SwWe8pSnPPaxjy01+fKXv3z66ac7sfjsZz97r7326k127bXXnnzyyd/97nf333//P/iDP7j73e/easVNN930n//5nwSsP//zP583b15vzs1XRlnKv/zLv/zP//xP88X73e9+z3rWs0ZTHD3wPe95z+///u/zd9Pqr371qyWfe9/73scee6zwt771rX/9139dv379k5/85N/4jd8Q8/GPf/xe97rXIx/5SO39xCc+cfnll//qr/7qC1/4wl133ZVE+MUvflE+69atO+KII572tKdtu22/zfS6667zLkFTtk94whNkqyb/+I//qLj73//+cluwYEGzbmvXrpX+m9/85sMf/nA/wXbbbeeV73znO5/61KcE1N9bAuP4+fa3v43qwx72sDHk+dnPfvZRj3qUbjCGdwe/ctppp+2www6Pf/zjJbvmmmv+4R/+4cUvfvE+++wz+C1PSfAf+chHmskOPfTQ//u//3vlK19ZInXvNWvW6OH//d//rfeWSAmUKE23K+rJUiq9pPQDnXDCCeWr3/FHP/qRDvCMZzxjpA7QrEnCw0/AD7rzzjsb492q+ukN5Pve977dR5uN2bBhw2c+85lzzjlHzqasBz/4waMcd2Wu0KWZsf7qr/6qFmTe+LM/+7P6VYAZ2rzR6ue/+7u/20yTcAhsPQFT5WWXXfa6172u3H5gztQzDzrooKc+9am9mf/0pz/Vga1iJnDrYFlrjAjCxje+8Y2VK1c+4hGPeNKTnjR//nyvS/Yf//Efdb5tZbh69eqPfvSjF198sWH4ghe8wFBtJuiutvXpqlWrrKFkEgPwd37nd0odTOyf+9znvGWVP/roo7nD1/TDH7D4EhJal0v0zir/9V//9ZKXvOTcc881aWy2XS0JUPpeqmNLNnrBabP1vAsm6Aq6LWnnL/7iLywBX/rSl5pwRE65cGKb00JGkDbunvOc51SlQD2NQT3ZI2uiEV0mgZ/97Gcf/vCHTQUkcJE0kdqiIgz/yZ/8ycKFC0skud0hlVe/+tW+EvJ/8pOfaK+nv/7rv/7oRz+6vji0ga7q0axqd6DVp110pkfqA0ngbne72zHHHHOf+9ynJp6ggFvbJ//eK5fuzOlcvKMaz7nHgulyp7ux/Dd/8zdUiTlzNhkrilphSd1pp50m6JdKttOIQL81YRo1YKKrevbZZ59xxhkMKDQcw4Y1SokmxPe9730iLTBvfetbSRu9yf7pn/5pv/32oz5tv/32vYLm17/+dRYiMy8htTSkm3OzgaMs5YEPfCBbG+vSV77yFX+FDz74YPmMpjgz+5lnnkkUk/7SSy8lyXnd56EPfaiY66+//o/+6I9++7d/22L5jne84/vf/75IosD3vvc9TaATHnDAAX/6p3966623mnE8sl7++7//+/Of/3yL8YknnkgvFVk+Wrpixc+3AgCEkSHmuOOOA7ZY3yyxVmumPXYrf73VrNsnP/lJOShR4mK0ktvLXvYyVhIfgZr5nQXOzH/9BFdffbW2EWXQsBKPxnol/R577FF+WX+Z/8D0E1vUSw+nxrz73e+ma91www1k/coOVaqUr92uuOeeexbzQUlMfpJy0aJFOgzl4VWvepWu/ulPf7pmlcC0JsBsTaDsbYLZo5qHehMMiGSBNf+YLSnwTOEDUrYePfOZz3zLW94i0ixh3jvyyCNL9y623WZi5vVuP28mSDgExoWAyfnf/u3fyiopQwEqaP3aLYJuaezo/OxEpt/iUWhEMEXRMJ/+9KezrbzxjW8s0oKZeaQBKOe///u///GPf1xkj7/8y79sltW72tYE55133s0336wmVOg//uM/tuJbhd/85jfbVTKo6fzsyzXxDAvQ5O04jsZ61ZXTeqmOOdkAwWmGMZ+I5nQFXX146dKlVeBhUGbxqV+Zhv18U2694v1HyyB0UTQo6szZFQ4Z+EMf+pC1jBylU/3t3/6tR+rM3krYfu1rX6s5rRtUzA/WQTNGyUSGJPavfe1r5StR3K62KWXfffc1uu1Wlvih/duretTadgdafdSL7oMf/CCB+TWveQ1hgIBKZqjpJyjg/xzs5vzWe+/0rL3mfeVhC097yB57brftxx+w+5cOWfiABZssNQfvNOfUg/c4/xF7vnr/nxvTP/mg3Z+6aIdzD1v07vvusv22s6Q59SF7zL8j8MYDdjp6700OEM+427yvHrZImifusX23uBrTW5n6dKgCRZzT1UutrH30Zf4QQ1XJVGaqCMQDazPkuVyxARXr72/91m/Z0vy1X/s1WxksOA960IMsNr/5m79p26Q32etf//qS++/93u+RXA3F5o6KR3Ziiap1URHTzdnKVKs4ylLKfgIx1IsPechDdt9995LDKIurZiYr6CGHHMIxp1aA24X6HHbYYWIe85jH8Mc58MADSdglwT//8z8XT6jnPe95VmJzDZ+j97///eWpt7gI1axIisVLSwyAdqqJ7Cx9nH0I/Q94wAPosQwicnj5y1/OfcnyzCms1M1WthWIFqqlhGyeGs997nM9YoJ53OMeJ0M+X1ZuhrZa3LgEiDisdRZL/mh6hcZqIzMNY40tbuKF/ZxSEDOQTWzdhiLdtCgRlbikeXfZsmW82IphkQ1Oi2ysXXHFFZyepGkW0aq5dimOtUjHq/4vqvGGN7yBRGJ7nO2Jz6Byd9ttN3KbXSa/u5pfeOGFdpi5AepFZHRPyy+7fPlyNkdKju27F73oRagKWyT8BLq6X7xVgfK12xV5vWkpa5fWSaNczgKUKIKCH4jI+IpXvIK8JdybYSKnEQHedqzbOrBJxq9MhtZh/DVdMGHrfroxP1BzhR4uYFSKZM1v7fSyvRqqRv3hhx+uZ9LYDflTTjmFVN2k0Rp3Bsupp5561FFHFVWT9dw2nZ1kW8r1RTWpiqipQ7cso8BYU89uP1ecRwaInW3zPPOur1pRxgj5iQeKPm/UNCuWcAgMJmBKZOsvKzILviEgPZ1KB9bNyjayDkx3NVJM+za9CBXSFDfkK6+80oggFRTvXSIHJ1YrXVnmBhRtPbUmWjGXLFnSmnK7q61sa1Zq5eOrlZ2/mBXEwmRFLiu7rFi4WhnWd7cmYO2jY/tYOBAgXfAvE6ml2t47GHfccUeLKaFCVY3NuXPnet36yERoD09Yzavw061ba1bRQDMDbsV11KxlQfeTWb8AseA2c+jKaZ62ZBhUx5zMzDmS4NSsRsK9BLqCrh/RwtQUZfe+4+N1PfySSy4hn/dmNZmRFj41L4OrzBi1dEtkMVqJsbVjV1jgoosuIryxXnna6+9s8mGZ4kdZEpt8DIqapz5mgPiQ8WQl2/poCAO9qketZ3egaV152ouOLGq6kMDUwYWNwzhZt+Y2EYGzb1zTzfbpi3fcZ97sz/541VMXz//+Y/c+54Y191ow9+SDFz7gvOvefJ9d1ty+8Rs33Xb8Qbuev/y2r69Y96R95j1q0fZnLFvzgv0XXLN6w3t+eOvj7jZv5zmzVq3duGSf+ZesWHvystVvuO8u5924Zt95sz/x0IW7nrG0W2KJUZlXHvhLPrkjpRzmeCbaKnaS91SVAEnONI0b6fSXYa78+NZt3XWnrF160oZVl86ef7/tFh83d68l45v/0Oa27dDWbEgqRvEu1iv1MYcWCwWNqMyPhB4zoM2B3mReYVmwQLLskMNa1qveBnZzbiYbr1JqnoOLMx3QVHlCkbbLyme/wqxhG5aVxPZva9UsMq7MbSNbO+tBAxOKfHyK5auWXgPSw2ilEcNbh4QtQOYgYgrgRtCHsaYve1NFGSCjixcjQa2P5b+Zvr64lQHTpbaTZU866aQiTxCgP//5z9O9+ahz+yobBTa+KA+6DQ3ffFoL9ZRjmpT8kpi3quGSCcxHMuZRhtFaBJ+1+m4J0IWY+ZjPqidUif/ABz5ACGOH0kNo4FxX/u7v/s4jzrcFI9mIj5t6+hVsy9cNDWm4vNEWyk9jR07l9QrbffzmSua9f7tdUQxbBq2jpMeKtaJZEIlRZYpbQW+eiZwuBGjgfkc/rh7OnMRnhAnJlEgNMNiL86NH5dd/5zvf+dKXvtSMwSrUbCDt1KlkWqjBy5bNFkYXNTTMGzpP8QQs6VvjzkRhRjKCylODkf6v/zfHmvoQ7n1MXCyzfFh0bHXgRWIy6fZzA9kjNi+TPIlfhnb5uHSZwJXCjmAwts5hNduScAj0EmCHolzpRT5OFPIOlkwH1qWrc4TOqb9Z5tiw/vqv/5ppuGal49Ewi/VKZNkmYSipCUYK2EXgI2mxZro1vTeT9a62zQRGtMHIgmOkFGtaXdmtqlb2ZuLxClv7LKAcqy36/L9sdfCjMZPYCbOj0zsYmXjY8tTQVGDNMtvYenECSw3tfnFj0fwB1WvNKlKygFdvNbOWvTRTk5+jnqCvuXUFp16qY05WCtqs4FTrk8BgAgQPEztR1v6cX7mZmP++8wEDDJ3NxBMa1tP4AJLQzAxlDW0VZ9llnGVNLvZrkwNF3S6ypa25N1zfosMbO8VD34hoWb1tqCvFvqbXy05qfXEIA4NVj+5AazWhha5Yr6Qhxugb9ZRl661x/Hrxret7c/vUNStf8J3lX71h9TWrNiy56KbjL1+x7/zZUj7lWze9+Xu3zJs9a/3tGx+3cIfy7rMuvOm4S5d/95Z1Ryzqd7C6/3nXnb5s9c/Wb5y77ax9R/7fBkeqTG8NhzOyJXYS7XR1+/c8A0hxJn97HsNZ83GvFevV6itfxnolZ3+FxYx7KcOZYTywRvu7WDnoVGWvkupVlRlaWXNFbCaTNUWLSEQQtI/qK/f7d73rXQJEIp6r3bK7Ofe+MriUbrYjxXSLa6a0jelYn8p/7GMfsy+qIaYGO8BvetObJHOhVRWsm28JazX/oBpZXHLcVGUTjEpJNvVI0RZgmUsJJsW1pBf2iBTLGsJI5C3LuTXG9FQzpJ0KF4NX+SvGzMXdrKThmmRdr+nHK8Ai46IEuTG3sTRpiEpyRBfjwIWwnsC89fa3v92vzKmkVS6NgmLAkMTW03pUv7aKoPk7PsluJQErFVMpHxM5l1aXt8oJSojYrUr/pAn4dRhbresqw5Twtre9rTis8VthqyLZl+sSSEt21HmXlKxwY0pQqF/Wr19rNSDQ7IrcCTnEMZBxvKLqyEFLdSGdn4RET5OPlaaOnQHZ5tEwEzCi9TqKMZmYhYiIzBvfECijnsMCO2bTTcMYMW/Q4esI5Xhl55Pli4KqpWzWNG02XyOIL6G7fox9rxj+nrYGhXFnp9outNKJ4AzBzlXJsEmME2j5yuDLBOCUBK3YAOGZWDp2s58ThhgOjBF35XjLZMLo4DizMDFI16VL82SpFvmSc/6GwGYJmGbdxqgXWdF4yNKTy0Kmb1NEeT0wUpjeuVHIyhkfR/90XZqnOdxkbly0FlnzP6vNZsvVz40vs72Udi+a6Q2x1mrbfCpsi4U7rQAPrOZCo+ZscIZnK/14faWjWjeBYqHTTFOKnPlA+UqxF24NRko7tnyvimZusWPCZom28Fn+2KeaFTP5mKBKTJkrurNKM72wDSFj35LNFcuK2XTC6gpO5pAu1TEnKzVpCk6tuuXrFhGw2WkVYOvUPfj+G3o2TuRAGrGQDckBOoccrVOWPHOCqYDA1jKrearraojRrfKkQZIbG6spgtBlvBfxr5Ih+DmFYHpxvp6Yx35nc7Q+tT1DNjMbMPjKs8YPZ2Cw6tEdaK1WtNDVp3ja7a4nJ2r8uAduXvfzQ3CtnDdu3BTx07Xl322W3bahOJU4V3j/XbY77dpVqzdsZMYqb23cZlPqletv3+HOmKYqsePsWZcdvtfK9RtPX7ZKugV3pinvNv+OVJlmmiEP29JoiZ12XKwgztiqOVGNWbY1HIa8RWOuHt+r1rti7iJOWDFgtX76/q/OklghSJnFicByWO0pFptddtmlvNZKJpIgRbqyhPBn4Z5AbPXpL+OO2G7OVLXWK5stpbXsbVFxzcQ2pspXvjMsbiRXR2wcc6Axcr9yPSQRkM2i+YqwK8PspjbFXBukZE2GG4Ywdp/iHCQBNyXORHZ3JaiOOcCCIB+0TUk0Sdos/97mJkmxgFiei5eTxGL8NIw4wj5+lJa7R4nfyr/W+5JDqSGhVilqSDgo8SpgH9jfrkBAnkaPfafuZvdWplsEUaamNEEjb1ffVgMdo17k6eAJJ3DSv4C520En+jnV/b3vfa/imJPkwP5YNXDbxTQrqHmEMZA1D0YxKHC/KpeOectWlf5WK8Ba0VRpWl2xeMAxEzgUo9+WlsqNBsWmKWeOZqPvnLXQBIaZgF9Z13JcmjJplusVGordSvdr3tpjw5ncabrQOoo6pd1sIMzXiTeKV+RZDFjdQUG14yJhoLHAsqM1O3BhRSch8lZuFFH5UwmINSWy2c/ZvmXFvlAeOYnMXq+2Rplh612VPP7442tuCYTA6AnY2GBstVQ98YlPNPGWFx2KN8eamVmLLHBltbJ/oM8bRDqqBZdqbZY2Rppl8dWq52Sb8c2wldEmBIOsjRZLAOXNJFwnf6V0V9vm64YhA7ThaQmWuBqd+eoaRMXI20w/XmFlsV7JTQPrMkE5t+nVOxjLZgkVlCBhTUSSE+hIumhr8lFKd1ZpNUR9xJSaMBM0DVhdOU3KLtWtSSbDluDUql6+jp4ATyUf6c3tpFbyiVndV4OL2ZF8O/qsJi4lyYrIzXKtCH+tlSynzeKss7ZheByTvY1o6XV4VmZWDKKgRaq7+HL5tFPumII9pJbk6UUmXaIyxYS4yLRXRl+zxOEJ28YeoHr0DrRm5VvoyiMWEPEMms2UExTefe62W2Q2evjCHZ70zRu+dcu6JYs3/ZcdvZ91t298/B7bn+nM4PzZl6zY5qiF2++23bb3OGup+7NecsDOva+USJUZ8HSoHpVli7mq9F4B1dNRu2Kn+Z+GVQ6OWCUdNxmqhkxcZYrvVTP/bkzz6UwKT5t+PIXQKe20F4KUgyelGtaDIonaduNGVJxZuslKYrYVu/ekpdF4/vfm3Gz7uJRSM+wWJ38ibzF51GTl1AAvXOofk5zFkhBgKS2bnG7mJmmVxNYYiqWlsak9kt3RswtUtEdAfFhGbIIJIAMgjGDKhFVIYgGl2Itm9mIj4/tGyKh1KzKllJLZQfJXjErawhL2EVi8eHEJT8Rfu7KypXU4o0cYQow8UQrSIoEqy9bSza0sSpRzruwiTcFNw1BNVgO1iBojQKSWCQlGbooujwg9thbds+YVUohIoBiMGNHKXn3BpQ87c+FDFCj/RaN8WMTsYDeLKInrZjK7ocNZ5SyYZHa568LQ7YoaxW5F+WfiLLvHXpGeNkWJYpXwG7WkqGbRCU9TAuRsHY9jIK1bDxllK3QMcnPpk+xNDLJURC6ZpYfogYY2v4lmbnVQSEmR1tOor+XKnmaybtiEphsT971Snjb7edFU65gVKFM6rZjt1bzN1FvOUnVzTkwIDCZg/XJ+xyZWUaFLYqubeZt7kdlYN2vmoG87zWr25nDEZ9mNh5TMksA8bOavJ+WbbzXDFDN92AAxe5t49XwxNUHvalufloC52q0iHCoZiEsMm5pV3tGM5p5/663x+tpbRHcwMs/xT3edDd9koghxog7hLapJnVVG/1ZXcOqlOuZkpSYtwWn01UvKkQgYd4SQemm3zbZiyRop/WTG6y0+pUSVLN2yWQHylRFNKiZms+oSiQ2BMlh0P0p7M3HNxzpLVmzZwmpKgroF1FJbbev10VAFelWPWkPcuhpZfSrQQieG/xoVhsPOZqfTZj5jDj/wjqvZR//6lT9b9/lDF1115N6zZrVf2qQm3fE5+4bVJz5498uO2JvXlYizb167/vZtbnzC4tMO23PDHcqUw4b3XDCHPevnL9z5z5ZW5s73puDfsrVTNbuimRYlqyV22rrgLFLkSUfR+dRPQXWnokj3XrWK7ca0EsyYrzFgbeanZLXhSU4wsl9KYy9GB3v+rDYe2ahkiGFw6SbjnMz4Um5iYuOwQvzKr/xKqzA7pcWiLFBUtW7OzVfGVkrNYTTFkZXtSHCYYs/mMKVEFbNFw8+Wm4O10L4QMZqxycWHZbfTzo8FVSmO09NIScyWVSKCF3ks8+rHTdFYVR8HiYnX1XPN/okYfkyKM/WwjvlKcLeEK8sBNEYWZdW6scrbzeYHrgh/ha1PBG5hzhRWMoFyq598xvFDOSc3aI7DgLbN7YChRAAiOmt7KUhYjJs4tEUfoISUeLvZ2mXTmEeVRuHJZ4rfh6OOzbt7FKHVzSKa9adOeGqHnGqhpeVR2UlWGdoFL3F9VeeElNRCQaKxE9pstfEUo5aonhNSANJq6CRMS7q0H6v8Xs2ySlhZbApS6qhMbxpeduC7XbGk14HBd9V9lQt5XWkOEwB7WfXp6xaUmOlFwGxQtGKjkr1S1zIMdRUDRB8z3Ykf3CJOKLqKIUyG1idpa+6/o72XAx2mC5227L91x52cObY4QGHSKB2yVVbt1Tq2yYpV3dAzhwsoq5W4DBDznk5uxjYFFVsD4YmQxJPFDoQZpvVWvobAaAjoXQRr5t3q8lPeKkuYDmwpEWO9+8M//EMLihHBZmpJJVdwPbbZwLXWUVmrSbktqx5Ol/KOmXvTnyJIlJxpuQYgr0ZfyzJhtBJCnNg1KntXW4OOM4L0FABrlhXKQLbWs/mKNO0bHTywDHNleVoKmsy/rcFoUNNpyRWGKmOf9jL2+cui7VG1U6uhkdtb4d5ZZXCL7MyV2akrp/VSHXOyAYLT4BrmKQItQdfAIRcVe5DD4Gb4uhvBilH2KoaBGxMtudEIJcKZFmwukpqMWSPXtMBK65G+TbiyzhKeLaBkb3c46N7s4yPd+eCcMiVFbt02etEoIOfbLhoeDt16iulVPQaMx8Ho6AhUlSOOOMIRSxMaAbW30HGMfOyd91g18zzo3Ote/N0VYl546XIXtwucu3ztLndcvv7gr11/6HnX733mtYu+fO3rrrjFo52/tNRV7gKPv+DGIy/YZKx8+kU33+esZXueuXS/s5Y975LlPLwWnbn0kV+7fvFXrpX48lXrXfR+yDnXXbryl3YBvdhbGfFD+LGdSW8yLvyg+r9zsoaJKV24JXbSOEz+Rjd50gzgM4TNmYgqubW9lW03ppVgxnxtm2ZnTMPGqyH1gFi5Z0G2pDqiJ+sDudO871IktgPinSXH05qMCMUTnuOuxYadgu7UMmAZYHVL1lt8m1370s252ZBuZTZbSn19lMVpizzpjeRXq2aRrVlbyNCycq+NQ2cqaUXUunIhFKnahEKA9n97SWNboxSqydZUacrpG/NLSV+eVnc2X0n2pGeHNAmgMi83d5Dg3fHsqRdd5CTAaaLUTZiLNT9qKi4Rv/gi0X4ZicrNO67PKG5cUo7Xx04XTw35q6STFMXAz61MtQn9JlmbZmU3TG3Zkgo6TeDXjQ/RX028zqfDiRI/PZMcVQRb1qi656yrODbVLKJZf0ZDxZUexRWr+UiYuExM8f8zUuxdLW+bwk8APvsjJVwYLu8S91Wekcsr5Qaiko+jnV2rH2MEnd+tZ7QXyfh5+YEEul3RuBDPRsl2oD9T23wlGZD4/T+Swk7C8s8SyGcGEGA/4vvAsslM7y+ztUbp8+V/89HHuOBJU8Z+7d7Nhpd+zjZtFtXNOCcaEeYB7ic6G32VY6P0veNOPLuVsaCI0tOaOQs3vVrKRoK+Z9ay22y6KLp68xVTkwFS/isD3bXY0CVgujKtldY10yccAqMhUHq+Ll0T17HANsTSRJcu+8kWAqOGWmUJkNjWgoVPYj3TDFzkCn2eHls3fjgmU2JLzoxf3i1h6xTVzmEK5mB+ypZsSydLljWaAty72rKFFS3OamXHzgIkK/+bgXJZ1hTqa10srB2sRaWs8fqrpVbJklsrXItoDkZqJ2HADGD2ANBcBKZxbaVzDLOOX+/ysLAiG/jNiUIR3dW8FlSrUWOkFwaw6EUWwZYE6GlXhhlzMnUeSXCqVUqgl0BX0CWe0WltRRB+vEJAKu63wjYz7Lb25jP5kVw1jTXrpnpaHAnPtHRdztgkW3KwKo+MX+ujwaLDG+ZESuldEkc2a9W5DCgXZlmX6+CqaezoCBs+ph3/k3g3QU05DAHN7KoeA8ajRz4joTMhsHTYGvfROn2jKxKMb6udBHzDlZvsUKP/fG/V5k0wS2/7JePUho3btN5ixuqWOOBYYjfxlMfQKF04Q7tRE2qy5UmAftoSO0l3/OmsgwYIHcSi2VVnprwtE1GBct3VXfN/IZxFoJkIpuOep42C6l47UuajSTPSu2OIt7oQiQbP+yZQtyeQOIsrwShLGU3OzazGVkrNYUBxJgKfcsSmprejJdwUB+uj3gCJnPxHhuh9WiNtB8m5mcwKJKbK6zVlDdiqKtJ/jeEZJMwMV2PGN6CSmtOsEknaIOrSQNWUOrgmrfq784tjlMs1FdFiXluhAnbjPR3c8Wr6ZmBLf7j6bimUlWFwc2r6VmDM5bbyydehIqDnG26lo9ofM8abo8COt7G82ROj1Gbdo9nbjSZzZjNGq7vjroXCYSJX722lGGrMMjQ352o79rR3GnvRYFuF5msIjJmALn3MMccQuJvWlpGmd15RzufSveum12bLHSmr8qKnxl1zta0ZlhdHM3jrK5MT6A7G7uxBFjIXkQpc3WVbkSXIfGIu4oPWXTG1tLWab1FDuoJTL9UxJxul4LRFdb7LJmbYIm6NTXCaTGhWVWsNJbxbKFHcUz25+ah2+GbkTA0PliS7A61y6EVXn05O4ITLVrzjqs24pU9CTV63/4I3HbTpdr/p9TF4jYtig64174qdZfEa/mFem5DA1hCYNgYsviebVSFIKtxwtgZH3g2BKSTAgEVR2UolfArrn6JDYEoIWB3o9rxCHLgYrwrQHrl42L3nPlMPbY1X5snnLk7AsSDHf9wq5bxq02A6AIsTExwHaGKEeP8b4ICUM+/RGAZjNWDNPBppUQiEwHQk4F72c5ZP+HHFAWQO3227Lzx8zwEJ8igEphGBaXOEMJapadSrUtWxEeBj2N0lHltWeSsE7iIEbEE7Feg8Ret/a93K5jty5R4uR5VjvdpKknm9S8DthC5949w3SuuVHDhq+XAm2qxXY7e46R4zhsFoNmh5Z093CKl/CITAtCbw0YP3OPaim6bKhsV6pQLTGmAqHwJNAtPGA6tZ6YRDIARCIARCIARCIARCIARCIARCYFoQmJKzhNP05OC0+EFTyakiEAPWVJFPuSEQAiEQAiEQAiEQAiEQAiEQAncJAlevXH/K0lVn37jm4lvX+98DJ6jNu8/d9oEL5vg/B93avt+O0+a41QTRSLYzj0AMWDPvN02LQiAEQiAEQiAEQiAEQiAEQiAEQiAEQmBGEfj5/1s8o9qUxoRACIRACIRACIRACIRACIRACIRACIRACMwgAjFgzaAfM00JgRAIgRAIgRAIgRAIgRAIgRAIgRAIgZlIIAasmfirpk0hEAIhEAIhEAIhEAIhEAIhEAIhEAIhMIMIxIA1g37MNCUEQiAEQiAEQiAEQiAEQiAEQiAEQiAEZiKBGLBm4q+aNoVACIRACIRACIRACIRACIRACIRACITADCIQA9YM+jHTlBAIgRAIgRAIgRAIgRAIgRAIgRAIgRCYiQRiwJqJv2raFAIhEAIhEAIhEAIhEAIhEAIhEAIhEAIziMCcIWnLtddeOyQ1STVCIARCIARCIARCIARCIARCIARCIARCIAQKgX322WcYUMzauHHjMNQjdQiBEAiBEAiBEAiBEAiBEAiBEAiBEAiBEAiBXgI5QtiLJZEhEAIhEAIhEAIhEAIhEAIhEAIhEAIhEALDQiAGrGH5JVKPEAiBEAiBEAiBEAiBEAiBEAiBEAiBEAiBXgIxYPViSWQIhEAIhEAIhEAIhEAIhEAIhEAIhEAIhMCwEIgBa1h+idQjBEIgBEIgBEIgBEIgBEIgBEIgBEIgBEKgl0AMWL1YEhkCIRACIRACIRACIRACIRACIRACIRACITAsBGLAGpZfIvUIgRAIgRAIgRAIgRAIgRAIgRAIgRAIgRDoJRADVi+WRIZACIRACIRACIRACIRACIRACIRACIRACAwLgRiwhuWXSD1CIARCIARCIARCIARCIARCIARCIARCIAR6CcSA1YslkSEQAiEQAiEQAiEQAiEQAiEQAiEQAiEQAsNCIAasYfklUo8QCIEQCIEQCIEQCIEQCIEQCIEQCIEQCIFeAjFg9WJJZAiEQAiEQAiEQAiEQAiEQAiEQAiEQAiEwLAQiAFrWH6J1CMEQiAEQiAEQiAEQiAEQiAEQiAEQiAEQqCXQAxYvVgSGQIhEAIhEAIhEAIhEAIhEAIhEAIhEAIhMCwEYsAall8i9QiBEAiBEAiBEAiBEAiBEAiBEAiBEAiBEOglEANWL5ZEhkAIhEAIhEAIhEAIhEAIhEAIhEAIhEAIDAuBGLCG5ZdIPUIgBEIgBEIgBEIgBEIgBEIgBEIgBEIgBHoJxIDViyWRIRACIRACIRACIRACIRACIRACIRACIRACw0IgBqxh+SVSjxAIgRAIgRAIgRAIgRAIgRAIgRAIgRAIgV4CMWD1YklkCIRACIRACIRACIRACIRACIRACIRACITAsBCIAWtYfonUIwRCIARCIARCIARCIARCIARCIARCIARCoJdADFi9WBIZAiEQAiEQAiEQAiEQAiEQAiEQAiEQAiEwLARiwBqWXyL1CIEQCIEQCIEQCIEQCIEQCIEQCIEQCIEQ6CUQA1YvlkSGQAiEQAiEQAiEQAiEQAiEQAiEQAiEQAgMC4EYsIbll0g9QiAEQiAEQiAEQiAEQiAEQiAEQiAEQiAEegnEgNWLJZEhEAIhEAIhEAIhEAIhEAIhEAIhEAIhEALDQiAGrGH5JVKPEAiBEAiBEAiBEAiBEAiBEAiBEAiBEAiBXgIxYPViSWQIhEAIhEAIhEAIhEAIhEAIhEAIhEAIhMCwEPh/vxHqUiY28MoAAAAASUVORK5CYII=;imageBorder=default;" vertex="1" parent="1">
          <mxGeometry y="280" width="1600" height="224" as="geometry" />
        </mxCell>
        <mxCell id="QN9bb88zZrYBiZYA_DO9-4" value="" style="shape=image;verticalLabelPosition=bottom;labelBackgroundColor=default;verticalAlign=top;aspect=fixed;imageAspect=0;image=data:image/png,iVBORw0KGgoAAAANSUhEUgAABkAAAADtCAIAAABoPC76AAABXmlDQ1BJQ0MgUHJvZmlsZQAAKJF1kDFLw1AUhU9qpSgFO0hRcAgoLlapaQfXNhYVOpRqRd2StKZCmj6SFHFz0L2gi5vUxV+gi4i/wAqCg4i4CO5iRTTE+1q1reJ7XM7H4d7L4QK+oMKY4QdQMh0rO5cUV1bXxMATfAijDyFMKJrNEplMmlrwrd2vcQOB6/Uk3zU8+nhulGKuKC9f1l/Db3/7u15/vmBrpB9UcY1ZDiBEiTObDuO8TTxoUSjifc56i485qy0+a/YsZWXiK+KQVlTyxA/EEbXD1zu4ZFS0rww8fbBg5hZJh6hGMIsU0vRF5CAhTjWNeaT+mYk3Z2SUwbAFCxvQUYRD0wlyGAwUiBdgQsMUIsQSonwvv/XvG7a9cg2YeQF6qm1PPQBOdynmbdsbOwQGdoCTOlMs5eeyQsNvr8ekFgeTQO+95z2PA4E9wK163nvN89wj2n8HXJifMtJk/NOZ84kAAAA4ZVhJZk1NACoAAAAIAAGHaQAEAAAAAQAAABoAAAAAAAKgAgAEAAAAAQAABkCgAwAEAAAAAQAAAO0AAAAA41KHKAAAQABJREFUeAHs3Qncp1P5P3CzWGYYZuxL1iRLSEWF7DspZIsiS4pKUWQnS1kLkcqeJcm+hVCUNcpOZEmWIWbsu/m/x/E/nd99f5/v833W+T7PXN/XvJ4597nPfZbPWe7r+pzrOveQCRMmTBG/QCAQCAQCgUAgEAgEAoFAIBAIBAKBQCAQCAQCgUCgXREY2q4Vi3oFAoFAIBAIBAKBQCAQCAQCgUAgEAgEAoFAIBAIBAITEQgCK8ZBIBAIBAKBQCAQCAQCgUAgEAgEAoFAIBAIBAKBQFsjEARWW3dPVC4QCAQCgUAgEAgEAoFAIBAIBAKBQCAQCAQCgUBgeJtAMH78+HHjxsWBXG3SHU2qMWTIkDFjxowePTqnib7LUERg0CNQGf8Da/BXKj/oOysaGAgEAoFAIBAIBAKBQCAQCAQCgwmBdiGwsFezzTbb8OHtUp/B1Me925Z33nln7NixJYGl7+aee+7ou97FOXJrTwSM/yeeeCKP/4G1cNUnb3uCHLUKBAKBQCAQCAQCgUAgEAgEAoFAoI5Au7gQsr0KBqTePW0Yo5sqhnLRd23YTVGlPkKgMv4H1uCvVL6PIIpsA4FAIBAIBAKBQCAQCAQCgUAgEOgLBNqFwOqLtkWegUAgEAgEAoFAIBAIBAKBQCAQCAQCgUAgEAgEAoMAgSCwBkEnRhMCgUAgEAgEAoFAIBAIBAKBQCAQCAQCgUAgEBjMCASBNZh7N9oWCAQCgUAgEAgEAoFAIBAIBAKBQCAQCAQCgcAgQCAIrEHQidGEQCAQCAQCgUAgEAgEAoFAIBAIBAKBQCAQCAQGMwJBYA3m3o22BQKBQCAQCAQCgUAgEAgEAoFAIBAIBAKBQCAwCBAYPgjaEE0IBAKBQKANEXjvvfeeHTv2X488Mn78+GmmmWY+v3nnHTY8Vt027KuoUiAQCAQCgUAgEAgEAoFAIBAItDsCw/bff/92qOO4ceOmn376Tmvyr3/969RTT/3LX/7ygx/84MUXX/zsZz9bf+SKK66YeuqpZ5hhBrdOPvlkOuOIESNysjPPPPOZZ56Ze+65d999d4Xee++977777lFHHfXCCy8If/SjHx02bFh68CMf+chUU0316KOPSpZ/Q4YMoYjm3CbPwEsvvTRmzJjcduCUlzm+eWDChAlvvvnmI488Mnr06KFDu2wJ+Pjjj48cOTJ1VvOCevHufffdp1xDy8BI2Ro2N9100zzzzNNpE4y6KaeccngH5MWTTz5plDZsjvHpV956++23MSNlTK+08fXXX1fDXsmqngncRPb13LE+PPbYY3PMMUe9Ajnmv//9r7GXezDHp8Brr7326quvvvHGG88//7wB1rBbywEv3NHCpY/uu/feM84884wzzjj//PP/+te/qhuErUgNs1UBaZ577rk555wzVcbQuu222xZZZJFKJdPllVdeecMNNyy11FIN73YUWZm8HSWL+EAgEAgEAoFAIBAIBAKBQCAQCATaDYEBZgsw00wzrbjiiocccggcf//73yOw/EpM6fYnnHDCKaeckiJvueWWddZZp0yw9tpr4+ywCTfeeOOGG25IsXzllVfovV/84hePPPLIddddN+nwNEkxHtxiiy1WW221lAO2ZbPNNltvvfXKDCPcDQTo9u+88w79fN5553344Yfxhl3K5Nlnn73//vuznp+flafcGjI7SlRWiwQK/kL6nG0K4HewGwsuuOBTTz2F3BQpxigSuPXWW/1FeXzqU5+affbZU3p/EU/+pvqo2BJLLIHAQtsZY2mYpZSS/f3vf19jjTXyg2VAcTiXkqcwXOWZ6iAlEs3IFJhuuumwgbPMMksqMccrFBeDZWvSfJXXHZ/73OcS8ys3pWjLtNNOW1amDEPj5ZdfLrkYoOGO1aFMJizl3Xffbeam+Aof12lB0qN1FIQ+TjlgoPxmm222siBNMCrEQNhflyuvvHKuv7Hhccgknlr4rbfekqxS26efftroSo8vu+yyM844o3D3fmyvzr/ggquvvnqllVf6xFKfQHVZl8aOHWvcLr7EEg3zRPNlOuz2228/7rjjZp11Vi3daKONUvptt93WYEhhmAhceOGFOavf/OY3+fEcGYFAIBAIBAKBQCAQCAQCgUAgEAgEBgcCA4zAoqKjlqjuZ511FsV+hx122GWXXdZaa63cGX/729+QCKeddhpaSiT7qaOPPpr2Lrz55psvsMAC//73vw899FCKN54La4ARkyetVfhjH/sYXVH42muvpSXitlZddVV3f/SjH6X8L7nkklxQBLqBwB//+MdPf/rTo0aNQixS4xdeeGF8R2kf10qemIhEGKW/ugxvsswyy2BnEkNRUiopQ8Z6Rstcc83VSv7SsIdKlFCZPtEiyJTFFltMPFLGODGi5p9/fpeJzMrsT3qQ4xgLGmG8icevv/567fUz0hIzYrDJENUiDfMuHAfSRIL0ePqroESyaGZqmmZqtREuW+ih25jVLL744v4++OCDSBBTwK0U//GPf1zRmv+nP/0JR1YHRyn/+c9//vGPf+DXcv3lD+frrruuQsmVFdNkJkUqkyNRZibU0ksvnWMEVFt3C/z5z3/O8TnbVgoCkYmsRflxbUc/rb766jnShL355ps/+clPJqy0V6eniZ+ewm3pVo1yqbFwM2AwdBUC68Pv/6SxICSGKxcqoEMr6cu7lfAjjz5qsVpjjTW32nqrueaa88033ppmxDRHHnHktddd15DAUv8HHnhAnVXhjjvuuOqqq4455hiD4Tvf+Q6cv/GNbyDjrFq5FKamOm777bfPMSUrmiMjEAgEAoFAIBAIBAKBQCAQCAQCgcDgQGAgEVj0z4MOOghlcOCBB1LVEAeIKr6EOIKddtoJI0A7peAJ08MpvQy1qKl4gV133XXmmWdmr4ELYLdFL/3hD3/IUIUajEHwINsct5hlobf4HyUXJLYPTSxWBkf3YxZOP/10Dc/NodJ/9atfRTPlmN4K4DtQKolT0HdMcvCDJZ/Cek5ZehYLiSRKxNYTTzyB6so8BTYE+4AlwbYk6oRJC+Om5BEmWbZL0rkIHc/qbpwOfgcXmdrSaUGZxSjbjhvSBHyQSMTBPffcI4Al0QR1TnY9qc75KfXEriaKjd/rJz7xCeRdvivAWw27pI3Cxqdy665t0iS2SxHJES/lYDqwXEslesp49mNmxa0M3yErycSnZ/l4Yg9lVamAYW8MiK9YG8FW5sx59MWSSy7J5TYVqgeNFk5wLrXOL8X7a/b94Q9/YKGWY1IAKaMaK6ywQupEGF5zzTWZKWulII9XDC2T7V7K0JBQRCIcMWhgVBOEF06zJNcMAL+77rrLMLCG5EpaKPLoypEoRfDWrZlUvnUCCx0pk8UX/9iH5prLIBk5csRaa6510IEH6Z1cUBkArFZ86EMfskbpFwN4r732kkBzXJ577rlbb701K7ZUeRR8ssBKNoCSeRatn7qmzDbCgUAgEAgEAoFAIBAIBAKBQCAQCAwOBAYMgcV6BXvFwoIqyDCBXo11orFT1Cl43PrOO+88FjEPPfQQ1onujZmiy9HxaM7USH9ThyG/qNlU4rPPPpsJA6ucL3/5ywwrKPDf/OY3E8exyiqrOCpr+eWXp+1TI0866aT0LM4luxMOju6HJzaBDoyY0CLQifHri9Yl85xEFiAHBXBPiStMxek7jIMTf/QOCxo9S2+/8847kVApAeLJpb+4iUw64BoaHkFFw0cMIUoYamHljJbcqE4LyinLgCoxGUsxamjAGB5YLSMTK4fDKmmRlMy40ka31FZ9lItvArUWJfe3RPdoEYIJFAYYSyKEFxwwcbgM+QAhsX74l2T8hbDjFVgvTmJlIZtQJ6kC2BmzA+2CcWPLk/JJt5BWmBREj0t4Jp4r3cp/VUkzSxqXHVPJCuWUAloH5/I0NKWjj81B9lagSGwXjliyCtPXpYJAalZmOy8LAtOkZFxmWUAUarLurrcItkq3aKiS0aX7XHJg/MxnPlOhpRCFEOZLmHjA3MxyuObIjgJws5489fRTejAtLCgq2WbyrvKgRez4449XbQudZJ6yQGndmmuuWXYcjh4nyyyUj/NXvvKVc845BzFq1jDUMnIqecZlIBAIBAKBQCAQCAQCgUAgEAgEAoMGgQFDYNGBf/vb31JNqa/QR1dRrVdaaSVhLMDOO+9MiaXvYZ1S3+BlKH6OT5Zsn3322WSTTZAImKzkx0QJ32233fjpSMxzR+Ciiy6S8ogjjkiP+0uNdCQWzRNxQGHmisggAleSEwyCAD0ZbUevxv1pDprPpci+aJpS8FYpZ2o5/oXNSMkIwBb7sNBCC+F30Aq4AwwChjFzVQxt1M1pUDkGLSJbHnn1CmNPJKbq4zGTl19O02lBOWUOoMkwPriPFJMbImd0Eisqp0clElAYQ5FqiOdCPRi0fh406pAmeJySwmBApAmJydJkP+CI9DeVhX7KToUpUuZal+tWCRix2VALa8YNUJWkAWzinswCvBXosDxOiWLNpJ6VTPJlSQOhqMw+9G6+mwO4IV1WuaUaJo4p6a8pBj19IRNY5QdzoMWCgMzi0mpQjtLMToLRdIawcaW/EDqJHFQKKNBbRp3Eyd8QqkaCMV/SQ1KCC1mpCOkze5jr2XpAQbjgs886e8455rRSPfTwQ3vtuReCD1/WMBOHXgEKueYoK1Qm4z71lPLSSy81bH72s58J/+IXv7CCHXzwwc7y22CDDfbee2/rXoJ9xx13TKxow8wjMhAIBAKBQCAQCAQCgUAgEAgEAoGBjkCfUBV9AQol0y/bMlACF110Udq+sujzSfvFMaUzYih+l112me8VIrDYevC7QX45jp1NBF9Ch7jT2x2e5fxjxIRzkb/3ve+xZWDIQIFklMEOgqWJo7Low4xu2KcoxYHKiBJ16IvWTcI8adR77LEH9kEdeFaWFjS9WCu8A5u4bMEkZywVLzyAJ+MUMQLoKvQBAsIPR4MbSi57qSaYxLJKWCG0CNuT0kQoJ+A/KEPNqbeo04JyJimgJqrKrK8kTXBMaA7+jNIoIh0fLmzsGW8YB+H3x+xINIqqIuOwXRVLH2kQSbJNIDQcXQBhvIbzQrioCT5Lbk1sbSRAasjZT3H4I4mxOYgqc4F9lvmCuOElylwrJev0r8bqC4QjkrfOdqke2kgmii6bgC3CWCHdTE8Mjs5CUOqskr+rFN28IKNIDh6xDlQeRFSpHnZMPJ4uOXiCDm+Vvrqggxi1WTFM8H/+85+S4X0Sz1jJCsGnkjhK/WVeVEZdJXGTy/nnm2/9z38e5cfqc88999TLoIO5mIa8mCVLZ3GWxHwxGzz22GMvvvhi1bDWWaBSQdw5/VTJ1yTw9ZgsCFvKttxyS1+rSARlkyrFrUAgEAgEAoFAIBAIBAKBQCAQCAQGLgIDhsACMeWWfVDCmqZKZ04HHuELttlmG/FYj5TM6Vc0OpQBvR3LQHned999WUMgULgaoaI8zsaBRk3p5dDE6sER18m6BPXwrW996/DDD+euxQctn/5DjWQBhORKFRhMf5mr7Pn+aTulPVTvNpDJDwOcTKzInDIPeWQBYiiXVZIF0Ma/IBzz3TKAsKDkS4BlKONTGNEj5yad1XpB2CKWOGqLjskF4TUMIaUbclpR1oFHYU6mGg5dMq5wT4Yi8sUgZCaTraukxOslV8HEISZONucggPhAvmCOjEYei8gyj4hHA9X7yxxRXGnNJCVeA0Gmnuha41mgzL/TsJrjgzBBuJX6sVBwdt65dikaR2aalF2WW6oOEigLCcUyK9tMlaU3L4hFEtsrTQaXguSWzNYSvZimKpy5FuqXlK1BwhIzhVlUqYzVgOMkqysfB2zIXjHZ0xFoU4n1uMf1Vza4K2vbaXjY8OGrrrYaovaaa69VqP6aeeaZLr30MgZWCDJ8U2I5Uz7KtQqxTcNwGbduWesSH6caqcsMRVyV9AZkeopNqLu6FZOlqta9hmRup1WNBIFAIBAIBAKBQCAQCAQCgUAgEAi0PwIDicCiUjq1PWG63377caKhLdchdig1LZd+y4QBP8UOizbItsjRVwgstg8URaYolHyq789//nMuaX5Mt+i9VOLSLIVmng8FZxzhjGTmDw313no1BlbMcssu23cVRkwgBZZbbrlKEXR7ZySVBFZKoF+wV9Tyjs6Sx9EghjALbOIyRZIz97ijslA2FR4nJ8iB5gUZQjhQRKes0CJlvxsqmmNcJYohZ1gJGGn4Gq6s6BvDEr2SrISMt0ReqABqz9DyIDspLEYlB5eeQvwZlmygsDCK9gg8QcTaKzFxqior5mzJa680W5MDHoedl1tGbz3/jmI85Swth2chfVhsYVXKqeEp9lYINf6PiK3MHaOVNSdTSClz9TSVMJhYGzxUacgmQacFJZS0V3czOPIIOg9RKB+X+gXBZGoDCrGVSqz/TeNEW1CE6MiSwcyJFcSPTz39RFolEHN40nqL8iPNA2rog4P5m4MYqPnnX+CXv/wlh2XDvuwmVdp9993zieyHHXaYLmMciny3BKUPrcqNJRezspNPPplZGVMy4G+44Ya+l+qvvqgA27xucTcQCAQCgUAgEAgEAoFAIBAIBAKBgYXAgCGwEAG+wpbBZUCBVsgaNSU2a4O4Bm5llM/Pf/7zO+ywA5Uv2S+wqOLr5KuF66+/vvOtqN/sF9izUNHp59zonDXDUIK6iA7AczE5ueCCC5zmngqlpVOPTzzxRHnmakSgFQRQJ6xm6q58THWo9DpCZ6V8MAh0cqq4GIDn/s2luJuc9XAZurXuM4XEYafDDgX1UL+b8+m0IPRBcotDNDAXqtBkia+Rm6FSDksxXBdzKXgc9UE8qQkyCxmBisI9IYYSgcVuSEyie5TiA4IYFm1HUmDf0pBm9JRsmhhPsRkEI/7OLXXIh7UrlEMZ9z3MC3In46kVRrX6yITLLQ/NXLccQJxpRb5MARliiFBCSEbVNtcqCZCSTtfSre5mqx811JsqKTIhhoXUX4i53F+VYdBpQXrKqU9qUrJImoO81kGoK63OlmjQBm8mLpVrgJU1h6T6qDyuB/loVQF+srJUEyyblpbclpytG0znROogaeo2aGX+zcMK9RUIbXn6mafrdnDIuExgsWuzcDEs5efoL3oLpDJHgOLlV199dXwibMWjcdXwG9/4ho+HVkZp88rE3UAgEAgEAoFAIBAIBAKBQCAQCAQGFgIDhsDCKCVCIeHLFIXymWMosZnAoiVmBb7sDPG0ay6Em266KUWUUspOh98NDVkyFAMWTDzeyufqaYb02y996Uul6r7TTjs5KRn/lRXmMv8Id4QA6qROkUgM5GSdlB/UFxgc/GNDckoy3ARbm4oXXn5cAB+Ea0DuNGGvJOu0ILyGMYZtKQ2vyoJS2KDCR3REHGB20EmoKyQR77A0lpLjW3pcQzLbgq3DVhjnOBeFyjalYTGUiDwPGnjGJ441ZZVc23BMfvW6dRRfScksqzy4Kt1F06y66qoN51FKAGdcTKaucp7qhg/KgPCbSx5wOSanbLEgUMAQGpUORUWBq1Jz3SF9LqvyiBKRRHqWFRizLymF/VJNWNuBV/0rT/EPxTaiubULwb3EEktUmtClS4ihot56+61pR35wTln9ccua4/w4MiejRS7PRx55JNLNgyhO3tAmiKeMCj+NFW/1O+WUU/CVeTjVs42YQCAQCAQCgUAgEAgEAoFAIBAIBAY0AkOo1u3QAJYF6SSgHlaGjRWdNuvVlFJcBk21S9ky3KAJ02NpuUiW8lnkgltlzGQYpsxjJXLD9V15meMjEAgMSgTKAd9bC1cCCsNu2UkrTLnOWKVRrmVMt4GtTN5u5xMPBgKBQCAQCAQCgUAgEAgEAoFAINDPCAw2LqZigNC905czaZUDuVd6RYfMuUUgEAgEAoGMQEcmb5nVyikjEAgEAoFAIBAIBAKBQCAQCAQCgcDkhsDQya3B0d5AIBAIBAKBQCAQCAQCgUAgEAgEAoFAIBAIBAKBgYVAEFgDq7+itoFAIBAIBAKBQCAQCAQCgUAgEAgEAoFAIBAITHYIBIE12XV5NDgQCAQCgUAgEAgEAoFAIBAIBAKBQCAQCAQCgYGFQBBYA6u/oraBQCAQCAQCgUAgEAgEAoFAIBAIBAKBQCAQCEx2CASBNdl1ea832AnTPs7Y69lGhoFAGyJgqBvwbVixqFIgEAgEAoFAIBAIBAKBQCAQCAQCgxuBdvkKYSJB4ht/7T/a6gr8mDFjnnjiiQkTJrR/5aOGgUAPEbBSGfA5k4G1cNUnb25IBAKBQCAQCAQCgUAgEAgEAoFAIBBocwSGtAnvMH78+HHjxrVJZdq8zyZt9ZICP3r06ElbjSg9EGgHBAbWwhWTtx3GTNQhEAgEAoFAIBAIBAKBQCAQCAS6h0C7EFjdq308FQgEAoFAIBAIBAKBQCAQCAQCgUAgEAgEAoFAIDDoEYgzsAZ9F0cDA4FAIBAIBAKBQCAQCAQCgUAgEAgEAoFAIBAY2AgEgTWw+y9qHwgEAoFAIBAIBAKBQCAQCAQCgUAgEAgEAoHAoEcgCKxB38XRwEAgEAgEAoFAIBAIBAKBQCAQCAQCgUAgEAgEBjYCQWAN7P6L2gcCgUAgEAgEAoFAIBAIBAKBQCAQCAQCgUAgMOgRCAJr0HdxNDAQCAQCgUAgEAgEAoFAIBAIBAKBQCAQCAQCgYGNQBBYA7v/ovaBQCAQCAQCgUAgEAgEAoFAIBAIBAKBQCAQCAx6BIa3SQtPvurV/c99+dW3JrRJfSbbakw71ZD9Nx61zRrTZgTGjx8/bty4CROiazIkbRQYMmTImDFjRo8enesU/ZWhiEAg0OYIVOZvm0zeSq3aHMOoXiAQCAQCgUAgEAg0R6BNBIzmlazfrQskA7Ehg7UV9f7qt5h2IbCCveq3Lm9eEA5RX5QEFvZqttlmGz68XYZK8/pPbnffeeedsWPHlgRW9NfkNgaivQMXgcr8bZPJW6nVwIU3ah4IBAKBQCAQCAQCEGgTAaOrfVEXSAZiQwZrK7ram72Yvl1cCMP2qhc7tYdZVfqC7VWwVz2EtO8e1zUV47jor75DO3IOBHoXgcr8bZPJW6lV7zY5cgsEAoFAIBAIBAKBfkagTQSMrra6LpAMxIYM1lZ0tTd7MX27EFi92KTIKhAIBAKBQCAQCAQCgUAgEAgEAoFAIBAIBAKBQGAwIRAE1mDqzWhLIBAIBAKBQCAQCAQCgUAgEAgEAoFAIBAIBAKDEIEgsAZhp0aTAoFAIBAIBAKBQCAQCAQCgUAgEAgEAoFAIBAYTAgEgTWYejPaEggEAoFAIBAIBAKBQCAQCAQCgUAgEAgEAoHAIEQgCKxB2KnRpEAgEAgEAoFAIBAIBAKBQCAQCAQCgUAgEAgEBhMCwwdTY6ItgUAg0A8IvP766yNGjOiHgqKIQKD/EXj33XeHDRvW/+VGiYFAIBAIBAKBQCAQCEwSBAg/Tz/99DPPPDN27FgVmGmmmRZccMGZZ555klQmCg0EmiMwORJYyy845eYrjLz5wbd+89fXm6NTuTtsyBRnfmf0Ib9/5a4n36nc6tPLE3eYYeUlpzn7T6/t/buXFfSFpaY+avvRH95x7HfXGrnWJ0asdcjzTUpf/+NT/2KnMdff88b8s0+51c9eeHDsu00S99utt956yyo599xzDx3aOzaA//znP0855ZSPfexjW2yxRWrF22+/PeWUU/ZPi/7zn/9Y6DvidE4//fQxY8Z8/vOf32OPPb785S8vvvjilVq98/6vEulyyJAhU089dT2+L2Ief/xxZc0+++zNM7/++usBq0WHH374rLPOmhL7oq2qlg/ef//9888//zTTTFNGthK+77773njjjU984hMdJW4OdUdPVeL/+9//GngzzjhjJb7XL997771yhLu86667Pv7xj/ekoPHjx5MtTJ+VVlqpq/l0Cm9XM2wlfX1ueuqxxx576aWXllhiiVZyaJLmhRde+Nvf/rbqqqv2hHIygElsxrNMDOznn39+3XXX/dznPtek3Motk+Kpp57qxQWtkn/l0gBW4re+9S0z8c0338wj2ey46qqrttlmG8Pj9ttv99QTTzzx9a9/XbvOO++8s8466xe/+EWetpU84zIQCAQCgUAgEAgEeojAz3/+c2/b3/zmNx/+8IfLrC677DLvaDHEwu233z7dWnbZZf/85z93qq1ceumlr7322sILL1xmKExu/+hHP1qJ7N4lvey2W29V0P0P3P/ww/8ir84333yqt9pqq5HJp5pqqobZ/vvf/yZv5FsVdWCGGWbIdT722GNXXHHFLPVpzp133vnHP/6RuNVE5s85dztAwaKhtCIikqZ0kFbnxJqm4fS7bpfeWw8C9l//+pe6DR/e+7yNru+of3ur/n2RT+8D0Re1LPM8dusZXH771BfLyNbDs0w75LRdZvzLPW/+eOsZzrrx9XcntP7oFPtuON1qS43Y9+yJLFLld+kPZxw+dMiEKarZTTlsyCW3vn70la9V0je8nG/GoUvMM+Wrb1YzWf/TI+fb4Zm7j541EVj7bDb9Q/+ZyKDtuO5019/zJlot/+rNef2tCeqw/QkvnrXzmD8dMsvc2z/zzns5eW8GKNWPPvpouQrj8qeffvq8eJWFSbz55pv/5S9/KSNbCZvD1peylPTUMcccc8ABB/z0pz/NvJW1kqr/3e9+N2t3reTfvTQ77bTTIYccsthii9Ufpzf+9a9//dnPfvbAAw94S6lSyUnts88+VkavujPOOKP+LOi0qx7fFzHerLPNNttGG22UM2dmhR3I63iKx3BtvfXWmvPggw8mTfiVV17xJv7GN77hzSSN5f7888+fZ555UF077LBDzq2VgPdlesM1eZk1gdq7B5dhFc6ckQwNmKWXXrrCr+E655prLmRiw1o9++yzqMYTTjihPswapu8o8t577z3qqKNkZQtLmptuuunll182GAD72c9+Nj1luOJxjIoX3/8Jw3OhhRZS54bZes1ceeWVnrruuuvIAV0a203gffjhh03Ghu0F5pe+9KWGtyo1bGVuph7RR1dffbVO0Qva7vfJT36ykluLlxdeeKGZtcYaa9TT33bbbSLLwYAb/dSnPlUnmtXKyDcFEM0GMMbnmmuu6RKBhVGyoN1www31avRFzJFHHqnJhpO2n3jiiUcfffS5556LuycR3nPPPUp86KGH/vSnP1lAyNCmoaFokfna175mNFokLct9UavIMxAIBAKBQCAQmJwRIKF5237729/ebrvtvH8/9KEPJTQISAsssMAss8zikljiMsmltCHhlIbSRBcgijz33HOrr776LrvskraBJfjVr3615557brDBBmmT3jYb3YFASNK+8cYbewXwO+6447jjj7eZve566265xZZTTT21bbDLL7/cxudOO+74mc9+tqIOpEJt/v3jH//IFTjttNNIWVkb0nxyCMFeMlLr2WefvfLKKyPFDj744DnmmGO55ZZzmRPnTHoxAKInn3xy1KjpZp55IvId/SAMfA1EDxEC014+WR3OBHgUmC7z6+jxvotPY8NQURnhPmKv7HSSfrukUPRdk1vPeeARWF/47ESzji4RWHcdNeutD7653S9fvGLPGeebbfhuJ7+4/jLTfO2nL9TpnibAYZe+tf4oCa49eOI0wBoZzF886PlbHn3b5cuvvzfdNJak/5PBqJFDl5h/ykfGtmqu9YWlp9l784n0XPlTEOuWR385Gwss8V9ZbsT8sw/f5pjnvrbCiJmmH7bBsiP9y+mX+u7YoUOmuP2ns+WYFHj8Vx9Y1vzjyFk/9r1nK3d75dLyhLkoFzhrHz3cOlXPP5E43VgOqO7bbrttXQW13DNx8sLImjYtlGq32Wab/frXv5533nnrdejFmJEjR+Zyy2wvuugiOu3+++8v4LfKKqusvfbaOYGV3ZLh8qvv/3J8/wS8pUr8rV/0YX+t1Jipaaedlg6MX6tUxhoqxoKeV7rpppvOW/aggw7yHpXeO4kpCoLGXoGsurTa/uEPf7AhoxqYPqUIrL/++ptssklZh46glgaBhS4s+UFmPl4/kK8MGGnKZGX+wurMgqxhh1ZSNr/02razpG/32msvgSWXXNLQPfDAA2+++Wb4/PCHPyQuoKsgZnziHYRRRXPOOac2ljkTIPAUQL777rv33nvvM888k3j0k5/8xNZWmazTcBN4NRapVO8sPM6rr7664YYbdpq5BK3MTRLMj3/8Yy1NGSJZWKfbpSwJLEyf1qXKkCSkBJG/htPxxx+P80rP+osxN8cFvvnNb/pLUpHSUEwJVB4rmML+osmMrlNPPRU/6FJtxZTrlUvywVprrUXGShnmZzsNpM2rMrdOH+l2AsQcjnWZZZaRA9wMD/IuqTHJtXlSG29kZeQy4RK5j0uFs1bvuOOOuoCxWLcrEA8GAoFAIBAIBAKBQAUBIigJxH4SIZnYSXz95S9/mbwuCH7evDn9rrvumjZ9c4zAxRdf/KMf/ch2mnf3SSedZGuNyCeeYbVdKC4mspVADNn4uOOOI57hucocuh22CccYil7wrZ12Wn3NNUbPMJo88+lPf/qjCy308+OOu+TSS+edb75MxpWlEEXoC2m/MMWTYLOATaASSYYkeNhuJINde+21vBCIarAq8+mLMIGHlEgyTLxhkyKkZEomASEQW0R3ELbl6S+bCX9t8I8aNZEBSD/iIqmvIqv//5u99j8lSI/IDsKkdDoOhwajIomaLmkZWW7XBFvgo0dP7Lgu1UB6P03W9nawNWu98gOPwGq9bTnl7KOH3f/ERBbpR799+dL9Zn73vQlbHT8+312I48jQKf459t0Hjpn1a0eP+8vDb7Np+tUOM+x91ktPv/QBIzXd1EOuOmDmV994b6fjx7/9vgXTdquPXHGJae583xJKVpsf/UGGeK5jthu98ZHjhgyd4u9HzPLs+He//qsPlKgZphmy5NzDr3/obeZa9zz29g9/O9GS69DNR11y2xsKFWaoVbfV2neD6b79hVGzbfOMBMzHfvb10QKP/Pfdy/ab+by/vvaxeaZ8+Ol3vnrc/5oz/0wTSeK5tpuY3m/MiCnuOXb2hXecaHj1kdmG3flEX7kQ0pf8UqH+sgVgd5od+sTceuut9K6UIK0ITFXTJdUUs5OWPCqrpQ35hfX/yle+IgHt3ez6yEc+ImzJsJSnp/LfVJbVMCm648aNw6YtssgizK8s7uWamzJPD8oWg5D1PZHJECOvvGKaVyZXwPqoCfkyB3g2rbPOOrRxr5nll18ek5Jtixi8YNz6mlnLNakHvPzs/KR4Ow+PPPKIMMz9xZXoSgY+Klx5UL94fWb2yrsB4YKmxKqwyUqJd955ZwsrCiAvrAoqcZYM1Mi7pPanp7yeGXahO63IKYaHVN1UpCOoPSIxLT09m/5qyBe/+MUKe5VuqWGZsgynbbEyphtho4tdt9c2cNLY8Kpjpmc/bcstt5QhshUDBUljm1mWqYE3gZjXle4oSwSsd6cY+1ReTkYOcrZM0MoobQ6vcZiHoi5WSWVpAnoIZ5RnRPOCWpmbdtv80FhmcSnMGQ/evqkgY4/5W2ogyz4iIObXpTQJh3SLeaANSZygKZZi1DYPOTEowhSf/hqi5I/EXokhrBgeZQKLVZZyypFZpmkeTqJP8zQ9v2sqkWJ/97vf4QHTvDOWeD6mnKGUi0BZQtstgi+uEO/J/tzWopllsPW17JWrEYFAIBAIBAKBQGAQI2C3jCm0naTf/va3tnXpIJ/5zGfoIETQ3XbbjS5j2/IHP/gB9QQIpL46eyX+C1/4AhGF9OU9TmWwO4XAsm2M/cnQkXKJc36En1Lnygm6F2CGz5KL1rbKqqvOPNMHh16RuNZYc83H/v34rbfcokWlMlWWYsfXVnE+1GKppZYiokjADI1YpbGkfbIrydZ2GuNxMcTyUlapKAhl5t0OEyltwxP1KY8IoOb5EPlIR/SLlIzQTqHwV1XlIKBPcw4kYVSR/O2nJiuEfKt3A0RWwps8VYBA7mAWuiTBT0cYFQwOssSr5npQKwwwyVS79ZpILEPia+KwBtCRZwOGwOI5mGyvRk49kaD59y8nanQX3fRGp6ZYqyw8la486y8TzZdueuTtx8e+u/em0194x3O5d0/9zhiWU8vt89+XX5/iBxuO+sthL6yyyFRf/OxIBFZKs8jswy7ea6Zpphq6zPfHPv3yB5TWMV+f4d7H337j7f9rczXFFLNOP3S5xaaeb+ahF+0507QjJj6SC9r9C9N9bY1p59j2mSeee3fjFUYmAmubNad7ety7icDKKcvAOsuMePz/23BdfcBE4y9egRfuNuNb70z49kkv3XbYLGsvPeJ332OnNcXTL7y782kf1PmqfWZiivXhOYcr7r0JUywx95RfWm7EesuMmHuHD4itsoi+CLODpXYuuuiiOXPrO94qsQOJLmHYme5a10weYXPP5oNV27rA24XuSqe95JJLXCYCK+dWBqjc1O/EXok3jdm8rLnmmvT80jaVZQePPJpbetZUtzqUbAV+gTKc1fXWK2M5o0Myn7H6W27yWmzJo2FeccUVTIq0UTib2nokVeOCCy5InkfwsRhZZ1EYVqvkPK/hNmrKxvZW+LDDDstZOUkHZUCt7cirLqf0hsPK5Ut7RF5dmAI0TTaiYcCFm9D1XsYpJRs0OwnC+h0myfcQ2jwNUwJds9/7PxbFKUZKELE0Tpf5b0dQ5wQ5cMstt7ACy/Y4OT4FHFKArfMqtcWUe7ySpnKpU9LbQh10cTlyUkpd7K3sPe0FYwQyctF3pakL7sD5RKqkc9ML3oPoV32hPrY+jE/ii+07ZxVlDgVjBRspFcp/kyW5aucx1soobR1epdgn9AJTK01gUpfr2UpBCYfyb2VuuoV4krM9ye985zvGkg063ApLe7bxyYMVsZK5FSQgAPPUzjl70VofCExkuBRJyOBAuu++++Y0ZYB0hbElXOZIXVDys0YaTq2UUaQEglnZUBQgu6BuK2PACoCVtu7lgZ2L68WAiUYuRN5Z32zKmSlGTq55HhhKNFzJJSYpYVcyCxGOmFQtsiGr24uVjKwCgUAgEAgEAoHJAQGmOogq6oPtW3t+ZZP57DMGt1tGxiYwJHHCX6xWNkGy3e6RrbbaigCTdBYZ2vdNdtZODECm2ItK2Xr7EzVt+RNpsBj4srK4bofJSMQqW4ZJPs/5EGgXWvAjZ515Vt7wzrfKAMugfEmDywddiURUkYRJI0nAo6BhuAgkZL9kjI/LK7czcz49CST2Cj40kRalHZwUKVdi2qgAVY7GSmgnWxIFs4jllh9BHWekFQT1TtmxnjQkPUvpsNutIO1Sop/+yhu6xoMdWXK7LVislh+NuCKdNq+D3kmPUD89OFDssAYMgdUc/SZ3t19z5PhX38u2VEdf8vJR243+6KzDHnz2AzOHwy945dffHjP7qCHn3PDqDutMJFm/vua0z4x7Nz9y5i4zvf7WFMv+cOxzr35AV22/0kT3va8cNZFKr/xmnn4i8TnjtEPHvvjeZns/lwkvkQed/8r2a0/n2UMveHnjz42cY/ohayw5DebphGsmumU1/OHOFpxj+IFnf2DD9beH3rzgxne3W3O6fc966ZU3Jrz5/30gJ9JXE70aJ/4/1ftnYt3x8FsjphqyyDxTinnjzQnLLjzVhsuNOPy8iSRCP/xYNnHV4VFYlsUYyi/F4A6QC/UzkpDZnK0s91Y6ljhWOsuE43KSo1CZWw5ba7wG2NPmGGSKNZ2qhhjK1hmKwwKU/ozc0f3yUwKVA6dar4yZT3dlRPP973/fzOe3aGlGi2DxGEHImZ5pibECWhMTCWKtTEWjbNJaz2RJq1Fg1GwrYzri0TpV1rAvwugSmrwNosQhNikCCYX+K/uCQxx7YIyMOnvPpWdRcqiE0gkLHZNuoQl0TTbgSpFW2yOOOMK2EnBy6bRuznd1C6yOoM4PpgCW5Hvf+55sMxVSSYAuwTKomMpvvPHGkK/UqpIeBwQlxnTiySLJrLeSxqVec9KQjmbt4oeky23Hf6kP3sQ+T/mgF3+iaURqMvQ4fKVBIoaNm1dXkm9c2pTzpkeDZlO+Tkdpl+BVBJECyAazxuZSxHdakDSVX31ukgMQT1qBeNJGo+7QQw/VFyitbHlXyaR+aXYYeMhWbFG+y5zT+5tglGNyAPKERWdU1Ulwa5TGZu4V2lgeQze9+w3jihlXzlOAvX1ldO2+++7OvzD9nQGx6aabZja2fKq3wiajFSbJfx3lSZgGr2Pj8lanHjE1LEeVQdhRDhEfCAQCgUAgEAgEAk0QYLROcssycCUl9YTkI5J4YDNJIGkHxBhhDAuJjqhfbpWl3bV05AhKy15d1qeQJgRLhAUhKjkYVorr6iWRgGjKv494QOCxhUmRyfKwWjkMK4sQHWVO5mE04C51TMWSgJEYOptqhEmZ28kmsxG3yC0kalpDsgTPW90dZd5v8ZpJeldVFFXDQvUjwwuaI/HVz14gXcClAdAwfW9FEr9TEaRfP9kqPfWR2qqSS+wVwVWVjBBagx3W7pUuw+492P9PDRgCi6VVMrZKtlfz7PA/y6YmqA0fOsXKS0xz6a3/Y4hOu+H1n2w9w14bj8pudxfc/sbeY99Z7ENT/uzy1/zDZK24+DRHX/w/rmfp3Z/9/0zRxKL46B301Rn+eu+b6fSrSunLLzLVG29NYOq14r7/rdx67e0J1935xhxjhj32wnsf/sYzL74xYbeNRt356Ft1M6784Nnfn+mV19/LfoWO8XL0lbs3/muiy6Gfu1fc9lZui5jR0048iuu7p7801+ihGy0/Uszjz76z8xdHOaXriMtenfhMH/8s0Gx5FEIHTifh1QvkFYWZqseLscAxlRTAaJiT9Ek6fxOLBmwXOiy5hecMTWwxeR6qEjrDxgVuK6cxw1n8lu+MujbYemWQL2gI9jWMrc4555xE1bHvlUN6CXk/UYy583hp0Xs5lyW+xnZH2vFgZmIjQmMZp1ihBHJV+yiAy7cpxP4l/bVZ0bwgyZhvlFZ1lktGNCussAKV2LMA59kEVSxVR+/yehFMbJBopeWITncmVEfcQUOoy2y9jxP9p4vL+DLslYO0Ql0RHfCMzu3KL+wymbBGOWPISWr2wdIt5KzaJo6jTJzHm0gCCiYreQu6tIdD5rCfw9KqHHJuKTp7rgHNU2WeCFBv9wSveAF1Vp+SWmo+SrsKr9mERc2cTlmZ5gWVKVO4Pjf1LJrJ3LQCsCGSDKr5SPt6Dg1jTCXdUQ4YxJN8kJ5lZHoWe4XyYydoLTLgM5Lu2m80pEuzLK98NobGRjq4AQPF27HSXzlbXVypnv1SP4SRZvr1KYGVpJPmc5Yogx4l6ZoINgPUFg6pzkFgVfouLgOBQCAQCAQCge4hQHjzeuXrV991ZpGU9rrYzhOiCCEEFXJFFi3IEuVTFBbMFIXCrpvK2OFzdFSuFT3FF2bILURKgmWO73ZAzTfbdFOV53Bnk2/zTTctpXd6HDt6AkNzqxw72R5PdaACVPQXtvykL61wkgzZlQzf1SNcu9o6IGuLKlEnBdgu1SX2ep7wVM9Ski/TMIvDDdHU8s4loChrJElCY9mD5VM9D2PNiHAJUqYPSiTWZq2BBkEOdDc10NCyKctiw+jKJlqd1kGG1BNWXZ4loneavk0SDBgCq3t47f+lUcOHDdnvnP+xUfK54Z43V17y/9Cln9z9A49C1ksX7jnLi6++e/CFHxwzLH3JXn10tmHXHDTLuJff2+SnjQnaLy0/wvlWHdU2P4W9Ouor0886eti6P6ryXOnZqYcNuXLfmT4087DND3u+o9zEzzp66EfnHvHsJyeyWu9NMWH2bZ5ZdO7h77xf4/lnHua0L/FcC5liMb/CzY2Zduj9z/yfE3aaZN6NW/Q9xhTodvOBMSpjWsf1VfKxRqA5+NxV4tMlc6RkkYS9wiuzv2Uo2zClSCw+m9uOvqtlPluMcPzUVEpsxeccYcEhq1zUVL5SUOuVSUue95BXlF/KJ53dmMJ07HRODQ0Zu2+XA2+SSRMvCUttZdH3oGWr7j9VqWT3Lr2u7Lp4i5x88sn+WvXYiHWUlX0JrA1TuFLbz4kTKYA2QiLYjuAp2YRwzE+VgZJ3wHroUAZ05YmJZeKGUOcEFHWGMGg120EYQ4OtoV9kykS53qZ++fFKQK85g9MnApAjeVmvMxeVp/JlQkbPMqoiAWhU3ZgZEyFz76T6+8844Vvnbs5QgIcawyWEbDZp7nSUtg6v157aZoOvslzhTgsq0zecm0hDu5EOU2CHxTjIoMpToHy203DZIiKFpYaNVb3aDtok5BE77F7qAhuAfqlTSIFkRG6M5fzSs2g151bgoVTsfQlzokVt/Wd1qkemGA+WZ/91lKyH8Voth7Sv2zArZ7Ky22fXRnojNZoLpBPtwn5a9xo+EpGBQCAQCAQCgUAg0A0ESJv2d/NOZ8qhPMbEmxcnRZIkSP/9739vWIQ9JxufnA9oT0lWqSfz9qdHMK6v3+pGDGlq0cUW4xDzmzPO+MqWWy6y2GJJvqLEjX9x/LXXXMPY3DZ8Pk2iXoQNP8ZWpDuagiMvHHORFavUBN4tBI9Ew9EQydVNRJd6/t2LUTThh0yrOMdCZYG5e7l5inxIXK+IrOwPAKVH+oLDopTRDR1kYTNSp6QTLYwf0l22DmGcpUqlRKrh1A1V0gvJPKJ5k5WCvaLBDSz2SqM6lMKbN3gS3nXuVYulO/J8u7WmvfmBN58c/79zbT17/GWvrPrxaVZdeKprHphoiZd/0l+y98zzzjps7f0akEq4rQM3GcUH8D/Pvbvcns81NJu6aLcZZxw1bIsjXsh5dhQ4cYcZHLO112njWWPV02yz4ogDvjzDNFMP+fYJ466+7/9UspL4uRcnPPjkm7ucNNHHMJn9fWahqca98t61+8/8kTmGv/jqe19dfsQqH5/I1j334nufW3jqH281/YLferaSSa9cmmannHIK9gFblBgoLnu2I6jfpWKJUXLiD966QifV68BGg1LKC8YaVL+LU0AAsdxBljnGqJ6Akmwlpf+b55I5TKqSxmJU8VpqssA1r0wl5/olJk5baOzYEMsc3R4BIZBTQsmLrf668kpwwnd+GeT0PQxYqgDrjcW6Jy98HRkJYzR8BFcTVL7U9nMdkFb6nWuh3JjGVDgaVFHD+tfj0Q0eR5OhLBt2ei6xYcAuBLtrb0pQq4lCDUWigN0SxxM0fKRJJNjZe+MZHUxgByxvuTR5pHLLW4E1E8NsxjhMstWhpF1yYptRXkg8GfEmlVcjSHnbldPHU4aN14xvvuQzEXJWzUdpp/A648CcZUDUaWObF9R8bhrkXPO0y+xDZuV9pNQKZBPpJ3N5prAfz8p0F1B8dXN7LSbgRXeqdjJfz7eSIEWU5LUKWJMdfaxpcEZ5Y6YQuIhLDsv5kRQggCpCEyp9UUlWuUx8aCWyTy/zSRlKAVfyOBDOs9h+qYYQX3B2yQjUXZiDl+xbP12uT2sbmQcCgUAgEAgEAoMbAeJNE28yPhlEQepPw51gyDAXogiwsuHWwCdRjFNQmGKVoOEymAVgHEiAJKLyVrfDtAA+gIQxsmXWCC684IJ/PvzQZZdeJpJVfpOyqE62A5PfA36qbqtFXmVJoFE8bzjokGnr4mu3K9/kQd1BYKa8vPHG6030u5yDvvNIFudclkI7naKhWEgtShwWtSVb1eU8exIgtMsZdahTkvciKwdF2KcnpacjVhqK62qeOCyJ691RqRJVxU8vd5qy8uAkvxx4BFanp7ZnTHffYJRDobY/rmoq9ad/vs3Lb9Ulp84EFurqgE2n32j5EW++PWGlPZ7Lx2PlrH6y2ait15j4FYMzr331+2e85It+ld88Y4Zee+DM048cttsp4297vMEH6VJ6LNiu6027w9rTTT9yKHLq7JurZJxPIl7/41mmHD7k0Wfe+fKRL/zz/x/UVSkuX5ppz7/0XlnhtZee5ro73zz92tc+NMuw5RaZ6qfbjz73htewcj/9+uiHnnwH4ZWf7cWAxdSB64xjyxOOqJR4Yu5CmKY0q/EmTB4YczqLKq+S9WrYWKCXWu9YT+QPW5TJMEEUNqshSy6reXlLmApHU0X2U9J89cPfcg3KiTn6sXotb9VdCCXutDLSWFnM/5xzPYA+cxYSoodVUTIoQ2dYVdH5Vig8BZth3E160ALqNebHAMfi25D9qRfRpRirMKvm1AUCDguz7cOrsZIJQCCJwPJO1Rf1F4BKel0xE9PXFaYyZ4U9ZHmUL9dbb70U9kbMjp+4J8STPnV+kKOjmrwpO4Ial8F/k2SARc3ve+jZxcKiojhL6k1iv1ylSiBRAA62VxmWz7qjkqCVS9tN7KilRH4RRJqY8uoF4xlFCBkmewpNr3Z0Ei4vj4pcqPEggT2lUgJoPkpbgRdhx0YJ8aevc1n1QPOCpG8+N1OGxBezIH2EUYaWBY1iReWu+QirvDhw+7V0pNXDXXtNKQd/GfqRAklyzLjq/sioK8wXmjgvIEYvqouHJidfVmy8iZNDsVHHNEmGuZTKRx5ziU0ChAx3LQI5kyaJe+UWWyr56Nk0K3FYpoaDsfKCBlLeo9dff70qcWZkZy7gLuYa6R8EVq/0QmQSCAQCgUAgEAgkBHxyqsnRAbQS+/dN5Fs7wel4XC9uP3myBsgCrUvMhcNVMtpUmOZnq+eUnQbUqlKx/Q84YMEFP8xd8fPrrdfETYEQYjvQXm8qgrpHtSF7025wK362DwnDpA72BAQ2LB4D/HSCRKe16nkCohFBqEU1igaBFcq7gKwfJlI7TZU7NUyyFumr18U/mhpSSX1sqfpxbQGmEgX4LaYuyyJfBSvI64W8GVy5W14miFpJWT7VDuEhmWuctLWZaasOT6vpScVGTjnEyVP1HDjo5RPQ3V1iruHn7zHjxbe8sduZDcgpCT4257DtVpt2z7Nfbphbyn/H1UZefscbDS2qcgWUe+MhMz/5/Ls7nDAuHxKf76aAU95veejtu55szIJt/plpfrTF9B/59gdWVH/cd6ZHnnnn67+aaIHlN8eoIbccMevyP3zu3+Mmcmx/OmDmq+5445CLXplmyiGX7jHjQnMN3/XEF8+9rcqavf/o//nz/Glz5GuGiHWSKN/NAVponZw28SiHpZHFXXfdRX1tTgpQ/pEm/KQ64oMxJtaUJrVCqKGKmntZq7Avkub6CyALGO9UaJpOK+NBHjpUaGtfmVsO8yikTvPXs8VBb7SCM2Cx3KMMGIM4g0lN0BbZcEnrUFqska2GSI2kZufc6gGNtU7l+Bb7K6e3LCIRLIL6JS2O+ZaAqqJ+6oeppzR6wYH9HqyAVuaAKsrvgzJeuCwOhl4zJc1USZwum0ANRl1QX83ZBlbMaPFuFvcmfo5YxY56s2Gt6pEqgzIgeTQf6uWDZophbxskgwDehm9EeFaa2eko7RRe9AeCVVeWVaqHOy2o07mZ8pTMUgBnDdEXmtxEQqpXQ4xxTnIq7fPLZKY26Op7oUa7VaVEz96gU6IIW109iqssDnpkUzxpmXOZoEm4nL8tTl48I97t7rvv5iSIjHNaHDyZClpD0LjusvEk3+AiDRXeqXrfEoQ0TyesNfRXrdSwrFXlVlwGAoFAIBAIBAKBQImAN7KXLKamjPR2tj2cBDnvXy9ouonLfMAIpcCmWnNB0Q434wC8j6fIYDl/cg4miK9AjmkeaFHASJkoyG4iEod41lAQTcmYApA30HYO7qAD0iZoDSgtAjDZGy1idxbFIwfblswOCH4c+tIWmiIILWSY5tV2tyKQdKkhnWaeEhBHyUs6gjTFzILZgUsFuUuD6EgJajHzlKx7rWBJQKHQESXHxFmBm5GuKdWoLlWm24krreh2Pj1/cJATWHBKMF0AAEAASURBVD0HaPLMoRsE1uQJVDu0urKa9MXK3g7NjDoEAoMSgXL+ts/kLWs1KGGPRgUCgUAgEAgEApMPAu0jYHQV84pAMkAbMihb0dWu7MX0Q3sxr8gqEAgEAoFAIBAIBAKBQCAQCAQCgUAgEAgEAoFAIBDodQSCwOp1SCPDQCAQCAQCgUAgEAgEAoFAIBAIBAKBQCAQCAQCgd5EIAis3kQz8goEAoFAIBAIBAKBQCAQCAQCgUAgEAgEAoFAIBDodQSCwOp1SCPDQCAQCAQCgUAgEAgEAoFAIBAIBAKBQCAQCAQCgd5EIAis3kQz8goEAoFAIBAIBAKBQCAQCAQCgUAgEAgEAoFAIBDodQSCwOp1SCPDQCAQCAQCgUAgEAgEAoFAIBAIBAKBQCAQCAQCgd5EoF0IrGmnGtKbzYq8eoBApS+GDBnyzjvv9CC/eLQPEdA1OqgsIPqrRCPCgUA7I1CZv20yeSu1amcAo26BQCAQCAQCgUAg0CkCbSJgdFrPSoK6QDIQGzJYW1HprP68HN6fhTUpa/+NR+1/7suvvjWhSZq41Q8IYK/0RVnQmDFjxo4dO2FCdE2JSruEreM6qKxN9FeJRoQDgXZGoDJ/22TyVmrVzgBG3QKBQCAQCAQCgUCgUwTaRMDotJ6VBHWBZCA2ZLC2otJZ/Xk5JIiJ/oQ7ygoEAoFAIBAIBAKBQCAQCAQCgUAgEAgEAoFAIBDoKgLt4kLY1XpH+kAgEAgEAoFAIBAIBAKBQCAQCAQCgUAgEAgEAoHJBIEgsCaTjo5mBgKBQCAQCAQCgUAgEAgEAoFAIBAIBAKBQCAwUBFolzOwXn311f6BcNppp+23svqnRVFKbyEQY6O3kIx8BjoCMRcGeg9G/XsRgZgOPQczMOw5ht3LIZDvHm7lU4FhiUb3woMVw2hX98bD5PDUIB4b7dB9YYHVDr0QdQgEAoFAIBAIBAKBQCAQCAQCgUAgEAgEAoFAIBDoEIEgsDqEJm4EAoFAIBAIBAKBQCAQCAQCgUAgEAgEAoFAIBAItAMCQWC1Qy9EHQKBQCAQCAQCgUAgEAgEAoFAIBAIBAKBQCAQCAQ6RCAIrA6hiRuBQCAQCAQCgUAgEAgEAoFAIBAIBAKBQCAQCAQC7YBAEFjt0AtRh0AgEAgEAoFAIBAIBAKBQCAQCAQCgUAgEAgEAoEOEQgCq0No4kYgEAgEAoFAIBAIBAKBQCAQCAQCgUAgEAgEAoFAOyAQBFY79ELUIRAIBAKBQCAQCAQCgUAgEAgEAoFAIBAIBAKBQKBDBILA6hCauBEIBAKBQCAQCAQCgUAgEAgEAoFAIBAIBAKBQCDQDggEgdUOvRB1CAQCgUAgEAgEAoFAIBAIBAKBQCAQCAQCgUAgEOgQgSCwOoQmbgQCgUAgEAgEAoFAIBAIBAKBQCAQCAQCgUAgEAi0AwJBYLVDL0QdAoFAIBAIBAKBQCAQCAQCgUAgEAgEBj8C77333vPPP3/WWWe9/vrrXW3thAkTLrvsspdeeqmrD0b6QGBwIDB8cDQjWhEIBAKBQCAQCAQCgUAgEAgEAoFAIDBoEEDWDBkypKvNueqqq/7yl7+UD8pnzTXXXG655bqaVV+kf/fdd1955ZVdd911/fXXP+ecc7beeusulXL77bcff/zxK664Yv2pc889V+b1eJFLLbXUoosuWr8VMYHAgEMgCKwB12VR4UAgEAgEAoFAIBAIBAKBQCAQCAQGFQJ33HHHPvvsUzYJ0bPVVltts802ZWSn4Y997GNzzjlnJdnss89eiSkvUTwvvvjijDPOWEb2bnizzTY79NBD55133h/+8IerrLLKtttuO9NMM80666xdKuW1117DfHlkjz328Jcl1zvvvPPjH/841XzkyJESlMydNK+++urJJ5+87777BoHVJagjcdsiEARW23ZNVCwQCAQCgUAgEAgEAoFAIBAIBAKByQIBDMspp5wydOj/jrj51a9+NWzYsK42HntVJ7CaZIK9OvbYY5988snDDz+8SbKe3HruueeefvrpRKJtuOGGRxxxxG9/+9spp5wy54mqYyY23XTT7b///t/+9rdnnnlml3/84x9XWGGFqaeeOiXDVanhpz71qV122SWhdOutt55++ukzzDBDSrDuuuumABrr8ssvV5BMsGasz1ZdddVcVgQCgQGNQBBYA7r7ovKBQCAQCAQCgUAgEAgEAoFAIBAIDHgEpnn/VzaDVdTSSy+dY1544YW33nqrZLjyLWZHs8wyi0sGSoieFP+Pf/xD4OMf/3i6XHDBBXFDKZz/jhs3Dp3kSKkf/ehHObLXA/feey/iKVFRyyyzDFOpm2+++XOf+1wu6Oyzz9aE7bbbbsyYMX/+85832mijsWPHHnTQQdwhU5qXX35ZPf1lb5UpLQ38/Oc/X+f43njjDZQc3uroo4/GnR122GG5oAgEAgMdgSCwBnoPRv0DgUAgEAgEAoFAIBAIBAKBQCAQGGwIPPzww1/5yldyq5x67pinfFkGllhiCZSNmB133DHHY4Xk8J3vfCfFZN4nXWJ5rrzyyqOOOgq1dOSRR0411VT5wV4P3HDDDZ/97GdTtvimL33pS7///e9LAmvttdfeYYcdNHbllVdmnIXAuuWWWzBQuc5s06affvq99tor1/Ohhx669tprL7jggnptNU0ksm+uueb6wQ9+kDOpp4yYQGDAIRAE1oDrsqhwIBAIBAKBQCAQCAQCgUAgEAgEAoMZAV/o++9//zvHHHPkRqJ4/PJlGXAaVLr88Ic/nONnm222+eabr4xJt+6//36nvF944YWoKzGbb755ZoXys70YYDjGGdChVzlPLBXi7Iknnph77rlT5Ic+9KG11lpr/Pjxi7//e/PNN7FvTsvKj7AdKw+3crIVkzGRDc/tkrODwJyx9bWvfS3nEIFAYHAg8D8f48HRnmhFIBAIBAKBQCAQCAQCgUAgEAgEAoHAgEbgqaeeUv+SoHFoVEe/upGRk63+8Ic/oIPqIDgtXj6//OUvDzjggMRh1dP0YgwjqeWXX748lostlXPcuQqWpWCjMG4cJBFVjl3/6Ec/mp0fJSvZK46EuC0JNthggzKHHNZwJebLARrAYA7Qmke1+xSBsMDqU3gj80AgEAgEAoFAIBAIBAKBLiPAAIExAgcZxhFNHmag4bTjegLx/HScJlO/VYlxyLGYUjmsJGhy6ZAa2jVNWJq//vWvzzzzDB01Owo1ebCHtzpqdQ+zrTwOf6fnIBFWXHHFyq18yUdJT40aNSrH5MB//vMfXeNQoxzTUYDtTMNTjTpKX8YrhZOU7nNq9QMPPEBvd4pQV7/sVmYY4UmFAPfAm266qRwJ6QSr7373u0aIbxF2lWn6zW9+46ipxRZbrN6iLbbYoh7ZRzGGqHPWTzjhhEr+jLCOP/54NaksPubUSSedpO0OX6884tJ65eB2Z1pxP0R41U+/kua8886TJjtO1jNp/xigXX311SzXll122X5YURsCwkbPJyOziVzDNBE5SRAIAmuSwB6FBgKBQCAQCAQCgUAgEAg0RoAK98gjj5xxxhkYqL/97W8dKa5Ow3FYDL23bnxx4okn8hvaeOON6wU4ZcYpyBx20q0zzzzTQdE77bRTuqQqP//88xWVMt1C05QFse/4/ve/v+WWWzqnRoI777wTk6I+n/nMZzxO/8w+Telxfz2y8MILN6R7cppOA01a3emzrSfQBRTIt99+m5GI04UaUoHuHnzwwRiH/fbbr54zVy/nCmlv5Rbnpn322efUU0/N8TvvvPOmm26aDUZ8ji2d4JMTpICCSmMckRhD+r9xQsnkAkbtd6A17f2b3/xmftan3/iLPfjgg0sttdQiiyySv9eWE0SgTRBAVfB6azj1sDal+VKnFWag5PDyv//97/4OHz6Jtd0rrrjCxwGNvUq1WVepp9UmU/Am3Y033mgYY2DNHV8krDzi3PdEhH3ve98DV0n2pZRMlixu//znP3/2s581nLOVDHt+6Yx5RE/ZazrLkrjccsu1mLn0vv+YtgHyI3rNGWGHHHKIhTQTWL/4xS+MEMzdr3/9a+Mhf3IxPdX6upFLaRJwtL/jxuq0Y5NH4la/ITCJp3S/tTMKCgQCgUAgEAgEAoFAIBBoWwQef/zxvffe+7TTTqODbbLJJscdd1zSVRqqYagTat4ll1zy05/+tCSVcusY/nR0qI1d/VLdoimVVgy0IOcr11VH8bSpUiu79NJL//3vf7NRQlopVwLZqk/K3JE3VKBcnxSg6aF1vvzlL1fiW7zstNUt5tNRMuZLjJgYvNxzzz04KX2haSgq7k71R7TOJ9IwTRLU74rB01WU0pwMaDksoKfKLnD0D06q3gW+MVfSXh5MxBnbt5Qbcxus5RprrJEuHRIkPSM+ldQ7fgceeKADrVdaaaWUIP62FQIOq+qt+hgJWA8mSA2HbqUUI63OBFXS9ORy++23x1zXc1A3K1hZtIFquH7jG99Q+TI+P8uajIGhu+V8yXcFRowYYXmZZ555IFDG913YKl3nFmefffbWS0TbWRXrppomLLNKlnc5KzNaYpe+MsnwM8enQOvrRuXBhpfpu41M5NJdVOMuu+yCym+YOCL7GYEgsPoZ8CguEAgEAoFAIBAIBAKBQKCKwGOPPcbugNo27bTTrr/++r/73e922223aqL3r32Q3ofG2C9gWLLxAgWD7petLRw6Qy/Nl+ytllxyyYa5VSIT/XTZZZdV4pFrpUrp+1/OYGYC4JhkKalVHllttdVyGsZZlRwYGqDGSoemP/3pT2igkk3zCJZKPnXarmGrK0X08JLhRtI8F1100dGjRzMGoS3X86SNM85i6OFDaTTPTCAymrvvvvtyc5g+MYZK7dV2BlAs1OSWE9RzzjF8o2CVLwXUDYFYxgAc3WYkJJLi0Ucf5Ta17777pi5QIg8sJBo/Mh+AYx+HukKMSq8aH/nIR8qsIjzIEMDvrLrqqi02yjFYLabsdrKO+Ka8XKScjWTnsjcpxXjOhoodJavbPHaUslfisVd1AqtLOVtA6ustrmqdddapcJpsWvOS3rCITtcNqyt7W28N7xc0H2tZ+XBctSDkV4mY888/34LDzitZy3rEQlcx/2xYgYjsHwSCwOofnKOUQCAQCAQCgUAgEAgEAoEOEeDvs/TSS6fbX/jCF/iU+X4Wo5v8AO0FYcEmKJ18jD8q1UJ78hiTMsYGfjoEWg51Pihni45prhTllDlAt+HCQ9XMh0M5Expf1nx/nhebs6tK9RKVo9r+YltS5lg8hl2cg3KFm7c6V6lXAhgrXjOyoldztGTjVlJy4lk98Oik12GLXFYO2XGXK1Cpk/MWTA3RCpYaHVVS88uO6yhZGc9YjHEE98/sCorNVNukcErJLMsJZXwVWYHh/hx3LdKJNggsPph77rlnmVuEA4FAoBsI7Lrrrlaw9GA6sCyfOr/ggguik6yu/HwbWmK6hRLK9HeldLkhmMoPUErAOLcju9rK4x1dWqidju/wfpslzN8SgXXEEUdYzBOBpVZeMdzSf/WrXyXCXVa333675SsvNR1lHvH9hsCAIbC8hDrdsfH+8+2GfsMuCgoEAoFAIBAIBAKBQCAQ6DkCtCBGPY59SVmxA+LndeWVVzphSgz6g0/ZRRddxMUGsfLVr37VB+krlAeihOtNrglroLXXXnuFFVbIMWUgE0Yieal0yd3Gdr3vf5XuhHJTPa4uzYkwu/osgEqFLfNfKBX1//SnP03lw60kxamVVpeN6mEYd4YBzPwaZ8nDDz/8rrvuShopv0sHUbNrm3/++XWBujEfq5TolJ980A89ECZc/Eq7hpS+BD/FMHAoYalkW7/EoF1zzTWcTLNKyf6OXuqInJwYH8pAjOasqsgsZ2OlWxrIJisni0AgEAh0GwF0cH6WB9/DDz+cSe00o1mYNvGY5nD9iU98IueQA5YIxpt5zuZ4q1Ddsxhv3vrq4ThFvoHsZ5dZZhnrm2edFu+1ktc91pp4/NK2ly3YKaecUreozbWKQP8jMGAILGKKbZPmADk9oXmCuBsIBAKBQCAQCAQCgUAg0G4I3Hbbbc5AWWihhXLF1ltvvZ/85Cc+QUgCZNRDb+FRSNtBSTz77LM5WcMAhz7MyzbbbNPwLreUkvxCdbXubSRDZmK26EvTAEQbEdT5Sg2LS5FoL8kQVQ3TMFKgg/FSZEOUjoSXrKutbphz65GqR2PMthICG2644eWXX54ILJZNnApZLjBlsqNcZ68qBSUTrYYnpnucdUZOr7PovaWpXb7VUYB13mabbZaNrSQ79thjV1llFZ6P+RGQJvMKXo3a4mysdIs6GrvdGaUIBAI9QSBPK5mYVpbWMkYkD2unvJdWmbk4zHJHjD9ncPaqFddO3n/MsioLhUjLpn2OFj3Erfx2GvDdNi0uvPBCK4M12XqS3wg2Tmx75AqrJKIcL58Wk1z5CExaBAYMgTVpYRpApV933XWOxrTFxwSdeSSCuUnl7V85fxSfzfXXOQ559rIArz9FtKpvo9WTRcwgRsBORSsfNW+IgM+sMNwlX+Zh1jBZ70Z6RRFqDd1vfetbeX/Gu8reS7gP9C7UkVtGgDJmppSaVb7V8wBj5Ouvv55W2afzyMRx6KyDmSuSaM/rHzlMEgSI4FkcVwGXd999d4vifv9UOFkw4arKeuJNbIyraiJQDPvWK8PH0BzsaABTSHJWiCf77fwBc0ynAUpXyV45d8lpUPJ0dFdHzypijz32YLRFMGuYBt3jYGamAflVlZJ1qdUNc24xkqEErxn8VJmeLocEZFKBPaTpbb311uXd5mHKIT9QT9WTMZvybbgcT3DlK9SlU58rJ3Mzl+Djw+Ex5ymwwAILIDE/+clPcjNkipWHFt/DhkYf5bNtG8YF8Ipt2BEM0EztSs2BQO6qRA6sy2Sv16kXTq80iocvb1NftIRbr2TY80x8C8IE+eIXv5jdq+Wpo5k7sTBt8VSmPhVLUhtZXJpZTqCrNFnHVda0SoL6Ja6fQx+3voocRfhBfJfsMydxa68FuWSu6xlWYhywmGKsTmwz7Z1UTDLzWqFRjDox4PnTHJWs+vPSp1RfeuklVroKpcVYB7xNDNQ6vBrl1dmlXZn+bEivlBUEVq/A2C6ZWNG8xVk5IqRNOe67pZ12ffUXw2z761//uq+Esht3QJ2WeIS1JxPxUkFCW1QEjnZpc9SjvxDw/mvlo+YdVYerue2U1VdfvZLAXqiTFH02pRLvUon5fNz63UoMxd7QrQxyL34cLm3cWp9O36AL/fznP/csMcVfIi+RPXu5V/KMy8kNAWMD02pfzm7b4osvns1+UzyZxl4itb/8DFkFImsv3kfK/FF51un0W9JnFokqj7h0poy/OYGVHAVG76p/lIfMyt0pLc6Ska6yfthKQSaCxbxc2xVEAColQk2gHZkgSck3R3yy2rfG6tWOmNYRsAo5sEl6+gZR22nWSfHI8fpRL9j47dLZ0gR9snup2NSrRPhGFji+Otm8eITQ71vsDhNJW8qtjJx6tr0bY7+d/xp9rMwWJmuttRZLn0Rglbeahwn6RiwyKM+pjtJLafceR1PySklw8hH6ylNcSypfbTdZeAVyrLNT0tEBT2yLvOMYN6lSR0vHv/71LxONAVddFanUoe8u+cg4eCv70aSCLA6oJQtUVz/bx9mT1i3PTitM6aWC0g/LziIYcD80MsvHDVqSahkjTIi1UulHciwDsfIuQ7YtttjC+HFoTlJZKXXILGJAw5Ppy2fbKuxUMiMkVSkhALR0aY6g7dKpQOR//qdlzbGi3j4DjsDioGpIZOdQXaaXd9ppp9w0LzKNLV9k5izjzeRunJN1NUDmNA4twv4ec8wxFXmyq7l1Nb03OxK5bpF04oknQoBEUa7zqBxCdf7KgZo3ORmqLpZ0tW6tpMcBkZ3KL1S08lQlDQsMjeWnbLUs2ysZmcSZd3ajc794l0nsLYZhT4JQ6+tGKpeOoK/9GrqQeyVxaSdoGQwVxrxS7b6+tAKTSK2HTI8TgcW81DmMJvgVV1zh24gqgLQyflJNvE9ZnHjFp0sa1uAjs4LA6utR16/5My0xmklR1jsSaul1TBciPbO93HnnnSt1slKkGJaf2XDd+QJpOUi3knBQeTAuBz0CXfqoeRM0vAaSIJukK+9ae63JNpgIYm2tv7MtzST+1gUv+oNRWqlDYqmM6qQXpfHvvZgO6bBFj1MrN9Irj8fl5IaAL9xjmgwJGo7DEaj9SXMWzw6C44yRzIaCCFXRtBNQpAeji45UflTeyT7WWOaHDs2pn92QHqTpEdAz2sIMByzjFS5DrdJybWqkxHYazKwkz7VS0D333EMSyvKfTOjk3/3udzfYYIOUocqbmEQfE4pATPDlp5PfC7mGEegqAoAlU9LK7KBaeQji9G2uECneVrMM9Q69mmKWvrtktbTF6kWcVNa0UukRfKIuSxUgW9uychoUza3U/8vqGbeGqzS77767jzphYG1WUYdotonAamXklBn2elgrUDyEk7oFkx0I9FC9RNStSH9LJTYlQ52QdhwtnAT9+rMpxmzFcDGM+uY3v8l/pEyWMidKlTNFArNPVVNKzKNpS+hCRFJvOjL1Unn8Ar+8c845pyMLIwyXtvOOrDe/rJVwk1ZXUnb1kl7EJL88QCrlAAGndFn36hmqjJFTjweRRZJu6QuAJS1YT+mVbeTTxHRE3STKKkRnK59S4sUXX5xjzAsroS5ArtljqPsqYkBsUHnLG0Vmh1pJL0xfbdFuJZc1aQMJIkMdy2kXUKeAN300zeKcx6RKVqaDVqcxM2nr39XS+YWUU498WGmXqWTOlmkU0dHrNZdOIKz7kRiB3vL8djkF26N1iB7GH2NYyTxn0ncBs8wHByr5e0HQ5mwpJQuDdNfalXbI1lhjjZz+97//fcW3LieuiyX5qV4JWAwJS46c87cuzLdeBKGL85BvLKKlMn2ZHjfISSYY9syki9Ff3pI5JqXsdN2QDN1JmrIm+yQI+ju9cMt6+vSEJcUb2d4GT/ZJuK+QasXuMrNRKca8Nru9940EXlO24QGSJjsS0EJhKwKdZ7mTvlwiymYO6PD/vnsyaZsB5eYVsO7kzfCOUlK262tTJTH5oNOyKo8MlEtvOAu6mc8Snn8v8yuWnPvvvz9T2NwESpTdwuxUbHKSrogOJobFGo9gPpjYlgO0dJ3AsjblrAZfYBCPjW53FkWLvJhO1eVZQK+ufNSc1MsmxdvUO8B4M4pMVZtjXCFyoWQR0jkqyl56iqRye8lVsnLLO8MLibhMx7Pbxp2EupUe8Qo3MgkohrQ3lpnu0ii1V9bk1SIlFwaiCTlboXZ05UYh5x5ls4vtob33jrbNU7mT59/Jdi4YG+gAZ3zqdx91tjY6VRqPU8Yb6iZCxQWV3NDwo/Jp/Bi9bCsYCaIt8kYfcdOMaChzk6R98R3ZUQ4/2hp2w4jNk4uAZcUuj1DtakFeAUgNGmCqlZnLbp9fuVoxP6EgeV/QlIiVZU0mt3CvTAcypd1ygwq2pElHOxH6dXEZD1imB2xG0lKZrEpFcmnRL6RtYeueFa9Uv0k+NmCNinzErPy92ZOTkZ0A/WhltnlrGUySOk1JJiV339WR09Ux0CmG6qySfpWcxRvklUiXFnBzxBZ9XV8CLOjKI5bqj6cYFB4Lo7rcqFBCkTpXHqRMkouSLs2SkZTl5VJnXsqnEI5kzoplUJmACaTFYeWVV25lh7xJq8s8y3CnyOfEFrEKTZBuddQFZE44N3RENcD4/pANcuYNA8C55ZZbbK/WTbDBot9LKVQOamj3Kye2XiEryb2llNuwoBQpPTOK0tq0SeLyVusYlk/1YtiugylPU7WPQuaBG5LFm4iEY/yb+0QmKwmzLJ1VKXfOOedE0FCgmkhKlUf64rJLGLJzLD8A54VoupXfZ+hGDb2gvdSsopV3rpd7kgMZX4O3Tp00L6v1duk1koPVBlnPqjFtHmQisqNSaG32wxxnnhOYGpZ6Xzslx6ZIu1BY8ryVlVM2F0tysoaB1tvlcQWxc7Qa99BMiZAjqwp1latH0dB3eU2wRBvt6pkTCLSybkjmQdPHG9DWQsN5oRpQ1aJK/mVZnYa7hGHz3Oy+s773uqFzWQpoVXh5Ixaj50EsVd7shIABg/q3LCA9NbNOzzUvq9O7PcGk08xbTxAWWK1j1dYpDVnb+6rIetMuE8kVHZsM19Ow9jdZnZiTNniJvKxtEVWIWyKLrX4bZaXFlpWilAuxEkS3toYgKtcHCHT6UXOHelgiKfy2UkmHBhXLERatWcc20ggHRC5fQ08VNFZtDqQPdVeqTHMmgdnK9ggqNrNXklm76TYUeN9pQqs5z4LobFvJvkQlk3xpcVeZtE9lMJNxkXECVEHsGE2ArU2wVxmuCFQQsNGNwEKqJtsK0hIZGsHKjqZ0PzGeaRcdfVQ+5UnqMlbZemT2Sj5MnFiIVIRp6S227CCsyWV9zC+TgsBK2KIPEyBoLIgnYmuZrEsFEdEUhMbNtRIwnU09UjUbH4ol+gNNVhYR4Z4jQDPn0GQVytqm5cjPnrA1MPtwZU3bwGtyQhDV1O5CeXKlVdQPEeatbV+BMGBbq9QK2C8YSzYDst1Ql0ZOzxGo59CQpZKso3hjNb9lKrmhTvwqkQ0v0+50/ZZCG8ropUsvTqq+B1PPirrVhL2S3oy2ONQfbBjTpNUN03cpsiF7JYeOusAo8mtYRIsqE3CsNg1zaKhVqmFmrzxFrM2kbcNMKpFZx6vEt/8l4oMkYyOQXur7mypMR7UyeynY8IMhcYh/ZdbtyxYRhKznFpOGkJYp2zbsVVXqI476Ql6n2tLkrZnZxRhHzxyyMpIxRzYv7RjZi628cNEBSJM0MPCtLJEd3MbCui+gQEWpubWatsX7LxFY7L9IpHUOPVcAw4vdzpd6U3o5UN/Y52InbWlompqX7H8rYknOs+cBgLfCv3daULmnUk9M+C8jy6Ugxzcc5JV1Q2JrGvI3P1UPeATC9fhJFYOvJGTaZ1IBdnbajsI2GNL5J2lUmybmhfHPE4vNtTe+rRFveWZ6LivoTaqG9GK5QWD1IpiTMiuTNnv4cwYm7KbaWNr8cs2Mb2EsA4EYiWBD2Nptr8zWRNrdzSkZ1ZfvQsnyrQhMJggQBQyMjj5qnkDwuQCsEDXAPoal09DCLuU3mc1SdKoNrvLcEDYI3tZZ4CjBxBEQ0O2fo5b8ylvWX6o18wTvcttxCCzvdcbzDV9X6UHcFhEhSwbZ/gtRa45Qzol9rBJMEG+FRO+WJUZ4MkeA4ZWFNBNYTGaor9glMhZhAjhEZ3YuvIqafFQ+Y2g5pWmkS5k4kIjlVN1wwKTD7bIpKHUt45PZrEFrxJqPVBeaM2mYgFU3M2mxIDUh0xOASpqYMJTkIZS0Qs1l4jUSxDTxyqCUVqT/3LoIdBWBpPkbCUnr8MKFM8wNkrxktZ6nR/JT1mGuW/ZdjQQ/+1UWTDEI05ShMcbDjuVRhWWQuJUh2nqtImUgEAj0CgJIbZsNiBhMNMUb72yDQYBXhDVEERJ4PXGbTWSHvQ0LQg5XPCp6pUp9nUmpuSD3SYa5RLJcXqm4gNln8nJMd20JlHyrS4Ji2t1nTVw3CXR6t7dqFiPJsVzGWAD0xZvOW1VVbfQSmBk145i8WC37ecciNzAHCMNc6koLaN6vtl1V0j6xeFwbMks+Wb7tkliSC4pAmyNgVHun08jMheQiQPOimFNk0m4NGtfi4J1uS5JEyrbAACMiorlPPfVUnobMvZPg2uYtbb16QWC1jlW7p2T7yppaLbNUSrepGFcjFOj81murM/Xeqm3ptA/M5bCyXhN5ibO5zfb/HdiRLyMwOSDQ/KPmCQFH0mJCEaOYLAOGts8aJR0oKAEKgNRVyhPYUiKXPagyMoNp34BKj0uq00k2E7yhadF2IP0szWyyklySHy8D3uhGrBW/jCQNEGJsgolU26TRkf/YKtLVy5QRDgSMajJBPlQChZRoHXunxGUaArmBbYXB3OJH5ROk8kRRmTgbb7xxBWT6CZGURG63XDivwBZnfg1pVxl1ZTs9mX6gzyo5lJdNCpLMPnOaCMmpIT9IbeBXmLag8Xe2dtMt2/vpBKWcMgI9QYCNs8dtilrTBNBMetlaZPvUmonf7F7mxoZVkV1Gti31lvd+z+bVVk5KlOWRN00aUfWCmo+cevqICQQCgT5FAN+NyMA7M8JKJ1vbULFKU1/LtQIbYoKnmlhMcrhP69YXmdNiytWJwXLeFlUcs6NcKMdJu6HZkjTH0+2dXEnJx3x5keHy6uwVeotA6KiK/JR86EQezHxQvtXzgBZZikmhquT96/1OiqCjlS2tlMLoxhc//HI8OSSldzATSTiZ4xkVmYPrnliS849A2yJAe0rHKaqhzX6alwNS8LP8CsXYeiSL5n0sdJX9MPHkCnulBh6Cu22b1r2KBYHVPdwGxlPUcrRrsslEWnnbeaUlfcwamizksblGOQMZ8jTv5SYr6cBoc9SylxCgxzLQaP5Rc0VZHNNhQEYO4YlqhP4vz1ItiSpSiD1D9FbDHSePc3tJHn8NG5EtftWN7o01aGjG5VneNN7oluysxZHkkFkYXiu+JZ7wly1cjH8yRMMSI3JyRsDBQ5pfOXvRgOdaiBvlsmFpTccMtYhSMmk09hgS8qgtp4YcEBnMZAxUB2RwKWL77TzXzGE1XJlNFnxH/dSJ5gWhxjBfBHekCaXIe8EeXZJ7cNaJ87URrT6lZ1Niu1psaSTrFAGnL1mdcv+m9HqBMNq9sya9051X7UfDqfs+pIJs/jPfM6QZ1jX0v2g+cjptVCQIBDpCwILGp5XdnwSsA3CspZMmNcyK2vBZu1n5Zd0wwaCPZFNDarK9p6V22vJmm5eRc3BYuOcpT0ct/chyOAcGClbl1qNjKHjfsy5pWHkf42voCEzbt59q08WxKvxLKPz1x1EAznGjHJW3aEOMm/qCwFJKcpQRsCD7ZpwXri/3laXnMHLNa9p3FSqnBJSSgLAxQIL1ykByJblazl0SS3KJbRLwIrMLnowHG1bJ6uEMh0RZWkYYLyez8ZTYAQs4zdJeL8VTdSWrvHAb5t+ekTDBSSGsU/UciUVIY7ZiuysRWAaDJZRDAMsVmr7PHBM1HSQnHkS2POskb3u2tPVaBYHVOlYDL6VtB1PdX1VPDuQ+xGsQU0twW/wHnbpnr9Vds9rZWBiEit/WwGtz1LiXEHDQDwmA416Zn3Hivd7wo+ZkLOOKamRfqHwkhenMtsIo29439P96Ano7nYp0mymnepoUw4rQG93yTduvp/H2YlrIuAB1W77FbU/Zt8QaMHkoD4up5xAxkzkCxio2n80pVd+Ln4CYASFTGjyOU0U05POJ8t2OAukpFkzpHFbjPG2h5/QSkGUNWmf6YGmNVZIKBpb8gR0uBVaiKmtw4rWtNiu5mVie9dNpQUp0phXDQykd+Mr1wNacqUc3EMmazM42zxR25o5XwKPlGkagtxAwugwh7BXJ0npYZusWHZWulc5GYQWAQk0sp+HhTW03PqVHMxFe05lWnvJap9NaYCkwdh3qfqlsCY1nCXyCTV9ToirkaSsjp6zqZBKmG3gf+eYj5E2N0hF+MkGgt5pp+Fl58maAsykNuTLzyy+/3Fn4hq7xaV5gWlFaXuIUeAvUZE5gObOZ/ulN5B3BCCvjZliyVKLTJnWdAI8izHcN3eSN4VViNyJtUeS7AyVg5BAaecx5W9XrjAByJAXWvn7Ly9SvHp9jSJJoMlJixTLFU/z0nY3VsMT8eA8DnDo5A/rVqRY5G/8WH8ydGjY8Zs4rwGJuw9jAsC6RBJKi18NaTcLHvaTSESIs0O2u2ZzGZOkF/GO518I83FuSKJVeYfRW1sRJa8BjOmyXaZt3a+LyZKVFOYwrHKAoAccuo+mvRTAx01GWtHsTHDFnkUz2iSwACG8Gtkg0FgnBQRPSu0veK/cjJ2FH92LRQWD1IphtlxUHLupNVsAoPyxQuKL4agzpwcaFMW1fnTWBuWGxKD/ImjjdtmtSVKhfEDA8Wv+oOdnIAmog0YscDFxRjdSXO6o3h4XVudQNJVEbZYxNGHg7brD+eG6xddlGHPaKYFE/jFMyyzfNn/u3u8lLPD8rQA9Jl4g5Vcre4FyoTI0yZYQnZwSSX6pdWeROqbI6XgQs1AAjh/RQH6iEDGJlHTrHwDm5wID0ESWeg/U9QHIJhoJbYj7Xw6KdjBmt0mkrEk9h+hi3Nh5YTiVtpMIFd1qQeer8V9VwhJy3g6pqBfXG7MOLoa5sUfqlJuBEkk96ulSo3ex66yKmSwjYItK5hgHVpfx8WxppxGvsFdNReXp3M5dOphPoKkMrdZlbTFDTKKLb8w203epkAEsfj5K6qYVVMflKW595rDTUyjodOV1q46BJbDvES0dzgA/qQdOufm4I9Kw5jqowDi2SSvfCxc6nL2lai6hhFiIcVhJWsfYSWOKwsWSDOiHbz/Vvh+LY14CCxRBeO9cHPrzRE4wEeFpr9iOTRjhfWiIY6uYFJOfQzgHbSF6CRD7bSHUbeTIq3gqFZ+3K76wuNYdJi9GYTaLys1ZdhAiWpOFSmZN1L2Dp9qUOuxSYCORUYhjLrIx8b2QWBk4Y8LLO6luZxkwhBmMoskRdN7nN6TsSS3KCNgkwheO9kUVx4pCBbZvQRl0msEhBlhG/7FPpPAcSUYIxeRfZ8GOuyNNCu7bddlsYpuGRHTjapL1dqoZG2bM0nRMlR59C8CX5gVTmdGAoaT6zAytt2u6CFXLTeKMNWXiNGaxoQ/2rSzVpq8RBYLVVd/S0MuZ5kg9SRnbUS3E2iblp25Y0hpfF8VujvQKxDx7MX4O2fDuKpfzqh60AOwY9rV88P0AQIE0aG+XgyRVnPOLTaflSgL2uY4Mp4R0tjjZGaFY2UsqnyrAXjH1XaeqkQJnMtkNaoG2RNUzpLU7Y9W5rWPOcFc3QmyAP7zqhkFNGYHJDAEPUsMkdxZeJjfDEK5WRwoghElXDjdaUkvxBJsvKRorE5xJZknIixig17EnbTYT1TgvChVnkKx+jMRG8AioTKs2OPEdSlSqXKTL+togA+TL7/pSPdBRPPE0Sapm4EjZmqHBU0yZdY7n20udw3WSh63TkVMqdTC4pyU2AnUxA6Hkzk4GMz70TQZFZlppEylNW6eeWI/FkTj9lScYCS3w6tQ2f2/xt3vPqDZQcEg5E8bLC+bVCs6W45lu28agDVNYUIwDPvmBkcom9HjAwfFnPvlHDt6pRxLLGtkqdA6rXxNJXakYpgZFmbSwNnPODFP7KCzHf6mEAoeAtwL3Lx2Erb/yUs5FvCw1xUz8ZIBdtC83jnb4dUvqOxJKcW5sECDaM6Zxc5kwDzGwmrVSP5J+s5JK7pY5Da3KeTTWXOCkXiM4U43jcRPzhAe3fpBHC6rNNWtq9auTRgqpmzs/oJOXj5c5E0VmlGDoBftnQwJAmbyq42bknY1hUm4yo7lVpkj81xHSa5JVQATtdzavBt7PT15i2dOrWoXc7Lat5TeLuYEUgxsZg7dloV1cRiLnQVcQi/SBGIKZDzzt3IGLoaCFm6Yhj2zlkSweO9ByH/s9h0iLPYoixIRUUHU/XcmCT7dJEuzgKEHWOhqCSJXUUpSUlW0J7UWCHFbGf9pX3VvsfvVTipMVwUrW6d8sdrBhGu3prnCAZfZHgqaeesthaFviNcqJnNYx/ZEjFW9A2ubLYvzNAszJjpqwnbDkF+Mch/mxgY684FfEFkdLujpUk7awL978LYa+PDcujbRWA+JWw2xjoz70W7SpLn1ThAWOB1SkzNakQjHIDgUAgEAgEAoFAIBAIBAYTAg52TDv5ZaNYr+fN8DI+wg0RoFvSMLO9AOMRh2GlA24c68bzxVNsov/+978znRbjrjROHOMi4BZN9brrrmuYc0QGAoHAoEGAAYp9Av4cbO4clseDktk7A0yWROk8EC6THIOwV6nJ1uF0MH8KYHYyFOlcMJeWDm6JyWjdmXo5wcANVM5ryw3pT/YqFzrJAwOGwJrkSEUFAoFAIBAIBAKBQCAQCAQGPQLOEPGpEOY/ZUtFctNwuHiL/jvls5NnOJ1ZkdvOlTURWFzeHPmX7QhoobCVjDUWzospll9+KgKBQCAwuBFgg8laE4fFDosNpsY62DF94jw13EefMwKWCOQU4luMY7Dc8q3SZBaEAmOBlTxtuRA6AQrzJdlAdyHMbY9ARiAIrAxFBAKBQCAQCAQCgUAgEAgEJncEfD+B5lPa/qNUaFb2uvMRwpM7Rl1vP9sKnwn2HHIwfW2z63nEE4HARATY7FQOlnHUDAerkukYrEg5khiDwzqp8kXjgdtePoPpiCvefxwDOzroNjWQq6CDd6UEgs86l8PAGHB0mlPGpHQUlGPO0pcHhQcuOFHzhggEgdUQlogMBAKBQCAQCAQCgUAgEJjsEHCs+PHHH+844awa3XTTTb7gjHPxeaxsNzTZ4dLjBjtH3Cm0qAdfRHWucD0/Ppu+PlSPj5hAoIIAW0hU8iabbGI+Mts59NBDfeTEUWtOSmp4NHvlcZf8zs477zxfrKt7CtcTT5IYX5b0Nca6g5jvD1qO9ttvv0FDYIFXPz7yyCNsMNdaa638/YGGsK+yyiqOytpiiy14F+YlWspkNutY9/SlGjsQPiedXAg5JjfMKiIHLgJBYA3cvouaBwKBQCAQCAQCgUAgEAj0GgKMOBzf7ltX+eP0YmhWPvOUY3qtsMkmI98XY3uFunLulROXXV566aVaz/eHtQXHn4svvtjBzJVPZfk8MVM4ymf+HutkA1g0tBMEfHXuqKOOuvrqq300kDeZgcRNzDfXnJ7WohEWvuP+++/3obpDDjmEUU8n5U2K24899tg+++xTKRnvxhp066239v3iyq2Bfols0jpnXfmMJmbKhzURVT6Sm7+2qYHWkPvuu8/57sLw8SEIzshWFZZWaHEfM618ZxkjZgFHBZZU10AHKuoPgSCwYhgEAoFAIBAIBAKBQCAQCAQCUwwdOtRHrxhlZIXH97Coi23y6aWB2EPoJ3imw2jUX4DOmRrCJkvAufis3qim9QPyHdVM/xyIrY469xEChopJ6ng1TMfNN9+czkJaZ511sKIzzDBD5i+ctubjAHkWq4wBxu0ujzEPmumnnnqqU+1OOeWUBRZYIFX4jjvucFp2O3gKqwMbsQqMqnfwwQcnh7vKrYF+qWt+97vf/e1vf3v++edZ1TmCEDM11VRT5XYxRsNenX/++RtttBEeXLwuvvvuuy+66CKWdByT0Zo5sWdZdeE3jQTOy2mpyXcjMNARGGI+t0MbGBX3TzV6/auW/VPtKKUfEIix0Q8gRxEDAoGYCwOim6KS/YNATIee4xwY9hzD7uUQyHcPt/KpwLBEo3vhFjGkDL700ksNfQAZTPk8JUIKW8H2apdddllvvfXKlEz8uPpyrEs1ZDXJwKqs7WGHHebZuo/qDTfcsMwyyyRii6kOwnrbbbddffXVy2c7CrfYro4e70Z8Oumcg3M3nm39kf5vV+t1GygpByuG2tUOXRAWWO3QC1GHQCAQCAQCgUAgEAgEAoFAIBAIBCZTBJgXOdyqo8ZfccUVvMnY2nAY5PfH48wpSCkxruroo492pHd+lkVVNqpKkQ62y3fLAMfDdIkjY9zEWmfVVVctE7RPmEMc31umZ+1TpahJIDBJEAgCa5LAHoUGAoFAIBAIBAKBQCAQCAQCgUAgEAhMRMDZcwypeAjW4eBJmr3JFlpooV//+tf5cwq+SefrCo6uQ2zlB5955hnuY6WJlqOj8t16wF0mWp5ChDWsQP2R/o/Ran6Ffv1fdJQYCLQVAkFgtVV3RGUCgUAgEAgEAoFAIBAIBAKBQCAQmLwQwDeVlFOTxif2is2U7/Gde+65DLKWW265Mr3DsLbaaqvyDKw///nPZYIy7Pikn/zkJ2yvOCe250cJ8Xenn366c8pPOumksuYRDgQmTwSCwJo8+z1aHQgEAoFAIBAIBAKBQCAQCAQCgcAAQ+CFF1648cYbzzjjjJlmmgmnM/vs/6+9+4Czqyj/P06SDamESP+BUqQIWLBS7BXQv6LYG3axCxbsaMSCimLF3sVewIJi74KIBUVEQKoCgrQQSEjb/zsZf/M7nHN3s9lskrub733ldTN3zpwpnzPleZ555uw2rQZ4pxVHrWZk1zLlffC8t/wFTAYsPlxe8T5C81kz23UQPvfcc7366qKLLjruuOO6LV0HFUgRIdBvBGLA6rcnkvqEQAiEQAiEQAiEQAiEQAiEQAjcjID3rB9xxBFnnnnmHe94xxe84AVOHfa0OnHL+tnPftY8DNg6QnjSSSc5M7jTTjt5Gbw/R+gvGN6smP74oc6HHXbYeeed95jHPKb8ddT+qFdqEQLrmUAMWOv5AaT4EAiBEAiBEAiBEAiBEAiBEAiB4Ql4j/tzn/tcjkhbbrnlMCm9iH2//fZrJuCoNTDwf2rv/vvvL8Fmm23WTNNvYV5jr3rVq7beeus5c+b0W91SnxBYjwQmDQ4Orsfia9H+cmoNr9XARP2rlmsV2gaSefrGBvKg08xVEshYWCWiJNhwCGQ4rPmzDsM1Zzi6HEJ+dNyad4Vhk8bowhOVYdo1uv6wIdw1gftGPzy+Hn/ooR+qlTqEQAiEQAiEQAiEQAiEQAiEQAiEQAiEQAiEQCEQA1Z6QgiEQAiEQAiEQAiEQAiEQAiEQAiEQAiEQF8TiAGrrx9PKhcCIRACIRACIRACIRACIRACIRACIRACIRADVvpACIRACIRACIRACIRACIRACIRACIRACIRAXxOIAauvH08qFwIhEAIhEAIhEAIhEAIhEAIhEAIhEAIhEANW+kAIhEAIhEAIhEAIhEAIhEAIhEAIhEAIhEBfE4gBq68fTyoXAiEQAiEQAiEQAiEQAiEQAiEQAiEQAiEQA1b6QAiEQAiEQAiEQAiEQAiEQAiEQAiEQAiEQF8TiAGrrx9PKhcCIRACIRACIRACIRACIRACIRACIRACIRADVvpACIRACIRACIRACIRACIRACIRACIRACIRAXxOYNDg42NcVTOVCIARCIARCIARCIARCIARCIARCIARCIAQ2bALxwNqwn39aHwIhEAIhEAIhEAIhEAIhEAIhEAIhEAJ9TyAGrL5/RKlgCIRACIRACIRACIRACIRACIRACIRACGzYBGLA2rCff1ofAiEQAiEQAiEQAiEQAiEQAiEQAiEQAn1PIAasvn9EqWAIhEAIhEAIhEAIhEAIhEAIhEAIhEAIbNgEYsDasJ9/Wh8CIRACIRACIRACIRACIRACIRACIRACfU8gBqy+f0SpYAiEQAiEQAiEQAiEQAiEQAiEQAiEQAhs2ARiwNqwn39aHwIhEAIhEAIhEAIhEAIhEAIhEAIhEAJ9TyAGrL5/RKlgCIRACIRACIRACIRACIRACIRACIRACGzYBGLA2rCff1ofAiEQAiEQAiEQAiEQAiEQAiEQAiEQAn1PYKDva5gKhkAIhEAIhEAIhEAIhEAIhEAIhMDEJHDCP288+YqFp1675MJFS5cOrrqNA5M22nH6wL5zpx641YyDbzlz1TckRQhMFAKTBgdHMEQmSmvTjhAIgRAIgRAIgRAIgRAIgRAIgRDoBwJMV/POmX/ewqWjrswuMwbm7TYnZqxRA8yN44vAuDFg3fWlV1xw1bLh4e60+ZTTj91q+DS5GgIhEAIhEAIhEAIhEAIhEAIhEALrl8C8s6495oIFY1KHI3aaPW/PuWOSVTIJgX4mMG7egbVK6xXKI0nTzw8jdQuBEAiBEAiBEAiBEAiBEAiBEJjwBMbQeoUVQ5gMJzy0NDAExo0Ba6hHNXnSRrOnTZruHHA+IRACIRAC64/Aqaeeev7554+u/PPOO++3v/3t6O4td333u9+9+uqrR5iDeqrtCBMnWQiEwDgl0HNS6jnbLF++/D//+c84bWaqHQIhMB4JODk4vO/VPnOmHr3bnFtNm1JbR98VedgOs6dM2ugRW07feXr7ZdYylG1NP64DL33pS88999zShCOOOOKf//xnszlLliz5xz/+8e/Oh4B3440ThECzvQk3CbT7ffNa/4dZr7bfbPIBd5px/uVLf3H24ptG8sq71WyVd4R95zvf+dGPfuS+gw466AEPeEDJ4OSTT/72t79961vf+klPetI222wzVDKJFy9efMwxx+yzzz4PfOADW4Vffvnln//85420hz3sYQceeKCrl156qZi//e1ve+yxx7Of/ey5c2/mCNqzFLccf/zxf/3rX3faaadnPetZt7zlLb/yla/86U9/apZ1u9vd7olPfOJVV111yimnkOde+9rXzpgxQ4LXve51hLaaUh3U893vfvcTnvCEHXbYocRfcsklH/rQh575zGfuvPPOYk488cTvfe97W265peqVNJ/5zGdcuuc970ko/OQnP1lze/Ob3zx58uSPfOQjF110UYncf//973vf+9YEzUAXxU033fSJT3zi9NNPv/3tb6+s2bNni6l1QxWo3/zmN3e/+909go033lhuf/nLX774xS8KqL+7mvmveViJntTuu+8+wqxWN/0Is02yEOhbAl//+teNR7PiKGr4hz/8waxl/hnFveWW17/+9WbCzTbbbCQ5/PnPf/71r3+97777jiRx0oTAKAh861vfOuuss175yldOmrRig83y/ba3vW3PPfd8+MMf3jO36667zgJqFdt2222JBGUsLFu2jLChr95www33uMc9HvrQh86cueJNvZL98pe/fP7zn98zq4ULF37qU58644wzLFjW7jlz5jSTdVfbepXQbw0lJJA9Hv3oR5c6kH9+8pOflDS77rrr05/+9Jq+/wM9J6Wes81pp532whe+8Gc/+xlhY5XtakmA0vekOrpkPSW9VVYpCQqBrqDbFU2JjjY8msSKvNqMWcfhriTfrMAf//hHPVmaO93pTka0SaDnUK23FGGY8r/FFluUyK9+9atE8Ze//OV+EqSvvPJK8rmrd77zne9973vXG/s2QBfQhKVLl5obu3pEd6DVhnTREc7nzZtXEzznOc+p+k6NXGcB771qlfXDfbbYbubAJgOTNtt4hdHqqpuWXXjj0lOvWXzJlcvetOsmT9p+9tbTpyxcNnjKfxaddMWi195m009ftOC4S9pvzpLtBHgZFjnN4P3Sl740ZcoKFD/96U8vvvjivfbaS3i//fa73/3uR1l+xjOecdvb3lYMLdh3Db/hDW/QVcTkM1EJjG8PrK02mfzsA2a98jGzHrjX9NnT1soz+vGPf8xew4DymMc8hiRaRogJ8b3vfa9IZqA3velNbEA9k5UKfe5znzvhhBOYgVr1c5d7p0+ffuihh8qN8kZUfclLXrLLLru8+tWvXrBgwVFHHdW6pWcpn/3sZ3fcccfXvOY106ZNK+Ks4c3WZor/wQ9+4Fv4Lne5i6x+9atfEUNN9AoqORvervrc6173knjrrbcm+H7/+98nipUEKnn00Ue7dO21K1xSCbJURIuiNe9pT3tasXATBc4++2xXLa7/+te/Soa+i9T+wx/+kC2pRGpaydY3hiVP4S4KkZZYGbK1sVv5FtOs2xe+8AU5wIVbMVrJ7cUvfvH9V34EauZuHJMPJoobeVarm37kOSdlCIRACIRAnxM455xzvva1r/ku9RSggtaf3crTLa0aFnG7Qccee+z8+SsUGztATFE0zEc96lFsK0ceeWRZvq+44goaXTeTEvPhD3/YTnWRCt761rc2k/VcbWuCn//859wY1YTp6gUveIGNbZfOPPNMNp2yiO+999418QQLkGqINyOxXnUlwJ5UR52sp6Q3wWivveZ0Bd2uaGrPtUqqTMMeH2vO2qubZaX1AABAAElEQVTSSHLuSvL1LjLwxz72MRvAL3vZy3SqD37wgy71HKr1FvMDud2MUWKYbN7+9rf/4he/KD8ZAuxqm1Judatb0fNtxtcb+zNgInruc5/7iEc8gvFOQ1qzaHeg1Vb0REe9AqeqP7e4xS1q+nUc4CfVfWv728+d/8Izrr7fr6786RULv3TxDdv/6LJ7/+bKb165SN12nT21/N21GVMm7Tln48NvPXuLaZN3nDlwwGbTNp96sw4s2/HuhMW7inHq8Y9/vKH6/1Z+EPCzhDl5lIfFNYQXhY+dFTp1CT/vec9bx48yxa17AuPMA2vujEkzNp505fXLly5fcXLwWQ+a+fh7z7jg8mU//vOi61aM7rH/cLliAxoYWAHqwQ9+sC1N9l37AKbRO97xjnZTDzjggAsuuKBnMrdwbiQS9TQDu8v2LDmV4YnnFElXhqxdxZmIeYjJjKhaDM+lYT1LedWrXlWuPvaxjyUfs/Lc5ja3EVNO09z1rnetLgk2fknGdQ2Tpvo7vPOd77QLUW60tpUMffM+M4kUk7aflsynPOUpkvkIS2kqIWGX9Ndffz0TVcupwW6YfePtt9++5lkCsLAAFhezLoo73OEO7Gi2o7mVHXbYYexr9o5skpS62Z/8wAc+wANLNQjZnMue+tSnukS2Lm5uDG1Wbqtdq9BR/7zmmmugWLRoEe82og+DIO1CjIVQe9VWziQGxkExd7vb3XBopR910bkxBPqQgIFAnmYQN+pNjFtttVWtpNFn3jNtGp4iTTiGg7muGSmeUkHTKPNDGUE1B64ophdbbaZEU5b4yy67jJD6kIc8pNxoX664rJLLjXTirJSbbLJJzaEGSum///3vDWFzl6lGerqKjdyaRoz9ak0wmbecXmuaBEJgFAT4UjFGlIFgsNhqkgmd6pvf/KZRU3qs7R8n16wpejglllAhTenejk5YBMkb1kGROvnjHvc4K13Xm9vV5sdwsyZaMQ8++GDrY/NSd7WVbU2gVj5+7rbbbvzFDFLbWsajRa21stdbxiTw97//3Vj2cY4Ygfvc5z78y0RqqbbbprL4lgqwNXzjG98gC82aNeukk06yNaiqfk6dOtXtZTawhyfMV6UKP91KmgTsvWHOp8xkRe6yduNWnKyHmd9k1ZUARXbFuVEn6ynpdZuQmJ4EuoJuVzT9n5Uft+vhVhOSc8+s1mVkV5Iv5yTUgY5QjFbCtAm7wgI9h2qzwiYflil+lCKtgCYfg6ImIMcaID7WWVd7Kik18XoPqKQKc7pRE5MDWcKor7XqDjSJy9We6PQHc2/JrWayXgInX7GwW+68PebOcjjQJLzJVN93vsWK8yWLlg3u9+srvvavG7eaPmWbGVNuWjZ40cKlD9hqup/P2Xn283fZ5H3nzn/1zZ25ZD6unbDKgR4SIEHR7FpA2c4p4iI3hRJD4GSOFHaJrlpU5uJpURJM+O8ll5+w+F8fXXbjmVNm3m7j7Q6dus3BE77JpYE3M9n2eZtZrA6664yXHbTJ7W81MGf6pOc/eOYz9p952dXLP/CdG37+t8VLlw2ujfpzIyrWK5mbQwlzAowpZX4k9JhGbQ70TMb89Ja3vIW/kgN33brZa3Wv6dUlh26IlQLFeiXgquWnab0S2bMU8QqyDDN+kfbqmid+hB/156Lp2F0rvXhuUNzBqrLHclT8qqS0awFI8xarghi3MC3xT3aJrCmSsP6+972PPNpM3Az3ROHGsiemRRYbDay3kKeFizJQXH/FSFDP91EYmunrjaMOIFxcuqDQKFt2T37ykynVdmv55RGvkbFzThvXMQhDROFm+lGXmxtDoD8JvOMd72B2N+54ZwjUSprxDAcquoO9TLriydDM/a1IAqgEpgtmIxOX8VVzYBo2lBxickkpdp5dMuUWaUbYVElSETASeZc4aGyqZDs2Y9RMakDpBB0COhs6fdiugGT8Xsk3JQ37gl0ESqwB66BWvTGBEFhzAuxQlCvd28eJQv7B8rTo665MLSV/nZkByzLHhmUnyYCq5TJg0TCL9Uqkk4CsxlWUr8m6ARYZG9EGoLNy9L1mgp6rbTOBtczuFwuOZbdY0wxJLx+wslvKmzpw8641DNsaNE45Vlv0+X85ykdpMSQNWKutXbQ3vvGNGCoFk+OOOw4KQgVbnhqaK8wPzdnA7pd1ucw/Q1XMI3CIzCTz0Y9+tFgHCC3VW22o+a3k1pUAe1IddbKhJL2h2pL44QmY81uiaU3Pf9/GxjCGzppyHQT08GEkeauqrRpb3dV+3R2qzUrS842dCy+8UKQRUe8qaWx1G1+/+93vKP/liEbz3n4Lc7cxnA1Yxz54nlZRv9SzO9Ba9W+hg0UCr0YhXZAKWonX5c9Tr13SLe79513/npX/Ll+47O/XLynhY89b4ZC732bTtp42Zdng4Pyly3eeNfDOc+b/e9Gyg0658rSrb7qhowL3zLxbXH/GWB+9r6boztZEK2k5YGRiFzBMdOBac0d/fPx0RqqEe0qDNf1ECrBeLTz3xaxXGuVbWMxEauAwbRlPHlhTJm+049ZTHnXP6VvM3eiS/yw/5H4zr16w/AMn3fA96tJaePtVi5qVw9goe5WmvPpSic0337wYa0r6ZjIrDRGQjxJ//nL1y1/+svdhCVP5vDmrGrbk1ppGSYrcAaRs3sKHtluKGIkJXsqqOl5JNsJva5tdmpbnvKWRMM2Bs/lGG1ugpD2v2SIN8DCyG9wsgkWJtE2gtC9KP9R8iqIdYOYkAro31JBQCdZkU3dpL0lUnTVT81soSLFe9kGspOWayExGZckpxbETCRTbX/kWw5zE3awk4EZBQy7hMfn2pgD7XWxwZTebcG9B5c4tc0ZGEoBWExS8YpBTW3lwzfRjUodkEgJ9RYBpm+BL16VUEy6pgqrHc5u5SoAxyIRZIk0vrUjzgwFeRpCDDM128b2yZ8AV3MhyzIF2wbe0maCGOV+Yhcw29hUe+chH0khdUijfEwHie5kP6f9OSdAJvfaCmd4s5Kp5o5irmOkdo/AyhTKT1MwTCIE1J2CVd4Ke9daKpjPTk8tCZum0PvJ6sNXBhPqKV7xCWY7GEBU4X+u6eilhg622Wq9KZfRVVptVVuxBD3rQxz/+8eKx6A0GzfTEldZq27wq7J0jZTeLB1YZFByaLOUW609/+tM8pKqVp3XjGv60pJKOgGKh00yLqQy5rfnpcJ8wjCYchi1ChcnB8MeWs1LRzCmx3dmgVolpoPqb27EX71Sm1x4J2Ec0OxWxpKYX6Dm/lQRdCZC81KU66mS1Gk15skYmsLoEuqIp9z2ZlNdI9c8BuuEleauYrkvGNroLge5QbZKx2+oUgunFqSurKgN087VfLMIGtdnA9o88mzf2YZh6Ys6kRKibtb41K3YHWqsJLXQUBAx565hSqBikkZZFrHX72vt54aL/8wQvpTx8y+m7bfJfxXyTqcSWydvPnLLy0pQHLlkuUOxUy5ZvRCP22XTq5L8sWDp98qQbOwasbuYr8xkfX6Zl52xsJJTq8sAtFivfPiySJd6+BdtWeS2j4UxdLR7E4sdHO9e4lnyvWnmI2UCcsMaTAWvBTYPfOX3hbXcYuO/tjdaNFi8dPPbEBSeetmjRksHW8xvznwaP10mQMpmrZG45rPYUAuimm25aSmwmYyEmjbnF1qU9WEsFh1VTsE9JzC5TXnLhp9zkWeJ9e+uWDUlvWBdu3lISNEspMSZ0MpyFir2J+8/q7iZR5Oxzlqzqt+oRlFnfXLU8yJzPtZ8ENXZxfkYWxSqxlbuYt3yEHeUjHToZQdwsr68SaTW1fBI97Xv4qXX0TI4PnM7soHZRQMdOBJ0TiFaa+ipK9xbroQwpur5LjEdTje4eSnlSLq2ND7nBC1/RljnbHIueVhDrOYETqcU3D2WsjQokzxBY7wTKabsy23DFKraqOvmY0JzaK5XsRhrydWZoNYQFiqpJQRVfzl61/u5MTW8YmoiKV2yNNFe03g3kvfLFb5Q3SnmFbU0sQMmXngzEp5LeXt6Q3UyQcAisCQGGWkd+LFVWT346JSuH4vV/HVsftsCV1cqAsoJYPrgw2+LiG8L+ZfFtlm65YdxpxnTD1sQXvehFfCHpAO95z3sobxwNyoCSWCnd1baZiUXZVo1Nb0uwxLaFGJFLAjKAilm718YwURbrlYI0sM4YNFXTiMobnizUJArSUXkBs7cHkMqo9AQJ47fnbFDbJYfWtEAkK1eL6NV111IfCVrzW72lKwF2qfYUFEeYTEFdSa+Unu/VJdBTNJWJwUWI1atXN8O1lH54SZ6Eaf2yhexUhxGtDt2h2qoYl0/b3o4peItQPd5R0jBPW2eJylQGb/OwD1RGXyuHPvlJH3Ha1wsBjGLNp1+UdwuU6vUcaM2at9Cx2Zk6JJCPPkDHWV8GrGYlS/hOm069/1b/nZpmDUyeObDRg/735w1LB0+95qa9vdp90sDm0yb/5brF/LDcddWS5VJeu9K81c1wnMZ4RrXmxDzzfNH77Mdst912xDwbKhIwZlkXinrIECmmrJjCFr6awwQOFN+rZgO7Mc2rEym80oQ7ThrE5Pzni5e++5sLzrxoyaKlg/O+eP3XTlkX1is+8wQmglT1FLAeFEmUNYcbESkTwlYy44ppnzcjSwfDio0OAlaTtLvcKweRhKe6pWCaZnW2urRcosq9rVJqhsY22xCZbCTnC+pdAoRd52uqm5X8ibwEayqf+quM+ktGalRJkTaNbd2QaE0T5hGXHD+kjjbzJN2afRBoRpJKi+imqj7eWGETTECde6KQib1ojhgWKjotIaPWrciUReIs7m9ilFicSBUqUOrWrMAYhunMLIaOMPg49cBVTeb8UAgBXDmI+HaDx7C4ZBUCE4yA4VwVuVbTaBTl+K34ModQ7+mfVWOs6U0gQ2VS0zQDTj3bo2vGCFNTHSGkFZjo3vWud7Wu5mcIrCEB6xcfZztAZXen5GZ1s4ZyL6KYMb40i2AI9tdC+ETwDvDyOG9no2SWBHaV9dJV6lp8gY0LdltiPSHeK37KMaKSSc/VtlkBYecZvfSKK7Htt+alolTU3e/mpTEMF3NzK0OUqC7EG/NAOdjIPMc//fDDD3//+99Ph1nd2aDmX94Wulo7Xl0JsCfVUSdTt6EkvVrtBEZBoCWa+hNmTKKjyGft3UIkHkqSZ2AyoknFxPK6OTTUUC01NGBtr1rXSKc960zL4LFCiq629Z7J1nukUw6sex4fkxMrXvG2rrXqDrR6qQR6oiuX6D5dqaB1+9r7ueP0thPJvPOu98r28u8n/1745YtvqD+PvXDB/0wb2HblLVMnTxI4cve5f7x2hS/S7IFJzhK26tnNvJVgvPz0fK1oFFJGK25ZjI8+RQ3Ub21zWq18XLXqlXBZqsZLA9eknt571bq9G9NKMGF+jicDFujMzaefv/StX1lwxCfmrxvrFVmNJ7nBY7+USGFPTDW8VILVxiUblQwxbE/dZGzGxNDysadqt9BObLPflH0/nr3uZQQxL7vqRLrNEEIn4YzyVl76UO/qlmLmZeIp73vi8WQd6r4uvd7OVuVdEn4K1JyLrljmApfIykzXnPOd9fvf6r/EBMFGw6vIZFHM28Ru9jjbyG5h27KgqgkX5SILcvJXJVKmS1Iy0rnKl6r5Mg4TTfVc64mC4C43IrtzQI4JsBnVutFm7WY7gqEVvoWtT6YtYQcJVVLAz9rwMQmQj+EtugShx4aANlr+wfQRb3eIMKEyplHiRTP9mFQgmYTAhCFg6jCuywAv5m9aa/H6Nri8pJlx3+g2MZpIKYekTKPPuWCuXiILB+q9SCPRDONk0yrhyJlTJwXYdFTOD7qFiq4atrKp62aPVWaSBCGwWgQoXXY7bGxUl59ye1nCCAA8sMRY7/wdFauqbs9MY0klV9hn5tLLldsyrdOWt2XJquQgJSGhfMrKXuJpucZFeatm6dJMt8QDrw6xTvVcbZ2i4qTgdlsyDGdGoiWMs4PRp0pODpI9FMdZgzCwXv5oFwMTJZxbGfXecm/I02mtvMyCjH3aO9RsIHGZWAqc+m2TSRsJdV4W5hGM5ASxbcVy3KwrAfakOupkXUmvVjuBVRLQK5qCbk/RtGTi/LjFZZUZroMEKtmV5C1VxqyRawyy0hq8ur2/PEDCJDx3h2rPetpypqTUP9nWTGNcGAVGt02jPuHQrF4zzAxnOlJhBM4///zidj3MeBwenVMgBAz5l7cQrEcj5r5zV7ymvfvZbtqUPWYOzN148vKbny9auGzwtGtuErlk+aDXt+88e2De2dftOG3KZhtP/sOC9mnEoTLvFtfnMRZQCh0PEkpla3uD9Oi1FSZwH6+qYI0tYX/Joc8bNVbV89b2VlbdmFaCCfOzbf3t/4YtXT542j8WT540aXHnxO/aqDyzCxFTzoZQyd80SvTktWScmPe9RoHow+jTTTZ8fYizREaGZLKXDJ1kseiWv/1Zz7mwmhHXaj7dylDbeDZxD7ak8fOSfigDVhH1Slba4pRfeXEphVBk9fZiyZInC1EttBkw3TtWIEblvUi1yHykajKi/GVCxFQTCZjJZUXt1EYeW+rmUjlzVzKs7mwltxYKkST4crDZ6nL00UeLadbNK0I4EnOBJuIXvwllqVt5R5XXZ1SPtlLcmn/LkKDMrscQySPP63voGziwafKYs/w791F8VnUMtVJiM/2aVyA5hEBfEWhKEiVsHvCplRwmkvsJ1bpsC7Nle+mP8esdQJRnhvIjjzzy0EMPNWkYR+9973tlSH0th6lNL6YFLi0iKermDTqtg1cGnT23ZpVKNZpV4hppaqVVysQ3GVca0rBJuMyfXLHKXfkOgTEhUDqkraCaW+2ibEM6MImcz4WrDEPWC9tXur2fzgBa+CQmYFhfivhhpNBj68YPx+SyhyS9xci9pRROhVQ7qy1nLn7KRx11lKXTcCNgUP+6goe7GKeYcgSMPjt2ZBJh+oByDRP6s/ElRiVZ0wTG/KOldepohWtZZCECUllkme0IKkYuGQxAfljN2aBsB5YbOayRHyg2LIk1K0WgRFrQUpNP8aGuV0tAmhpTwgCSc0R2JUCRXRlm1MlGIU/Wqm7gga6gy9DTFU0LJe9OtVXcD8TI0l1JnsVKlzM2LW3ODhM+rVPGrzXRYOkO1VZDyoDysieDtw6umsaeurDhY9rxl8S7CWrKfggYquYxA4oxDqjy9rphxqNLPkOhs19FgyC6m2zNtObV9dXGA7eacfxlNzuqUmpy+I6zn7jDrIVLB9949goFrX4GJm904Q1LDzvj6jPmLz5q901PvHTRbrOmfnnvub+/ZvFlN7U9sGRebxy/AWuW8+w2eDSBtEbz4tBg2NozoJBySS4rQm0gW7BHz+mk9XKJmmCCBcrrrjbMv0I4SecYF49z86eOaG/8qs+su9PsVhci0RrO+7YUjLdqPxrdszBNs0ORa4cyPI0u2553qbDdYHuwTfGupiQ9mDiIhk0sYrwBpCk+1vTNQBeFaQicKq83E5ewnIv0Xy/ZuhQeyW5qvWW1Apw1PKzyNoGCotlYsj4szZY2069WQUkcAhOegNFqjNfZz8Ri7JTBZU4zmlqju+eU2zPlMOhMGrwjm1NldyAPc3suhcCYENDrDjnkEIanprVlqK7IsMv8aluoeQ5x+GoMlVW5y9WhBI9yY13mSnrKno/FbvhC1+pVnt3sd5zfq+zB6KYVzVrV2cCru5iBWK+IuFZhEktTJqkQaLDDCBjDN6c7HfWkOupkw5eeq6tFoKdoulo5rIPEw0vyBiC7bdP/sedQXQf1XF9FGOyKbgrYzZp0B1q9OhQ6BkEWsZpsvQT2+snl5y1sO0+teU12mTFwxv37wrtwTdrCzMq3g+O8dy6X/U4eJN4QzfHKi5vLdgIfw1KEZF4d4wiO10favPH3Cp09XJPSc2+fExg3Bqy7vvSKC65qG5hbcHfafMrpx27ViszPEAiBEAiBEAiBEOgTAo4FOV9PCncetmlLHaZ6jqjzJKKJUbq+9a1vDZNy4l1iZuJvxZWGL1s9QTl8M6sBa/hkuRoCIRAC65HACf+88clnXD3mFTh+r80OvuX/+ZyOef7JMATWO4FxY8Ba76RSgRAIgRAIgRAIgRBYQwLO7/O2cCq2/O3OkefGmYiLYnVaHPmN4zrlOeec44S+85L1TQ6rbI6jjl76u+G8yneVQJIgBEKgPwnMO+vaYy7471/qGJMaHrHT7Hl7rk9v2TFpRTIJgeEJxIA1PJ9cDYEQCIEQCIEQCIEQCIEQCIEQCIExJjCGNqxYr8b42SS7fiUQA1a/PpnUKwRCIARCIARCIARCIARCIARCYOIScJZw3jnz1+R9WN57NW+3OTk5OHH7SFp2MwIxYN0MR36EQAiEQAiEQAiEQAiEQAiEQAiEwDojwIx18hULT712yYWLli4dwZ9YG5i00Y7TB/adO9XfHIzpap09phTUDwRiwOqHp5A6hEAIhEAIhEAIhEAIhEAIhEAIhEAIhEAIDElg8pBXciEEQiAEQiAEQiAEQiAEQiAEQiAEQiAEQiAE+oBADFh98BBShRAIgRAIgRAIgRAIgRAIgRAIgRAIgRAIgaEJxIA1NJtcCYEQCIEQCIEQCIEQCIEQCIEQCIEQCIEQ6AMCMWD1wUNIFUIgBEIgBEIgBEIgBEIgBEIgBEIgBEIgBIYmEAPW0GxyJQRCIARCIARCIARCIARCIARCIARCIARCoA8IxIDVBw8hVQiBEAiBEAiBEAiBEAiBEAiBEAiBEAiBEBiaQAxYQ7PJlRAIgRAIgRAIgRAIgRAIgRAIgRAIgRAIgT4gMNAHdVhRhRtuuKFPapJqhEAIhEAIhEAIhEAIhEAIhEAIhEAIhEAIFAKzZs3qBxSTBgcH+6EeqUMIhEAIhEAIhEAIhEAIhEAIhEAIhEAIhEAI9CSQI4Q9sSQyBEIgBEIgBEIgBEIgBEIgBEIgBEIgBEKgXwjEgNUvTyL1CIEQCIEQCIEQCIEQCIEQCIEQCIEQCIEQ6EkgBqyeWBIZAiEQAiEQAiEQAiEQAiEQAiEQAiEQAiHQLwRiwOqXJ5F6hEAIhEAIhEAIhEAIhEAIhEAIhEAIhEAI9CQQA1ZPLIkMgRAIgRAIgRAIgRAIgRAIgRAIgRAIgRDoFwIxYPXLk0g9QiAEQiAEQiAEQiAEQiAEQiAEQiAEQiAEehKIAasnlkSGQAiEQAiEQAiEQAiEQAiEQAiEQAiEQAj0C4EYsPrlSaQeIRACIRACIRACIRACIRACIRACIRACIRACPQkM9IxNZAiEQAiEQAiEQAiEQAiEQAiEQAiEwNomcMI/bzz5ioWnXrvkwkVLlw6uurSBSRvtOH1g37lTD9xqxsG3nLnqG5IiBCYKgUmDgyMYIhOltWlHCIRACIRACIRACIRACIRACIRACPQDAaareefMP2/h0lFXZpcZA/N2mxMz1qgB5sbxRSAGrPH1vFLbEAiBEAiBEAiBEAiBEAiBEAiBcU9g3lnXHnPBgjFpxhE7zZ6359wxySqZhEA/Exg3RwjPP//8KVOmDI9y2bJlt771rYdPk6shEAIhEAIhEAIhEAIhEAIhEAIhsB4JjKH1SiuKISw2rPX4QFP0uiEwZd68eeumpDUsZf78+TvssMPcYT/SuL6GBeX2EOhJ4Lzzzjv33HNvectb9rw6fOSpp566ZMmSW9ziFsMny9UQCIEWgRGOu5tuuunGG2+cNm1a6/b8DIEQ2JAJWHwXL17cWnx7zirLly+/6qqrZs7Me2Q25P6StofAOiXg5ODLz75umCL3mTP1hTvMPmfB0vnL/vvCH++9utucqY/eZubp8xc/fMvpS5ZvdM3S5c0cfnPt4j1nDuwxZ2ozcpyGX/rSl3JM2XzzzdX/iCOO2HPPPefMmVPbQrG68MILfd9w888VV1xBGpw6dSIQqI1NoEVg3Hhgteq9zn56R9h3vvOdH/3oR0o86KCDHvCAB5SiTz755G9/+9vG1ZOe9KRtttmmZ7JLL730+OOP/+tf/7rTTjs961nP6to+SEunnHIKAeu1r33tjBkzeubcbOkIS/nKV77ypz/9qXnj7W53uyc+8YkjKY4e+O53v/sJT3gCc6FW/+QnPyn57Lrrrk9/+tOFTz/99K9+9atLly592MMedt/73lfMZz7zmZ133vme97yn9n7+85//29/+tsceezz72c9mTCQRnnTSSfIxv9z//vd/5CMfOXly7z98efnll7uXn51sDzzwQNmqySc+8QnF3f72t5fb7Nmzm3Ujkkr/m9/85u53v7tHsPHGG7vlL3/5yxe/+EUB9XeXwBh+/vCHP6C6zz77jCLPr3/96/e61710g1HcO/wt3/rWt6ZPn77//vtLdskll3zkIx95/vOfv+222w5/l6sk+E9+8pPNZPvuu+8//vGPl7zkJSVS9160aJEe/sc//lHvLZESKFGablfUk6VUeknpAR111FHlp+d48cUX6wCPe9zjhuoAzZok3P8EPFBiRM8NA4/eQN59991H0QpetF/+8pd/+tOfytmUdac73WmE467MFbq0bYy3ve1ttWjzxmte85r6U+C3v/2teaPVzx/zmMc00yQcAmtOwFR51llnvfKVr5w0aZLczJl6Jvn74Q9/eM/Mr7vuOh3YKmYCtw6WtcaIIGz8+te/Jp/f4x73eOhDH1osLJL98pe/rPNtK8OFCxd+6lOfOuOMMwzDZz7zmU2JX8rualtvZwW2hpJJDMBHP/rRpQ4m9m984xvusso/+clPXqUvfM2tHwIWX0JCyze/56xy2mmnvfCFL/zZz35m0lhlzVsSoPQ9qY4u2cgFp1XWcwNM0BV0W9LOm9/8ZkvAd7/73SYcketdOLngggssZARp4+4pT3lKVQrU0xjUk12yJhrRZRK4/vrrP/7xj5sKSOAiaSK1RUUYpvxvscUWJZLcftFFF7385S/3k5B/5ZVXaq+rd77zne9973vXG/s20FU9mlXtDrR6tYvO9Eh9IAlsvfXWhxxyyG1uc5uaeN0HvPeqVegP99liu5kDmwxM2mzjFaeOrrpp2YU3Lj31msWXXLnsTbtu8qTtZ289fcrCZYOn/GfRSVcseu1tNv30RQuOu6T95izZToCXYf35z382eL/0pS+VRYdkSPLca6+9YNlvv/3ud7/70Tef8Yxn3Pa2txVD1/Zdw294wxsso2LymagEelsTJmprR9GuH//4x9/73vcYUGg4JNEyQkyI733ve0VaYN70pjeRNnom++xnP7vjjjtSn1iCewqav/rVr1iIzLyE1FK3bs7NOo+wFMObrY116Qc/+IFv4bvc5S7yGUlxZvbvf//7RDHpzzzzTJKc23323ntvMf/+97+f+9znPuIRj7BYvv3tbz/nnHNEEgXOPvtsTaAT7rLLLq9+9asXLFjAeOGS9fKHP/yh+cVifNxxx5l9RJaPll577bUlDCCMDDGHHnoosMX6Zom1WjPtsVv5lrJZty984QtyUKLExWgltxe/+MWsJD4CNfP/ljdB//MI7D9oHFEGDSvxSKxX0tvQKE/WN/MfmB6xRb30cGrMscceS9eyj0HWr/BQpUr52e2KW221VTEflMTkJym33HJLHYby8LKXvUxXtw7VrBIY1wSYrQmUPZtg9qjmoZ4JholkgTX/mC1JHkSTYVK2Lj3+8Y9/4xvfKNIsYd570IMeVLp3se02EzOvd/t5M0HCITAmBEzOX/va18oqKUMBKmj92S2Cbmns6PzsRKZfplhpjAimKBrmox71KLaVI488skgLZuahBqC7PvzhD//zn/8sssdb3/rWZlk9V9ua4Oc///nVV1+tJlToF7zgBVZ8qzBNwK6SQU3nZ1+uiSdYgCZvx3Ek1quunNaT6qiTDSM4TTDma6M5XUFXH/7Xv/5VBR4GZRaf+pNp2ONb79ar//znP7QMQhdFwyYQc3aFQwb+2Mc+Zi0jR+lUH/zgB11SZ/ZWwvYrXvEKzdFnanoB84N10IxRImVIYv/FL35RfhLF7WqbUm51q1sZ3XYrS3zffvdUPWptuwOtXuqJ7gMf+ACBmTsPYYCASmao6ddxgPtV963tbz93/gvPuPp+v7ryp1cs/NLFN2z/o8vu/Zsrv3nlInXbdfbU8nfXZkyZtOecjQ+/9ewtpk3ecebAAZtN23zqzdR52cp8HTdnbIvj90B5JNoZqv9v5Uf+fpawZ1eKe+ADH0gc9eFjQZEs4ec973ljW5nk1ocE4oG1iofC5YoNaGBgBagHP/jBtjTZd21lsODc8Y53tNgccMABtk16JnvVq15Vcn/sYx9LcjVLNndUXLITS1Sti4qYbs5WppKJ7xGWUvYTiKFuuetd77rZZpuVHEZYXDUzWUHvdre7ccypFWD8Vh+WbzH3uc99+OPstttuJOyS4HOf+1zxhHra055mJSZn8zl63/veV666i4tQzYqkWLy0xABop5rIztLH2YfQf4c73IEeyyAih8MOO4z7kuWZU1ipm61sKxAtVEsJ2Tw1nvrUp7rEBGMukyGfLys3Q1stbkwCRBzWOoslfzS9QmO1kZmGscYWN/HCfk4piBnIJrZuQ5FuWpSISlzS3HvZZZfxYiuGRTY4LbKx9ve//53TkzTNIlo11y7FsRbpeNX/RTVe97rXkUhsj7M98RlUrkMT5Da7TJ67mv/ud7+zw8wNUC8io7tanuw111zD5kjJsX1n0kdVmFHVI9DVPfFWBcrPblfk9aalrF1aJ41yOQtQoggKHhCR8fDDDydvCffMMJHjiABvO9ZtHdgk4ymToXUY36YLJmzdTzfmB2qu0MMFjEqRrPmtnV62V0PVqLeTpmfS2A35E044gVTdpNEadwbLN7/5zYc85CFF1WQ9t+VuJ9mWcr1RTaoiaurQLcsoMNbUs9vPFeeSAWJn2zzPvOunVpQxQlXggaLPtw4iNSuZcAh0CZgS2frLisyCbwhIQ6fSgXWzTTbZxE8dmO5qpJj2bXoRKkQWN2SH1o0IUkHx3iVycGK10pVlTrKhPtZTa6IV8+CDD25Nud3VVrY1H7Xy8dPKzl/MCmJhsiKXlV1WLFytDOu9axKw9tGxfSwcCJAu+JeJ1FJt7zkYZ82aZTElVKiqsem0iNutj0yE9vCE1bwKP926tWYVDTQz4FZcR81aFnSPzPoFiAW3mUNXTnO1JcOgOupkZs6hBKdmNRLuSaAr6HqIFqamKPs/Kz9u18N5eZDPe2a1LiMtfGpeBleZMWrplshitBJja8eusMDvf/97whvrlas9/Z1NPixT/ChLYpOPQVHz1McMEB8ynqz63Felp+pR29IdaFpXrvZERxYth8tMHVzYOIwXt52a4ToLnHxFD9vZvD3mzpqywml3t01WnIC78y1WnC9ZtGxwv19f8bV/3bjV9CnbzJhy07LBixYufcBW0/18zs6zn7/LJu87d/6rb+7MJfNx7YRl7dNwOjKTtNlV2Md2Dt1EgJvCyogV6h5bbbnkORZfLQom98OSYMJ/L7n8hMX/+uiyG8+cMvN2G2936NRtDp7wTS4NvJnJdgNp82o1k+JdrFfuMocWCwWNqMyPhB4zoM2BnsncwrJggWTZIYe1rFc9q9HNuZlsrEqpeQ5fHH2SpsoTirRdVj42bxs7tmFZSWz/tlbNIuPK3DaytbMeNCAXysenWL5q6TUgPYxWGjG8dUjYAmQOIqYAbgR9GGv6sjdVlAEyungxEtT6WP6b6euNaxigpWs7WfajH/1okScI0CeeeCLdm5ur+ZSiqwiTKeVBt6Hh09troa5yTJOSXxLzVjVcMoH5SMY8yjBai+CzVu8tAboQMx/zWfWEKvHvf//7CWHsUHoIDZzryoc+9CGX3vWudxWMZCNbE+rpKdiWL/Us93J5oy2UR2NHTuX1Ctt9tj5Kgp7f3a4ohi2D1lHSY8Va0SyIxKgyxa2gZ56JHC8EaOCeo4erhzMn8RlhQjIlUgMM9uL86FJ5+u94xzte9KIXmTHKWwxqG2mndsxooQYvWzZbGF3U0DBv6DzFE7Akbo07E4UZyQgqVw1G+r/+3xxr6kO49zFxscwSenRsdeBFYjLp9nMD2SU2L5M8iV+Gdv+4dJnAlcKOYDC2zmHVhiQQAkMRYIeiXOlFPk4U8g6WUgfWpatzhM6pv1nm2LDe+c53Mg3X3HQ8GmaxXoks2yRVlK/JugG7CDaiLdZMt6b3ZoKeq20zgRFtMLLgGCnFmlZXdquqlb2ZeKzC1j4LKMdqiz7/L1sdlBYziZ0wOzo9ByMTD1ueGpoKrFlmG1svTmCpod0vbiyaP0z1WrOKlCzg1VvNrGUvzdTkcdQT9DW3ruDUk+qok5WCVik41fokMDwBgoeJnShrf85Tbibmv+98wDCGzmbitRrW0/gAktDMDGUNbRVn2WWcZU0u9muTA5OcXWRLW3NvuN5Fzzd2ioe+EdGyettQV4p9TbeXndR6Yx8Ghlc9ugOt1YQWuvpqJGKMvlFPWbbuWgc/T712SbeU9593/XtW/rt84bK/X7+khI89b4VD7n6bTdt62pRlg4Pzly7fedbAO8+Z/+9Fyw465crTrr7phv99Q1bNsGfm9WqfB4wCuhWBUD0NDStpOcZkYhewEjX95vhX+khJbixhj7XPGzhW1WO9Wnjui1mvZOhbWMxYZd7n+cQDa6QPyMphbJS9SqpXVWZoZc0VsZlM1hQtIhFBsNiSud8fc8wx4olEPFe7ZXdz7nnL8KV0sx0qpltcM6VtTMf6VP7Tn/60fVENoeDZAX79618vmRdaVcG6eZewVvMPqpHFJcebqmyCUSnJpi4p2gIscynBLPOUeGGXSLGsIYxE7jKRmYysxDVD2qlwMXiVbzF8mriblTRck6zrNf1YBVhkvChBbsxtLE0aopK8W8U4cCGsJzBvHX300Z4yp5JWuTQKigFDEltP61L92SqC5u/4JLuVBKxUTKV8TORcWl3uKicoIWK3Kv2TJuDpMLZa11WGKeEtb3lLcVjjt8JWRbIvr0sgLdlR511SssKNKUGhnmw5Z14rNlSg2RVtlXCIYyDjeGWBkYOW6kI6PwmJniYTRoQ6dobKM/F9TsCI1usoxmRiFiIiMm98Q6CMeg4L7JhNNw1jxLxBh68j1KaZnU+CCAVVY9msadpsvkYQX0Lv+jH23WL4u9oaFMadnWq70EongjMEO1clwyY0TqDlJ4MvE4BTErRiA4RnYunYzX5OY2c4MEa8K8ddJhNGB8eZhbl+6Lp0aZ4s1SJfcs53CKySgGnW2xj1IisaD1l6clnI9G2KKK8HRgrTOzcKWTnj4+ifrkvzNIebzI2L1iJr/me1WWW5+rnxZbaX0u5FM70h1lptm1eFbbFwpxXggdVcaNScDc7wbKUfq590VOsmUCx0mmlKkTMfKD8p9sKtwUhpx5bvVdHMLXZM2CzRFj7LH/tUs2ImHxNUiSlzRXdWaaYXtiFk7FuyuWJZMZtOWF3ByRzSpTrqZKUmTcGpVbf8XC0CNjutAmydugfXDEPPxokcSCMWsj45QEfxtk5Z8swJpgICW8us5qquqyFGt8qTBklubKymCEKX8V7Ev0qG4OcUgunFqStiHvudzdF61fYM2cxswOArzxrfn4HhVY/uQGu1ooWuXsXTbnc9OVHj11ngwkXtd1d5Kftum/xXMd9kKgl68vYzp6ysz5QHels7I8Xgil/Llm80ZaX/yaZTJ/9lwdLpkyfd2DFgdTNfmc/4+KJkOWdjI6FUlzt8sVj59mGRLPH2Ldi2yguaDWcOEMWDuOyejo+mrlkt+V61MhCzgThhxYDVevS9fxo8VghSZnEisBxWe4rFZtNNNy23tZKJJEiRriwh/Fm4JxBbfXqXsTK2mzNVrXXLKktpLXurVVwzsY2p8pPvDIsbydURG8ccaIzcr/hnEgHZLJq3CHtlmN3Upphrg5SsyXDDEMbuU5yDJOCmxJnI7q4E1TEHWBDkg7ZNYJokbZZfaHOTpFhALM/Fy0liMR5NNbp7KC13D2nW/GO9L5mUGhJqlaKGhIMSrwLmTd9dgYA8jR77Tt3N7lmfbhFEmZqSiI+8+dpRQTpGfZGngyecwEn/AtRsB53o51T397znPYpjTpID+2PVwG0X06yg5hHGQNY8GMWgwP2qvHTMXbaq9LdaAdaKpkrT6orFA46ZwKEY/ba0VG40KDZNOXM0G3nnrIUm0M8EPGVdy3FpyqRZriVDl5oXu5Xu13xrj101cqfpQhqKOqXdbCDM14k3ilvkWQxY3UFBtSPZGGgssOxozQ5cSqST1COEYiii8qcS2G0uCZr9nO1bVuwL5ZKTyOz1amuUGbbuVcnx8ud6SxPy3T8EbGwwtlqqvLnDxFsq5lC8OdbMzFpkgSurlf0Dfd4g0lEtuFRrs7Qx0mwLX616TrYZ3wxbGW1CMMjSASwBlDeTcJ38ldJdbZu3G4YM0IanJVjianTmq2sQFSNvM/1YhZXFeiU3DazLBOXcplfPwVg2S6igBAlrIpKcQIfSRVuTj1K6s0qrIeojptSEmaBpwOrKaVJ2qa5JMhm2BKdW9fJz5AR4KvlIb24ntZJPzOp+GlzMjuTbkWe19lKSrIjcLNeK8G2tZDltFmedtQ3D45jsbURLr8OzMjNyEAUtUt3Fl8unnXLHFOwhtSRPNzLpEpUpJsRFpr0y+pol9k/YNvYwqkfPgdasfAtduWTjTTyDZjPleg/fadOp99/qv4rGrIHJMwc2etD//rxh6eCp19y0t1e7TxrYfNrkv1y3mB+WCl+1ZLmU1640b633+o9VBZquvvq5eb7ofbSJ7bbbjkrI+0FZjFmEtKIelkdZVkxhC99YVaaf8ym+V80admOaVydSeKUJdyI1aC20hdJOeyFIOXhSsrceFEnUths3ouLM0k1WEht1du9JSyPx/O+Zc7NNY1JKzbBbnPyJvMXkUZOVqYTNm/rHJGexJARYSssmpzdzk7RKYmsMxdLS2NQeye7o2QUq2iMgPiwjNsEEkAEQRjBlwioksYBS7EUze7GR8X0jZNS6FZlSSsnsIPkWo5LFidRPAXOcwFr62JWVM63DGT3CEGLkiVKWFglUWbZWgPWKRYlyzpVdJFmhaRiqyWqgFlFjBIjUMiHByE3R5RKhx9ai96y5hRQiEigGI0a0sldfcOnDzlz4EAXKn2iUD4uYHexmESVx3Uy2MDicVXcz7HI7h1jSd7uiRrFbUf6ZOMvusZTS06asJawSnlFLimoWnfA4JUDO1vE4BtK69ZARtkLHIDeXPsnexCBLRSSUlB6iBxra/CaaudVBISVFWk8j1pQNt2aybtiEphsTg9xSrjb7edFU65gVKFM6rZi0ZN5m6i1nqbo5JyYEhidg/XJ+xyZWUaFLYqubeZt7kdlYN2vmoG87zWr25nDEZ9kbDymZJYF52MxfT8o372qGKWb6sAFi9jbx6vnlGFFJ03O1bd4ubK72FjkOlQzE5RKbmlXe8Q3acivxmP/sWUR3MDLP8U/3Ohu+yUQR4kQdwqtVpTqrjPyuruDUk+qok5WatASnkVcvKYciYNwRQii9JYHNtmLJGir9uozXW3xKiSpZumWzAuQrI5pUTMxm1SUSGwJlsOh+TNvNxDUf6yxZsWULqykJ6hZQS221rddLfRXoqXrUGuLW1cjqVYEWOjH816gwXoq/yum0mc+Yh3ec3nYimXfe9V7ZXv795N8Lv3zxDfXnsRcu+J9pA9uuvGXq5EkCR+4+94/XrvBFmj0wyVnCVvW6mbcSjJefnq+53XYm+ZBbFm8SnyLCee586KxWPq5a9UrYCBovrVvDenrvVSuHbkwrwYT5GQPWKh4lqw1PcoPHfimNvRgd7Pmz2rhko5IhhsGlm4w3I+NLeRMTG4cVYvvtt28VZqfUyx1EChRVrZtz85bRlVJzGElxZGWmaw5T9jM5TClRxWzRmCO4OVgL7QsRoxmbvPiw7Hba+bGgKsVxehopidmySkRwI49lXv24KRqr6uMgsYmmeq7ZPxHDj0lx3oLBOuYnwd0SriwH0BhZlFXrZjfVbjY/cEX4FrY+mbaEOVOY0QT8lMnYfijn5AbNcRjQtrkdMJQIQERnbS9lCYvxJg5t0QcoISXebrZ22TTmUaVRePKZ4vfhqGPz3T2K0OpmEc0mUCdctUNOtdDScqnsJKsM7YKXuL6qc0JKaqEg0dgJbbbaeIpRS1TPCSkAaTV0EqYlXdrDKs+rWVYJK8uqIKWOyvSm4R6cS92uWNLrwOB71X2VC3ldaQ4TAHtZ9enrFpSY8UXAbFC0YqOSvVLXMgx1FQNEHzPdiR++RZxQdBVDmAytT9LWuH/T3suBDtOFTqujyqQ77kRybHGAwqRROmSrrNqrdWyTFau6oWcOF1BWK3EZIOY9ndyMbQoqtgYWanI/TxY7EGaY1l35GQIjIaB38cJm3q0uP+WusoTpwJYSMda75zznORYUI4LN1JJKrrDPbLOBa62jslaT8rasejhdypUz94qvIkiUnGm5BiCvRj/LMmG0EkKc2DUqe662Bh1nBOkZlK1ZVigD2VrP5ivStG908MAyzJXlailoXX63BqNBTaclVxiqjH3ay9jnm0XbpWqnVkMjt2eFe84qw7fIzlyZnbpyWk+qo042jOA0fA1zFYGWoGvgkIuKPchhcDN83Y1gxSh7Ff3AjYmW3GiEEuFMCzYXSU3GrJFrWmCldUnfJlxZZwnPFlCyt3c46N7s40O988E5ZUqK3LptdKNRQM63XdQ/HLr1FNNT9RhmPA6Pjo5AVeGe5oilCY2A2rPQdRC579ypPUvZbtqUPWYOzN148vIV2/r/91m4bPC0a24SuWT5oNe37zx7YN7Z1+04bcpmG0/+w4L2acShMv+/7MZJyAJKoeNBYuS2tjdsq/ibPNZQH28vZY0tYVvp46Rxa1pNb21vZdGNaSWYMD/b1t8J07Cxakg9IFbesyBbUh3Rk/XBODHveykS2wHxzpLjak1GhOIJz3HXYsNOQXdqGbCK7FXq6S6+zV770s252ZBuZVZZSr19hMVpizzpjeRXq6Y2yoG1hQwt4L02Dp2ppBVR68oLoUjVZEQCdPnDpbY1SqGabE2Vppy+YdEo6cvV6s7mJ8me9MymTgCVeXlzBwm+HGx2oxc5ScbiXuomzMWaHzUVl4hffJFov4xE5c07Xp9R3LhKWWPybd7kqSF/lXSSwktzZMutTLUJ/YxTTP5lblVbtqSCThP4deND9Jfe7Xw6nCghdjPJUUWwZY2qk7KuYp+hWUSz8oyGiis9iitW85IwcZmYYoOCYu/1h3zBPALw2R8p4cJwuZe4r/KMXG4pbyAq+Tja2bX6MUbQ+b31jPYiGT8vD0ig2xWNC/FslGwH+jO1zU+SAYnf35EUdhJ2w1lUtHdif9iP+D6wbDLT+y7e2vq88ajh+hgXPGnK2K/du8mk9HO2abOobsY50YgwD3A/0dnoqxwbpe857sSzWxkLiig9rZmzcNOrpWwk6HtmLfKN6aLo6s1bTE0GSPlTBrprsaFLwHRlWiuta6ZPOARGQqD0fF26Jq5jgW2IpYlEXpx2LQRGDbXKEiCxrQULn8R6phm4yBX6PD22bvxwTKbElpwZv9xbwtYpqp2jiMzB/JQt2ZZOlixrNAW452rLFla0OKuVHTsLkKzoA8plWVOon3WxsHawFpWyxupbS6uNuBWuRTQHI7WTMGAGMHsAaC4C07i20jmGWceve3lYWJEN/OZEoYjual4LKgFpakwJA0iOEmkRbEmAIrsyzKiTqfNQglOtUgI9CXQFXeKZPRJbEYQftxCQiu+GsM0Mu60981n3kVw1jTXrpnpaHAnPLFa6nLFJtuRgVS4Zv9ZHg0WHN8yJlNJ7SRzZrFXnMqC8MMu6XAdXTWNHR9jwMe34S+LdBDVlPwQ0s6t6DDMeXfIZCp0JgR3T1riP1ukbXZFg3bT6wK1mHH/Zf/0BmyUevuPsJ+4wa+HSwTeefV0zfmDyRhfesPSwM64+Y/7io3bf9MRLF+02a+qX9577+2sWX3ZT2wNL5s17x2nYmuU8u6Gh/jQgTnOERsPWngFPCy7JLfGMwdqjZwUuDhbjtNUjr3Z53dWG+VcIJ+kcIye1HlPaKKjutUNVYyRphrp3FPFWFyLR8PO+CdTbE0icxZVghKWMJOdmVqMrpeYwTHGMET7liE1Nb4IQboqD9VLPAImc/Nc8VNgzme0gOTeTmYbEVHm9e5dJqkj/9RLPIGFmuBoztgGV1JxmlUjSBlGXBqoU5uFr0qq/d35xjPJyTUW0mNdWqIDdeFeH73g1fTOwug+u3lsKZWUYvjk1fSsw6nJb+eRnXxHQ8w230lFteBrjzVFgx9tYXuWJUWqz7tHs7UaTObMZo9XdcddC4TCRV++toRhqzDI0N+dqO/a0dxp7U5ttFZ2fITAKArr0IYccwvDUtLYMNb3zinI+l+7dPIc4fKFDZVXuctW4a662Nbdy40gGb71l3QS6g7E7e5CFzEWkAq/usq3IEmQ+MRfxQeuumFraWs1XqyFdwakn1VEnG6HgtFp13mATM2wRt0YnOK1LaFZVa03LW7NUgCjuqp7crE/t8M3IiRoeXpLsDrTKoSe6enX9Bvb6yeXnLWw7T615lXaZMXDG/bdZ83zWbw7MrBwaaEZ8BcoxWDvlJD2OVzZUynYCH8NSScm8OoZ7nddH2rzhRrBKo8H6bV1KX0MC48aAxfLa1Ct6NttUzg2n56VEhkD/EzD/UlTWUAnv/2amhiEwtgSsDnR7XiEOXIxVzrRHLh5277nP1ENbY5V58tnACTgW5PgPKdx51VUKNoWVg7ocB2hiHC78NcANCuAoBmM1YG1QoNLYEAiB8UXghH/e+OQzVrxUd2w/x++12cG3XHEMIp8QmKgExs0RwlimJmoXTLsqAdsF3V3iejWBEAiBLgH7Fk4FOk/R+mut3ZSrFePIlfdwOaoc69VqcUvikRDwdkIvfePcN0LrlTw5avlwJlqlV+NIKjC+0oxiMJoNWt7Z46vJqW0IhMCGQICZ6Yj5i4+5YBXvDF0tFEfsNDvWq9UilsTjkcC48cAaj3BT5xAIgRAIgRAIgRAIgRAIgRAIgRDoEph31rVjZcNivZq359xuEYkJgQlGIAasCfZA05wQCIEQCIEQCIEQCIEQCIEQCIFxQMBZwnnnzF+T92F579W83ebE92ocPOxUcSwIxIA1FhSTRwiEQAiEQAiEQAiEQAiEQAiEQAisPgFmrJOvWHjqtUsuXLR06Qj+xNrApI12nD6w79yp/uZgTFerzzt3jGMCMWCN44eXqodACIRACIRACIRACIRACIRACIRACITAhkBg8obQyLQxBEIgBEIgBEIgBEIgBEIgBEIgBEIgBEJg/BKIAWv8PrvUPARCIARCIARCIARCIARCIARCIARCIAQ2CAIxYG0QjzmNDIEQCIEQCIEQCIEQCIEQCIEQCIEQCIHxSyAGrPH77FLzEAiBEAiBEAiBEAiBEAiBEAiBEAiBENggCMSAtUE85jQyBEIgBEIgBEIgBEIgBEIgBEIgBEIgBMYvgRiwxu+zS81DIARCIARCIARCIARCIARCIARCIARCYIMgEAPWBvGY08gQCIEQCIEQCIEQCIEQCIEQCIEQCIEQGL8EBvqk6pdeemmf1CTVCIEQCIEQCIEQCIEQCIEQCIEQCIEQCIEQKAS23XbbfkAxaXBwsB/qkTqEQAiEQAiEQAiEQAiEQAiEQAiEQAiEQAiEQE8COULYE0siQyAEQiAEQiAEQiAEQiAEQiAEQiAEQiAE+oVADFj98iRSjxAIgRAIgRAIgRAIgRAIgRAIgRAIgRAIgZ4EYsDqiSWRIRACIRACIRACIRACIRACIRACle/diQAAAuNJREFUIRACIRAC/UIgBqx+eRKpRwiEQAiEQAiEQAiEQAiEQAiEQAiEQAiEQE8CMWD1xJLIEAiBEAiBEAiBEAiBEAiBEAiBEAiBEAiBfiEQA1a/PInUIwRCIARCIARCIARCIARCIARCIARCIARCoCeBGLB6YklkCIRACIRACIRACIRACIRACIRACIRACIRAvxCIAatfnkTqEQIhEAIhEAIhEAIhEAIhEAIhEAIhEAIh0JNADFg9sSQyBEIgBEIgBEIgBEIgBEIgBEIgBEIgBEKgXwjEgNUvTyL1CIEQCIEQCIEQCIEQCIEQCIEQCIEQCIEQ6EkgBqyeWBIZAiEQAiEQAiEQAiEQAiEQAiEQAiEQAiHQLwRiwOqXJ5F6hEAIhEAIhEAIhEAIhEAIhEAIhEAIhEAI9CQQA1ZPLIkMgRAIgRAIgRAIgRAIgRAIgRAIgRAIgRDoFwIxYPXLk0g9QiAEQiAEQiAEQiAEQiAEQiAEQiAEQiAEehKIAasnlkSGQAiEQAiEQAiEQAiEQAiEQAiEQAiEQAj0C4EYsPrlSaQeIRACIRACIRACIRACIRACIRACIRACIRACPQnEgNUTSyJDIARCIARCIARCIARCIARCIARCIARCIAT6hUAMWP3yJFKPEAiBEAiBEAiBEAiBEAiBEAiBEAiBEAiBngRiwOqJJZEhEAIhEAIhEAIhEAIhEAIhEAIhEAIhEAL9QiAGrH55EqlHCIRACIRACIRACIRACIRACIRACIRACIRATwIxYPXEksgQCIEQCIEQCIEQCIEQCIEQCIEQCIEQCIF+IRADVr88idQjBEIgBEIgBEIgBEIgBEIgBEIgBEIgBEKgJ4EYsHpiSWQIhEAIhEAIhEAIhEAIhEAIhEAIhEAIhEC/EIgBq1+eROoRAiEQAiEQAiEQAiEQAiEQAiEQAiEQAiHQk0AMWD2xJDIEQiAEQiAEQiAEQiAEQiAEQiAEQiAEQqBfCPx/nYf5VD0y/ucAAAAASUVORK5CYII=;imageBorder=default;" vertex="1" parent="1">
          <mxGeometry y="560" width="1600" height="237" as="geometry" />
        </mxCell>
        <mxCell id="QN9bb88zZrYBiZYA_DO9-5" value="❷" style="text;whiteSpace=wrap;html=1;fontFamily=Noto Sans KR;fontSize=24;fillColor=none;labelBackgroundColor=none;fontColor=default;" vertex="1" parent="1">
          <mxGeometry x="210" y="20" width="30" height="40" as="geometry" />
        </mxCell>
        <mxCell id="QN9bb88zZrYBiZYA_DO9-6" value="❷" style="text;whiteSpace=wrap;html=1;fontFamily=Noto Sans KR;fontSize=24;fillColor=none;labelBackgroundColor=none;fontColor=default;" vertex="1" parent="1">
          <mxGeometry x="310" y="300" width="30" height="40" as="geometry" />
        </mxCell>
        <mxCell id="QN9bb88zZrYBiZYA_DO9-7" value="❷" style="text;whiteSpace=wrap;html=1;fontFamily=Noto Sans KR;fontSize=24;fillColor=none;labelBackgroundColor=none;fontColor=default;" vertex="1" parent="1">
          <mxGeometry x="310" y="580" width="30" height="40" as="geometry" />
        </mxCell>
      </root>
    </mxGraphModel>
  </diagram>
</mxfile>
